<svg width="84" height="78" viewBox="0 0 84 78" fill="none" xmlns="http://www.w3.org/2000/svg">
<path d="M43.5589 7.239C43.5589 7.90893 43.4473 8.59809 43.224 9.307C43.0016 10.0149 42.7158 10.7147 42.3665 11.4074C42.0168 12.1001 41.635 12.7817 41.2215 13.4511C40.8088 14.121 40.4113 14.757 40.0291 15.3591C39.6477 15.9601 39.3111 16.5151 39.0193 17.024C38.7271 17.5344 38.5305 17.98 38.429 18.3608C38.6193 18.2079 38.7944 18.0292 38.9533 17.8241C39.1123 17.6185 39.2679 17.421 39.4202 17.2306C39.5724 17.0402 39.7339 16.8686 39.9056 16.7161C40.0781 16.5652 40.2785 16.4584 40.5077 16.3961C40.52 16.4731 40.5356 16.5577 40.5551 16.6493C40.5741 16.7394 40.5838 16.8225 40.5838 16.8984C40.5838 17.1425 40.4912 17.4281 40.3064 17.7552C40.1225 18.0833 39.9031 18.3993 39.6485 18.7031C39.3948 19.008 39.1246 19.2667 38.8383 19.4789C38.5517 19.6921 38.3072 19.7989 38.1043 19.7989C37.9766 19.7989 37.8396 19.7609 37.6933 19.6855C37.5478 19.6095 37.4079 19.5103 37.2738 19.3877C37.1406 19.2662 37.0294 19.129 36.9406 18.9766C36.8514 18.8252 36.807 18.6657 36.807 18.4986C36.807 18.4378 36.9406 18.1522 37.2079 17.6418C37.4751 17.1314 37.8053 16.4883 38.199 15.7115C38.5935 14.9353 39.0227 14.0749 39.4861 13.1311C39.9504 12.1872 40.3796 11.2514 40.7733 10.3238C41.1678 9.39511 41.4989 8.52315 41.7661 7.70891C42.0333 6.89366 42.1669 6.23437 42.1669 5.73206C42.1669 5.57964 42.0963 5.4885 41.9555 5.45862C41.6249 5.67231 41.2693 5.97309 40.8883 6.36198C40.5069 6.74986 40.1162 7.1985 39.7162 7.70891C39.3157 8.21832 38.9149 8.75405 38.5136 9.31713C38.1132 9.88021 37.7254 10.4402 37.3499 10.9962C36.9753 11.5512 36.626 12.0768 36.3013 12.572C35.9774 13.0663 35.6882 13.4891 35.4336 13.84C35.3579 13.84 35.2721 13.7909 35.1765 13.6921C35.0818 13.5924 34.9896 13.4774 34.9008 13.3478C34.8116 13.2182 34.7385 13.0896 34.681 12.9609C34.6235 12.8313 34.5947 12.7209 34.5947 12.6288C34.5947 12.5371 34.6611 12.3391 34.7943 12.0353C34.9283 11.7305 35.097 11.3608 35.3 10.9274C35.5038 10.4939 35.7203 10.026 35.9495 9.52373C36.1782 9.02141 36.3943 8.53479 36.5973 8.06337C36.8011 7.59093 36.9698 7.16102 37.103 6.77315C37.2358 6.38426 37.3026 6.08348 37.3026 5.86979V5.66319C36.6417 6.1969 35.9486 6.87442 35.2239 7.69676C34.5 8.5191 33.7879 9.39106 33.0877 10.3116C32.3883 11.2327 31.7245 12.1619 31.0953 13.0987C30.4661 14.0344 29.9164 14.8907 29.4462 15.667C29.4077 15.7429 29.3405 15.8492 29.2449 15.987C29.1502 16.1237 29.0487 16.268 28.9405 16.4204C28.8322 16.5718 28.7274 16.7004 28.6259 16.8073C28.5244 16.9136 28.4352 16.9673 28.3586 16.9673C28.2829 16.9673 28.2005 16.9212 28.1117 16.8296C28.0225 16.7389 27.9362 16.6331 27.8529 16.5116C27.7705 16.39 27.7007 16.2645 27.6432 16.1348C27.5865 16.0052 27.5586 15.9029 27.5586 15.827C27.5586 15.7044 27.6757 15.3728 27.9104 14.8325C28.1459 14.2927 28.4386 13.6192 28.7882 12.8131C29.1375 12.0059 29.516 11.1147 29.9231 10.1395C30.3299 9.16471 30.7084 8.18641 31.0581 7.20457C31.4073 6.22323 31.6995 5.28342 31.9342 4.38513C32.1697 3.48734 32.2877 2.71108 32.2877 2.05584C32.2877 1.87254 32.2648 1.6705 32.22 1.45023C32.176 1.22895 32.0526 1.11806 31.8496 1.11806C31.5562 1.11806 31.2602 1.21021 30.9616 1.39352C30.6627 1.57581 30.3769 1.80418 30.1041 2.07812C29.831 2.35258 29.5705 2.64931 29.3227 2.96933C29.0745 3.28935 28.8517 3.58659 28.6546 3.86053C28.4572 4.13346 28.2948 4.36183 28.1675 4.54514C28.0411 4.72743 27.9527 4.81858 27.902 4.81858C27.7497 4.81858 27.5844 4.73908 27.4064 4.57957C27.228 4.41905 27.1392 4.2322 27.1392 4.01852C27.1392 3.63925 27.2948 3.2134 27.606 2.74045C27.9172 2.26801 28.2918 1.83051 28.7307 1.42795C29.1692 1.02438 29.6272 0.685619 30.1041 0.411169C30.5811 0.137225 30.9786 0 31.2965 0C31.6145 0 31.9097 0.0764613 32.1828 0.228877C32.4555 0.380281 32.6936 0.582321 32.8966 0.834491C33.1004 1.08565 33.2594 1.37883 33.3735 1.71354C33.4885 2.04876 33.5461 2.39815 33.5461 2.76273C33.5461 3.46354 33.4315 4.24436 33.2027 5.10417C32.9735 5.96448 32.697 6.83999 32.3722 7.73119C32.0483 8.62138 31.7084 9.48119 31.3524 10.3116C30.9972 11.1411 30.6986 11.8753 30.4576 12.5153L30.3815 12.7422C30.4695 12.6976 30.6183 12.5457 30.828 12.2865C31.0386 12.0272 31.2868 11.7082 31.5722 11.3284C31.8585 10.9476 32.1731 10.5213 32.516 10.0483C32.8598 9.57588 33.2129 9.09635 33.5748 8.61024C33.9368 8.12312 34.2987 7.65119 34.6607 7.19444C35.0235 6.73669 35.3702 6.32907 35.7009 5.97106C36.0311 5.61357 36.3326 5.32849 36.6057 5.11632C36.8797 4.90314 37.1055 4.7963 37.284 4.7963C37.462 4.7963 37.6142 4.84997 37.7406 4.95631C37.8679 5.06315 37.9728 5.20038 38.0552 5.36748C38.1385 5.53508 38.1994 5.71788 38.2379 5.91638C38.276 6.11386 38.2954 6.30324 38.2954 6.48553C38.2954 6.83543 38.2506 7.17419 38.1618 7.50231C38.0726 7.82943 37.9677 8.14945 37.8472 8.46238C37.7263 8.77431 37.596 9.08319 37.4565 9.38802C37.3165 9.69184 37.1952 10.0033 37.0928 10.3218C37.1952 10.1709 37.3702 9.93186 37.6172 9.60475C37.865 9.27662 38.1449 8.91102 38.4561 8.50694C38.7681 8.10337 39.1022 7.68866 39.4574 7.26331C39.8134 6.83695 40.1568 6.44857 40.4874 6.09867C40.8177 5.74776 41.1191 5.45812 41.3923 5.22975C41.6663 5.00188 41.8798 4.88744 42.0333 4.88744C42.2236 4.88744 42.4109 4.9715 42.5949 5.1386C42.7796 5.30621 42.942 5.5123 43.082 5.75637C43.2215 5.99942 43.3361 6.25817 43.4253 6.53212C43.5141 6.80657 43.5589 7.04203 43.5589 7.239Z" fill="#C77C77"/>
<path d="M45.0447 15.5515C45.1212 15.5221 45.2768 15.4193 45.5115 15.2436C45.747 15.0684 46.024 14.8547 46.3419 14.6036C46.6599 14.3524 46.9965 14.0825 47.3517 13.7934C47.7077 13.5048 48.0384 13.242 48.3428 13.0055C48.6481 12.7695 48.906 12.5715 49.1158 12.412C49.3255 12.253 49.4494 12.173 49.4879 12.173C49.5521 12.173 49.6097 12.1659 49.6604 12.1507C49.7111 12.1345 49.7488 12.1568 49.7737 12.2176C49.7488 12.2935 49.6063 12.4606 49.3458 12.7199C49.0853 12.9792 48.7674 13.2804 48.3919 13.6233C48.0164 13.965 47.6126 14.3261 47.1808 14.7069C46.7487 15.0877 46.3419 15.4381 45.9597 15.7581C45.5783 16.0781 45.251 16.3409 44.977 16.546C44.7038 16.7511 44.5491 16.8539 44.5119 16.8539C44.3969 16.8539 44.2886 16.8154 44.1871 16.7384C44.0856 16.663 43.9964 16.5642 43.9199 16.4427C43.8429 16.3212 43.782 16.1885 43.7372 16.0437C43.6933 15.8994 43.6713 15.7581 43.6713 15.6204C43.6713 15.3611 43.7254 15.0147 43.8336 14.5813C43.9419 14.1478 44.0721 13.6992 44.2243 13.2344C44.3774 12.77 44.5339 12.3249 44.6928 11.8996C44.8518 11.4732 44.9821 11.1299 45.0836 10.8706C45.1216 10.779 45.2041 10.5739 45.3305 10.2549C45.4578 9.93488 45.5943 9.60018 45.7398 9.25028C45.8861 8.89936 46.0261 8.58694 46.1593 8.31249C46.2933 8.03854 46.3859 7.90132 46.4366 7.90132C46.6531 7.90132 46.8565 7.98943 47.0472 8.16463C47.2375 8.33882 47.3652 8.54845 47.4295 8.79252C47.3652 8.92924 47.2595 9.1728 47.1132 9.52371C46.9677 9.87361 46.8087 10.2807 46.6362 10.7451C46.4646 11.2099 46.2836 11.7006 46.0933 12.2176C45.9026 12.7351 45.728 13.2222 45.569 13.68C45.41 14.1367 45.2823 14.5362 45.1867 14.879C45.092 15.2208 45.0447 15.4452 45.0447 15.5515ZM48.1162 4.45398C48.1669 4.45398 48.2489 4.47322 48.3631 4.51069C48.4781 4.54867 48.5923 4.59779 48.7065 4.65855C48.8215 4.71932 48.92 4.78818 49.0025 4.86515C49.0845 4.9411 49.1259 5.02465 49.1259 5.11631C49.1259 5.22315 49.0777 5.36443 48.9822 5.53963C48.8874 5.71382 48.7762 5.88497 48.649 6.05207C48.5213 6.21968 48.391 6.36399 48.2582 6.48552C48.1251 6.60705 48.0202 6.66781 47.9437 6.66781C47.8037 6.66781 47.6544 6.56552 47.4954 6.35994C47.3365 6.15486 47.257 5.96852 47.257 5.80091C47.257 5.75534 47.2946 5.66014 47.3703 5.51532C47.4468 5.37101 47.5331 5.2191 47.6291 5.05959C47.7246 4.89908 47.8202 4.7578 47.9149 4.63627C48.0105 4.51474 48.0777 4.45398 48.1162 4.45398Z" fill="#C77C77"/>
<path d="M52.2538 7.0567C52.4183 7.0567 52.609 7.08708 52.8255 7.14785C53.042 7.20861 53.2454 7.29672 53.4361 7.41116C53.6264 7.52458 53.7883 7.6694 53.9215 7.84461C54.0555 8.02032 54.1228 8.22944 54.1228 8.4725C54.1228 8.56466 54.1033 8.69429 54.0653 8.86139C54.0268 9.029 53.979 9.1966 53.9215 9.3637C53.8648 9.53131 53.7951 9.67968 53.7118 9.80931C53.6293 9.93792 53.5435 10.0017 53.4547 10.0017C53.3655 10.0017 53.2538 9.94906 53.1198 9.84374C52.9866 9.7374 52.9202 9.62246 52.9202 9.49941C52.9202 9.42396 52.9422 9.32117 52.9862 9.19154C53.031 9.06191 53.0631 8.92519 53.0826 8.78037C53.1016 8.63606 53.0982 8.49883 53.0724 8.3692C53.0475 8.23957 52.9714 8.13729 52.8441 8.06133V8.03905C52.6792 8.05424 52.4695 8.14944 52.2149 8.32464C51.9612 8.49883 51.7164 8.7115 51.4809 8.96266C51.2449 9.21382 51.0415 9.48473 50.8703 9.77487C50.6986 10.064 50.6132 10.3298 50.6132 10.5729C50.6132 10.8782 50.6419 11.2059 50.6995 11.5553C50.757 11.9052 50.817 12.2632 50.8804 12.6288C50.9434 12.9949 51.0039 13.3569 51.0614 13.7144C51.1189 14.0724 51.1477 14.4031 51.1477 14.7069C51.1477 14.7676 51.1502 14.8137 51.1561 14.8446C51.1629 14.8745 51.1976 14.9049 51.261 14.9358C51.4267 14.875 51.6779 14.7423 52.0153 14.5367C52.3523 14.3301 52.7054 14.1129 53.0741 13.8845C53.4428 13.6567 53.8018 13.4551 54.1515 13.2809C54.5008 13.1057 54.7773 13.0176 54.9803 13.0176C55.0433 13.0176 55.116 13.0252 55.1985 13.0399C55.2818 13.0551 55.3296 13.123 55.3422 13.2445L55.1528 13.4288C55.0885 13.4126 54.9541 13.4465 54.7503 13.5301C54.5473 13.6141 54.3122 13.7286 54.045 13.8744C53.7786 14.0192 53.4927 14.1823 53.1874 14.3646C52.883 14.5469 52.5972 14.7221 52.3299 14.8892C52.0627 15.0568 51.8301 15.2051 51.6331 15.3348C51.4369 15.4644 51.3067 15.5525 51.2424 15.5981C51.2039 15.628 51.1401 15.8183 51.0513 16.1693C50.962 16.5192 50.8284 16.9521 50.6504 17.4696C50.4732 17.9881 50.2415 18.5436 49.9552 19.1366C49.6686 19.7305 49.3218 20.283 48.9151 20.7934C48.5091 21.3038 48.0301 21.7261 47.4774 22.0613C46.9239 22.396 46.2909 22.5636 45.578 22.5636C45.2613 22.5636 44.9919 22.4487 44.7695 22.2193C44.5463 21.9909 44.4346 21.679 44.4346 21.2836C44.4346 21.0552 44.5492 20.7696 44.778 20.4268C45.0072 20.085 45.3031 19.727 45.6659 19.3533C46.0279 18.9806 46.4283 18.5998 46.8668 18.2109C47.3057 17.823 47.7345 17.462 48.1539 17.1273C48.5734 16.7921 48.951 16.4964 49.2872 16.2381C49.6242 15.9789 49.8758 15.7961 50.0415 15.6892C50.181 15.5976 50.2445 15.4376 50.2309 15.2092C50.2183 14.9813 50.2123 14.7833 50.2123 14.6157C50.2123 14.2501 50.1806 13.8845 50.1176 13.52C50.0542 13.1544 49.9844 12.7847 49.9079 12.412C49.8309 12.0393 49.7607 11.6707 49.6965 11.3061C49.633 10.9405 49.6018 10.582 49.6018 10.2306C49.6018 9.83513 49.6872 9.44675 49.8588 9.06596C50.0314 8.68517 50.2479 8.34692 50.5083 8.0512C50.7688 7.75447 51.0546 7.51446 51.3658 7.33216C51.6779 7.14886 51.9739 7.0567 52.2538 7.0567ZM44.778 21.399C44.778 21.596 44.8384 21.7135 44.959 21.7514C45.0799 21.7904 45.2101 21.8173 45.3497 21.8325C45.8199 21.6795 46.3002 21.436 46.7907 21.1013C47.2804 20.766 47.7379 20.3625 48.1641 19.89C48.589 19.4186 48.9633 18.8935 49.2872 18.3142C49.6119 17.736 49.844 17.1354 49.984 16.5116L50.0026 16.4893C50.0026 16.4275 49.9899 16.3961 49.9654 16.3961H49.869C49.729 16.4731 49.5062 16.629 49.2009 16.864C48.8965 17.1 48.5569 17.3744 48.1827 17.6863C47.8072 17.9993 47.4161 18.3385 47.0089 18.7031C46.6021 19.0687 46.2334 19.4227 45.9027 19.7645C45.5725 20.1073 45.3023 20.4232 45.0926 20.7124C44.8828 21.0025 44.778 21.2314 44.778 21.399Z" fill="#C77C77"/>
<mask id="mask0_16_69" style="mask-type:luminance" maskUnits="userSpaceOnUse" x="0" y="23" width="84" height="55">
<path d="M0 23H84V77.0733H0V23Z" fill="white"/>
</mask>
<g mask="url(#mask0_16_69)"> 
<path d="M83.9974 53.9141C83.9974 59.8649 79.9571 64.5782 74.5849 64.5782C68.5641 64.5782 63.6756 56.8511 63.6756 47.3319C63.6756 47.1891 63.6773 47.0443 63.6807 46.901L57.8598 67.2219L55.5148 67.465L44.1484 27.7234C44.0574 27.9102 43.9636 28.1057 43.8663 28.3128L36.0628 45.111L43.9686 61.6008C45.8097 65.4456 46.4668 65.878 48.5582 65.878H49.2719V66.9161H40.1436V65.878H41.1111C42.8447 65.878 43.6109 65.755 43.6109 64.9002C43.6109 64.2886 43.2528 63.3731 42.539 61.8464L35.297 46.7582L28.4935 61.418C22.476 74.3835 17.7821 77.1776 10.5384 77.1776C8.02205 77.1776 6.00467 76.1056 4.42028 74.6129C1.98599 72.3175 0.00201416 68.7729 0.00201416 63.6971C0.00201416 56.4369 4.31796 51.0532 9.73371 49.9994L9.81616 50.603C4.62875 51.6127 0.512807 56.7467 0.512807 63.6971C0.512807 68.5653 2.39783 71.9291 4.73615 74.1318C6.09516 75.4134 8.06898 76.0109 9.45337 76.0109C15.6607 76.0109 20.391 70.0763 25.3822 59.2188L32.8492 42.9721L32.1185 41.5441C31.1726 39.9871 29.5836 38.7034 27.6956 38.7034C26.0406 38.7034 24.8042 39.8762 24.8042 41.5502C24.8042 42.8435 25.6524 43.6501 26.4808 43.6521C27.0436 43.6521 27.5024 43.2921 27.751 42.9078L28.154 43.282C27.8212 43.7949 27.23 44.2638 26.4808 44.2638C25.3822 44.2618 24.2934 43.1954 24.2934 41.5502C24.2934 39.4437 25.8592 38.0917 27.6952 38.0917C28.9502 38.0917 30.0978 38.6229 31.0166 39.3895L25.3518 28.3128C23.3627 24.5267 23.005 23.6092 21.4747 23.6092H15.9161V23H29.0242V24.0983H28.1053C26.474 24.0983 25.7082 24.2811 25.7082 25.1364C25.7082 25.7475 26.1163 26.7253 26.83 28.1295L33.6137 41.3228L40.2443 27.0312C40.8827 25.6675 41.8033 24.7419 42.5022 24.3434C42.586 24.2933 42.6667 24.2553 42.7441 24.2208V24.0983H40.0912V23H49.954V24.0983H47.7417C47.2127 24.0983 46.789 24.1586 46.3742 24.4239C46.9235 24.8366 47.3535 25.6169 47.6089 26.4803L57.1457 59.8908C57.5034 61.0519 57.5541 61.7841 57.5541 62.0297V62.0899H57.9622V62.0297C57.9622 61.8464 58.0125 61.1121 58.473 59.708L67.9091 27.335C68.1137 26.6008 68.2567 25.945 68.2567 25.3956C68.2567 24.2831 67.6621 23.6092 65.7653 23.6092H58.6763V23H73.2644V24.0983H72.2432C70.4068 24.0983 70.0711 24.5951 69.2846 27.335L64.5526 43.8592C64.3022 45.0163 64.1864 46.185 64.1864 47.3319C64.1864 56.5133 68.8444 63.9665 74.5849 63.9665C79.7 63.9665 83.4866 59.5069 83.4866 53.9141C83.4866 48.5467 80.174 44.6542 75.8767 44.6542C72.8073 44.6542 70.7565 46.5409 69.5518 48.8166L69.1201 48.4884C70.3983 46.0766 72.6128 44.0425 75.8767 44.0425C80.451 44.0425 83.9974 48.2211 83.9974 53.9141ZM42.7441 24.0983V24.2208C42.6667 24.2553 42.586 24.2933 42.5022 24.3434C42.1373 24.1525 41.6739 24.0983 41.0286 24.0983H42.7441Z" fill="#C77C77"/>
</g>
</svg>
