<svg xmlns="http://www.w3.org/2000/svg" xmlns:xlink="http://www.w3.org/1999/xlink" width="1080" zoomAndPan="magnify" viewBox="0 0 810 809.999993" height="1080" preserveAspectRatio="xMidYMid meet" version="1.0"><defs><clipPath id="42d55716b0"><path d="M 20.589844 214.71875 L 789.339844 214.71875 L 789.339844 594.96875 L 20.589844 594.96875 Z M 20.589844 214.71875 " clip-rule="nonzero"/></clipPath></defs><g clip-path="url(#42d55716b0)"><path fill="#ffffff" d="M 579.214844 594.996094 L 579.136719 589.824219 L 789.253906 584.371094 C 789.332031 587.722656 789.394531 591.050781 789.394531 594.382812 Z M 230.78125 594.675781 L 20.589844 594.675781 C 20.589844 590.882812 20.648438 587.066406 20.753906 583.277344 L 230.859375 589.273438 C 230.808594 591.09375 230.78125 592.882812 230.78125 594.675781 Z M 569.074219 535.902344 C 568.507812 534.3125 567.910156 532.71875 567.285156 531.175781 L 763.015625 454.53125 C 764.464844 458.164062 765.820312 461.84375 767.121094 465.554688 Z M 241.050781 535.574219 L 43.3125 464.25 C 44.671875 460.484375 46.101562 456.75 47.558594 453.042969 L 242.761719 531.015625 C 242.15625 532.519531 241.597656 534.058594 241.050781 535.574219 Z M 539.1875 483.582031 C 538.234375 482.402344 537.214844 481.25 536.230469 480.105469 L 694.070312 341.304688 C 696.773438 344.363281 699.402344 347.476562 701.992188 350.632812 Z M 270.886719 483.476562 L 109.054688 349.34375 C 111.53125 346.34375 114.074219 343.398438 116.648438 340.472656 L 274.238281 479.570312 C 273.09375 480.871094 271.988281 482.179688 270.886719 483.476562 Z M 494.414062 445.09375 L 489.316406 442.1875 L 591.265625 258.367188 C 594.464844 260.128906 597.644531 261.96875 600.78125 263.804688 Z M 316.59375 444.519531 L 209.738281 263.503906 C 213.132812 261.503906 216.546875 259.542969 220.015625 257.644531 L 320.898438 442.0625 C 319.4375 442.859375 318.019531 443.679688 316.59375 444.519531 Z M 438.03125 423.582031 C 436.214844 423.25 434.390625 422.941406 432.570312 422.636719 L 466.171875 215.15625 C 469.878906 215.75 473.59375 216.402344 477.265625 217.097656 Z M 372.804688 423.4375 L 333.574219 216.945312 C 337.449219 216.195312 341.332031 215.53125 345.25 214.90625 L 377.703125 422.59375 C 376.046875 422.855469 374.417969 423.125 372.804688 423.4375 Z M 372.804688 423.4375 " fill-opacity="1" fill-rule="nonzero"/></g></svg>