<svg xmlns="http://www.w3.org/2000/svg" xmlns:xlink="http://www.w3.org/1999/xlink" width="1080" zoomAndPan="magnify" viewBox="0 0 810 809.999993" height="1080" preserveAspectRatio="xMidYMid meet" version="1.0"><defs><clipPath id="447f42d08d"><path d="M 142.164062 154 L 781.496094 154 L 781.496094 704.617188 L 142.164062 704.617188 Z M 142.164062 154 " clip-rule="nonzero"/></clipPath><clipPath id="5e89b3c800"><path d="M 190 105.382812 L 226 105.382812 L 226 200 L 190 200 Z M 190 105.382812 " clip-rule="nonzero"/></clipPath><clipPath id="58ab3e5dbe"><path d="M 28.125 267 L 123 267 L 123 303 L 28.125 303 Z M 28.125 267 " clip-rule="nonzero"/></clipPath></defs><path fill="#ffffff" d="M 526.738281 687.617188 C 495.539062 687.617188 464.230469 680.28125 436.199219 666.402344 L 368.082031 632.660156 L 294.40625 595.140625 C 269.492188 582.449219 259.542969 551.855469 272.222656 526.941406 C 274.691406 522.160156 277.769531 517.90625 281.425781 514.222656 C 290.871094 504.699219 303.996094 499.234375 317.4375 499.234375 C 325.363281 499.234375 333.304688 501.144531 340.410156 504.75 L 377.964844 523.878906 L 174.339844 321.910156 C 154.519531 302.25 154.359375 270.132812 173.960938 250.269531 C 174.113281 250.113281 174.726562 249.507812 174.726562 249.507812 C 184.054688 240.457031 196.457031 235.46875 209.652344 235.46875 C 223.355469 235.46875 236.804688 241.011719 246.554688 250.675781 L 328.480469 331.933594 C 321.828125 313.984375 325.648438 292.992188 339.984375 278.523438 L 340.675781 277.855469 C 350.003906 268.796875 362.410156 263.808594 375.601562 263.808594 C 389.304688 263.808594 402.753906 269.355469 412.503906 279.023438 L 415.871094 282.363281 C 409.066406 264.417969 412.421875 243.503906 426.167969 229.113281 L 426.839844 228.417969 C 436.4375 218.75 449.222656 213.425781 462.847656 213.425781 C 476.320312 213.425781 489 218.648438 498.554688 228.128906 L 511.039062 240.507812 C 504.234375 222.5625 507.597656 201.640625 521.367188 187.246094 C 521.617188 186.984375 521.878906 186.714844 522.15625 186.445312 C 531.738281 176.851562 544.472656 171.574219 558.035156 171.574219 C 571.496094 171.574219 584.171875 176.792969 593.734375 186.269531 L 700.300781 291.976562 L 706.601562 298.21875 C 706.710938 298.324219 714.292969 306.011719 717.746094 310.5625 C 760.515625 361.460938 774.542969 427.445312 757.25 496.433594 C 750.828125 522.039062 739.878906 545.910156 724.707031 567.378906 C 717.964844 577.023438 710.15625 586.347656 701.554688 595.027344 L 667.703125 629.167969 C 666.152344 630.71875 664.625 632.210938 663.085938 633.683594 C 626.453125 668.476562 578.042969 687.617188 526.738281 687.617188 " fill-opacity="1" fill-rule="nonzero"/><g clip-path="url(#447f42d08d)"><path fill="#000000" d="M 558.039062 154.574219 L 558.03125 154.574219 C 539.96875 154.578125 523.015625 161.585938 510.234375 174.328125 C 509.703125 174.847656 509.296875 175.273438 509.070312 175.503906 C 501.414062 183.507812 495.996094 193.085938 493.082031 203.511719 C 483.804688 198.878906 473.511719 196.425781 462.847656 196.425781 C 444.660156 196.425781 427.585938 203.535156 414.777344 216.4375 L 414.570312 216.652344 L 414.363281 216.863281 L 414.308594 216.917969 L 414.265625 216.96875 L 414.105469 217.125 L 413.871094 217.371094 C 405.066406 226.589844 399.222656 237.886719 396.75 250.15625 C 389.941406 247.964844 382.800781 246.808594 375.601562 246.808594 C 358.019531 246.808594 341.460938 253.460938 328.953125 265.535156 C 328.839844 265.652344 328.71875 265.765625 328.597656 265.882812 L 328.304688 266.160156 L 327.914062 266.558594 C 320.605469 273.929688 315.34375 282.570312 312.125 291.769531 L 258.523438 238.609375 C 245.613281 225.804688 227.800781 218.46875 209.648438 218.46875 C 192.011719 218.46875 175.40625 225.160156 162.886719 237.308594 L 162.4375 237.746094 L 162.300781 237.886719 C 162.144531 238.042969 161.996094 238.191406 161.851562 238.339844 C 135.691406 264.867188 135.910156 307.734375 162.371094 333.980469 L 312.058594 482.453125 C 296.03125 483.753906 280.703125 490.808594 269.355469 502.25 C 264.476562 507.171875 260.375 512.828125 257.15625 519.066406 L 257.113281 519.144531 L 257.074219 519.226562 C 240.144531 552.492188 253.425781 593.339844 286.679688 610.285156 L 360.367188 647.8125 L 360.707031 647.980469 L 428.65625 681.636719 C 459.019531 696.671875 492.933594 704.617188 526.734375 704.617188 C 582.417969 704.617188 634.984375 683.816406 674.757812 646.042969 L 674.796875 646.007812 L 674.835938 645.96875 C 676.5 644.378906 678.132812 642.777344 679.6875 641.21875 L 679.734375 641.175781 L 679.773438 641.136719 L 713.621094 607 C 722.886719 597.65625 731.300781 587.605469 738.640625 577.128906 C 755.003906 553.953125 766.808594 528.195312 773.738281 500.566406 C 792.371094 426.253906 777.179688 355.015625 730.960938 299.863281 C 726.5 294.125 718.710938 286.28125 718.625 286.199219 L 718.5625 286.136719 L 712.25 279.882812 L 687.917969 255.75 L 605.710938 174.203125 C 592.9375 161.542969 576.007812 154.574219 558.039062 154.574219 Z M 558.035156 188.578125 C 566.617188 188.574219 575.195312 191.828125 581.765625 198.34375 L 663.976562 279.894531 L 688.332031 304.046875 L 694.644531 310.300781 C 696.75 312.394531 702.742188 318.773438 704.40625 321.113281 C 746.402344 370.824219 755.800781 432.316406 740.757812 492.296875 C 734.988281 515.3125 725.03125 537.464844 710.828125 557.570312 C 704.566406 566.519531 697.429688 575.042969 689.480469 583.058594 L 655.628906 617.195312 C 654.21875 618.609375 652.785156 620.007812 651.34375 621.390625 C 617.058594 653.953125 572.199219 670.617188 526.734375 670.617188 C 498.511719 670.617188 470.058594 664.199219 443.742188 651.167969 L 375.796875 617.511719 L 302.117188 579.992188 C 285.527344 571.539062 278.929688 551.238281 287.375 534.652344 C 289.023438 531.453125 291.085938 528.625 293.496094 526.191406 C 299.859375 519.777344 308.527344 516.234375 317.4375 516.234375 C 322.582031 516.234375 327.808594 517.414062 332.710938 519.90625 L 394.652344 551.453125 L 398.113281 553.214844 C 400.046875 554.203125 401.964844 554.640625 403.78125 554.640625 C 407.035156 554.640625 409.96875 553.234375 412.128906 551.058594 C 416.429688 546.707031 417.652344 539.292969 412.136719 533.828125 L 186.3125 309.839844 C 173.109375 296.742188 173.015625 275.378906 186.117188 262.15625 C 186.261719 262.003906 186.421875 261.859375 186.566406 261.707031 C 192.976562 255.488281 201.289062 252.46875 209.648438 252.46875 C 218.667969 252.46875 227.75 255.976562 234.585938 262.75 L 422.15625 448.792969 C 425.019531 451.640625 428.78125 453.0625 432.535156 453.0625 C 436.125 453.027344 439.707031 451.699219 442.5 449.085938 C 442.625 448.96875 442.738281 448.855469 442.859375 448.738281 C 448.578125 442.972656 448.113281 433.25 442.300781 427.480469 L 352.257812 338.175781 C 339.050781 325.078125 338.957031 303.710938 352.058594 290.492188 C 352.210938 290.351562 352.367188 290.191406 352.515625 290.050781 C 358.925781 283.828125 367.238281 280.808594 375.601562 280.808594 C 384.617188 280.808594 393.699219 284.3125 400.535156 291.09375 L 502.757812 392.496094 C 505.632812 395.339844 509.394531 396.753906 513.152344 396.765625 C 516.730469 396.730469 520.3125 395.40625 523.113281 392.773438 C 523.230469 392.671875 523.351562 392.554688 523.460938 392.433594 C 529.175781 386.667969 528.714844 376.949219 522.90625 371.1875 L 439.902344 288.859375 C 426.734375 275.785156 425.644531 254.273438 438.457031 240.855469 C 438.613281 240.699219 438.761719 240.546875 438.90625 240.394531 C 445.496094 233.75 454.171875 230.425781 462.847656 230.425781 C 471.433594 230.425781 480.019531 233.683594 486.585938 240.199219 L 585.453125 338.257812 C 588.308594 341.09375 592.039062 342.511719 595.773438 342.511719 C 599.542969 342.511719 603.316406 341.0625 606.183594 338.167969 C 611.878906 332.421875 611.851562 323.148438 606.09375 317.449219 L 535.085938 247.007812 C 521.902344 233.941406 520.824219 212.410156 533.652344 199 C 533.796875 198.847656 533.941406 198.695312 534.089844 198.554688 C 540.683594 191.902344 549.363281 188.578125 558.035156 188.578125 " fill-opacity="1" fill-rule="nonzero"/></g><path fill="#000000" d="M 95.226562 154.304688 C 90.582031 154.324219 86.222656 156.140625 82.941406 159.421875 C 82.921875 159.441406 82.90625 159.457031 82.886719 159.476562 C 76.105469 166.316406 76.148438 177.40625 82.996094 184.195312 L 129.265625 229.847656 C 132.578125 233.132812 136.972656 234.933594 141.644531 234.914062 C 146.285156 234.894531 150.644531 233.078125 153.921875 229.796875 C 153.941406 229.777344 153.960938 229.761719 153.976562 229.742188 C 157.265625 226.429688 159.066406 222.035156 159.046875 217.367188 C 159.027344 212.695312 157.191406 208.316406 153.871094 205.023438 L 107.601562 159.375 C 104.289062 156.085938 99.894531 154.285156 95.226562 154.304688 " fill-opacity="1" fill-rule="nonzero"/><g clip-path="url(#5e89b3c800)"><path fill="#000000" d="M 225.066406 122.792969 C 225.023438 113.15625 217.152344 105.351562 207.515625 105.386719 C 197.878906 105.429688 190.074219 113.296875 190.113281 122.949219 L 190.550781 182.488281 C 190.59375 192.125 198.464844 199.929688 208.101562 199.890625 C 212.890625 199.871094 217.226562 197.917969 220.378906 194.765625 C 223.558594 191.585938 225.523438 187.183594 225.503906 182.332031 L 225.066406 122.792969 " fill-opacity="1" fill-rule="nonzero"/></g><g clip-path="url(#58ab3e5dbe)"><path fill="#000000" d="M 45.996094 267.0625 C 36.359375 267.019531 28.488281 274.832031 28.445312 284.464844 C 28.410156 294.101562 36.214844 301.972656 45.839844 302.011719 L 105.398438 302.453125 C 110.242188 302.472656 114.636719 300.511719 117.820312 297.324219 C 120.96875 294.179688 122.925781 289.839844 122.945312 285.046875 C 122.988281 275.410156 115.175781 267.539062 105.550781 267.5 L 45.996094 267.0625 " fill-opacity="1" fill-rule="nonzero"/></g><path fill="#000000" d="M 327.65625 135.511719 C 322.988281 135.53125 318.664062 137.386719 315.3125 140.6875 L 269.667969 186.957031 C 266.378906 190.269531 264.582031 194.667969 264.597656 199.335938 C 264.621094 204.003906 266.453125 208.382812 269.769531 211.671875 C 276.59375 218.441406 287.644531 218.410156 294.441406 211.617188 C 294.457031 211.597656 294.472656 211.582031 294.488281 211.5625 L 340.140625 165.292969 C 346.925781 158.453125 346.878906 147.363281 340.035156 140.578125 C 336.71875 137.292969 332.324219 135.492188 327.65625 135.511719 " fill-opacity="1" fill-rule="nonzero"/><path fill="#000000" d="M 112.101562 345.652344 C 112.082031 345.667969 112.066406 345.683594 112.046875 345.703125 L 66.398438 391.972656 C 63.113281 395.285156 61.316406 399.683594 61.332031 404.351562 C 61.351562 409.019531 63.1875 413.398438 66.503906 416.6875 C 69.816406 419.972656 74.210938 421.773438 78.882812 421.753906 C 83.523438 421.734375 87.886719 419.921875 91.171875 416.632812 C 91.1875 416.617188 91.207031 416.597656 91.222656 416.582031 L 136.871094 370.308594 C 140.160156 366.996094 141.957031 362.601562 141.9375 357.933594 C 141.921875 353.265625 140.082031 348.882812 136.769531 345.597656 C 133.457031 342.308594 129.058594 340.507812 124.390625 340.527344 C 119.746094 340.546875 115.390625 342.363281 112.101562 345.652344 " fill-opacity="1" fill-rule="nonzero"/></svg>