<svg width="1066" height="1075" viewBox="0 0 1066 1075" fill="none" xmlns="http://www.w3.org/2000/svg">
<mask id="mask0_12_54" style="mask-type:luminance" maskUnits="userSpaceOnUse" x="0" y="0" width="1066" height="1075">
<path d="M0.942688 0.333252H1066V1075H0.942688V0.333252Z" fill="white"/>
</mask>
<g mask="url(#mask0_12_54)">
<path d="M1019.32 617.052C1019.16 611.922 1018.82 606.802 1018.51 601.682C1020.3 601.188 1022.09 600.708 1023.89 600.198C1023.26 605.078 1022.45 609.932 1021.3 614.714C1021.04 615.802 1020.43 617.146 1019.32 617.052ZM998.125 601.688C1000.16 597.667 1002.48 593.776 1004.9 589.927C1007.32 586.073 1009.83 582.26 1012.28 578.38C1013.51 576.443 1014.72 574.484 1015.89 572.5C1015.92 572.453 1015.95 572.401 1015.97 572.354C1017.13 582.099 1017.91 591.885 1018.51 601.682C1020.3 601.188 1022.09 600.708 1023.89 600.198C1025.07 591.162 1025.45 582.021 1024.83 572.927C1026.83 577.901 1028.84 582.875 1030.84 587.849C1031.19 587.052 1031.51 586.245 1031.8 585.427C1032.21 586.214 1032.7 586.979 1033.27 587.698C1034.68 589.464 1036.48 590.823 1038.4 591.708C1039.88 592.38 1041.29 593.339 1042.66 594.417C1050.19 591.885 1057.62 589.052 1064.89 585.839C1064.76 585.531 1064.67 585.203 1064.53 584.896C1062.44 580.354 1059.8 576.026 1056.47 571.849L1055.18 570.234C1050.36 564.188 1041.55 563.193 1035.49 568.01C1035.06 568.359 1034.66 568.734 1034.27 569.125C1034.04 564.037 1032.91 558.995 1030.88 554.328C1032.26 556.63 1033.64 558.932 1035.21 561.104C1036.73 552.891 1037.1 544.49 1036.53 536.151C1033.67 535.563 1030.91 534.818 1028.21 533.964C1027.67 535.927 1027.21 537.917 1026.61 539.859C1023.95 548.505 1020.57 556.932 1016.39 564.932C1012.3 572.984 1007.11 580.49 1002.29 588.302C1001.08 590.25 999.891 592.219 998.745 594.224C997.589 596.219 996.469 598.245 995.417 600.307C994.094 602.896 992.875 605.542 991.75 608.219C988.12 603.594 985.38 598.292 984.078 592.594C983.672 590.807 983.406 588.995 983.25 587.167C983.13 585.328 983.12 583.479 983.234 581.625C983.505 577.912 984.234 574.203 985.292 570.547C987.417 563.24 990.802 556.177 994.37 549.245C996.198 545.797 998.083 542.375 1000.07 538.995C1002.06 535.63 1004.1 532.281 1006.2 528.958C1007.08 527.552 1008.01 526.151 1008.9 524.745C1007.49 523.813 1006.09 522.823 1004.71 521.781C1003.77 523.287 1002.83 524.776 1001.9 526.297C997.771 533.052 993.76 539.922 990.042 546.979C988.224 550.537 986.406 554.078 984.771 557.75C983.125 561.417 981.646 565.193 980.427 569.094C979.219 572.995 978.339 577.047 977.964 581.203C977.776 583.281 977.724 585.385 977.802 587.49C977.922 589.594 978.167 591.698 978.578 593.776C979.01 595.844 979.573 597.885 980.276 599.875C980.995 601.859 981.823 603.802 982.792 605.672C983.635 607.276 984.589 608.818 985.583 610.323C988.828 609.469 992.089 608.62 995.37 607.776C996.26 605.734 997.115 603.677 998.125 601.688ZM1050.76 738.375C1050.28 742.672 1049.27 746.917 1047.54 750.786C1046.67 752.708 1045.64 754.547 1044.41 756.214C1043.16 757.859 1041.74 759.344 1040.17 760.615L1038.94 761.505C1038.53 761.802 1038.08 762.031 1037.66 762.297C1037.44 762.422 1037.22 762.568 1037 762.677L1036.32 763.005C1035.88 763.24 1035.41 763.417 1034.94 763.599C1033.06 764.323 1031.05 764.771 1028.99 764.943C1024.89 765.297 1020.63 764.583 1016.71 763.036C1012.81 761.495 1009.19 759.042 1006.03 756.094C1002.85 753.141 1000.1 749.677 997.703 745.964C993.021 738.438 989.359 730.172 987.203 721.458C986.297 717.948 985.609 714.38 985.036 710.786C983.411 710.448 981.786 710.104 980.161 709.755C980.13 710.089 980.146 710.411 980.099 710.74C979.823 712.51 979.281 714.292 978.563 716.021C977.849 717.76 976.953 719.443 975.995 721.109C975.016 722.766 974.01 724.443 972.906 725.958C971.807 727.49 970.578 728.88 969.151 729.984C968.432 730.526 967.677 731.021 966.87 731.432C966.057 731.833 965.214 732.177 964.344 732.464C962.599 733.031 960.755 733.339 958.896 733.474C957.036 733.609 955.135 733.573 953.266 733.396C949.547 733.063 945.917 732.036 943.016 730.109C940.156 728.161 937.922 725.286 937.583 722.193C937.479 721.411 937.458 720.604 937.542 719.781C937.609 718.958 937.745 718.125 937.964 717.286C938.161 716.443 938.427 715.594 938.745 714.781C939.047 713.964 939.427 713.172 939.833 712.411C940.245 711.651 940.714 710.927 941.214 710.234C941.469 709.896 941.734 709.563 942.005 709.234C942.286 708.911 942.573 708.594 942.839 708.365C943.38 707.885 943.917 707.651 944.234 707.797C944.401 707.875 944.484 708.031 944.49 708.266C944.495 708.318 944.484 708.391 944.474 708.448C944.469 708.51 944.375 708.625 944.328 708.698C944.208 708.865 944.089 709.031 943.964 709.188C948.146 707.781 950.396 703.25 948.99 699.068C947.583 694.885 943.052 692.635 938.87 694.036C938.281 694.349 937.714 694.708 937.161 695.104C936.896 695.292 936.589 695.526 936.375 695.724C936.167 695.917 935.948 696.115 935.755 696.318C934.974 697.135 934.344 697.969 933.87 698.781C932.901 700.406 932.448 701.875 932.13 703.151C931.964 703.797 931.87 704.38 931.766 704.958C931.661 705.536 931.568 706.109 931.49 706.688C931.323 707.839 931.203 708.979 931.115 710.109C931.021 711.24 930.99 712.365 930.969 713.474C930.964 714.589 930.984 715.677 931.047 716.786C931.125 717.896 931.224 719.021 931.406 720.151C931.609 721.281 931.859 722.422 932.234 723.536C933.016 725.786 934.234 727.839 935.734 729.521C937.24 731.208 939.016 732.563 940.932 733.594C944.786 735.682 949.016 736.391 953.073 736.536C957.12 736.63 961.24 736.318 965.182 734.943C966.161 734.589 967.12 734.172 968.052 733.682C968.969 733.177 969.859 732.609 970.698 731.964C972.359 730.651 973.729 729.073 974.943 727.453C976.146 725.818 977.214 724.167 978.276 722.49C979.333 720.807 980.359 719.078 981.26 717.25C981.505 716.745 981.745 716.224 981.974 715.703C982.385 717.953 982.865 720.198 983.417 722.427C983.656 723.563 983.995 724.682 984.328 725.797L985.313 729.151C985.672 730.26 986.089 731.354 986.474 732.453L987.063 734.104L987.359 734.932L987.703 735.734L989.094 738.958C989.333 739.49 989.547 740.036 989.807 740.563L990.609 742.125L992.224 745.25C992.771 746.286 993.38 747.297 993.995 748.302C996.474 752.307 999.37 756.12 1002.82 759.464C1006.28 762.807 1010.29 765.677 1014.85 767.589C1019.4 769.479 1024.36 770.438 1029.38 770.109C1031.89 769.948 1034.39 769.453 1036.79 768.578C1037.39 768.359 1037.99 768.141 1038.57 767.859L1039.44 767.453C1039.73 767.318 1040 767.146 1040.28 766.995C1040.83 766.672 1041.4 766.38 1041.93 766.026L1043.49 764.927C1045.51 763.375 1047.3 761.563 1048.85 759.594C1050.38 757.615 1051.66 755.49 1052.79 753.307C1055.01 748.922 1056.55 744.307 1057.68 739.615C1058.26 737.266 1058.69 734.901 1059.09 732.542C1059.48 730.172 1059.8 727.76 1060.01 725.307C1060.11 724.094 1060.18 722.87 1060.22 721.63C1056.75 721.438 1053.29 721.203 1049.85 720.911C1051.13 726.432 1051.38 732.495 1050.76 738.375ZM1060.22 721.63C1056.75 721.438 1053.29 721.203 1049.85 720.911C1049.25 718.344 1048.5 715.859 1047.38 713.625C1046.95 712.745 1046.46 711.906 1045.96 711.12C1045.7 710.724 1045.42 710.349 1045.16 709.964L1044.3 708.87C1043.99 708.521 1043.71 708.167 1043.4 707.833C1043.07 707.516 1042.76 707.182 1042.43 706.885C1041.76 706.281 1041.11 705.698 1040.39 705.214C1037.58 703.219 1034.42 702.26 1031.8 702.74C1028.29 703.37 1024.51 702.682 1021.34 700.505C1020.8 700.13 1020.29 699.729 1019.82 699.297C1018.78 699.786 1017.79 700.021 1016.99 700.141C1015.99 700.286 1015.23 700.292 1014.66 700.297C1014.06 700.302 1013.45 700.302 1012.83 700.292C1011.6 700.266 1010.34 700.203 1009.06 700.078C1006.5 699.828 1003.81 699.307 1001.19 698.281C998.552 697.25 996.156 695.714 994.161 693.927C992.151 692.141 990.51 690.12 989.13 688.026C986.427 683.88 984.703 679.495 983.448 675.01C983.156 681.604 983.078 688.198 983.38 694.76C983.641 700.141 984.193 705.495 985.036 710.786C983.411 710.448 981.786 710.104 980.161 709.755C980.292 708.323 980.26 706.896 979.958 705.552C979.938 705.448 979.922 705.333 979.911 705.229C979.875 704.698 980.052 704.198 980.354 703.807C980.078 700.844 979.885 697.875 979.771 694.906C979.448 685.677 979.854 676.469 980.557 667.323C980.818 663.776 981.156 660.24 981.505 656.708C981.635 653.714 981.953 650.74 982.422 647.813C982.708 645.193 983.016 642.573 983.38 639.953C984.005 635.391 984.786 630.833 985.854 626.323C986.745 622.531 987.839 618.792 989.115 615.109C988.031 613.813 987.005 612.464 986.036 611.073C985.87 610.833 985.745 610.568 985.583 610.323C988.828 609.469 992.089 608.62 995.37 607.776C994.917 608.807 994.396 609.807 993.974 610.849C994.219 611.12 994.469 611.391 994.719 611.651C997.286 614.323 1000.14 616.719 1003.22 618.797C1006.28 620.891 1009.56 622.656 1012.98 624.063C1016.39 625.469 1019.95 626.505 1023.53 627.135C1027.08 627.724 1030.7 627.932 1034.19 627.599C1035.05 627.484 1035.93 627.432 1036.77 627.255L1038.03 627.031L1039.26 626.724C1040.08 626.547 1040.85 626.24 1041.64 626C1042.03 625.875 1042.39 625.693 1042.76 625.547C1043.12 625.38 1043.51 625.26 1043.85 625.057C1046.66 623.646 1048.96 621.771 1050.39 619.479C1051.9 617.214 1052.54 614.693 1052.51 612.089C1052.51 610.787 1052.32 609.448 1051.97 608.109C1051.63 606.771 1051.16 605.422 1050.52 604.109C1049.89 602.797 1049.15 601.505 1048.28 600.287C1047.42 599.057 1046.46 597.896 1045.41 596.823C1044.55 595.943 1043.61 595.162 1042.66 594.417C1050.19 591.885 1057.62 589.052 1064.89 585.839C1066.76 590.104 1068.19 594.526 1068.93 599.188C1069.31 601.688 1069.53 604.24 1069.47 606.833C1069.41 609.427 1069.09 612.057 1068.46 614.651C1067.19 619.823 1064.52 624.823 1060.77 628.443C1059.88 629.406 1058.83 630.193 1057.85 631.021C1057.35 631.427 1056.81 631.76 1056.28 632.125C1055.76 632.474 1055.23 632.849 1054.68 633.13L1053.03 634.016C1052.47 634.313 1051.9 634.521 1051.34 634.771C1050.22 635.281 1049.07 635.63 1047.94 636.01C1043.37 637.385 1038.81 637.755 1034.41 637.641C1033.31 637.594 1032.22 637.521 1031.13 637.427C1030.05 637.292 1028.96 637.208 1027.9 637.01L1026.3 636.745L1024.72 636.422C1023.66 636.219 1022.63 635.922 1021.59 635.656C1019.53 635.083 1017.51 634.448 1015.55 633.667C1013.58 632.912 1011.64 632.083 1009.77 631.135C1002.94 627.76 996.682 623.287 991.474 617.755C990.479 620.813 989.609 623.906 988.88 627.031C987.859 631.422 987.104 635.88 986.495 640.375C986.151 642.912 985.859 645.458 985.583 648.01C985.448 652.25 985.635 656.469 986.26 660.583C986.917 664.797 987.979 668.906 989.578 672.734C991.172 676.542 993.224 680.208 995.74 683.13C998.255 686.073 1001.24 688.156 1004.35 688.87C1005.94 689.255 1007.67 689.375 1009.53 689.318C1010.46 689.286 1011.41 689.208 1012.4 689.099C1012.89 689.047 1013.38 688.984 1013.89 688.911C1013.89 688.911 1013.89 688.911 1013.89 688.911C1013.92 688.833 1013.95 688.75 1013.98 688.641L1014.19 688.057C1014.26 687.844 1014.34 687.641 1014.4 687.427C1014.93 685.745 1015.27 684.042 1015.36 682.427C1015.46 680.813 1015.33 679.281 1014.95 677.958C1014.88 677.62 1014.75 677.307 1014.65 676.995C1014.52 676.693 1014.4 676.375 1014.27 676.135C1014 675.63 1013.68 675.13 1013.3 674.677C1012.55 673.76 1011.6 673.031 1010.72 672.635C1009.82 672.234 1009.06 672.188 1008.52 672.318C1007.73 672.495 1006.88 672.583 1006.03 672.531C1001.33 672.245 997.745 668.193 998.031 663.49C998.318 658.781 1002.37 655.203 1007.07 655.49L1008.95 655.604C1012.85 655.839 1016.43 657.276 1019.26 659.26C1022.1 661.255 1024.31 663.766 1025.95 666.578C1026.77 667.984 1027.44 669.474 1027.95 671.037C1028.21 671.839 1028.38 672.589 1028.56 673.349C1028.66 673.88 1028.76 674.412 1028.84 674.943C1031.72 674.849 1034.66 675.641 1037.22 677.401L1041.18 680.13C1047.01 684.135 1051.18 689.104 1054.08 694.224C1054.79 695.516 1055.46 696.797 1056.04 698.109C1056.62 699.422 1057.13 700.745 1057.59 702.057L1058.23 704.047C1058.41 704.719 1058.59 705.38 1058.76 706.052C1059.09 707.391 1059.34 708.714 1059.56 710.026C1060.19 713.984 1060.35 717.865 1060.22 721.63ZM1014.85 688.714C1014.96 688.661 1014.76 688.641 1014.39 688.818C1014.38 688.828 1014.36 688.833 1014.34 688.844C1014.61 688.797 1014.79 688.75 1014.85 688.714ZM1018.97 509.047C1025.58 498.771 1031.99 488.214 1037.35 477.042C1036.34 489.25 1035.02 501.406 1032.92 513.427C1031.68 520.354 1030.07 527.198 1028.21 533.964C1030.91 534.818 1033.67 535.563 1036.53 536.151C1036.22 531.729 1035.73 527.318 1034.84 522.974C1035.52 520.037 1036.14 517.089 1036.71 514.13C1038.47 505.099 1039.81 496.005 1040.92 486.896C1041.93 478.646 1042.78 470.391 1043.61 462.151C1045.75 456.172 1047.49 450.021 1048.64 443.714C1050.19 435.714 1050.59 427.443 1050.04 419.302C1049.95 417.255 1049.65 415.234 1049.44 413.208C1049.34 412.188 1049.15 411.188 1048.98 410.182L1048.48 407.167L1047.84 404.182C1047.62 403.188 1047.44 402.182 1047.16 401.203C1046.63 399.245 1046.18 397.255 1045.54 395.328C1043.8 389.599 1041.52 384.073 1039.02 378.656C1036.93 380.198 1034.79 381.656 1032.67 383.135C1033.34 387.469 1033.65 391.88 1033.94 396.318C1034.26 400.839 1034.45 405.354 1034.44 409.854C1034.42 414.349 1034.2 418.844 1033.48 423.255C1033.15 425.464 1032.66 427.641 1032.08 429.792C1031.75 430.854 1031.47 431.932 1031.07 432.964L1030.49 434.526L1029.98 435.724C1029.58 435.849 1029.25 436.167 1029.13 436.583V436.589C1028.82 437.589 1028.49 438.578 1028.14 439.557C1026.65 442.307 1024.88 444.912 1022.9 447.354C1020.12 450.828 1016.93 453.979 1013.58 456.948C1013.16 457.333 1012.7 457.682 1012.27 458.057C1013.06 458.714 1013.84 459.359 1014.6 460.005C1014.92 459.703 1015.26 459.417 1015.57 459.109C1016.87 457.88 1018.13 456.599 1019.36 455.292C1018.35 456.573 1017.3 457.802 1016.2 458.984C1015.78 459.432 1015.31 459.813 1014.89 460.245C1016.5 461.625 1018.01 463.026 1019.44 464.458C1019.89 463.88 1020.4 463.344 1020.82 462.755C1026.26 455.214 1029.99 446.563 1031.57 437.609C1031.67 437.38 1031.77 437.151 1031.86 436.917C1033.65 432.63 1034.84 428.13 1035.52 423.578L1035.77 421.87L1035.97 420.156C1036.13 419.016 1036.19 417.875 1036.3 416.729C1036.45 414.443 1036.56 412.151 1036.57 409.87C1036.63 405.297 1036.44 400.74 1036.29 396.203C1036.21 393.932 1036.11 391.656 1035.97 389.375C1035.96 389.24 1035.95 389.104 1035.94 388.969C1036.99 391.734 1037.95 394.537 1038.8 397.359C1039.41 399.177 1039.82 401.047 1040.32 402.891C1040.59 403.813 1040.75 404.75 1040.96 405.682L1041.56 408.484L1042.03 411.307C1042.17 412.245 1042.37 413.182 1042.46 414.13C1042.67 416.021 1042.96 417.906 1043.05 419.807L1043.24 422.656C1043.29 423.604 1043.28 424.552 1043.3 425.505C1043.3 426.453 1043.36 427.406 1043.32 428.349L1043.22 431.198L1043.17 432.62L1043.05 434.042L1042.8 436.88C1042.54 438.766 1042.36 440.662 1041.99 442.537C1041.39 446.302 1040.48 450.026 1039.46 453.724L1038.65 456.49C1038.38 457.412 1038.05 458.318 1037.76 459.234C1037.18 461.068 1036.49 462.87 1035.84 464.688C1033.09 471.901 1029.82 478.958 1026.15 485.839C1022.51 492.734 1018.5 499.464 1014.4 506.172C1011.22 511.38 1007.94 516.568 1004.71 521.781C1006.09 522.823 1007.49 523.813 1008.9 524.745C1012.23 519.51 1015.59 514.292 1018.97 509.047ZM971.156 553.031C971.536 551.859 971.688 550.63 971.641 549.464C971.448 544.88 971.365 540.375 971.484 535.932C971.5 534.813 971.542 533.703 971.599 532.604C971.651 531.5 971.693 530.391 971.776 529.297C971.927 527.099 972.13 524.922 972.375 522.745C973.411 514.089 975.479 505.625 979.24 497.891C979.734 496.943 980.193 495.958 980.719 495.026C981.255 494.099 981.818 493.182 982.37 492.255C983.469 490.563 984.656 488.906 985.917 487.287C986.026 487.245 986.13 487.208 986.24 487.172C990.609 485.615 995.063 483.865 999.359 481.578C1007.33 477.344 1014.09 471.37 1019.44 464.458C1018.01 463.026 1016.5 461.625 1014.89 460.245C1012.22 462.932 1009.36 465.391 1006.27 467.474C1007.69 466.245 1009.1 465.01 1010.51 463.75C1011.89 462.526 1013.25 461.271 1014.6 460.005C1013.84 459.359 1013.06 458.714 1012.27 458.057C1009.31 460.625 1006.23 463.073 1003.1 465.484C999.531 468.271 995.859 470.969 992.281 473.849C992.052 474.037 991.823 474.224 991.594 474.406C984.844 476.484 977.536 477.656 969.927 479.365C965.38 480.396 960.682 481.625 955.948 483.537C951.234 485.432 946.453 488.083 942.26 491.75L942.063 491.927C938.708 494.859 938.37 499.958 941.302 503.313C944.24 506.667 949.339 507.01 952.693 504.073C952.953 503.849 953.224 503.573 953.443 503.323C955.734 500.719 958.656 498.484 962.083 496.568C965.5 494.651 969.38 493.057 973.469 491.578C973.896 491.427 974.328 491.276 974.76 491.125C974.026 492.073 973.37 493.063 972.672 494.037C967.276 501.995 963.37 510.875 960.198 519.844C959.427 522.089 958.641 524.339 957.943 526.594C957.208 528.844 956.521 531.109 955.839 533.354C954.49 537.859 953.146 542.344 951.724 546.745L951.719 546.76C949.984 552.13 952.932 557.885 958.302 559.615C963.672 561.349 969.427 558.401 971.156 553.031ZM1042.28 376.141C1043.88 380.703 1044.91 385.443 1045.12 390.26C1047.98 387.24 1049.88 383.354 1050.49 379.271C1053.47 382.203 1055.19 386.323 1055.16 390.443C1055.14 392.688 1054.63 395 1055.33 397.146C1055.86 398.802 1057.06 400.162 1058.15 401.531C1070.76 417.438 1070.83 439.292 1070.34 459.354C1080.44 428.672 1072.78 393.276 1052.15 368.141C1048.92 370.917 1045.63 373.589 1042.28 376.141ZM1036.35 352.912C1030.22 348.292 1023.3 344.318 1015.88 342.5C1014.67 341.094 1013.49 339.677 1012.27 338.292C1010.93 336.807 1009.62 335.286 1008.24 333.839C1002.8 327.979 997.104 322.391 991.255 317C985.396 311.62 979.391 306.432 973.333 301.333C972.151 300.146 970.854 299.052 969.448 298.089C964.667 294.099 959.849 290.13 954.797 286.344C951.016 283.505 947.089 280.797 942.995 278.328C939.661 274.88 936.646 271.146 933.943 267.208C930.693 262.422 927.969 257.297 925.974 251.927C924.016 246.542 922.516 240.953 922.552 235.615C922.557 232.932 923 230.422 923.865 227.984C924.755 225.563 926.042 223.302 927.62 221.281C930.776 217.245 935.12 214.161 939.771 212.797C942.073 212.094 944.464 211.813 946.714 211.958C948.953 212.083 950.807 212.792 951.802 213.708C952.323 214.156 952.771 214.755 953.219 215.505C953.667 216.255 954.078 217.219 954.458 218.297C954.839 219.38 955.172 220.62 955.521 221.948L956.026 223.979C956.182 224.625 956.307 225.224 956.396 225.76C956.573 226.833 956.563 227.651 956.427 228.099C956.37 228.328 956.281 228.448 956.198 228.589L955.818 229.099C955.651 229.307 955.432 229.563 955.167 229.844C954.896 230.125 954.557 230.448 954.188 230.786C953.427 231.469 952.474 232.245 951.37 233.13C947.656 236.104 947.063 241.526 950.036 245.24C953.01 248.953 958.432 249.552 962.146 246.573C962.526 246.271 962.875 245.938 963.188 245.589L963.26 245.505C964.271 244.354 965.422 243.068 966.589 241.531C967.75 239.99 968.958 238.182 969.927 235.958C970.401 234.839 970.802 233.625 971.073 232.344C971.333 231.052 971.453 229.708 971.422 228.469C971.359 225.974 970.823 223.87 970.255 222.104C969.964 221.219 969.661 220.406 969.359 219.656L968.474 217.51C967.859 216.057 967.198 214.526 966.359 212.932C965.526 211.339 964.552 209.688 963.234 208.078C961.922 206.49 960.286 204.943 958.339 203.792C956.396 202.62 954.313 201.927 952.328 201.552C950.333 201.188 948.417 201.115 946.589 201.229C942.958 201.458 939.495 202.359 936.318 203.771C929.964 206.609 924.797 211.302 921.297 216.948C919.563 219.781 918.234 222.859 917.448 226.083C916.646 229.281 916.406 232.693 916.719 235.885C917.01 239.094 917.755 242.172 918.719 245.094C919.682 248.031 920.875 250.786 922.135 253.542C924.698 259.016 927.786 264.177 931.161 269.104C932.214 270.661 933.313 272.177 934.422 273.688C934.359 273.656 934.297 273.625 934.234 273.594C926.911 270.13 919.328 267.464 911.615 265.266C903.901 263.083 896.036 261.438 888.073 260.396C880.109 259.38 872.031 258.974 863.953 259.5C855.891 260.042 847.755 261.516 840.125 264.724L837.302 266.01C836.385 266.495 835.458 266.958 834.552 267.469C832.74 268.516 831 269.719 829.354 271.052C826.078 273.724 823.286 277.078 821.297 280.844C819.302 284.615 818.135 288.74 817.604 292.865C817.083 296.979 817.193 301.156 817.417 305.073C817.448 305.583 817.443 305.974 817.49 306.557C817.531 307.099 817.536 307.641 817.625 308.177C817.75 309.255 817.958 310.323 818.224 311.37C818.755 313.469 819.568 315.479 820.594 317.365C822.646 321.141 825.531 324.401 828.927 326.99C830.62 328.292 832.453 329.427 834.391 330.365C836.323 331.307 838.37 332.063 840.495 332.573C842.62 333.083 844.823 333.38 847.063 333.37C849.297 333.359 851.557 333.068 853.76 332.474C855.958 331.859 858.094 330.958 860.083 329.807C862.057 328.635 863.901 327.234 865.563 325.641C868.87 322.443 871.49 318.552 873.328 314.245C875.161 309.938 876.271 305.188 876.302 300.12C876.344 295.068 875.208 289.635 872.547 284.49L871.422 282.307C868.88 277.391 862.833 275.458 857.917 278C853 280.542 851.073 286.589 853.609 291.505C854.557 293.339 855.99 294.755 857.672 295.682C859.781 296.844 861.5 299.057 862.495 301.828C863.49 304.594 863.75 307.87 863.234 311.083C862.708 314.302 861.443 317.484 859.469 320.156C858.49 321.49 857.339 322.708 856.031 323.724C855.385 324.234 854.703 324.708 853.984 325.12C853.625 325.323 853.26 325.536 852.88 325.698C852.505 325.87 852.13 326.057 851.734 326.193C848.635 327.432 845.099 327.698 841.63 327.125C838.151 326.552 834.75 325.135 831.771 323.089C828.792 321.036 826.224 318.349 824.432 315.229C823.531 313.672 822.839 312.005 822.375 310.286C822.135 309.427 821.979 308.552 821.87 307.672C821.797 307.234 821.797 306.786 821.76 306.344C821.724 305.943 821.719 305.349 821.688 304.87C821.583 302.88 821.495 300.979 821.51 299.078C821.547 297.182 821.682 295.302 821.948 293.458C822.49 289.771 823.583 286.208 825.349 283.026C827.104 279.849 829.505 277.057 832.38 274.797C833.823 273.672 835.354 272.651 836.974 271.755L839.469 270.469L842.036 269.323C849.01 266.469 856.625 265.094 864.281 264.625C871.953 264.161 879.708 264.583 887.385 265.599C895.068 266.646 902.682 268.276 910.135 270.427C917.589 272.583 924.901 275.276 931.818 278.625C938.688 281.969 945.13 286.255 951.297 290.979C957.464 295.693 963.432 300.828 969.411 305.943C971.568 307.792 973.703 309.656 975.828 311.526C977.432 314.24 978.734 317.182 979.807 320.219C982.521 328.099 984.328 336.417 984.323 344.734C984.344 348.891 983.854 353.031 982.885 357.042C981.896 361.047 980.318 364.891 978.302 368.5C974.224 375.682 968.458 381.995 961.432 386.177C959.667 387.193 957.859 388.13 955.969 388.854C955.505 389.057 955.021 389.188 954.547 389.359C954.068 389.526 953.594 389.693 953.109 389.807L951.656 390.198L950.188 390.49C948.224 390.818 946.24 391.026 944.271 390.917L943.531 390.901L942.802 390.813L941.349 390.646C940.87 390.573 940.396 390.443 939.917 390.344C939.443 390.224 938.958 390.167 938.5 389.99C934.76 388.865 931.24 386.938 928.302 384.344C925.375 381.745 922.964 378.573 921.375 375.073L920.828 373.745C920.74 373.526 920.635 373.307 920.557 373.083L920.354 372.396L919.932 371.037L919.646 369.651C919.406 368.734 919.38 367.792 919.281 366.859C919.219 366.396 919.281 365.927 919.297 365.458C919.328 364.995 919.318 364.531 919.38 364.068C919.885 360.359 921.667 356.901 924.094 354.219C925.354 352.901 926.599 351.662 928.021 350.667C929.37 349.599 930.818 348.76 932.193 347.948C933.641 347.26 934.995 346.531 936.385 346.016C936.729 345.88 937.057 345.682 937.406 345.573C937.75 345.458 938.089 345.323 938.427 345.177C938.76 345.01 939.104 344.906 939.443 344.776C939.781 344.635 940.12 344.495 940.458 344.302L942.063 343.391C945.786 341.271 947.083 336.536 944.969 332.818C943.422 330.099 940.464 328.672 937.536 328.932C934.734 329.182 931.958 329.958 929.484 331.224C926.958 332.417 924.766 334.115 922.781 335.943C918.875 339.698 916.203 344.385 914.609 349.208C914.411 349.818 914.26 350.443 914.089 351.047C913.927 351.662 913.729 352.25 913.635 352.88C913.396 354.12 913.12 355.318 913.01 356.563C912.948 357.182 912.844 357.781 912.792 358.391C912.771 359.01 912.734 359.62 912.698 360.229L912.646 361.135L912.661 362.052L912.688 363.87C912.698 364.469 912.776 365.073 912.823 365.677L912.901 366.573L912.938 367.021L913.016 367.469C913.224 368.646 913.344 369.844 913.688 370.99C913.844 371.563 913.984 372.141 914.146 372.714L914.755 374.38L915.063 375.214C915.167 375.49 915.307 375.75 915.427 376.021L916.188 377.615C920.563 385.917 928.313 392.172 937.318 394.427C937.87 394.604 938.453 394.662 939.016 394.776C939.589 394.87 940.156 394.995 940.729 395.057L942.464 395.203L943.328 395.271L944.188 395.266C946.49 395.307 948.771 395 950.995 394.542C955.448 393.589 959.609 391.724 963.396 389.38C965.266 388.172 967.068 386.865 968.755 385.427C970.422 383.974 972.042 382.464 973.516 380.818C976.495 377.552 979.031 373.943 981.161 370.089C983.281 366.234 984.938 362.099 985.969 357.807C987.016 353.521 987.521 349.125 987.531 344.745C987.589 340.359 987.115 336.005 986.406 331.708C986.031 329.563 985.594 327.427 985.063 325.323C984.542 323.208 983.953 321.12 983.271 319.036C983.135 318.63 983 318.224 982.859 317.818C984.234 319.078 985.604 320.339 986.964 321.615C992.661 326.979 998.182 332.505 1003.42 338.266C1013.92 349.745 1023.2 362.297 1030.22 376.016C1030.86 377.287 1031.48 378.573 1032.08 379.859C1032.28 380.865 1032.46 381.875 1032.64 382.891C1032.65 382.969 1032.65 383.052 1032.67 383.135C1034.79 381.656 1036.93 380.198 1039.02 378.656C1038.14 376.724 1037.32 374.76 1036.34 372.87C1032.61 365.703 1028.31 358.854 1023.57 352.359C1022.71 351.151 1021.81 349.99 1020.91 348.818C1030.89 355.234 1038.42 365.094 1042.28 376.141C1045.63 373.589 1048.92 370.917 1052.15 368.141C1047.52 362.49 1042.24 357.349 1036.35 352.912ZM1047.01 331.615C1049.54 331.615 1051.58 329.563 1051.58 327.036V52.2188C1051.58 49.6875 1049.54 47.6407 1047.01 47.6407C1044.47 47.6407 1042.43 49.6875 1042.43 52.2188V327.036C1042.43 329.563 1044.47 331.615 1047.01 331.615ZM1047.01 798.323C1044.47 798.323 1042.43 800.375 1042.43 802.901V1070.42C1042.43 1072.95 1044.47 1075 1047.01 1075C1049.54 1075 1051.58 1072.95 1051.58 1070.42V802.901C1051.58 800.375 1049.54 798.323 1047.01 798.323ZM330.245 78.5052C326.531 76.1094 323.068 73.3542 320.115 70.1823C317.167 67.0209 314.714 63.4011 313.172 59.4948C311.625 55.5782 310.911 51.3177 311.266 47.2136C311.437 45.1615 311.885 43.1511 312.609 41.2709C312.792 40.8021 312.969 40.3282 313.203 39.8854L313.531 39.2084C313.641 38.9844 313.786 38.7709 313.911 38.5521C314.177 38.125 314.406 37.6771 314.703 37.2656L315.594 36.0417C316.865 34.4636 318.349 33.0469 319.995 31.7969C321.661 30.5729 323.5 29.5417 325.422 28.6667C329.292 26.9427 333.536 25.9323 337.833 25.4479C346.453 24.5417 355.547 25.3073 362.583 28.8281C363.464 29.2552 364.302 29.75 365.089 30.2448C365.479 30.5052 365.859 30.7865 366.24 31.0521L367.339 31.9063C367.687 32.2136 368.042 32.5 368.37 32.8125C368.693 33.1406 369.026 33.4479 369.323 33.7813C369.927 34.4479 370.51 35.099 370.995 35.8229C372.99 38.6302 373.948 41.7865 373.469 44.4115C373.302 45.3229 373.24 46.25 373.255 47.1823C378.552 40.6146 384.198 34.3177 390.453 28.4896C387.771 25.9271 384.917 23.7917 381.984 22.1302C380.693 21.4167 379.406 20.7448 378.099 20.1667C376.786 19.5886 375.464 19.0834 374.151 18.6094L372.161 17.9792C371.49 17.8021 370.828 17.6146 370.156 17.4531C368.818 17.1198 367.495 16.8594 366.182 16.6511C360.922 15.8073 355.807 15.7917 350.901 16.2031C348.448 16.4063 346.036 16.7292 343.667 17.1146C341.307 17.5156 338.943 17.9532 336.589 18.5261C331.901 19.6615 327.281 21.1979 322.901 23.4167C320.719 24.5521 318.594 25.8229 316.615 27.3594C314.646 28.9115 312.833 30.6979 311.281 32.7136L310.182 34.2813C309.828 34.8073 309.536 35.3802 309.214 35.9271C309.062 36.2084 308.891 36.4792 308.755 36.7656L308.349 37.6406C308.068 38.2136 307.849 38.8177 307.63 39.4167C306.755 41.8177 306.26 44.3229 306.094 46.8282C305.771 51.8438 306.729 56.8125 308.62 61.3542C310.531 65.9219 313.401 69.9271 316.74 73.3854C320.089 76.8386 323.901 79.7344 327.906 82.2136C328.911 82.8282 329.922 83.4375 330.958 83.9844L334.083 85.599L335.646 86.4011C336.172 86.6615 336.714 86.875 337.25 87.1146L340.474 88.5052L341.276 88.849L342.104 89.1459L342.807 89.3959C343.63 88.25 344.464 87.099 345.281 85.9479C340.036 83.9271 334.979 81.4479 330.245 78.5052ZM459.156 56.8907C464.995 57.0729 470.818 57.4375 476.646 57.8177C476.839 55.9375 477.016 54.0573 477.172 52.1719C471.901 52.8177 466.656 53.6615 461.495 54.9063C460.406 55.1667 459.062 55.7761 459.156 56.8907ZM547.25 70.0104C543.927 72.1042 540.578 74.1459 537.208 76.1407C533.833 78.125 530.411 80.0104 526.964 81.8386C520.031 85.4063 512.969 88.7917 505.661 90.9167C502.005 91.974 498.297 92.7031 494.583 92.974C492.729 93.0886 490.88 93.0729 489.042 92.9584C487.214 92.8021 485.401 92.5365 483.615 92.1302C479.552 91.2031 475.708 89.5156 472.151 87.3281C471.714 89.3854 471.229 91.4427 470.734 93.5052C472.547 94.4271 474.417 95.2396 476.333 95.9323C478.323 96.6302 480.365 97.1979 482.432 97.6302C484.505 98.0417 486.609 98.2865 488.719 98.4063C490.823 98.4844 492.922 98.4323 495.005 98.2448C499.156 97.8698 503.214 96.9844 507.115 95.7813C511.016 94.5625 514.792 93.0834 518.453 91.4375C522.13 89.8021 525.672 87.9844 529.229 86.1667C536.281 82.4479 543.151 78.4375 549.911 74.3073C553.036 72.4011 556.109 70.474 559.198 68.5417C558.5 66.9271 557.771 65.3334 557.01 63.75C553.76 65.8386 550.51 67.9584 547.25 70.0104ZM874.656 123.88C874.281 121.896 873.589 119.813 872.417 117.87C871.266 115.922 869.719 114.286 868.125 112.974C866.521 111.656 864.87 110.682 863.276 109.849C861.682 109.01 860.151 108.349 858.698 107.734L856.552 106.849C855.802 106.547 854.99 106.24 854.104 105.953C852.339 105.385 850.234 104.849 847.74 104.786C846.5 104.755 845.156 104.875 843.865 105.135C842.583 105.406 841.37 105.807 840.25 106.281C838.026 107.25 836.219 108.458 834.677 109.62C833.141 110.786 831.854 111.932 830.703 112.948L830.62 113.021C830.271 113.333 829.938 113.682 829.635 114.063C826.656 117.771 827.255 123.198 830.969 126.172C834.677 129.146 840.099 128.552 843.078 124.839C843.964 123.734 844.734 122.781 845.422 122.021C845.76 121.651 846.078 121.313 846.365 121.042C846.646 120.776 846.901 120.557 847.109 120.391L847.62 120.01C847.76 119.927 847.88 119.839 848.109 119.776C848.557 119.641 849.375 119.635 850.448 119.813C850.984 119.901 851.578 120.026 852.229 120.177L854.26 120.688C855.589 121.031 856.828 121.37 857.911 121.745C858.99 122.13 859.953 122.542 860.703 122.984C861.453 123.438 862.052 123.885 862.5 124.406C863.417 125.401 864.125 127.255 864.25 129.49C864.391 131.74 864.115 134.135 863.411 136.438C862.047 141.089 858.964 145.432 854.927 148.589C852.906 150.167 850.641 151.453 848.224 152.339C845.786 153.208 843.276 153.646 840.594 153.656C835.255 153.693 829.667 152.193 824.281 150.234C818.911 148.24 813.781 145.516 809 142.266C805.063 139.563 801.328 136.547 797.88 133.214C795.411 129.12 792.703 125.193 789.865 121.411C786.078 116.359 782.109 111.536 778.12 106.755C777.156 105.354 776.063 104.057 774.875 102.875C769.776 96.8177 764.583 90.8125 759.208 84.9532C753.818 79.1042 748.229 73.4063 742.37 67.9636C740.922 66.5886 739.401 65.2813 737.917 63.9427C736.531 62.7188 735.109 61.5365 733.703 60.3334C731.891 52.9063 727.917 45.9844 723.297 39.8542C720.172 35.7136 716.698 31.8802 712.953 28.3542C711.88 31.5625 710.958 35.0052 709.979 38.5313C716.917 42.7084 722.974 48.4271 727.385 55.2917C726.219 54.3959 725.057 53.4896 723.849 52.6407C719.005 49.1042 713.901 45.9115 708.682 42.9219C707.995 45.1094 707.188 47.2761 706.26 49.4063C717.615 55.9219 728.193 63.8646 737.943 72.7917C743.703 78.0261 749.229 83.5417 754.594 89.2448C755.87 90.6042 757.13 91.974 758.391 93.349C757.984 93.2084 757.578 93.0677 757.167 92.9375C755.089 92.2552 752.995 91.6667 750.885 91.1459C748.776 90.6146 746.641 90.1771 744.5 89.8021C740.203 89.0938 735.844 88.6198 731.464 88.6771C727.083 88.6875 722.688 89.1875 718.401 90.2396C714.109 91.2709 709.974 92.9271 706.12 95.0469C702.266 97.1771 698.656 99.7084 695.391 102.693C693.745 104.161 692.234 105.786 690.776 107.453C689.344 109.141 688.036 110.943 686.828 112.813C684.484 116.599 682.62 120.76 681.667 125.214C681.208 127.438 680.901 129.719 680.943 132.016L680.937 132.88L681.005 133.745L681.151 135.479C681.208 136.052 681.339 136.62 681.432 137.188C681.547 137.755 681.604 138.339 681.781 138.891C684.031 147.896 690.292 155.646 698.594 160.021L700.188 160.781C700.458 160.901 700.719 161.042 700.995 161.146L701.823 161.453L703.495 162.063C704.068 162.224 704.646 162.365 705.219 162.516C706.365 162.865 707.557 162.984 708.74 163.193L709.188 163.271L709.635 163.307L710.531 163.385C711.13 163.427 711.74 163.51 712.339 163.521L714.156 163.547L715.068 163.563L715.979 163.51C716.583 163.474 717.198 163.438 717.818 163.417C718.427 163.365 719.026 163.26 719.646 163.198C720.891 163.089 722.089 162.813 723.328 162.573C723.958 162.479 724.547 162.281 725.161 162.12C725.766 161.948 726.391 161.797 726.995 161.599C731.823 160.005 736.51 157.333 740.26 153.427C742.094 151.443 743.792 149.25 744.984 146.724C746.25 144.25 747.026 141.474 747.276 138.667C747.536 135.74 746.109 132.786 743.391 131.24C739.667 129.12 734.938 130.422 732.818 134.141L731.901 135.75C731.714 136.089 731.568 136.427 731.432 136.766C731.302 137.104 731.198 137.448 731.031 137.781C730.88 138.12 730.75 138.458 730.635 138.802C730.526 139.151 730.328 139.474 730.193 139.823C729.677 141.214 728.948 142.568 728.255 144.016C727.448 145.391 726.604 146.839 725.542 148.188C724.547 149.604 723.307 150.854 721.99 152.115C719.307 154.542 715.849 156.323 712.141 156.828C711.677 156.891 711.214 156.88 710.745 156.911C710.281 156.922 709.813 156.99 709.349 156.927C708.417 156.828 707.474 156.802 706.557 156.563L705.172 156.276L703.807 155.854L703.125 155.646C702.901 155.573 702.682 155.469 702.464 155.38L701.13 154.833C697.635 153.245 694.464 150.828 691.865 147.906C689.271 144.969 687.344 141.448 686.219 137.708C686.042 137.25 685.984 136.766 685.865 136.292C685.766 135.813 685.63 135.339 685.563 134.859L685.396 133.406L685.307 132.677L685.292 131.938C685.182 129.969 685.391 127.984 685.719 126.021L686.01 124.552L686.401 123.099C686.516 122.609 686.682 122.135 686.849 121.661C687.021 121.188 687.151 120.703 687.354 120.24C688.073 118.349 689.016 116.542 690.026 114.776C694.214 107.75 700.526 101.984 707.708 97.9011C711.318 95.8854 715.161 94.3125 719.167 93.3229C723.177 92.3542 727.318 91.8646 731.474 91.8854C739.792 91.8802 748.104 93.6875 755.99 96.4011C759.026 97.474 761.969 98.7761 764.682 100.38C766.552 102.505 768.417 104.641 770.266 106.792C775.38 112.776 780.516 118.745 785.229 124.911C789.948 131.078 794.234 137.521 797.583 144.385C800.932 151.307 803.625 158.62 805.781 166.073C807.932 173.526 809.563 181.141 810.604 188.818C811.625 196.5 812.047 204.255 811.583 211.927C811.115 219.583 809.74 227.193 806.885 234.172L805.74 236.74L804.453 239.234C803.552 240.849 802.536 242.385 801.411 243.828C799.151 246.698 796.359 249.104 793.177 250.859C790 252.625 786.438 253.719 782.75 254.26C780.906 254.526 779.026 254.661 777.13 254.698C775.224 254.714 773.328 254.62 771.333 254.521C770.859 254.49 770.266 254.484 769.859 254.448C769.422 254.411 768.974 254.411 768.536 254.339C767.656 254.229 766.781 254.073 765.922 253.833C764.203 253.37 762.536 252.677 760.979 251.776C757.859 249.984 755.172 247.417 753.115 244.438C751.073 241.458 749.656 238.052 749.083 234.578C748.51 231.109 748.776 227.573 750.016 224.469C750.151 224.078 750.339 223.703 750.51 223.328C750.672 222.943 750.885 222.583 751.089 222.224C751.5 221.505 751.974 220.823 752.484 220.172C753.5 218.865 754.719 217.719 756.052 216.74C758.724 214.766 761.906 213.5 765.125 212.974C768.339 212.458 771.615 212.719 774.38 213.714C777.146 214.708 779.365 216.427 780.526 218.536C781.453 220.219 782.87 221.651 784.703 222.599C789.62 225.135 795.667 223.208 798.208 218.292C800.745 213.375 798.818 207.328 793.901 204.786L791.714 203.661C786.573 201 781.141 199.865 776.089 199.906C771.021 199.938 766.271 201.047 761.958 202.88C757.656 204.719 753.766 207.339 750.568 210.646C748.974 212.307 747.573 214.151 746.401 216.125C745.245 218.115 744.344 220.25 743.734 222.448C743.135 224.651 742.849 226.911 742.839 229.146C742.828 231.38 743.125 233.589 743.63 235.714C744.146 237.839 744.901 239.885 745.844 241.818C746.781 243.755 747.917 245.589 749.219 247.281C751.807 250.672 755.068 253.563 758.844 255.615C760.729 256.635 762.74 257.453 764.839 257.984C765.885 258.25 766.953 258.458 768.031 258.583C768.568 258.672 769.109 258.677 769.651 258.719C770.234 258.766 770.625 258.76 771.13 258.792C775.052 259.01 779.229 259.125 783.344 258.604C787.464 258.073 791.594 256.906 795.359 254.906C799.13 252.922 802.479 250.13 805.156 246.854C806.49 245.208 807.688 243.469 808.74 241.656C809.25 240.75 809.708 239.823 810.198 238.906L811.484 236.083C814.688 228.453 816.167 220.318 816.708 212.255C817.234 204.172 816.828 196.099 815.813 188.135C814.771 180.172 813.125 172.307 810.943 164.594C808.745 156.88 806.078 149.292 802.615 141.974C802.583 141.911 802.552 141.849 802.521 141.786C804.026 142.896 805.547 143.995 807.104 145.047C812.031 148.422 817.193 151.51 822.667 154.073C825.422 155.333 828.177 156.526 831.115 157.49C834.036 158.453 837.115 159.198 840.323 159.49C843.516 159.802 846.927 159.563 850.125 158.76C853.349 157.974 856.427 156.646 859.26 154.906C864.906 151.411 869.599 146.245 872.432 139.891C873.849 136.714 874.75 133.25 874.979 129.62C875.089 127.792 875.021 125.875 874.656 123.88ZM703.339 39.8646C696.151 36.1719 688.651 33.0313 680.88 30.6719C678.948 30.0313 676.964 29.5834 675 29.0469C674.026 28.7709 673.021 28.5886 672.026 28.3646L669.042 27.724L666.026 27.224C665.021 27.0625 664.021 26.8646 663 26.7709C660.969 26.5625 658.953 26.2552 656.906 26.1719C648.766 25.6146 640.495 26.0209 632.495 27.5677C626.187 28.7136 620.036 30.4584 614.057 32.5938C605.818 33.4323 597.562 34.2709 589.312 35.2917C580.203 36.3959 571.109 37.7396 562.073 39.5C559.12 40.0677 556.172 40.6927 553.234 41.3646C550.969 40.9011 548.672 40.6042 546.375 40.3021C547.057 42.3229 547.807 44.3073 548.635 46.2604C553.318 45.1354 558.031 44.1354 562.776 43.2917C574.802 41.1875 586.958 39.8646 599.167 38.8594C587.995 44.2136 577.432 50.6302 567.161 57.2344C563.771 59.4219 560.391 61.5729 557.01 63.75C557.771 65.3334 558.5 66.9271 559.198 68.5417C562.802 66.2813 566.417 64.0209 570.036 61.8125C576.745 57.7084 583.474 53.6979 590.37 50.0573C597.25 46.3907 604.307 43.1198 611.521 40.3646C613.339 39.7188 615.141 39.0261 616.974 38.4479C617.891 38.1563 618.797 37.8281 619.719 37.5573L622.479 36.7448C626.182 35.7292 629.906 34.8177 633.672 34.2136C635.547 33.849 637.443 33.6667 639.328 33.4011L642.167 33.1563L643.589 33.0365L645.01 32.9896L647.854 32.8906C648.802 32.8438 649.755 32.9063 650.703 32.9063C651.656 32.9271 652.604 32.9219 653.552 32.9636L656.401 33.1563C658.302 33.2396 660.187 33.5417 662.078 33.75C663.026 33.8386 663.958 34.0365 664.901 34.1823L667.724 34.6459L670.526 35.25C671.453 35.4584 672.396 35.6198 673.318 35.8854C675.161 36.3854 677.026 36.8021 678.849 37.4063C681.672 38.2604 684.474 39.2136 687.24 40.2656C687.104 40.2552 686.969 40.2448 686.833 40.2344C684.552 40.099 682.276 40 680.005 39.9219C675.469 39.7709 670.911 39.5782 666.339 39.6354C664.052 39.6511 661.766 39.7604 659.479 39.9115C658.333 40.0209 657.187 40.0834 656.052 40.2396L654.339 40.4375L652.63 40.6875C648.078 41.3646 643.578 42.5625 639.286 44.3438C639.057 44.4375 638.828 44.5417 638.599 44.6407C629.646 46.2136 620.995 49.9479 613.453 55.3854C612.193 56.2969 611.01 57.3282 609.812 58.3334C611.099 60.0365 612.615 61.6146 614.245 63.1198C615.219 62.0677 616.167 60.9948 617.224 60.0104C618.406 58.9115 619.635 57.8542 620.917 56.849C619.609 58.0834 618.328 59.3386 617.099 60.6354C616.224 61.5417 615.401 62.4792 614.557 63.4063C615.318 64.099 616.089 64.7813 616.87 65.4479C617.661 64.5052 618.437 63.5417 619.255 62.6302C622.229 59.2709 625.38 56.0886 628.854 53.3125C631.292 51.3334 633.901 49.5573 636.651 48.0677C637.63 47.7136 638.62 47.3854 639.62 47.0834C640.042 46.9584 640.359 46.625 640.484 46.224L641.682 45.7136L643.245 45.1407C644.276 44.7344 645.354 44.4532 646.417 44.1302C648.568 43.5521 650.74 43.0573 652.953 42.724C657.365 42.0052 661.859 41.7865 666.354 41.7709C670.854 41.7552 675.37 41.9479 679.891 42.2656C684.406 42.5573 688.906 42.8646 693.318 43.5729C694.333 43.7396 695.344 43.9219 696.349 44.125C697.635 44.7292 698.922 45.3438 700.193 45.9896C702.26 47.0469 704.245 48.25 706.26 49.4063C707.188 47.2761 707.995 45.1094 708.682 42.9219C706.901 41.9011 705.161 40.8125 703.339 39.8646ZM616.854 5.86461C636.917 5.37502 658.771 5.45315 674.672 18.0573C676.047 19.1459 677.406 20.3438 679.062 20.8802C681.208 21.5782 683.516 21.0729 685.766 21.0521C689.885 21.0157 694.005 22.7344 696.938 25.7136C692.849 26.3281 688.969 28.2292 685.948 31.0886C694.396 31.4584 702.682 34.1406 709.979 38.5313C710.958 35.0052 711.88 31.5625 712.953 28.3542C687.677 4.53127 649.583 -4.91143 616.854 5.86461ZM612.458 65.6979C611.198 67.1042 609.964 68.5209 608.734 69.9427C610.359 67.5313 612.245 65.2813 614.245 63.1198C612.615 61.6146 611.099 60.0365 609.812 58.3334C603.729 63.4271 598.464 69.6354 594.63 76.849C592.339 81.1459 590.594 85.599 589.036 89.9688C589 90.0729 588.964 90.1823 588.922 90.2917C587.302 91.5521 585.646 92.7396 583.953 93.8386C583.026 94.3906 582.109 94.9531 581.182 95.4896C580.25 96.0156 579.266 96.474 578.318 96.9636C570.583 100.729 562.12 102.797 553.464 103.833C551.286 104.078 549.109 104.281 546.911 104.432C545.818 104.516 544.708 104.552 543.604 104.609C542.505 104.667 541.396 104.708 540.276 104.724C535.833 104.844 531.328 104.76 526.745 104.568C525.578 104.521 524.349 104.672 523.177 105.052C517.807 106.781 514.859 112.536 516.589 117.906C518.323 123.276 524.078 126.219 529.448 124.49L529.464 124.484C533.865 123.063 538.349 121.719 542.854 120.37C545.099 119.688 547.365 119 549.615 118.266C551.87 117.568 554.12 116.781 556.365 116.01C565.328 112.839 574.214 108.932 582.172 103.536C583.146 102.839 584.135 102.182 585.083 101.448C584.932 101.875 584.781 102.313 584.63 102.74C583.151 106.828 581.557 110.708 579.641 114.125C577.724 117.552 575.49 120.474 572.885 122.76C572.635 122.984 572.359 123.255 572.135 123.516C569.198 126.87 569.536 131.969 572.896 134.901C576.25 137.839 581.349 137.5 584.281 134.146L584.458 133.943C588.12 129.755 590.776 124.974 592.672 120.26C594.578 115.526 595.812 110.828 596.844 106.281C598.552 98.6719 599.724 91.3594 601.797 84.6146C601.984 84.3854 602.172 84.1563 602.359 83.9271C605.24 80.349 607.937 76.6719 610.724 73.1042C612.729 70.5052 614.776 67.9479 616.87 65.4479C616.089 64.7813 615.318 64.099 614.557 63.4063C613.859 64.1719 613.146 64.9271 612.458 65.6979ZM515.099 40.9948C517.276 42.5677 519.578 43.9532 521.88 45.3334C517.214 43.2969 512.167 42.1667 507.083 41.9375C507.474 41.5521 507.844 41.1511 508.193 40.7136C513.016 34.6615 512.021 25.849 505.974 21.0261L504.354 19.7396C500.182 16.4115 495.854 13.7709 491.312 11.6771C487.349 9.87502 483.203 8.57294 478.906 7.71877C478.854 15.1615 478.74 22.6042 478.479 30.0469C478.771 30.3125 479.104 30.5261 479.385 30.8021C481.536 32.8906 483.354 35.3073 484.5 37.8125C485.385 39.724 486.745 41.5313 488.51 42.9375C489.229 43.5104 489.99 43.9948 490.781 44.4063C489.964 44.7032 489.156 45.0209 488.359 45.3698C493.333 47.3698 498.307 49.3698 503.281 51.375C494.578 50.7813 485.833 51.1198 477.172 52.1719C477.016 54.0573 476.839 55.9375 476.646 57.8177C485.734 58.4115 494.807 59.1615 503.854 60.2344C503.807 60.2604 503.755 60.2865 503.708 60.3177C501.724 61.4896 499.766 62.6979 497.828 63.9271C493.943 66.375 490.135 68.8907 486.281 71.3073C482.432 73.724 478.542 76.0469 474.521 78.0782C474.302 78.1927 474.073 78.2709 473.854 78.3802C473.641 79.6042 473.401 80.8334 473.172 82.0573C474.078 81.625 475.01 81.25 475.901 80.7917C477.964 79.7396 479.99 78.6198 481.984 77.4636C483.984 76.3177 485.953 75.125 487.906 73.9167C495.719 69.0938 503.224 63.9115 511.276 59.8229C519.276 55.6407 527.703 52.2604 536.349 49.5938C540.401 48.3386 544.505 47.25 548.635 46.2604C547.807 44.3073 547.057 42.3229 546.375 40.3021C535.995 38.9219 525.401 39.0886 515.099 40.9948ZM472.151 87.3281C471.714 89.3854 471.229 91.4427 470.734 93.5052C470.672 93.4688 470.599 93.4479 470.536 93.4167C468.672 92.4375 466.859 91.3646 465.135 90.1719C463.745 89.2031 462.396 88.1771 461.094 87.0938C457.417 88.3646 453.677 89.4584 449.885 90.3542C445.375 91.4219 440.818 92.2031 436.255 92.8281C433.635 93.1875 431.016 93.5 428.396 93.7865C425.469 94.2552 422.495 94.5729 419.5 94.6979C415.969 95.0469 412.432 95.3906 408.885 95.6511C399.74 96.3542 390.531 96.7604 381.302 96.4323C378.333 96.3229 375.365 96.1302 372.401 95.8542C372.01 96.1563 371.51 96.3334 370.979 96.2969C370.87 96.2865 370.755 96.2709 370.656 96.25C369.005 95.875 367.24 95.8334 365.469 96.1094C363.693 96.3854 361.917 96.9271 360.187 97.6459C358.448 98.3594 356.76 99.2552 355.099 100.214C353.443 101.193 351.766 102.193 350.25 103.302C348.719 104.396 347.328 105.63 346.224 107.057C345.682 107.771 345.187 108.531 344.776 109.339C344.375 110.151 344.031 110.995 343.745 111.865C343.177 113.609 342.87 115.453 342.734 117.313C342.594 119.172 342.635 121.073 342.812 122.943C343.146 126.661 344.167 130.292 346.099 133.188C348.047 136.052 350.922 138.286 354.016 138.625C354.797 138.724 355.604 138.75 356.427 138.667C357.245 138.599 358.083 138.464 358.922 138.245C359.766 138.047 360.615 137.781 361.427 137.464C362.245 137.161 363.036 136.781 363.797 136.375C364.557 135.964 365.281 135.495 365.969 134.995C366.312 134.74 366.646 134.469 366.974 134.203C367.297 133.922 367.609 133.635 367.844 133.365C368.323 132.828 368.557 132.292 368.411 131.969C368.333 131.807 368.177 131.724 367.937 131.719C367.885 131.714 367.812 131.719 367.755 131.729C367.698 131.74 367.583 131.833 367.505 131.88C367.344 132 367.177 132.115 367.021 132.245C368.427 128.063 372.958 125.813 377.141 127.219C381.323 128.625 383.573 133.151 382.167 137.339C381.859 137.927 381.5 138.495 381.104 139.047C380.911 139.313 380.682 139.62 380.484 139.828C380.286 140.042 380.094 140.26 379.891 140.448C379.073 141.234 378.24 141.865 377.427 142.339C375.802 143.307 374.333 143.76 373.057 144.078C372.411 144.24 371.828 144.339 371.25 144.443C370.672 144.547 370.094 144.641 369.521 144.719C368.37 144.885 367.229 145.005 366.099 145.094C364.969 145.188 363.844 145.219 362.734 145.24C361.62 145.245 360.531 145.224 359.422 145.161C358.307 145.083 357.187 144.984 356.052 144.797C354.927 144.599 353.786 144.344 352.672 143.974C350.422 143.193 348.37 141.974 346.687 140.474C345 138.969 343.646 137.193 342.615 135.276C340.526 131.422 339.812 127.188 339.672 123.135C339.578 119.089 339.891 114.969 341.266 111.026C341.62 110.047 342.036 109.083 342.526 108.156C343.031 107.24 343.599 106.349 344.245 105.51C345.557 103.849 347.135 102.479 348.755 101.266C350.391 100.063 352.042 98.9948 353.719 97.9323C355.401 96.8698 357.13 95.849 358.958 94.9479C359.464 94.7031 359.979 94.4636 360.505 94.2344C358.255 93.8177 356.01 93.3438 353.781 92.7917C352.641 92.5521 351.526 92.2136 350.411 91.8802L347.057 90.8959C345.948 90.5365 344.854 90.1198 343.755 89.7344L342.807 89.3959C343.63 88.25 344.464 87.099 345.281 85.9479C348.375 87.1354 351.516 88.2031 354.75 89.0052C363.432 91.25 372.417 92.3906 381.448 92.8281C388.01 93.1302 394.604 93.0521 401.198 92.7604C396.714 91.5052 392.328 89.7813 388.177 87.0729C386.089 85.6979 384.068 84.0521 382.281 82.0469C380.495 80.0521 378.958 77.6511 377.927 75.0157C376.901 72.3907 376.38 69.7084 376.13 67.1459C376 65.8646 375.943 64.6042 375.917 63.375C375.906 62.7552 375.906 62.1511 375.911 61.5469C375.917 60.974 375.922 60.2136 376.068 59.2188C376.187 58.4219 376.422 57.4323 376.911 56.3854C376.479 55.9115 376.073 55.4115 375.703 54.8698C374.094 52.5261 373.307 49.8438 373.255 47.1823C378.552 40.6146 384.198 34.3177 390.453 28.4896C392.453 30.4063 394.365 32.5313 396.078 35.0209L398.807 38.9896C400.568 41.5521 401.359 44.4896 401.266 47.3698C401.797 47.4479 402.328 47.5417 402.859 47.6459C403.62 47.8282 404.37 48 405.167 48.2604C406.734 48.7709 408.224 49.4427 409.63 50.2604C412.443 51.8959 414.953 54.1094 416.948 56.9532C418.932 59.7813 420.37 63.3594 420.604 67.2552L420.719 69.1354C421.005 73.8386 417.427 77.8854 412.719 78.1771C408.01 78.4636 403.964 74.8802 403.677 70.1719C403.625 69.3334 403.708 68.474 403.891 67.6875C404.021 67.1459 403.974 66.3854 403.568 65.4896C403.177 64.6042 402.448 63.6563 401.531 62.9115C401.078 62.5313 400.578 62.2032 400.073 61.9375C399.833 61.8073 399.516 61.6927 399.214 61.5573C398.901 61.4584 398.589 61.3334 398.25 61.2552C396.922 60.8802 395.396 60.7448 393.781 60.8438C392.167 60.9375 390.464 61.2709 388.781 61.8073C388.568 61.8646 388.365 61.9479 388.151 62.0157L387.568 62.2188C387.458 62.2604 387.37 62.2917 387.297 62.3177C387.297 62.3229 387.297 62.3229 387.297 62.3229C387.224 62.8282 387.161 63.3229 387.109 63.8125C387 64.7917 386.922 65.75 386.891 66.6771C386.828 68.5313 386.953 70.2709 387.333 71.8542C388.052 74.9584 390.135 77.9532 393.078 80.4636C396 82.9844 399.667 85.0365 403.474 86.6302C407.302 88.2292 411.411 89.2917 415.625 89.9427C419.74 90.5677 423.958 90.7604 428.198 90.625C430.75 90.349 433.297 90.0573 435.833 89.7136C440.323 89.1042 444.786 88.349 449.172 87.3281C452.302 86.5938 455.396 85.7292 458.453 84.7344C452.922 79.5261 448.448 73.2657 445.073 66.4427C444.125 64.5677 443.297 62.6302 442.536 60.6615C441.76 58.6979 441.125 56.6771 440.552 54.6198C440.286 53.5834 439.99 52.5469 439.786 51.4896L439.458 49.9063L439.198 48.3073C439 47.2448 438.917 46.1563 438.781 45.0782C438.687 43.9896 438.615 42.8959 438.568 41.7969C438.453 37.3959 438.823 32.8386 440.198 28.2709C440.573 27.1354 440.927 25.9896 441.437 24.8698C441.687 24.3073 441.891 23.7344 442.187 23.1823L443.078 21.5313C443.359 20.974 443.734 20.4532 444.083 19.9219C444.448 19.4011 444.781 18.8542 445.182 18.3542C446.016 17.3698 446.802 16.3282 447.766 15.4427C451.385 11.6875 456.385 9.01565 461.557 7.74482C464.146 7.11461 466.781 6.80211 469.37 6.7344C471.969 6.67711 474.521 6.89586 477.021 7.27607C477.661 7.37502 478.271 7.59377 478.906 7.71877C478.854 15.1615 478.74 22.6042 478.479 30.0469C477.651 29.3073 476.828 28.5625 475.922 27.9271C474.703 27.0573 473.411 26.3177 472.099 25.6927C470.786 25.0521 469.437 24.5781 468.099 24.2396C466.76 23.8906 465.422 23.7031 464.12 23.6979C461.516 23.6667 458.995 24.3073 456.729 25.8229C454.437 27.25 452.562 29.5469 451.146 32.3594C450.948 32.6979 450.828 33.0886 450.661 33.4531C450.516 33.8229 450.333 34.1823 450.208 34.5729C449.969 35.3594 449.661 36.125 449.484 36.9531L449.177 38.1823L448.953 39.4427C448.776 40.2813 448.724 41.1563 448.609 42.0209C448.276 45.5052 448.484 49.125 449.073 52.6771C449.703 56.2604 450.74 59.8125 452.146 63.2292C453.547 66.6459 455.318 69.9271 457.411 72.9896C459.49 76.0625 461.885 78.9219 464.552 81.4896C464.818 81.7396 465.089 81.9896 465.359 82.2344C468.245 81.0782 471.073 79.7709 473.854 78.3802C473.641 79.6042 473.401 80.8334 473.172 82.0573C471.453 82.875 469.745 83.7188 467.984 84.4532C469.318 85.5 470.714 86.4427 472.151 87.3281ZM387.365 61.8646C387.375 61.8438 387.38 61.8334 387.391 61.8177C387.568 61.4479 387.547 61.25 387.495 61.3542C387.458 61.4167 387.411 61.599 387.365 61.8646ZM749.172 33.7813H1023.99C1026.52 33.7813 1028.57 31.7344 1028.57 29.2031C1028.57 26.6719 1026.52 24.625 1023.99 24.625H749.172C746.646 24.625 744.594 26.6719 744.594 29.2031C744.594 31.7344 746.646 33.7813 749.172 33.7813ZM273.302 24.625H5.79165C3.2604 24.625 1.20831 26.6719 1.20831 29.2031C1.20831 31.7344 3.2604 33.7813 5.79165 33.7813H273.302C275.833 33.7813 277.885 31.7344 277.885 29.2031C277.885 26.6719 275.833 24.625 273.302 24.625Z" fill="#C77C77"/>
</g>
</svg>
