<svg width="1049" height="1050" viewBox="0 0 1049 1050" fill="none" xmlns="http://www.w3.org/2000/svg">
<mask id="mask0_12_66" style="mask-type:luminance" maskUnits="userSpaceOnUse" x="0" y="0" width="1049" height="1050">
<path d="M0.333313 0.807129H1048.33V1049.33H0.333313V0.807129Z" fill="white"/>
</mask>
<g mask="url(#mask0_12_66)">
<path d="M993.688 447.948C993.531 452.953 993.198 457.948 992.896 462.943C994.646 463.422 996.401 463.891 998.151 464.391C997.531 459.63 996.75 454.896 995.625 450.229C995.37 449.167 994.776 447.859 993.688 447.948ZM973.016 462.938C975 466.859 977.266 470.656 979.625 474.411C981.979 478.167 984.438 481.885 986.823 485.672C988.021 487.563 989.198 489.474 990.344 491.411C990.375 491.458 990.401 491.505 990.427 491.552C991.552 482.047 992.307 472.5 992.896 462.943C994.646 463.422 996.401 463.891 998.151 464.391C999.302 473.208 999.672 482.125 999.068 490.995C1001.02 486.146 1002.97 481.292 1004.93 476.438C1005.27 477.214 1005.58 478.005 1005.86 478.802C1006.27 478.031 1006.74 477.286 1007.3 476.583C1008.67 474.865 1010.43 473.536 1012.3 472.672C1013.74 472.016 1015.13 471.078 1016.46 470.031C1023.81 472.5 1031.06 475.26 1038.15 478.396C1038.02 478.698 1037.93 479.021 1037.8 479.318C1035.76 483.75 1033.18 487.974 1029.93 492.047L1028.68 493.62C1023.97 499.521 1015.38 500.495 1009.47 495.792C1009.04 495.448 1008.65 495.083 1008.28 494.703C1008.05 499.667 1006.95 504.589 1004.96 509.141C1006.31 506.896 1007.66 504.646 1009.2 502.526C1010.68 510.542 1011.04 518.74 1010.48 526.87C1007.69 527.443 1005 528.172 1002.37 529.005C1001.84 527.089 1001.4 525.151 1000.81 523.255C998.203 514.818 994.912 506.599 990.828 498.792C986.839 490.943 981.781 483.62 977.078 475.995C975.901 474.094 974.734 472.172 973.62 470.219C972.49 468.271 971.396 466.297 970.37 464.286C969.078 461.76 967.896 459.177 966.797 456.563C963.255 461.078 960.578 466.25 959.307 471.807C958.912 473.552 958.656 475.323 958.5 477.104C958.386 478.896 958.375 480.698 958.484 482.51C958.75 486.13 959.464 489.75 960.495 493.318C962.568 500.448 965.87 507.339 969.349 514.099C971.13 517.464 972.974 520.802 974.906 524.094C976.854 527.385 978.844 530.651 980.891 533.891C981.755 535.266 982.656 536.63 983.526 538C982.146 538.911 980.787 539.88 979.432 540.891C978.521 539.422 977.604 537.969 976.698 536.49C972.672 529.896 968.755 523.193 965.125 516.307C963.354 512.839 961.583 509.385 959.99 505.797C958.38 502.224 956.938 498.542 955.75 494.734C954.573 490.927 953.714 486.974 953.344 482.922C953.162 480.891 953.109 478.844 953.188 476.792C953.302 474.734 953.542 472.682 953.943 470.656C954.365 468.641 954.917 466.651 955.599 464.703C956.302 462.771 957.109 460.875 958.052 459.052C958.875 457.484 959.807 455.984 960.781 454.51C963.943 455.344 967.125 456.172 970.323 456.995C971.193 458.99 972.031 461 973.016 462.938ZM1024.36 329.583C1023.89 325.396 1022.91 321.255 1021.22 317.479C1020.37 315.604 1019.36 313.813 1018.17 312.188C1016.95 310.578 1015.57 309.13 1014.03 307.891L1012.83 307.021C1012.43 306.734 1011.99 306.51 1011.58 306.25C1011.36 306.13 1011.16 305.99 1010.94 305.88L1010.28 305.563C1009.84 305.333 1009.39 305.156 1008.93 304.979C1007.09 304.271 1005.13 303.839 1003.13 303.667C999.125 303.323 994.969 304.021 991.146 305.531C987.339 307.031 983.807 309.427 980.724 312.302C977.625 315.182 974.943 318.563 972.604 322.188C968.037 329.526 964.464 337.594 962.359 346.089C961.474 349.516 960.802 352.995 960.245 356.5C958.656 356.833 957.073 357.167 955.49 357.505C955.458 357.188 955.474 356.87 955.427 356.547C955.156 354.818 954.63 353.083 953.927 351.396C953.234 349.703 952.359 348.057 951.422 346.432C950.469 344.818 949.49 343.182 948.412 341.698C947.339 340.203 946.136 338.849 944.75 337.776C944.047 337.245 943.313 336.76 942.521 336.359C941.729 335.969 940.906 335.635 940.057 335.354C938.354 334.797 936.557 334.5 934.74 334.37C932.927 334.234 931.073 334.271 929.25 334.448C925.625 334.771 922.078 335.771 919.25 337.651C916.464 339.552 914.281 342.354 913.948 345.375C913.849 346.135 913.828 346.922 913.912 347.729C913.979 348.526 914.109 349.344 914.318 350.161C914.516 350.984 914.771 351.813 915.083 352.604C915.38 353.406 915.75 354.172 916.146 354.917C916.547 355.661 917.005 356.365 917.495 357.036C917.74 357.375 918 357.698 918.266 358.016C918.537 358.328 918.818 358.641 919.078 358.865C919.604 359.333 920.13 359.563 920.443 359.417C920.599 359.344 920.682 359.193 920.688 358.958C920.693 358.906 920.688 358.839 920.677 358.781C920.667 358.724 920.573 358.615 920.526 358.536C920.412 358.375 920.297 358.214 920.172 358.063C924.255 359.432 926.448 363.854 925.078 367.932C923.708 372.016 919.287 374.214 915.208 372.839C914.63 372.536 914.078 372.188 913.537 371.802C913.281 371.615 912.979 371.391 912.776 371.198C912.568 371.005 912.354 370.818 912.167 370.615C911.406 369.823 910.792 369.01 910.328 368.214C909.386 366.63 908.943 365.198 908.63 363.948C908.469 363.318 908.375 362.75 908.276 362.188C908.172 361.625 908.083 361.063 908.005 360.5C907.844 359.38 907.729 358.266 907.641 357.167C907.552 356.063 907.516 354.964 907.495 353.88C907.49 352.792 907.516 351.729 907.573 350.646C907.646 349.563 907.745 348.469 907.927 347.365C908.12 346.266 908.37 345.151 908.734 344.063C909.495 341.87 910.682 339.865 912.146 338.229C913.615 336.578 915.349 335.255 917.219 334.25C920.979 332.214 925.104 331.521 929.063 331.38C933.011 331.292 937.031 331.594 940.875 332.938C941.833 333.281 942.766 333.688 943.672 334.167C944.568 334.661 945.438 335.214 946.255 335.844C947.875 337.125 949.214 338.661 950.396 340.24C951.573 341.839 952.609 343.448 953.651 345.083C954.682 346.724 955.682 348.411 956.557 350.198C956.802 350.693 957.031 351.198 957.255 351.703C957.662 349.51 958.125 347.323 958.662 345.146C958.896 344.036 959.229 342.948 959.552 341.859L960.511 338.583C960.865 337.505 961.271 336.438 961.646 335.365L962.219 333.755L962.511 332.948L962.844 332.161L964.203 329.021C964.438 328.5 964.646 327.964 964.896 327.453L965.682 325.932L967.261 322.88C967.792 321.87 968.386 320.885 968.984 319.906C971.401 315.995 974.229 312.276 977.599 309.01C980.969 305.755 984.875 302.953 989.333 301.089C993.761 299.245 998.615 298.313 1003.51 298.625C1005.95 298.786 1008.4 299.271 1010.73 300.12C1011.32 300.333 1011.91 300.547 1012.47 300.823L1013.32 301.219C1013.6 301.354 1013.86 301.516 1014.14 301.667C1014.67 301.984 1015.23 302.266 1015.74 302.615L1017.28 303.682C1019.24 305.198 1020.98 306.969 1022.5 308.885C1023.99 310.818 1025.24 312.891 1026.35 315.016C1028.51 319.297 1030.01 323.802 1031.11 328.375C1031.67 330.672 1032.1 332.974 1032.49 335.276C1032.87 337.594 1033.18 339.943 1033.39 342.339C1033.48 343.521 1033.55 344.714 1033.6 345.922C1030.21 346.109 1026.83 346.339 1023.47 346.625C1024.72 341.24 1024.97 335.323 1024.36 329.583ZM1033.6 345.922C1030.21 346.109 1026.83 346.339 1023.47 346.625C1022.89 349.13 1022.16 351.552 1021.07 353.734C1020.65 354.594 1020.17 355.411 1019.68 356.177C1019.43 356.563 1019.15 356.932 1018.9 357.302L1018.06 358.375C1017.76 358.714 1017.48 359.057 1017.18 359.38C1016.86 359.693 1016.56 360.016 1016.23 360.307C1015.58 360.896 1014.95 361.469 1014.24 361.938C1011.51 363.885 1008.43 364.818 1005.86 364.349C1002.44 363.734 998.75 364.411 995.656 366.536C995.13 366.896 994.641 367.292 994.182 367.708C993.162 367.234 992.193 367.005 991.417 366.891C990.443 366.745 989.703 366.74 989.146 366.734C988.557 366.729 987.964 366.729 987.365 366.745C986.162 366.766 984.938 366.823 983.682 366.948C981.182 367.193 978.563 367.698 976.005 368.703C973.432 369.708 971.094 371.208 969.146 372.948C967.188 374.693 965.583 376.661 964.24 378.703C961.604 382.75 959.922 387.031 958.698 391.406C958.412 384.974 958.333 378.542 958.63 372.135C958.88 366.891 959.422 361.667 960.245 356.5C958.656 356.833 957.073 357.167 955.49 357.505C955.615 358.906 955.589 360.302 955.292 361.609C955.271 361.708 955.255 361.818 955.245 361.922C955.208 362.443 955.38 362.927 955.677 363.313C955.412 366.203 955.219 369.099 955.109 371.995C954.792 381 955.193 389.979 955.875 398.906C956.13 402.365 956.464 405.813 956.802 409.26C956.927 412.182 957.234 415.083 957.693 417.943C957.974 420.495 958.276 423.052 958.625 425.609C959.24 430.057 960 434.505 961.042 438.901C961.912 442.599 962.979 446.25 964.224 449.839C963.167 451.109 962.167 452.427 961.219 453.781C961.057 454.016 960.938 454.276 960.781 454.51C963.943 455.344 967.125 456.172 970.323 456.995C969.886 455.99 969.375 455.016 968.964 453.995C969.203 453.734 969.443 453.474 969.688 453.214C972.193 450.609 974.984 448.271 977.979 446.245C980.969 444.203 984.172 442.479 987.505 441.109C990.833 439.74 994.307 438.729 997.797 438.115C1001.27 437.536 1004.8 437.333 1008.2 437.656C1009.04 437.771 1009.89 437.823 1010.71 437.995L1011.94 438.214L1013.14 438.516C1013.95 438.688 1014.69 438.984 1015.46 439.219C1015.84 439.339 1016.19 439.521 1016.56 439.661C1016.91 439.823 1017.29 439.943 1017.62 440.135C1020.36 441.516 1022.61 443.344 1024 445.578C1025.48 447.792 1026.1 450.25 1026.07 452.786C1026.06 454.063 1025.89 455.365 1025.54 456.672C1025.21 457.979 1024.75 459.297 1024.13 460.573C1023.52 461.854 1022.79 463.115 1021.94 464.307C1021.1 465.5 1020.17 466.641 1019.14 467.688C1018.31 468.542 1017.39 469.302 1016.46 470.031C1023.81 472.5 1031.06 475.26 1038.15 478.396C1039.96 474.24 1041.37 469.922 1042.09 465.375C1042.46 462.938 1042.68 460.448 1042.62 457.917C1042.56 455.385 1042.25 452.818 1041.64 450.292C1040.4 445.245 1037.79 440.37 1034.12 436.833C1033.26 435.896 1032.24 435.13 1031.29 434.318C1030.8 433.927 1030.26 433.599 1029.75 433.245C1029.23 432.901 1028.73 432.536 1028.18 432.26L1026.57 431.396C1026.04 431.104 1025.47 430.906 1024.93 430.661C1023.83 430.167 1022.71 429.823 1021.61 429.453C1017.15 428.109 1012.71 427.75 1008.41 427.865C1007.34 427.906 1006.28 427.979 1005.21 428.068C1004.16 428.203 1003.1 428.281 1002.06 428.479L1000.5 428.734L998.958 429.052C997.927 429.25 996.917 429.536 995.901 429.797C993.896 430.359 991.927 430.979 990.011 431.734C988.089 432.474 986.198 433.281 984.37 434.208C977.714 437.5 971.604 441.865 966.526 447.26C965.552 444.281 964.708 441.26 963.995 438.208C962.995 433.927 962.261 429.578 961.667 425.193C961.333 422.719 961.047 420.234 960.776 417.745C960.646 413.609 960.833 409.495 961.443 405.479C962.078 401.37 963.12 397.359 964.672 393.625C966.229 389.911 968.229 386.333 970.688 383.484C973.141 380.615 976.057 378.583 979.094 377.88C980.636 377.51 982.328 377.391 984.141 377.448C985.047 377.479 985.979 377.552 986.932 377.661C987.412 377.714 987.896 377.776 988.386 377.844C988.391 377.844 988.391 377.844 988.391 377.844C988.422 377.917 988.448 378 988.49 378.109L988.688 378.677C988.755 378.885 988.833 379.083 988.896 379.292C989.412 380.932 989.74 382.594 989.833 384.172C989.927 385.745 989.797 387.234 989.432 388.531C989.354 388.859 989.234 389.161 989.136 389.469C989.005 389.766 988.891 390.073 988.766 390.307C988.505 390.802 988.182 391.286 987.818 391.734C987.089 392.625 986.162 393.339 985.297 393.719C984.427 394.109 983.682 394.156 983.151 394.031C982.391 393.854 981.552 393.776 980.729 393.823C976.141 394.104 972.646 398.052 972.922 402.646C973.203 407.234 977.151 410.729 981.745 410.448L983.578 410.339C987.375 410.104 990.87 408.703 993.625 406.771C996.401 404.828 998.557 402.375 1000.16 399.635C1000.95 398.26 1001.61 396.802 1002.1 395.281C1002.36 394.5 1002.53 393.766 1002.71 393.026C1002.81 392.505 1002.9 391.99 1002.97 391.469C1005.79 391.563 1008.66 390.786 1011.15 389.073L1015.02 386.411C1020.7 382.505 1024.77 377.656 1027.6 372.661C1028.3 371.401 1028.95 370.146 1029.52 368.87C1030.08 367.589 1030.57 366.297 1031.03 365.021L1031.65 363.078C1031.82 362.422 1032.01 361.776 1032.16 361.12C1032.49 359.813 1032.74 358.526 1032.95 357.245C1033.56 353.38 1033.72 349.599 1033.6 345.922ZM989.333 378.036C989.432 378.089 989.245 378.109 988.886 377.938C988.865 377.927 988.854 377.917 988.839 377.911C989.094 377.953 989.271 378 989.333 378.036ZM993.349 553.318C999.797 563.339 1006.05 573.641 1011.28 584.542C1010.3 572.625 1009.01 560.771 1006.96 549.042C1005.75 542.286 1004.18 535.609 1002.37 529.005C1005 528.172 1007.69 527.443 1010.48 526.87C1010.18 531.188 1009.7 535.49 1008.83 539.729C1009.49 542.594 1010.1 545.469 1010.66 548.354C1012.37 557.167 1013.68 566.042 1014.76 574.927C1015.76 582.974 1016.57 591.026 1017.39 599.068C1019.47 604.901 1021.18 610.901 1022.3 617.052C1023.8 624.854 1024.2 632.927 1023.66 640.87C1023.57 642.865 1023.28 644.833 1023.07 646.813C1022.98 647.807 1022.79 648.781 1022.63 649.766L1022.14 652.708L1021.52 655.62C1021.3 656.589 1021.12 657.568 1020.85 658.521C1020.33 660.438 1019.89 662.375 1019.27 664.255C1017.57 669.844 1015.35 675.234 1012.91 680.521C1010.87 679.021 1008.79 677.594 1006.71 676.156C1007.38 671.927 1007.67 667.62 1007.96 663.292C1008.27 658.88 1008.45 654.479 1008.44 650.089C1008.42 645.698 1008.21 641.313 1007.51 637.01C1007.18 634.854 1006.7 632.729 1006.14 630.635C1005.82 629.599 1005.55 628.547 1005.15 627.542L1004.59 626.016L1004.09 624.849C1003.7 624.724 1003.38 624.417 1003.26 624.005C1002.96 623.026 1002.64 622.063 1002.29 621.109C1000.84 618.422 999.109 615.88 997.182 613.5C994.474 610.109 991.365 607.036 988.089 604.141C987.677 603.766 987.234 603.422 986.813 603.057C987.583 602.422 988.344 601.786 989.083 601.161C989.396 601.453 989.724 601.734 990.037 602.031C991.297 603.234 992.526 604.484 993.729 605.755C992.75 604.51 991.719 603.307 990.646 602.156C990.24 601.719 989.781 601.349 989.365 600.927C990.943 599.578 992.412 598.208 993.807 596.813C994.245 597.375 994.74 597.901 995.156 598.479C1000.46 605.833 1004.1 614.276 1005.64 623.01C1005.73 623.234 1005.84 623.453 1005.93 623.682C1007.67 627.865 1008.83 632.255 1009.49 636.698L1009.74 638.365L1009.94 640.031C1010.09 641.146 1010.15 642.26 1010.26 643.375C1010.4 645.609 1010.51 647.844 1010.52 650.073C1010.58 654.531 1010.39 658.979 1010.24 663.406C1010.17 665.615 1010.07 667.839 1009.94 670.068C1009.93 670.198 1009.92 670.328 1009.91 670.458C1010.93 667.76 1011.86 665.031 1012.7 662.276C1013.29 660.5 1013.69 658.677 1014.18 656.88C1014.44 655.979 1014.6 655.063 1014.8 654.156L1015.39 651.422L1015.84 648.672C1015.98 647.75 1016.18 646.839 1016.27 645.911C1016.46 644.068 1016.76 642.229 1016.84 640.375L1017.03 637.599C1017.07 636.672 1017.07 635.745 1017.09 634.818C1017.09 633.891 1017.15 632.964 1017.1 632.042L1017.01 629.266L1016.96 627.875L1016.84 626.49L1016.6 623.719C1016.34 621.88 1016.17 620.031 1015.81 618.203C1015.22 614.526 1014.33 610.891 1013.34 607.286L1012.55 604.589C1012.29 603.688 1011.97 602.807 1011.68 601.911C1011.11 600.12 1010.44 598.365 1009.81 596.594C1007.13 589.552 1003.93 582.667 1000.35 575.958C996.807 569.229 992.891 562.661 988.886 556.12C985.787 551.036 982.594 545.979 979.432 540.891C980.787 539.88 982.146 538.911 983.526 538C986.776 543.104 990.052 548.198 993.349 553.318ZM946.703 510.401C947.073 511.547 947.219 512.75 947.177 513.885C946.99 518.354 946.906 522.75 947.026 527.089C947.037 528.177 947.078 529.26 947.136 530.333C947.188 531.406 947.224 532.495 947.307 533.557C947.458 535.703 947.651 537.828 947.896 539.948C948.906 548.396 950.917 556.651 954.594 564.198C955.073 565.125 955.516 566.083 956.031 566.995C956.557 567.901 957.104 568.797 957.641 569.698C958.714 571.349 959.875 572.964 961.104 574.547C961.208 574.583 961.313 574.62 961.422 574.656C965.682 576.177 970.026 577.88 974.219 580.115C981.99 584.245 988.589 590.068 993.807 596.813C992.412 598.208 990.943 599.578 989.365 600.927C986.766 598.307 983.974 595.901 980.953 593.875C982.339 595.073 983.724 596.276 985.094 597.505C986.438 598.703 987.766 599.922 989.083 601.161C988.344 601.786 987.583 602.422 986.813 603.057C983.927 600.552 980.922 598.167 977.87 595.813C974.386 593.094 970.802 590.464 967.313 587.651C967.089 587.474 966.865 587.286 966.641 587.109C960.057 585.083 952.927 583.938 945.505 582.271C941.068 581.266 936.484 580.068 931.87 578.203C927.266 576.354 922.604 573.766 918.516 570.188L918.323 570.021C915.047 567.156 914.719 562.182 917.578 558.906C920.443 555.635 925.417 555.302 928.693 558.167C928.943 558.385 929.208 558.656 929.427 558.901C931.656 561.443 934.511 563.62 937.849 565.49C941.188 567.359 944.969 568.917 948.958 570.354C949.375 570.505 949.802 570.651 950.219 570.797C949.505 569.875 948.865 568.906 948.182 567.958C942.917 560.198 939.104 551.531 936.016 542.781C935.261 540.594 934.495 538.396 933.813 536.198C933.094 534 932.427 531.792 931.761 529.599C930.443 525.203 929.13 520.833 927.745 516.536L927.74 516.521C926.052 511.286 928.927 505.672 934.162 503.979C939.401 502.292 945.016 505.167 946.703 510.401ZM1016.09 682.979C1017.65 678.526 1018.66 673.901 1018.86 669.198C1021.65 672.146 1023.51 675.938 1024.1 679.922C1027.01 677.063 1028.69 673.042 1028.65 669.021C1028.63 666.828 1028.14 664.578 1028.82 662.484C1029.34 660.87 1030.51 659.542 1031.57 658.203C1043.87 642.688 1043.95 621.37 1043.46 601.792C1053.32 631.729 1045.84 666.26 1025.72 690.781C1022.57 688.073 1019.36 685.464 1016.09 682.979ZM1010.31 705.635C1004.33 710.146 997.573 714.021 990.328 715.792C989.156 717.167 988 718.552 986.807 719.901C985.5 721.349 984.229 722.833 982.886 724.245C977.578 729.964 972.016 735.411 966.307 740.672C960.594 745.917 954.734 750.984 948.828 755.958C947.672 757.115 946.406 758.182 945.037 759.12C940.375 763.016 935.672 766.885 930.745 770.578C927.052 773.349 923.224 775.99 919.229 778.396C915.979 781.766 913.037 785.406 910.401 789.25C907.229 793.917 904.573 798.917 902.62 804.156C900.714 809.411 899.25 814.859 899.287 820.068C899.292 822.688 899.724 825.135 900.568 827.516C901.432 829.875 902.693 832.083 904.229 834.057C907.307 837.99 911.547 841 916.083 842.328C918.333 843.016 920.667 843.286 922.859 843.146C925.042 843.026 926.849 842.333 927.823 841.443C928.333 841.005 928.766 840.422 929.208 839.688C929.641 838.953 930.042 838.016 930.417 836.964C930.781 835.906 931.109 834.698 931.448 833.406L931.943 831.422C932.094 830.792 932.219 830.208 932.302 829.682C932.474 828.641 932.469 827.839 932.339 827.401C932.276 827.177 932.193 827.063 932.109 826.927L931.74 826.427C931.578 826.224 931.359 825.974 931.104 825.698C930.839 825.422 930.511 825.109 930.151 824.781C929.406 824.115 928.479 823.359 927.401 822.495C923.776 819.589 923.198 814.302 926.099 810.677C929.005 807.057 934.292 806.474 937.912 809.38C938.287 809.677 938.625 810 938.932 810.339L939 810.422C939.99 811.542 941.109 812.802 942.25 814.297C943.38 815.802 944.557 817.563 945.505 819.734C945.964 820.828 946.354 822.01 946.62 823.26C946.875 824.521 946.995 825.833 946.964 827.042C946.901 829.479 946.38 831.531 945.823 833.25C945.542 834.115 945.245 834.906 944.953 835.635L944.089 837.734C943.49 839.151 942.844 840.646 942.026 842.198C941.208 843.755 940.261 845.365 938.974 846.932C937.693 848.484 936.099 849.995 934.198 851.115C932.302 852.26 930.271 852.938 928.333 853.297C926.391 853.656 924.521 853.724 922.734 853.62C919.193 853.391 915.818 852.51 912.714 851.135C906.516 848.37 901.474 843.786 898.063 838.281C896.37 835.516 895.078 832.51 894.307 829.37C893.521 826.245 893.292 822.922 893.594 819.807C893.88 816.677 894.604 813.677 895.547 810.823C896.49 807.958 897.646 805.266 898.88 802.583C901.38 797.24 904.391 792.203 907.682 787.396C908.714 785.88 909.781 784.396 910.87 782.927C910.807 782.958 910.745 782.99 910.682 783.016C903.542 786.396 896.141 789 888.615 791.146C881.089 793.271 873.417 794.88 865.651 795.896C857.88 796.885 850 797.281 842.115 796.766C834.25 796.24 826.313 794.797 818.87 791.672L816.12 790.417C815.224 789.943 814.323 789.49 813.438 788.995C811.667 787.969 809.969 786.802 808.365 785.5C805.167 782.891 802.443 779.62 800.505 775.943C798.557 772.271 797.417 768.24 796.901 764.219C796.391 760.203 796.5 756.13 796.719 752.307C796.745 751.807 796.745 751.427 796.787 750.859C796.828 750.333 796.833 749.802 796.922 749.281C797.042 748.229 797.245 747.188 797.505 746.167C798.021 744.12 798.818 742.156 799.818 740.313C801.818 736.63 804.635 733.453 807.948 730.927C809.599 729.656 811.385 728.547 813.276 727.635C815.167 726.714 817.156 725.979 819.234 725.479C821.307 724.979 823.458 724.693 825.641 724.703C827.818 724.714 830.026 724.995 832.177 725.578C834.323 726.172 836.401 727.052 838.339 728.177C840.271 729.318 842.068 730.688 843.688 732.245C846.912 735.365 849.469 739.156 851.26 743.359C853.052 747.563 854.135 752.193 854.162 757.141C854.203 762.073 853.099 767.365 850.505 772.385L849.401 774.521C846.922 779.318 841.026 781.198 836.229 778.719C831.432 776.24 829.552 770.344 832.026 765.547C832.953 763.755 834.349 762.375 835.99 761.469C838.047 760.333 839.729 758.172 840.693 755.474C841.667 752.776 841.922 749.583 841.417 746.443C840.906 743.307 839.672 740.198 837.745 737.594C836.787 736.292 835.667 735.104 834.391 734.115C833.76 733.615 833.094 733.151 832.391 732.75C832.042 732.552 831.688 732.344 831.318 732.188C830.948 732.021 830.583 731.833 830.198 731.703C827.177 730.495 823.724 730.24 820.339 730.792C816.948 731.349 813.63 732.734 810.719 734.729C807.818 736.734 805.313 739.359 803.563 742.401C802.688 743.922 802.01 745.547 801.552 747.224C801.323 748.057 801.167 748.917 801.063 749.771C800.99 750.203 800.995 750.635 800.958 751.068C800.922 751.458 800.917 752.042 800.885 752.505C800.787 754.448 800.698 756.297 800.714 758.156C800.745 760.005 800.88 761.839 801.141 763.641C801.667 767.24 802.734 770.708 804.458 773.813C806.167 776.917 808.516 779.635 811.318 781.844C812.724 782.943 814.219 783.938 815.802 784.813L818.229 786.068L820.74 787.182C827.542 789.969 834.969 791.307 842.438 791.771C849.922 792.219 857.49 791.807 864.979 790.818C872.474 789.797 879.901 788.203 887.172 786.109C894.443 784.005 901.578 781.375 908.328 778.109C915.031 774.844 921.313 770.661 927.328 766.057C933.344 761.458 939.167 756.448 945.005 751.458C947.104 749.656 949.188 747.839 951.261 746.01C952.823 743.365 954.094 740.495 955.146 737.536C957.792 729.844 959.557 721.729 959.547 713.615C959.568 709.557 959.089 705.521 958.146 701.609C957.182 697.703 955.641 693.948 953.677 690.427C949.693 683.422 944.068 677.266 937.219 673.182C935.495 672.193 933.729 671.276 931.891 670.573C931.438 670.375 930.964 670.245 930.5 670.078C930.037 669.922 929.573 669.755 929.094 669.641L927.677 669.26L926.245 668.979C924.333 668.656 922.396 668.453 920.474 668.563L919.75 668.578L919.042 668.661L917.625 668.823C917.156 668.896 916.693 669.026 916.229 669.12C915.766 669.234 915.292 669.292 914.844 669.464C911.193 670.563 907.761 672.443 904.896 674.974C902.042 677.51 899.688 680.604 898.136 684.016L897.604 685.313C897.516 685.526 897.417 685.74 897.344 685.958L897.141 686.625L896.729 687.953L896.448 689.307C896.219 690.203 896.188 691.125 896.094 692.026C896.031 692.479 896.099 692.943 896.109 693.396C896.141 693.849 896.136 694.302 896.193 694.755C896.682 698.375 898.422 701.745 900.792 704.359C902.021 705.646 903.234 706.854 904.625 707.828C905.938 708.865 907.349 709.688 908.688 710.479C910.104 711.151 911.427 711.859 912.781 712.37C913.12 712.5 913.438 712.693 913.776 712.797C914.115 712.911 914.443 713.036 914.771 713.182C915.099 713.349 915.432 713.448 915.766 713.573C916.094 713.708 916.427 713.849 916.755 714.036L918.323 714.927C921.953 716.995 923.219 721.609 921.156 725.24C919.646 727.896 916.761 729.281 913.906 729.031C911.172 728.786 908.464 728.026 906.052 726.792C903.589 725.63 901.443 723.974 899.511 722.188C895.698 718.531 893.089 713.953 891.537 709.25C891.344 708.656 891.198 708.047 891.026 707.458C890.875 706.859 890.682 706.286 890.583 705.672C890.354 704.458 890.089 703.286 889.979 702.078C889.917 701.474 889.818 700.885 889.766 700.292C889.745 699.688 889.708 699.089 889.672 698.5L889.625 697.615L889.636 696.719L889.662 694.948C889.672 694.359 889.75 693.771 889.797 693.188L889.875 692.307L889.906 691.87L889.979 691.438C890.188 690.286 890.302 689.12 890.641 688.005C890.787 687.443 890.927 686.875 891.089 686.318L891.677 684.693L891.979 683.88C892.083 683.609 892.219 683.354 892.339 683.094L893.073 681.542C897.344 673.443 904.906 667.333 913.693 665.135C914.229 664.964 914.797 664.906 915.349 664.797C915.906 664.703 916.458 664.578 917.021 664.521L918.714 664.38L919.557 664.313L920.396 664.318C922.636 664.276 924.865 664.578 927.031 665.026C931.38 665.953 935.438 667.771 939.13 670.057C940.958 671.234 942.714 672.51 944.359 673.911C945.99 675.333 947.568 676.807 949.005 678.417C951.912 681.599 954.386 685.12 956.464 688.88C958.531 692.641 960.146 696.677 961.156 700.865C962.177 705.042 962.672 709.333 962.677 713.604C962.734 717.88 962.271 722.13 961.578 726.323C961.214 728.417 960.792 730.495 960.271 732.552C959.766 734.615 959.188 736.651 958.526 738.682C958.391 739.078 958.255 739.479 958.12 739.875C959.464 738.646 960.802 737.411 962.125 736.172C967.688 730.938 973.068 725.547 978.177 719.927C988.427 708.724 997.479 696.484 1004.32 683.099C1004.95 681.859 1005.55 680.604 1006.14 679.349C1006.34 678.365 1006.52 677.38 1006.68 676.391C1006.69 676.313 1006.7 676.234 1006.71 676.156C1008.79 677.594 1010.87 679.021 1012.91 680.521C1012.05 682.406 1011.24 684.323 1010.3 686.167C1006.66 693.156 1002.46 699.839 997.833 706.177C997.005 707.354 996.125 708.49 995.245 709.63C1004.97 703.375 1012.33 693.75 1016.09 682.979C1019.36 685.464 1022.57 688.073 1025.72 690.781C1021.2 696.292 1016.05 701.307 1010.31 705.635ZM1020.7 726.417C1023.17 726.417 1025.17 728.417 1025.17 730.88V998.984C1025.17 1001.45 1023.17 1003.45 1020.7 1003.45C1018.23 1003.45 1016.23 1001.45 1016.23 998.984V730.88C1016.23 728.417 1018.23 726.417 1020.7 726.417ZM1020.7 271.104C1018.23 271.104 1016.23 269.104 1016.23 266.635V5.65625C1016.23 3.1875 1018.23 1.1875 1020.7 1.1875C1023.17 1.1875 1025.17 3.1875 1025.17 5.65625V266.635C1025.17 269.104 1023.17 271.104 1020.7 271.104ZM321.448 973.344C317.823 975.682 314.443 978.365 311.563 981.464C308.688 984.547 306.292 988.078 304.786 991.891C303.276 995.708 302.583 999.865 302.927 1003.87C303.099 1005.88 303.531 1007.83 304.24 1009.67C304.417 1010.13 304.594 1010.59 304.818 1011.02L305.141 1011.68C305.245 1011.9 305.385 1012.1 305.51 1012.32C305.771 1012.73 305.995 1013.18 306.281 1013.58L307.151 1014.77C308.391 1016.31 309.839 1017.69 311.443 1018.91C313.068 1020.1 314.865 1021.11 316.74 1021.96C320.516 1023.65 324.651 1024.63 328.844 1025.1C337.255 1025.99 346.125 1025.24 352.99 1021.81C353.854 1021.39 354.667 1020.91 355.438 1020.42C355.823 1020.17 356.193 1019.9 356.563 1019.64L357.63 1018.8C357.969 1018.5 358.318 1018.22 358.641 1017.92C358.953 1017.6 359.276 1017.3 359.568 1016.97C360.156 1016.32 360.729 1015.69 361.198 1014.98C363.141 1012.24 364.078 1009.17 363.609 1006.6C363.448 1005.71 363.385 1004.81 363.406 1003.9C368.573 1010.31 374.078 1016.45 380.182 1022.14C377.568 1024.64 374.781 1026.72 371.922 1028.34C370.661 1029.04 369.406 1029.69 368.13 1030.26C366.849 1030.82 365.557 1031.31 364.276 1031.78L362.333 1032.39C361.682 1032.56 361.036 1032.75 360.38 1032.91C359.073 1033.23 357.781 1033.48 356.505 1033.69C351.375 1034.51 346.385 1034.52 341.599 1034.13C339.203 1033.93 336.849 1033.61 334.536 1033.23C332.234 1032.84 329.927 1032.42 327.635 1031.85C323.063 1030.75 318.557 1029.25 314.276 1027.09C312.151 1025.98 310.078 1024.73 308.146 1023.24C306.224 1021.73 304.458 1019.98 302.943 1018.02L301.87 1016.49C301.521 1015.97 301.24 1015.42 300.927 1014.88C300.776 1014.6 300.609 1014.34 300.479 1014.06L300.083 1013.21C299.807 1012.65 299.594 1012.06 299.38 1011.48C298.531 1009.14 298.047 1006.69 297.885 1004.24C297.568 999.354 298.5 994.505 300.349 990.078C302.214 985.62 305.01 981.708 308.271 978.339C311.536 974.969 315.255 972.141 319.161 969.724C320.146 969.125 321.13 968.531 322.141 968L325.188 966.422L326.714 965.635C327.224 965.385 327.755 965.177 328.276 964.948L331.422 963.589L332.208 963.25L333.01 962.964L333.698 962.719C334.505 963.839 335.313 964.958 336.115 966.083C330.995 968.052 326.063 970.469 321.448 973.344ZM447.208 994.427C452.901 994.25 458.583 993.896 464.271 993.526C464.458 995.359 464.63 997.198 464.786 999.031C459.641 998.406 454.526 997.578 449.49 996.365C448.427 996.109 447.115 995.516 447.208 994.427ZM533.151 981.63C529.906 979.589 526.641 977.594 523.354 975.646C520.063 973.714 516.724 971.875 513.359 970.094C506.599 966.609 499.708 963.307 492.573 961.234C489.01 960.203 485.391 959.49 481.771 959.229C479.958 959.115 478.156 959.13 476.365 959.245C474.583 959.396 472.813 959.656 471.068 960.052C467.109 960.953 463.354 962.599 459.885 964.734C459.458 962.729 458.984 960.719 458.505 958.708C460.271 957.807 462.099 957.021 463.964 956.344C465.906 955.656 467.896 955.104 469.917 954.682C471.938 954.281 473.99 954.042 476.047 953.927C478.104 953.854 480.151 953.901 482.177 954.083C486.234 954.453 490.188 955.313 493.995 956.49C497.797 957.677 501.484 959.12 505.057 960.729C508.641 962.323 512.099 964.094 515.568 965.87C522.453 969.495 529.151 973.411 535.745 977.438C538.792 979.297 541.792 981.177 544.807 983.063C544.125 984.635 543.412 986.193 542.672 987.74C539.5 985.698 536.333 983.63 533.151 981.63ZM852.557 929.078C852.193 931.01 851.521 933.042 850.375 934.938C849.255 936.844 847.745 938.432 846.193 939.714C844.625 941 843.01 941.948 841.458 942.766C839.901 943.583 838.406 944.229 836.995 944.828L834.896 945.693C834.167 945.984 833.375 946.281 832.51 946.563C830.787 947.12 828.734 947.641 826.297 947.703C825.089 947.734 823.781 947.615 822.521 947.365C821.271 947.099 820.089 946.708 818.995 946.245C816.823 945.302 815.057 944.12 813.557 942.99C812.057 941.849 810.802 940.729 809.682 939.74L809.599 939.672C809.255 939.365 808.932 939.026 808.635 938.656C805.734 935.031 806.318 929.745 809.938 926.839C813.557 923.938 818.849 924.521 821.75 928.141C822.615 929.219 823.37 930.151 824.042 930.891C824.37 931.255 824.682 931.578 824.958 931.849C825.234 932.104 825.479 932.318 825.682 932.479L826.188 932.849C826.323 932.932 826.438 933.016 826.662 933.078C827.099 933.208 827.896 933.219 828.943 933.042C829.469 932.958 830.047 932.839 830.682 932.688L832.667 932.188C833.958 931.854 835.167 931.526 836.224 931.156C837.276 930.781 838.214 930.38 838.948 929.948C839.682 929.51 840.266 929.073 840.703 928.563C841.594 927.589 842.281 925.781 842.406 923.599C842.547 921.406 842.276 919.073 841.589 916.823C840.26 912.286 837.25 908.047 833.313 904.969C831.339 903.432 829.135 902.172 826.776 901.307C824.396 900.464 821.943 900.036 819.328 900.026C814.12 899.995 808.672 901.453 803.417 903.365C798.177 905.313 793.172 907.969 788.51 911.141C784.667 913.776 781.026 916.719 777.656 919.969C775.25 923.964 772.609 927.797 769.839 931.484C766.146 936.411 762.276 941.115 758.38 945.781C757.438 947.151 756.37 948.411 755.214 949.568C750.245 955.479 745.177 961.333 739.927 967.052C734.672 972.76 729.224 978.318 723.505 983.625C722.094 984.969 720.609 986.245 719.162 987.547C717.813 988.745 716.422 989.896 715.052 991.068C713.281 998.313 709.406 1005.07 704.896 1011.05C701.849 1015.09 698.464 1018.83 694.807 1022.27C693.755 1019.14 692.859 1015.78 691.906 1012.34C698.677 1008.27 704.583 1002.69 708.891 995.984C707.75 996.865 706.615 997.745 705.438 998.573C700.708 1002.02 695.734 1005.14 690.641 1008.06C689.969 1005.92 689.177 1003.81 688.276 1001.73C699.354 995.375 709.672 987.625 719.188 978.917C724.807 973.813 730.198 968.427 735.427 962.865C736.672 961.542 737.906 960.203 739.135 958.859C738.734 958.995 738.339 959.135 737.943 959.266C735.912 959.927 733.87 960.505 731.813 961.01C729.755 961.531 727.672 961.953 725.583 962.323C721.391 963.01 717.141 963.474 712.865 963.417C708.589 963.411 704.302 962.917 700.12 961.896C695.938 960.891 691.901 959.271 688.141 957.203C684.375 955.13 680.859 952.656 677.672 949.745C676.068 948.313 674.594 946.729 673.172 945.104C671.771 943.453 670.495 941.698 669.318 939.87C667.031 936.177 665.214 932.12 664.281 927.776C663.839 925.604 663.537 923.38 663.578 921.135L663.573 920.297L663.641 919.453L663.776 917.76C663.839 917.198 663.964 916.651 664.052 916.089C664.167 915.536 664.224 914.969 664.396 914.432C666.594 905.646 672.698 898.089 680.797 893.818L682.354 893.078C682.615 892.958 682.87 892.823 683.135 892.719L683.948 892.422L685.578 891.828C686.135 891.667 686.698 891.531 687.26 891.38C688.375 891.047 689.542 890.927 690.698 890.724L691.13 890.646L691.568 890.615L692.443 890.536C693.031 890.495 693.62 890.411 694.208 890.401L695.979 890.375L696.87 890.365L697.755 890.411C698.349 890.453 698.948 890.484 699.552 890.505C700.146 890.557 700.734 890.656 701.333 890.719C702.547 890.828 703.719 891.094 704.927 891.328C705.542 891.422 706.115 891.615 706.714 891.771C707.307 891.938 707.917 892.083 708.505 892.276C713.214 893.833 717.792 896.443 721.448 900.25C723.234 902.188 724.891 904.328 726.052 906.792C727.287 909.203 728.047 911.911 728.292 914.646C728.542 917.505 727.151 920.385 724.5 921.896C720.87 923.964 716.25 922.693 714.188 919.063L713.292 917.495C713.109 917.167 712.969 916.833 712.833 916.505C712.708 916.172 712.609 915.839 712.443 915.51C712.297 915.188 712.167 914.854 712.052 914.516C711.948 914.177 711.755 913.859 711.625 913.526C711.12 912.167 710.412 910.844 709.734 909.432C708.948 908.089 708.125 906.677 707.089 905.365C706.115 903.979 704.906 902.76 703.62 901.531C701.005 899.161 697.635 897.427 694.01 896.932C693.563 896.875 693.109 896.88 692.656 896.849C692.198 896.839 691.74 896.771 691.287 896.833C690.38 896.932 689.464 896.958 688.568 897.193L687.214 897.469L685.885 897.88L685.219 898.083C685 898.156 684.787 898.26 684.568 898.344L683.276 898.875C679.865 900.427 676.771 902.781 674.229 905.635C671.703 908.5 669.823 911.938 668.724 915.583C668.552 916.031 668.495 916.505 668.38 916.969C668.281 917.432 668.151 917.896 668.083 918.365L667.922 919.781L667.839 920.495L667.818 921.214C667.714 923.135 667.917 925.073 668.24 926.99L668.521 928.422L668.901 929.839C669.016 930.313 669.177 930.776 669.339 931.24C669.505 931.703 669.635 932.177 669.833 932.63C670.537 934.474 671.453 936.234 672.443 937.958C676.521 944.813 682.682 950.438 689.688 954.417C693.208 956.385 696.958 957.922 700.865 958.885C704.781 959.833 708.818 960.307 712.875 960.286C720.99 960.297 729.099 958.531 736.792 955.885C739.755 954.839 742.625 953.563 745.271 952C747.099 949.927 748.917 947.844 750.719 945.745C755.708 939.911 760.719 934.083 765.318 928.068C769.922 922.052 774.104 915.771 777.37 909.068C780.635 902.318 783.266 895.182 785.365 887.917C787.464 880.641 789.057 873.214 790.073 865.724C791.068 858.229 791.479 850.667 791.031 843.182C790.568 835.714 789.229 828.286 786.443 821.479L785.323 818.969L784.068 816.542C783.193 814.964 782.198 813.464 781.104 812.057C778.896 809.255 776.177 806.911 773.073 805.198C769.969 803.479 766.495 802.411 762.901 801.88C761.099 801.62 759.266 801.49 757.417 801.453C755.557 801.438 753.708 801.526 751.76 801.63C751.302 801.656 750.719 801.661 750.323 801.698C749.896 801.734 749.458 801.729 749.031 801.807C748.172 801.911 747.318 802.063 746.479 802.297C744.802 802.75 743.177 803.427 741.662 804.302C738.615 806.052 735.995 808.557 733.99 811.458C731.995 814.37 730.609 817.688 730.052 821.078C729.495 824.464 729.75 827.917 730.964 830.943C731.094 831.328 731.281 831.688 731.448 832.057C731.604 832.432 731.813 832.781 732.01 833.135C732.412 833.833 732.875 834.5 733.375 835.135C734.365 836.406 735.552 837.526 736.854 838.484C739.458 840.411 742.563 841.646 745.703 842.156C748.839 842.661 752.031 842.406 754.734 841.438C757.432 840.469 759.594 838.792 760.729 836.734C761.635 835.089 763.016 833.693 764.802 832.771C769.599 830.292 775.5 832.172 777.979 836.969C780.458 841.766 778.578 847.667 773.776 850.146L771.646 851.245C766.625 853.839 761.328 854.943 756.401 854.906C751.453 854.875 746.818 853.797 742.615 852.005C738.417 850.214 734.625 847.656 731.5 844.427C729.948 842.813 728.578 841.01 727.438 839.083C726.313 837.141 725.432 835.063 724.839 832.917C724.255 830.766 723.974 828.557 723.958 826.38C723.948 824.198 724.24 822.047 724.734 819.974C725.234 817.901 725.974 815.906 726.896 814.016C727.807 812.125 728.917 810.344 730.182 808.688C732.708 805.38 735.891 802.563 739.573 800.557C741.412 799.563 743.375 798.766 745.422 798.245C746.448 797.99 747.484 797.781 748.537 797.661C749.063 797.573 749.594 797.568 750.12 797.526C750.688 797.484 751.068 797.49 751.563 797.458C755.391 797.245 759.464 797.135 763.479 797.641C767.5 798.156 771.526 799.297 775.203 801.245C778.875 803.182 782.146 805.906 784.76 809.104C786.057 810.708 787.229 812.406 788.25 814.177C788.75 815.063 789.203 815.964 789.677 816.859L790.932 819.615C794.057 827.057 795.495 834.99 796.026 842.859C796.542 850.74 796.146 858.62 795.156 866.391C794.135 874.156 792.531 881.828 790.406 889.359C788.26 896.88 785.656 904.281 782.276 911.422C782.245 911.484 782.214 911.547 782.188 911.609C783.656 910.526 785.141 909.453 786.656 908.427C791.464 905.13 796.5 902.12 801.839 899.62C804.526 898.391 807.219 897.229 810.083 896.286C812.932 895.344 815.932 894.62 819.068 894.339C822.182 894.031 825.505 894.266 828.63 895.047C831.771 895.818 834.776 897.109 837.537 898.807C843.047 902.214 847.625 907.26 850.391 913.458C851.771 916.557 852.651 919.932 852.875 923.474C852.984 925.26 852.917 927.13 852.557 929.078ZM685.427 1011.04C678.417 1014.65 671.099 1017.7 663.516 1020.01C661.635 1020.63 659.693 1021.07 657.781 1021.59C656.828 1021.86 655.849 1022.04 654.88 1022.26L651.969 1022.88L649.026 1023.38C648.042 1023.53 647.068 1023.72 646.073 1023.81C644.094 1024.02 642.125 1024.32 640.13 1024.4C632.182 1024.94 624.115 1024.55 616.313 1023.04C610.162 1021.92 604.156 1020.22 598.323 1018.14C590.287 1017.31 582.229 1016.49 574.188 1015.51C565.302 1014.43 556.422 1013.11 547.615 1011.4C544.729 1010.84 541.854 1010.23 538.99 1009.58C536.776 1010.03 534.537 1010.32 532.297 1010.61C532.958 1008.64 533.693 1006.7 534.5 1004.8C539.068 1005.9 543.667 1006.87 548.297 1007.7C560.031 1009.75 571.885 1011.04 583.797 1012.02C572.901 1006.8 562.599 1000.54 552.578 994.094C549.266 991.958 545.969 989.859 542.672 987.74C543.412 986.193 544.125 984.635 544.807 983.063C548.323 985.266 551.849 987.474 555.375 989.625C561.922 993.63 568.49 997.547 575.214 1001.09C581.927 1004.67 588.813 1007.86 595.849 1010.55C597.62 1011.18 599.38 1011.86 601.172 1012.42C602.063 1012.71 602.948 1013.03 603.849 1013.29L606.542 1014.08C610.151 1015.07 613.787 1015.96 617.458 1016.55C619.292 1016.91 621.141 1017.08 622.979 1017.34L625.75 1017.58L627.135 1017.7L628.521 1017.74L631.297 1017.84C632.224 1017.89 633.151 1017.83 634.078 1017.83C635.005 1017.81 635.932 1017.81 636.854 1017.77L639.635 1017.58C641.49 1017.5 643.328 1017.21 645.172 1017.01C646.099 1016.92 647.01 1016.72 647.927 1016.58L650.682 1016.13L653.412 1015.54C654.323 1015.34 655.24 1015.18 656.135 1014.92C657.938 1014.43 659.76 1014.03 661.531 1013.44C664.292 1012.6 667.021 1011.67 669.719 1010.65C669.589 1010.66 669.458 1010.67 669.323 1010.68C667.099 1010.81 664.875 1010.91 662.662 1010.98C658.234 1011.13 653.792 1011.32 649.333 1011.26C647.099 1011.24 644.87 1011.15 642.635 1010.99C641.521 1010.89 640.406 1010.83 639.292 1010.68L637.625 1010.48L635.958 1010.23C631.516 1009.57 627.125 1008.41 622.943 1006.67C622.714 1006.58 622.495 1006.48 622.271 1006.38C613.537 1004.84 605.094 1001.2 597.734 995.896C596.505 995.01 595.354 994.005 594.182 993.026C595.438 991.359 596.922 989.818 598.505 988.354C599.458 989.38 600.385 990.427 601.412 991.385C602.568 992.458 603.771 993.49 605.016 994.469C603.74 993.266 602.495 992.042 601.292 990.776C600.438 989.896 599.635 988.974 598.813 988.073C599.552 987.396 600.307 986.729 601.068 986.078C601.844 987 602.599 987.938 603.401 988.833C606.297 992.104 609.37 995.214 612.76 997.922C615.141 999.849 617.682 1001.58 620.37 1003.04C621.323 1003.38 622.287 1003.7 623.26 1003.99L623.266 1004C623.677 1004.12 623.984 1004.44 624.104 1004.84L625.276 1005.33L626.797 1005.89C627.807 1006.29 628.859 1006.56 629.896 1006.88C631.99 1007.44 634.115 1007.92 636.271 1008.25C640.573 1008.95 644.958 1009.17 649.349 1009.18C653.734 1009.19 658.141 1009.01 662.547 1008.7C666.958 1008.41 671.344 1008.11 675.651 1007.42C676.641 1007.26 677.625 1007.08 678.604 1006.88C679.865 1006.29 681.115 1005.69 682.359 1005.06C684.375 1004.03 686.313 1002.86 688.276 1001.73C689.177 1003.81 689.969 1005.92 690.641 1008.06C688.901 1009.05 687.203 1010.11 685.427 1011.04ZM601.052 1044.21C620.625 1044.69 641.943 1044.61 657.464 1032.32C658.802 1031.26 660.13 1030.08 661.745 1029.56C663.833 1028.88 666.089 1029.38 668.281 1029.39C672.302 1029.43 676.323 1027.75 679.182 1024.85C675.193 1024.24 671.406 1022.39 668.458 1019.6C676.703 1019.24 684.781 1016.63 691.906 1012.34C692.859 1015.78 693.755 1019.14 694.807 1022.27C670.146 1045.51 632.984 1054.72 601.052 1044.21ZM596.766 985.833C595.537 984.464 594.333 983.083 593.13 981.698C594.719 984.052 596.557 986.245 598.505 988.354C596.922 989.818 595.438 991.359 594.182 993.026C588.25 988.052 583.115 981.995 579.37 974.958C577.141 970.766 575.438 966.422 573.917 962.161C573.88 962.057 573.844 961.948 573.807 961.844C572.224 960.615 570.609 959.458 568.958 958.38C568.052 957.844 567.162 957.297 566.255 956.776C565.344 956.26 564.385 955.813 563.458 955.333C555.912 951.661 547.656 949.646 539.208 948.635C537.089 948.396 534.964 948.198 532.818 948.047C531.755 947.969 530.667 947.927 529.594 947.875C528.521 947.823 527.438 947.781 526.349 947.766C522.01 947.646 517.615 947.729 513.146 947.917C512.01 947.964 510.807 947.813 509.661 947.448C504.427 945.755 501.552 940.141 503.24 934.906C504.927 929.667 510.542 926.792 515.781 928.479L515.797 928.484C520.094 929.87 524.464 931.182 528.859 932.5C531.052 933.167 533.26 933.833 535.453 934.552C537.656 935.234 539.854 936 542.042 936.755C550.787 939.849 559.453 943.656 567.219 948.922C568.167 949.604 569.135 950.245 570.057 950.958C569.912 950.542 569.766 950.115 569.615 949.703C568.172 945.714 566.62 941.927 564.75 938.589C562.88 935.25 560.703 932.396 558.156 930.167C557.912 929.948 557.646 929.682 557.427 929.432C554.563 926.161 554.896 921.182 558.167 918.323C561.438 915.458 566.417 915.792 569.276 919.063L569.448 919.255C573.026 923.344 575.615 928.005 577.464 932.609C579.323 937.229 580.526 941.807 581.531 946.245C583.198 953.667 584.344 960.802 586.365 967.385C586.547 967.604 586.729 967.828 586.912 968.052C589.724 971.542 592.354 975.13 595.073 978.609C597.031 981.151 599.026 983.641 601.068 986.078C600.307 986.729 599.552 987.396 598.813 988.073C598.13 987.323 597.432 986.589 596.766 985.833ZM501.786 1009.94C503.906 1008.4 506.151 1007.05 508.396 1005.7C503.844 1007.69 498.927 1008.79 493.964 1009.02C494.344 1009.39 494.708 1009.79 495.047 1010.21C499.755 1016.11 498.781 1024.71 492.88 1029.42L491.302 1030.67C487.234 1033.92 483.01 1036.49 478.578 1038.54C474.714 1040.3 470.667 1041.57 466.474 1042.4C466.427 1035.14 466.313 1027.88 466.057 1020.61C466.344 1020.36 466.672 1020.15 466.943 1019.88C469.036 1017.84 470.818 1015.48 471.932 1013.04C472.797 1011.18 474.125 1009.41 475.844 1008.04C476.547 1007.48 477.292 1007.01 478.057 1006.6C477.266 1006.32 476.474 1006.01 475.698 1005.67C480.552 1003.72 485.401 1001.77 490.255 999.813C481.766 1000.39 473.229 1000.06 464.786 999.031C464.63 997.198 464.458 995.359 464.271 993.526C473.135 992.948 481.99 992.214 490.813 991.167C490.766 991.141 490.719 991.115 490.672 991.089C488.734 989.943 486.823 988.766 484.932 987.568C481.146 985.177 477.427 982.719 473.667 980.365C469.911 978.005 466.12 975.74 462.193 973.755C461.984 973.651 461.76 973.568 461.547 973.464C461.339 972.271 461.104 971.073 460.88 969.88C461.766 970.302 462.672 970.667 463.542 971.115C465.557 972.141 467.531 973.234 469.479 974.359C471.432 975.479 473.349 976.641 475.255 977.823C482.88 982.526 490.198 987.578 498.052 991.568C505.859 995.651 514.078 998.948 522.516 1001.55C526.469 1002.77 530.474 1003.83 534.5 1004.8C533.693 1006.7 532.958 1008.64 532.297 1010.61C522.167 1011.96 511.839 1011.8 501.786 1009.94ZM459.885 964.734C459.458 962.729 458.984 960.719 458.505 958.708C458.443 958.74 458.37 958.76 458.307 958.797C456.495 959.75 454.724 960.797 453.036 961.964C451.682 962.906 450.37 963.906 449.099 964.964C445.51 963.724 441.859 962.656 438.161 961.781C433.76 960.745 429.318 959.979 424.87 959.37C422.313 959.016 419.755 958.714 417.198 958.432C414.344 957.974 411.443 957.667 408.516 957.542C405.073 957.203 401.625 956.87 398.167 956.615C389.24 955.932 380.255 955.536 371.255 955.849C368.359 955.958 365.464 956.151 362.573 956.417C362.188 956.12 361.703 955.953 361.182 955.984C361.078 955.995 360.969 956.01 360.87 956.031C359.26 956.396 357.531 956.438 355.807 956.167C354.078 955.901 352.339 955.37 350.651 954.667C348.958 953.974 347.313 953.099 345.688 952.161C344.073 951.208 342.438 950.229 340.958 949.151C339.464 948.083 338.109 946.88 337.031 945.49C336.505 944.786 336.021 944.052 335.62 943.266C335.229 942.469 334.896 941.646 334.615 940.797C334.057 939.094 333.76 937.297 333.63 935.484C333.495 933.667 333.531 931.813 333.708 929.995C334.031 926.365 335.026 922.818 336.911 919.995C338.813 917.203 341.615 915.021 344.635 914.688C345.396 914.594 346.182 914.573 346.984 914.651C347.786 914.719 348.604 914.849 349.422 915.063C350.24 915.255 351.073 915.51 351.865 915.828C352.661 916.12 353.432 916.49 354.177 916.885C354.917 917.286 355.625 917.745 356.297 918.234C356.63 918.484 356.958 918.745 357.276 919.005C357.589 919.276 357.896 919.563 358.125 919.823C358.589 920.344 358.818 920.87 358.677 921.182C358.604 921.344 358.453 921.422 358.219 921.432C358.167 921.432 358.099 921.427 358.042 921.417C357.984 921.406 357.87 921.318 357.797 921.271C357.635 921.151 357.474 921.042 357.323 920.911C358.693 924.995 363.115 927.193 367.193 925.818C371.276 924.448 373.469 920.031 372.099 915.948C371.797 915.37 371.448 914.818 371.063 914.276C370.875 914.021 370.646 913.719 370.458 913.516C370.266 913.307 370.073 913.094 369.875 912.911C369.078 912.146 368.271 911.531 367.474 911.068C365.891 910.125 364.453 909.682 363.208 909.37C362.578 909.208 362.01 909.115 361.448 909.016C360.885 908.917 360.323 908.823 359.76 908.75C358.641 908.583 357.526 908.469 356.422 908.38C355.323 908.292 354.224 908.26 353.141 908.234C352.052 908.234 350.99 908.255 349.906 908.313C348.823 908.391 347.724 908.484 346.625 908.667C345.521 908.859 344.411 909.109 343.323 909.474C341.13 910.234 339.125 911.427 337.484 912.891C335.839 914.354 334.516 916.089 333.51 917.958C331.474 921.719 330.781 925.849 330.641 929.802C330.552 933.75 330.854 937.771 332.198 941.615C332.536 942.573 332.948 943.51 333.422 944.411C333.917 945.313 334.469 946.182 335.104 946.995C336.38 948.615 337.922 949.958 339.5 951.135C341.099 952.313 342.708 953.349 344.344 954.391C345.984 955.422 347.672 956.422 349.453 957.302C349.953 957.542 350.453 957.771 350.964 957.995C348.766 958.401 346.578 958.87 344.406 959.406C343.297 959.641 342.208 959.969 341.12 960.292L337.844 961.255C336.766 961.609 335.698 962.01 334.62 962.385L333.698 962.719C334.505 963.839 335.313 964.958 336.115 966.083C339.13 964.922 342.198 963.88 345.349 963.099C353.823 960.911 362.589 959.797 371.396 959.37C377.802 959.073 384.229 959.151 390.661 959.438C386.286 960.661 382.01 962.344 377.964 964.984C375.922 966.323 373.953 967.927 372.208 969.885C370.469 971.833 368.969 974.172 367.964 976.75C366.958 979.307 366.453 981.927 366.208 984.422C366.083 985.677 366.026 986.906 366 988.104C365.99 988.703 365.99 989.297 365.995 989.885C366 990.443 366.005 991.188 366.146 992.156C366.266 992.932 366.49 993.901 366.969 994.922C366.552 995.38 366.156 995.875 365.792 996.401C364.219 998.688 363.453 1001.31 363.406 1003.9C368.573 1010.31 374.078 1016.45 380.182 1022.14C382.135 1020.27 384 1018.19 385.672 1015.76L388.333 1011.89C390.047 1009.4 390.818 1006.53 390.729 1003.72C391.245 1003.64 391.766 1003.55 392.286 1003.45C393.026 1003.27 393.76 1003.1 394.536 1002.85C396.063 1002.35 397.521 1001.7 398.891 1000.9C401.635 999.302 404.083 997.146 406.031 994.365C407.964 991.609 409.365 988.115 409.599 984.318L409.708 982.484C409.99 977.896 406.495 973.943 401.906 973.667C397.313 973.385 393.365 976.88 393.083 981.469C393.031 982.292 393.115 983.13 393.292 983.896C393.417 984.422 393.37 985.167 392.979 986.036C392.594 986.901 391.88 987.828 390.99 988.557C390.547 988.927 390.063 989.245 389.563 989.505C389.333 989.63 389.021 989.745 388.729 989.875C388.422 989.974 388.12 990.094 387.786 990.172C386.495 990.536 385.005 990.667 383.427 990.573C381.854 990.484 380.193 990.151 378.552 989.635C378.344 989.573 378.141 989.495 377.938 989.427L377.365 989.229C377.26 989.193 377.177 989.161 377.099 989.135C377.099 989.13 377.099 989.13 377.099 989.13C377.031 988.641 376.969 988.151 376.917 987.677C376.813 986.719 376.74 985.786 376.708 984.88C376.646 983.073 376.771 981.375 377.141 979.833C377.839 976.802 379.87 973.88 382.74 971.427C385.594 968.974 389.167 966.969 392.885 965.417C396.62 963.859 400.63 962.823 404.74 962.182C408.75 961.573 412.87 961.385 417.005 961.521C419.495 961.786 421.979 962.073 424.453 962.406C428.833 963 433.188 963.74 437.469 964.74C440.521 965.448 443.542 966.297 446.521 967.266C441.125 972.349 436.76 978.453 433.469 985.109C432.542 986.938 431.734 988.828 430.995 990.75C430.234 992.667 429.62 994.641 429.057 996.646C428.797 997.656 428.51 998.667 428.313 999.698L427.995 1001.24L427.734 1002.8C427.542 1003.84 427.458 1004.9 427.328 1005.95C427.24 1007.02 427.167 1008.08 427.12 1009.16C427.01 1013.45 427.37 1017.89 428.714 1022.35C429.078 1023.46 429.422 1024.57 429.922 1025.67C430.161 1026.21 430.365 1026.78 430.656 1027.31L431.521 1028.92C431.797 1029.47 432.161 1029.97 432.505 1030.49C432.859 1031.01 433.182 1031.54 433.578 1032.03C434.385 1032.98 435.156 1034 436.094 1034.86C439.625 1038.53 444.5 1041.14 449.547 1042.38C452.078 1042.99 454.646 1043.3 457.172 1043.36C459.703 1043.42 462.198 1043.2 464.635 1042.83C465.26 1042.73 465.854 1042.53 466.474 1042.4C466.427 1035.14 466.313 1027.88 466.057 1020.61C465.25 1021.34 464.448 1022.07 463.563 1022.68C462.375 1023.54 461.115 1024.26 459.833 1024.87C458.552 1025.49 457.24 1025.95 455.932 1026.29C454.625 1026.63 453.318 1026.81 452.047 1026.81C449.505 1026.84 447.052 1026.22 444.839 1024.74C442.604 1023.35 440.776 1021.1 439.396 1018.36C439.198 1018.03 439.083 1017.65 438.922 1017.3C438.776 1016.93 438.599 1016.58 438.474 1016.2C438.245 1015.44 437.943 1014.69 437.771 1013.88L437.469 1012.68L437.25 1011.45C437.078 1010.63 437.026 1009.78 436.917 1008.94C436.594 1005.54 436.797 1002.01 437.37 998.536C437.984 995.047 438.995 991.578 440.37 988.245C441.734 984.911 443.464 981.708 445.505 978.724C447.531 975.724 449.87 972.938 452.474 970.432C452.729 970.188 452.995 969.943 453.255 969.708C456.073 970.833 458.833 972.104 461.547 973.464C461.339 972.271 461.104 971.073 460.88 969.88C459.203 969.078 457.536 968.255 455.823 967.536C457.12 966.521 458.484 965.599 459.885 964.734ZM377.167 989.578C377.177 989.594 377.188 989.609 377.193 989.625C377.365 989.984 377.349 990.177 377.297 990.073C377.26 990.016 377.214 989.839 377.167 989.578ZM730.141 1016.97H998.245C1000.71 1016.97 1002.71 1018.97 1002.71 1021.44C1002.71 1023.91 1000.71 1025.91 998.245 1025.91H730.141C727.672 1025.91 725.672 1023.91 725.672 1021.44C725.672 1018.97 727.672 1016.97 730.141 1016.97ZM265.896 1025.91H4.91144C2.4479 1025.91 0.442688 1023.91 0.442688 1021.44C0.442688 1018.97 2.4479 1016.97 4.91144 1016.97H265.896C268.365 1016.97 270.365 1018.97 270.365 1021.44C270.365 1023.91 268.365 1025.91 265.896 1025.91Z" fill="#C77C77"/>
</g>
</svg>
