<svg width="1080" height="1080" viewBox="0 0 1080 1080" fill="none" xmlns="http://www.w3.org/2000/svg">
<mask id="mask0_12_29" style="mask-type:luminance" maskUnits="userSpaceOnUse" x="22" y="404" width="1036" height="557">
<path d="M22.6666 404.469H1057.33V960.651H22.6666V404.469Z" fill="white"/>
</mask>
<g mask="url(#mask0_12_29)">
<path d="M1057.3 722.443C1057.3 783.651 1007.54 832.13 941.365 832.13C867.203 832.13 806.99 752.651 806.99 654.74C806.99 653.271 807.01 651.781 807.052 650.307L735.354 859.323L706.469 861.823L566.463 453.052C565.344 454.974 564.187 456.984 562.99 459.115L466.87 631.896L564.25 801.505C586.927 841.052 595.021 845.5 620.781 845.5H629.573V856.177H517.135V845.5H529.052C550.406 845.5 559.844 844.234 559.844 835.443C559.844 829.151 555.432 819.734 546.641 804.031L457.437 648.839L373.635 799.625C299.516 932.984 241.698 961.724 152.474 961.724C121.479 961.724 96.6301 950.698 77.1145 935.344C47.1301 911.734 22.6926 875.276 22.6926 823.068C22.6926 748.391 75.8541 693.016 142.562 682.177L143.578 688.385C79.6822 698.771 28.9843 751.578 28.9843 823.068C28.9843 873.141 52.203 907.74 81.0051 930.396C97.7447 943.578 122.057 949.724 139.109 949.724C215.568 949.724 273.833 888.682 335.312 777.005L427.286 609.896L418.286 595.208C406.635 579.193 387.062 565.99 363.807 565.99C343.422 565.99 328.193 578.052 328.193 595.271C328.193 608.573 338.641 616.87 348.844 616.891C355.776 616.891 361.427 613.188 364.49 609.234L369.453 613.083C365.354 618.359 358.073 623.182 348.844 623.182C335.312 623.161 321.901 612.193 321.901 595.271C321.901 573.604 341.187 559.698 363.802 559.698C379.26 559.698 393.396 565.161 404.713 573.047L334.937 459.115C310.437 420.172 306.031 410.734 287.182 410.734H218.713V404.469H380.172V415.766H368.854C348.76 415.766 339.328 417.646 339.328 426.443C339.328 432.729 344.354 442.786 353.146 457.229L436.703 592.932L518.375 445.932C526.24 431.906 537.578 422.385 546.187 418.286C547.219 417.771 548.213 417.38 549.167 417.026V415.766H516.49V404.469H637.974V415.766H610.724C604.208 415.766 598.99 416.385 593.88 419.115C600.646 423.359 605.943 431.385 609.088 440.266L726.557 783.917C730.963 795.859 731.588 803.391 731.588 805.917V806.536H736.615V805.917C736.615 804.031 737.234 796.479 742.906 782.036L859.135 449.057C861.656 441.505 863.417 434.76 863.417 429.109C863.417 417.667 856.094 410.734 832.729 410.734H745.411V404.469H925.099V415.766H912.521C889.901 415.766 885.766 420.875 876.078 449.057L817.792 619.021C814.708 630.922 813.281 642.943 813.281 654.74C813.281 749.177 870.656 825.839 941.365 825.839C1004.37 825.839 1051.01 779.969 1051.01 722.443C1051.01 667.234 1010.21 627.198 957.276 627.198C919.469 627.198 894.208 646.604 879.37 670.01L874.052 666.635C889.797 641.828 917.073 620.906 957.276 620.906C1013.62 620.906 1057.3 663.885 1057.3 722.443ZM549.167 415.766V417.026C548.213 417.38 547.219 417.771 546.187 418.286C541.693 416.323 535.984 415.766 528.036 415.766H549.167Z" fill="#C77C77"/>
</g>
<path d="M579.818 229.91C579.818 236.801 578.443 243.889 575.693 251.181C572.953 258.462 569.432 265.66 565.13 272.785C560.823 279.91 556.12 286.921 551.026 293.806C545.943 300.697 541.047 307.238 536.339 313.431C531.641 319.613 527.495 325.322 523.901 330.556C520.302 335.806 517.88 340.389 516.63 344.306C518.974 342.733 521.13 340.895 523.089 338.785C525.047 336.671 526.964 334.639 528.839 332.681C530.714 330.723 532.703 328.957 534.818 327.389C536.943 325.837 539.412 324.738 542.235 324.098C542.386 324.889 542.578 325.759 542.818 326.702C543.052 327.629 543.172 328.483 543.172 329.264C543.172 331.775 542.031 334.712 539.755 338.077C537.49 341.452 534.787 344.702 531.651 347.827C528.526 350.962 525.198 353.624 521.672 355.806C518.141 357.999 515.13 359.098 512.63 359.098C511.057 359.098 509.37 358.707 507.568 357.931C505.776 357.15 504.052 356.129 502.401 354.869C500.761 353.619 499.391 352.207 498.297 350.639C497.198 349.082 496.651 347.441 496.651 345.723C496.651 345.098 498.297 342.16 501.589 336.91C504.88 331.66 508.948 325.046 513.797 317.056C518.656 309.072 523.943 300.223 529.651 290.514C535.37 280.806 540.656 271.181 545.505 261.639C550.365 252.087 554.443 243.119 557.735 234.744C561.026 226.358 562.672 219.577 562.672 214.41C562.672 212.843 561.802 211.905 560.068 211.598C555.995 213.796 551.615 216.889 546.922 220.889C542.224 224.879 537.412 229.494 532.485 234.744C527.552 239.983 522.615 245.494 517.672 251.285C512.74 257.077 507.964 262.837 503.339 268.556C498.724 274.264 494.422 279.671 490.422 284.764C486.432 289.848 482.87 294.197 479.735 297.806C478.802 297.806 477.745 297.301 476.568 296.285C475.401 295.259 474.266 294.077 473.172 292.744C472.073 291.41 471.172 290.087 470.464 288.764C469.755 287.431 469.401 286.296 469.401 285.348C469.401 284.405 470.219 282.369 471.86 279.244C473.511 276.108 475.589 272.306 478.089 267.848C480.599 263.389 483.266 258.577 486.089 253.41C488.906 248.244 491.568 243.238 494.068 238.389C496.578 233.53 498.656 229.108 500.297 225.119C501.932 221.119 502.755 218.025 502.755 215.827V213.702C494.615 219.191 486.078 226.16 477.151 234.619C468.235 243.077 459.464 252.046 450.839 261.514C442.224 270.988 434.047 280.546 426.297 290.181C418.547 299.806 411.776 308.613 405.985 316.598C405.511 317.379 404.682 318.473 403.505 319.889C402.339 321.296 401.089 322.78 399.755 324.348C398.422 325.905 397.13 327.228 395.88 328.327C394.63 329.421 393.531 329.973 392.589 329.973C391.656 329.973 390.641 329.499 389.547 328.556C388.448 327.624 387.386 326.535 386.36 325.285C385.344 324.035 384.485 322.744 383.776 321.41C383.078 320.077 382.735 319.025 382.735 318.244C382.735 316.983 384.177 313.572 387.068 308.014C389.969 302.462 393.573 295.535 397.88 287.244C402.182 278.941 406.844 269.775 411.86 259.744C416.87 249.718 421.531 239.655 425.839 229.556C430.141 219.462 433.74 209.796 436.63 200.556C439.531 191.322 440.985 183.337 440.985 176.598C440.985 174.712 440.703 172.634 440.151 170.369C439.61 168.093 438.089 166.952 435.589 166.952C431.974 166.952 428.328 167.9 424.651 169.785C420.969 171.66 417.448 174.009 414.089 176.827C410.724 179.65 407.516 182.702 404.464 185.994C401.406 189.285 398.662 192.343 396.235 195.16C393.802 197.968 391.802 200.316 390.235 202.202C388.677 204.077 387.589 205.014 386.964 205.014C385.089 205.014 383.052 204.197 380.86 202.556C378.662 200.905 377.568 198.983 377.568 196.785C377.568 192.884 379.485 188.504 383.318 183.639C387.151 178.78 391.766 174.28 397.172 170.139C402.573 165.988 408.214 162.504 414.089 159.681C419.964 156.863 424.86 155.452 428.776 155.452C432.693 155.452 436.328 156.238 439.693 157.806C443.052 159.363 445.985 161.441 448.485 164.035C450.995 166.619 452.953 169.634 454.36 173.077C455.776 176.525 456.485 180.119 456.485 183.869C456.485 191.077 455.073 199.108 452.255 207.952C449.432 216.801 446.026 225.806 442.026 234.973C438.037 244.129 433.849 252.973 429.464 261.514C425.089 270.046 421.412 277.598 418.443 284.181L417.505 286.514C418.589 286.056 420.422 284.494 423.005 281.827C425.599 279.16 428.656 275.879 432.172 271.973C435.698 268.056 439.573 263.671 443.797 258.806C448.031 253.947 452.38 249.014 456.839 244.014C461.297 239.004 465.755 234.15 470.214 229.452C474.682 224.744 478.953 220.551 483.026 216.869C487.094 213.191 490.807 210.259 494.172 208.077C497.547 205.884 500.328 204.785 502.526 204.785C504.719 204.785 506.594 205.337 508.151 206.431C509.719 207.53 511.011 208.941 512.026 210.66C513.052 212.384 513.802 214.264 514.276 216.306C514.745 218.337 514.985 220.285 514.985 222.16C514.985 225.759 514.432 229.244 513.339 232.619C512.24 235.983 510.948 239.275 509.464 242.494C507.974 245.702 506.37 248.879 504.651 252.014C502.927 255.139 501.432 258.343 500.172 261.619C501.432 260.066 503.589 257.608 506.63 254.244C509.682 250.869 513.13 247.108 516.964 242.952C520.807 238.801 524.922 234.535 529.297 230.16C533.682 225.775 537.912 221.78 541.985 218.181C546.052 214.572 549.766 211.593 553.13 209.244C556.505 206.9 559.136 205.723 561.026 205.723C563.37 205.723 565.677 206.587 567.943 208.306C570.219 210.03 572.219 212.15 573.943 214.66C575.662 217.16 577.073 219.822 578.172 222.639C579.266 225.462 579.818 227.884 579.818 229.91Z" fill="#C77C77"/>
<path d="M598.117 315.41C599.06 315.108 600.977 314.051 603.867 312.244C606.768 310.441 610.18 308.244 614.097 305.66C618.013 303.077 622.159 300.301 626.534 297.327C630.919 294.358 634.992 291.655 638.742 289.223C642.503 286.796 645.68 284.759 648.263 283.119C650.847 281.483 652.373 280.66 652.847 280.66C653.638 280.66 654.347 280.587 654.972 280.431C655.597 280.264 656.06 280.494 656.367 281.119C656.06 281.9 654.305 283.619 651.097 286.285C647.888 288.952 643.972 292.051 639.347 295.577C634.722 299.093 629.748 302.806 624.43 306.723C619.107 310.639 614.097 314.244 609.388 317.535C604.69 320.827 600.659 323.53 597.284 325.639C593.919 327.749 592.013 328.806 591.555 328.806C590.138 328.806 588.805 328.41 587.555 327.619C586.305 326.843 585.206 325.827 584.263 324.577C583.315 323.327 582.565 321.962 582.013 320.473C581.472 318.988 581.201 317.535 581.201 316.119C581.201 313.452 581.867 309.889 583.201 305.431C584.534 300.973 586.138 296.358 588.013 291.577C589.899 286.801 591.826 282.223 593.784 277.848C595.742 273.462 597.347 269.931 598.597 267.264C599.065 266.322 600.081 264.212 601.638 260.931C603.206 257.639 604.888 254.197 606.68 250.598C608.482 246.988 610.206 243.775 611.847 240.952C613.498 238.134 614.638 236.723 615.263 236.723C617.93 236.723 620.435 237.629 622.784 239.431C625.128 241.223 626.701 243.379 627.492 245.889C626.701 247.296 625.399 249.801 623.597 253.41C621.805 257.009 619.847 261.197 617.722 265.973C615.607 270.754 613.378 275.801 611.034 281.119C608.685 286.441 606.534 291.452 604.576 296.16C602.617 300.858 601.044 304.968 599.867 308.494C598.701 312.009 598.117 314.316 598.117 315.41ZM635.951 201.264C636.576 201.264 637.586 201.462 638.992 201.848C640.409 202.238 641.815 202.744 643.222 203.369C644.638 203.994 645.852 204.702 646.867 205.494C647.878 206.275 648.388 207.134 648.388 208.077C648.388 209.176 647.794 210.629 646.617 212.431C645.451 214.223 644.081 215.983 642.513 217.702C640.94 219.426 639.336 220.91 637.701 222.16C636.06 223.41 634.768 224.035 633.826 224.035C632.102 224.035 630.263 222.983 628.305 220.869C626.347 218.759 625.367 216.843 625.367 215.119C625.367 214.65 625.831 213.671 626.763 212.181C627.706 210.697 628.768 209.134 629.951 207.494C631.128 205.843 632.305 204.389 633.472 203.139C634.649 201.889 635.477 201.264 635.951 201.264Z" fill="#C77C77"/>
<path d="M686.916 228.035C688.942 228.035 691.291 228.348 693.958 228.973C696.625 229.598 699.13 230.504 701.479 231.681C703.823 232.848 705.817 234.337 707.458 236.139C709.109 237.947 709.937 240.098 709.937 242.598C709.937 243.546 709.698 244.879 709.229 246.598C708.755 248.322 708.166 250.046 707.458 251.764C706.76 253.488 705.901 255.014 704.875 256.348C703.859 257.671 702.802 258.327 701.708 258.327C700.609 258.327 699.234 257.785 697.583 256.702C695.942 255.608 695.125 254.426 695.125 253.16C695.125 252.384 695.396 251.327 695.937 249.993C696.489 248.66 696.885 247.254 697.125 245.764C697.359 244.28 697.317 242.868 697 241.535C696.692 240.202 695.755 239.15 694.187 238.368V238.139C692.156 238.296 689.573 239.275 686.437 241.077C683.312 242.868 680.297 245.056 677.396 247.639C674.489 250.223 671.984 253.009 669.875 255.993C667.76 258.967 666.708 261.702 666.708 264.202C666.708 267.342 667.062 270.712 667.771 274.306C668.479 277.905 669.219 281.587 670 285.348C670.776 289.113 671.521 292.837 672.229 296.514C672.937 300.197 673.291 303.598 673.291 306.723C673.291 307.348 673.323 307.822 673.396 308.139C673.479 308.447 673.906 308.759 674.687 309.077C676.729 308.452 679.823 307.087 683.979 304.973C688.13 302.848 692.479 300.613 697.021 298.264C701.562 295.921 705.984 293.848 710.291 292.056C714.594 290.254 718 289.348 720.5 289.348C721.276 289.348 722.172 289.426 723.187 289.577C724.213 289.733 724.802 290.431 724.958 291.681L722.625 293.577C721.833 293.41 720.177 293.759 717.666 294.618C715.166 295.483 712.271 296.66 708.979 298.16C705.698 299.65 702.177 301.327 698.416 303.202C694.666 305.077 691.146 306.879 687.854 308.598C684.562 310.322 681.698 311.848 679.271 313.181C676.854 314.514 675.25 315.421 674.458 315.889C673.984 316.197 673.198 318.155 672.104 321.764C671.005 325.363 669.359 329.816 667.166 335.139C664.984 340.473 662.13 346.186 658.604 352.285C655.073 358.395 650.802 364.077 645.791 369.327C640.791 374.577 634.89 378.921 628.083 382.368C621.265 385.811 613.469 387.535 604.687 387.535C600.786 387.535 597.469 386.353 594.729 383.993C591.979 381.645 590.604 378.436 590.604 374.368C590.604 372.02 592.015 369.082 594.833 365.556C597.656 362.04 601.302 358.358 605.771 354.514C610.229 350.681 615.161 346.764 620.562 342.764C625.969 338.775 631.25 335.061 636.416 331.618C641.583 328.171 646.234 325.129 650.375 322.473C654.526 319.806 657.625 317.926 659.666 316.827C661.385 315.884 662.166 314.238 662 311.889C661.844 309.546 661.771 307.509 661.771 305.785C661.771 302.025 661.38 298.264 660.604 294.514C659.823 290.754 658.963 286.952 658.021 283.118C657.073 279.285 656.208 275.493 655.416 271.743C654.635 267.983 654.25 264.296 654.25 260.681C654.25 256.613 655.302 252.618 657.416 248.702C659.541 244.785 662.208 241.306 665.416 238.264C668.625 235.212 672.146 232.743 675.979 230.868C679.823 228.983 683.469 228.035 686.916 228.035ZM594.833 375.556C594.833 377.582 595.578 378.79 597.062 379.181C598.552 379.582 600.156 379.858 601.875 380.014C607.666 378.441 613.583 375.936 619.625 372.493C625.656 369.046 631.291 364.895 636.541 360.035C641.776 355.186 646.385 349.785 650.375 343.827C654.375 337.879 657.234 331.702 658.958 325.285L659.187 325.056C659.187 324.421 659.031 324.098 658.729 324.098H657.541C655.817 324.889 653.073 326.493 649.312 328.91C645.562 331.337 641.38 334.16 636.771 337.368C632.146 340.587 627.328 344.077 622.312 347.827C617.302 351.587 612.76 355.228 608.687 358.743C604.62 362.27 601.291 365.52 598.708 368.493C596.125 371.478 594.833 373.832 594.833 375.556Z" fill="#C77C77"/>
</svg>
