<svg xmlns="http://www.w3.org/2000/svg" xmlns:xlink="http://www.w3.org/1999/xlink" width="1080" zoomAndPan="magnify" viewBox="0 0 810 809.999993" height="1080" preserveAspectRatio="xMidYMid meet" version="1.0"><defs><clipPath id="de1391c2d6"><path d="M 89.753906 16 L 720.503906 16 L 720.503906 794 L 89.753906 794 Z M 89.753906 16 " clip-rule="nonzero"/></clipPath></defs><g clip-path="url(#de1391c2d6)"><path fill="#c77c78" d="M 544.261719 497.09375 L 544.261719 344.851562 L 405.011719 224.769531 L 265.753906 344.851562 L 265.753906 497.09375 L 264.03125 497.09375 L 159.65625 590.082031 L 159.65625 793.796875 L 335.082031 793.796875 L 335.082031 668.828125 C 335.085938 667.6875 335.121094 666.546875 335.179688 665.410156 C 335.242188 664.269531 335.332031 663.132812 335.445312 661.996094 C 335.5625 660.859375 335.707031 659.730469 335.878906 658.601562 C 336.050781 657.472656 336.25 656.347656 336.476562 655.230469 C 336.703125 654.113281 336.957031 653 337.238281 651.894531 C 337.519531 650.789062 337.828125 649.6875 338.164062 648.597656 C 338.5 647.507812 338.859375 646.425781 339.25 645.351562 C 339.636719 644.277344 340.050781 643.214844 340.492188 642.164062 C 340.929688 641.109375 341.398438 640.066406 341.886719 639.039062 C 342.378906 638.007812 342.894531 636.988281 343.4375 635.984375 C 343.976562 634.980469 344.542969 633.988281 345.132812 633.011719 C 345.722656 632.035156 346.335938 631.070312 346.972656 630.125 C 347.609375 629.175781 348.265625 628.246094 348.949219 627.332031 C 349.632812 626.417969 350.335938 625.519531 351.0625 624.636719 C 351.789062 623.757812 352.535156 622.894531 353.304688 622.050781 C 354.070312 621.207031 354.859375 620.382812 355.667969 619.578125 C 356.476562 618.773438 357.304688 617.988281 358.152344 617.222656 C 359 616.457031 359.863281 615.714844 360.75 614.992188 C 361.632812 614.269531 362.53125 613.570312 363.449219 612.890625 C 364.367188 612.214844 365.300781 611.558594 366.253906 610.925781 C 367.203125 610.292969 368.167969 609.683594 369.148438 609.097656 C 370.125 608.515625 371.121094 607.953125 372.128906 607.417969 C 373.136719 606.878906 374.15625 606.367188 375.1875 605.882812 C 376.21875 605.394531 377.261719 604.933594 378.316406 604.496094 C 379.371094 604.0625 380.4375 603.652344 381.511719 603.269531 C 382.585938 602.886719 383.671875 602.527344 384.761719 602.199219 C 385.855469 601.867188 386.957031 601.5625 388.0625 601.289062 C 389.167969 601.011719 390.28125 600.761719 391.402344 600.539062 C 392.523438 600.316406 393.644531 600.125 394.773438 599.957031 C 395.902344 599.789062 397.035156 599.648438 398.171875 599.539062 C 399.308594 599.425781 400.445312 599.34375 401.585938 599.289062 C 402.726562 599.230469 403.867188 599.203125 405.007812 599.203125 C 406.148438 599.203125 407.289062 599.230469 408.429688 599.289062 C 409.570312 599.34375 410.707031 599.425781 411.84375 599.539062 C 412.980469 599.648438 414.109375 599.789062 415.238281 599.957031 C 416.367188 600.125 417.492188 600.316406 418.613281 600.539062 C 419.730469 600.761719 420.84375 601.011719 421.953125 601.289062 C 423.058594 601.5625 424.160156 601.867188 425.253906 602.199219 C 426.34375 602.527344 427.429688 602.886719 428.503906 603.269531 C 429.578125 603.652344 430.644531 604.0625 431.699219 604.496094 C 432.753906 604.933594 433.796875 605.394531 434.828125 605.882812 C 435.859375 606.367188 436.878906 606.878906 437.886719 607.417969 C 438.894531 607.953125 439.886719 608.515625 440.867188 609.097656 C 441.847656 609.683594 442.8125 610.292969 443.761719 610.925781 C 444.710938 611.558594 445.648438 612.214844 446.566406 612.890625 C 447.480469 613.570312 448.382812 614.269531 449.265625 614.992188 C 450.148438 615.714844 451.015625 616.457031 451.863281 617.222656 C 452.710938 617.988281 453.539062 618.773438 454.347656 619.578125 C 455.15625 620.382812 455.945312 621.207031 456.710938 622.050781 C 457.480469 622.894531 458.226562 623.757812 458.953125 624.636719 C 459.679688 625.519531 460.382812 626.417969 461.066406 627.332031 C 461.75 628.246094 462.40625 629.175781 463.042969 630.125 C 463.679688 631.070312 464.292969 632.035156 464.882812 633.011719 C 465.472656 633.988281 466.039062 634.980469 466.578125 635.984375 C 467.121094 636.988281 467.636719 638.007812 468.128906 639.039062 C 468.617188 640.066406 469.085938 641.109375 469.523438 642.164062 C 469.964844 643.214844 470.378906 644.277344 470.765625 645.351562 C 471.15625 646.425781 471.515625 647.507812 471.851562 648.597656 C 472.1875 649.6875 472.496094 650.789062 472.777344 651.894531 C 473.058594 653 473.3125 654.113281 473.539062 655.230469 C 473.765625 656.347656 473.964844 657.472656 474.136719 658.601562 C 474.308594 659.730469 474.453125 660.859375 474.570312 661.996094 C 474.683594 663.132812 474.773438 664.269531 474.835938 665.410156 C 474.894531 666.546875 474.929688 667.6875 474.933594 668.828125 L 474.933594 793.796875 L 650.359375 793.796875 L 650.359375 590.078125 L 545.992188 497.089844 Z M 405.011719 437.695312 C 403.71875 437.695312 402.425781 437.632812 401.140625 437.507812 C 399.851562 437.378906 398.574219 437.191406 397.308594 436.9375 C 396.039062 436.6875 394.785156 436.371094 393.546875 435.996094 C 392.308594 435.621094 391.09375 435.1875 389.898438 434.691406 C 388.703125 434.195312 387.535156 433.644531 386.394531 433.035156 C 385.253906 432.425781 384.148438 431.761719 383.070312 431.042969 C 381.996094 430.324219 380.960938 429.554688 379.960938 428.734375 C 378.960938 427.914062 378.003906 427.046875 377.089844 426.132812 C 376.171875 425.21875 375.304688 424.261719 374.484375 423.261719 C 373.664062 422.261719 372.894531 421.222656 372.175781 420.148438 C 371.457031 419.074219 370.792969 417.964844 370.183594 416.824219 C 369.574219 415.683594 369.023438 414.515625 368.527344 413.320312 C 368.03125 412.125 367.597656 410.910156 367.222656 409.671875 C 366.847656 408.433594 366.53125 407.179688 366.28125 405.914062 C 366.027344 404.644531 365.839844 403.367188 365.710938 402.078125 C 365.585938 400.792969 365.519531 399.503906 365.519531 398.210938 C 365.519531 396.914062 365.585938 395.625 365.710938 394.339844 C 365.839844 393.050781 366.027344 391.773438 366.28125 390.503906 C 366.53125 389.238281 366.847656 387.984375 367.222656 386.746094 C 367.597656 385.507812 368.03125 384.292969 368.527344 383.097656 C 369.023438 381.902344 369.574219 380.734375 370.183594 379.59375 C 370.792969 378.453125 371.457031 377.347656 372.175781 376.269531 C 372.894531 375.195312 373.664062 374.15625 374.484375 373.15625 C 375.304688 372.15625 376.171875 371.199219 377.085938 370.285156 C 378 369.371094 378.957031 368.503906 379.957031 367.683594 C 380.957031 366.863281 381.996094 366.09375 383.070312 365.375 C 384.144531 364.65625 385.253906 363.992188 386.394531 363.382812 C 387.535156 362.773438 388.703125 362.222656 389.898438 361.726562 C 391.09375 361.230469 392.308594 360.796875 393.546875 360.421875 C 394.785156 360.046875 396.039062 359.730469 397.304688 359.480469 C 398.574219 359.226562 399.851562 359.039062 401.140625 358.910156 C 402.425781 358.785156 403.714844 358.71875 405.007812 358.71875 C 406.304688 358.71875 407.59375 358.785156 408.878906 358.910156 C 410.167969 359.035156 411.445312 359.226562 412.714844 359.480469 C 413.980469 359.730469 415.234375 360.046875 416.472656 360.421875 C 417.710938 360.796875 418.925781 361.230469 420.121094 361.726562 C 421.316406 362.222656 422.484375 362.773438 423.625 363.382812 C 424.765625 363.992188 425.871094 364.65625 426.949219 365.375 C 428.023438 366.09375 429.0625 366.863281 430.0625 367.683594 C 431.058594 368.503906 432.015625 369.371094 432.933594 370.285156 C 433.847656 371.199219 434.714844 372.15625 435.535156 373.15625 C 436.355469 374.15625 437.125 375.195312 437.84375 376.269531 C 438.5625 377.34375 439.226562 378.453125 439.835938 379.59375 C 440.445312 380.734375 440.996094 381.902344 441.492188 383.097656 C 441.988281 384.292969 442.421875 385.507812 442.796875 386.746094 C 443.171875 387.984375 443.488281 389.234375 443.738281 390.503906 C 443.992188 391.773438 444.179688 393.050781 444.308594 394.339844 C 444.433594 395.625 444.496094 396.914062 444.496094 398.207031 C 444.496094 399.5 444.429688 400.789062 444.304688 402.078125 C 444.175781 403.363281 443.984375 404.640625 443.730469 405.910156 C 443.480469 407.175781 443.164062 408.429688 442.789062 409.667969 C 442.410156 410.902344 441.976562 412.117188 441.480469 413.3125 C 440.984375 414.507812 440.433594 415.675781 439.824219 416.8125 C 439.210938 417.953125 438.546875 419.0625 437.828125 420.136719 C 437.109375 421.210938 436.339844 422.246094 435.519531 423.246094 C 434.699219 424.246094 433.832031 425.203125 432.917969 426.117188 C 432.003906 427.03125 431.046875 427.898438 430.050781 428.71875 C 429.050781 429.539062 428.011719 430.308594 426.9375 431.027344 C 425.863281 431.746094 424.757812 432.410156 423.617188 433.019531 C 422.476562 433.628906 421.308594 434.183594 420.113281 434.679688 C 418.921875 435.175781 417.707031 435.609375 416.46875 435.984375 C 415.230469 436.363281 413.980469 436.675781 412.710938 436.929688 C 411.445312 437.183594 410.167969 437.375 408.878906 437.503906 C 407.59375 437.628906 406.304688 437.695312 405.011719 437.695312 Z M 388.105469 161.671875 L 388.105469 97.953125 L 340.121094 97.953125 L 340.121094 64.152344 L 388.105469 64.152344 L 388.105469 16.167969 L 421.90625 16.167969 L 421.90625 64.152344 L 469.894531 64.152344 L 469.894531 97.953125 L 421.90625 97.953125 L 421.90625 161.671875 L 625.183594 336.96875 L 599.449219 366.808594 L 405 199.128906 L 210.570312 366.808594 L 184.835938 336.96875 Z M 243.03125 481.746094 L 115.972656 594.941406 L 89.753906 565.523438 L 243.03125 428.96875 Z M 720.261719 565.523438 L 694.042969 594.933594 L 566.984375 481.738281 L 566.984375 428.96875 Z M 720.261719 565.523438 " fill-opacity="1" fill-rule="nonzero"/></g></svg>