<svg xmlns="http://www.w3.org/2000/svg" xmlns:xlink="http://www.w3.org/1999/xlink" width="1080" zoomAndPan="magnify" viewBox="0 0 810 809.999993" height="1080" preserveAspectRatio="xMidYMid meet" version="1.0"><defs><clipPath id="0789524688"><path d="M 20.472656 26.242188 L 789.222656 26.242188 L 789.222656 783.742188 L 20.472656 783.742188 Z M 20.472656 26.242188 " clip-rule="nonzero"/></clipPath></defs><g clip-path="url(#0789524688)"><path fill="#c77c78" d="M 771.273438 212.8125 L 502.382812 212.8125 L 575.523438 185.277344 C 577.949219 184.367188 580.152344 182.945312 581.988281 181.109375 C 599.109375 163.984375 608.542969 141.21875 608.542969 117.003906 C 608.542969 92.785156 599.109375 70.019531 581.988281 52.898438 C 564.863281 35.773438 542.097656 26.34375 517.882812 26.34375 C 493.667969 26.34375 470.898438 35.773438 453.777344 52.898438 C 451.941406 54.730469 450.523438 56.9375 449.609375 59.363281 L 404.8125 178.351562 L 360.015625 59.363281 C 359.101562 56.933594 357.679688 54.730469 355.847656 52.898438 C 338.722656 35.773438 315.957031 26.34375 291.738281 26.34375 C 267.523438 26.34375 244.757812 35.773438 227.636719 52.894531 C 210.511719 70.019531 201.082031 92.785156 201.082031 117.003906 C 201.082031 141.21875 210.511719 163.984375 227.636719 181.109375 C 229.46875 182.941406 231.675781 184.363281 234.101562 185.277344 L 307.238281 212.8125 L 38.714844 212.8125 C 28.652344 212.8125 20.492188 220.972656 20.492188 231.035156 L 20.492188 329.882812 C 20.492188 339.949219 28.652344 348.105469 38.714844 348.105469 L 68.457031 348.105469 L 68.457031 765.429688 C 68.457031 775.492188 76.617188 783.65625 86.679688 783.65625 L 722.945312 783.65625 C 733.007812 783.65625 741.167969 775.492188 741.167969 765.429688 L 741.167969 348.105469 L 771.277344 348.105469 C 781.339844 348.105469 789.5 339.949219 789.5 329.882812 L 789.5 231.035156 C 789.5 220.972656 781.339844 212.8125 771.273438 212.8125 Z M 482.230469 76.160156 C 492.105469 67.511719 504.632812 62.792969 517.882812 62.792969 C 532.363281 62.792969 545.976562 68.429688 556.214844 78.667969 C 566.453125 88.910156 572.09375 102.523438 572.09375 117.003906 C 572.09375 130.253906 567.371094 142.78125 558.722656 152.660156 L 436.042969 198.84375 Z M 237.53125 117 C 237.53125 102.519531 243.167969 88.90625 253.410156 78.667969 C 263.648438 68.429688 277.261719 62.789062 291.742188 62.789062 C 304.992188 62.789062 317.519531 67.511719 327.394531 76.160156 L 373.582031 198.839844 L 250.902344 152.65625 C 242.253906 142.777344 237.53125 130.253906 237.53125 117 Z M 56.941406 249.261719 L 314.167969 249.261719 L 314.167969 311.660156 L 56.941406 311.660156 Z M 104.90625 348.105469 L 314.167969 348.105469 L 314.167969 747.207031 L 104.90625 747.207031 Z M 350.617188 747.207031 L 350.617188 249.257812 L 459.046875 249.257812 L 459.046875 747.207031 Z M 704.722656 747.207031 L 495.496094 747.207031 L 495.496094 348.105469 L 704.722656 348.105469 Z M 753.050781 311.65625 L 495.496094 311.65625 L 495.496094 249.257812 L 753.050781 249.257812 Z M 753.050781 311.65625 " fill-opacity="1" fill-rule="nonzero"/></g></svg>