<svg xmlns="http://www.w3.org/2000/svg" xmlns:xlink="http://www.w3.org/1999/xlink" width="1080" zoomAndPan="magnify" viewBox="0 0 810 809.999993" height="1080" preserveAspectRatio="xMidYMid meet" version="1.0"><path fill="#ffffff" d="M 57.425781 466.539062 C 57.546875 462.691406 57.800781 458.851562 58.035156 455.011719 C 56.6875 454.640625 55.339844 454.28125 53.996094 453.898438 C 54.472656 457.558594 55.070312 461.199219 55.9375 464.785156 C 56.132812 465.601562 56.589844 466.609375 57.425781 466.539062 Z M 73.316406 455.015625 C 71.792969 452 70.050781 449.082031 68.238281 446.195312 C 66.425781 443.304688 64.539062 440.445312 62.703125 437.535156 C 61.78125 436.082031 60.875 434.613281 59.996094 433.125 C 59.972656 433.089844 59.953125 433.050781 59.933594 433.015625 C 59.066406 440.324219 58.484375 447.664062 58.035156 455.011719 C 56.6875 454.640625 55.339844 454.28125 53.996094 453.898438 C 53.109375 447.121094 52.824219 440.265625 53.289062 433.445312 C 51.785156 437.175781 50.285156 440.90625 48.785156 444.636719 C 48.523438 444.039062 48.285156 443.433594 48.0625 442.820312 C 47.753906 443.410156 47.390625 443.984375 46.960938 444.523438 C 45.90625 445.847656 44.550781 446.867188 43.113281 447.53125 C 42.007812 448.035156 40.941406 448.753906 39.917969 449.5625 C 34.269531 447.664062 28.699219 445.539062 23.246094 443.128906 C 23.347656 442.898438 23.410156 442.652344 23.515625 442.421875 C 25.085938 439.015625 27.066406 435.769531 29.5625 432.636719 L 30.527344 431.425781 C 34.144531 426.890625 40.753906 426.144531 45.292969 429.757812 C 45.621094 430.019531 45.921875 430.300781 46.210938 430.59375 C 46.382812 426.777344 47.230469 422.996094 48.757812 419.496094 C 47.722656 421.222656 46.683594 422.949219 45.503906 424.578125 C 44.363281 418.417969 44.089844 412.117188 44.519531 405.863281 C 46.664062 405.421875 48.730469 404.863281 50.753906 404.222656 C 51.15625 405.695312 51.5 407.1875 51.953125 408.644531 C 53.953125 415.128906 56.484375 421.449219 59.625 427.449219 C 62.691406 433.488281 66.578125 439.117188 70.191406 444.976562 C 71.101562 446.4375 71.996094 447.914062 72.855469 449.417969 C 73.71875 450.914062 74.5625 452.433594 75.351562 453.980469 C 76.34375 455.921875 77.253906 457.90625 78.097656 459.914062 C 80.820312 456.445312 82.878906 452.46875 83.855469 448.195312 C 84.160156 446.855469 84.355469 445.496094 84.476562 444.125 C 84.5625 442.746094 84.570312 441.359375 84.488281 439.96875 C 84.285156 437.183594 83.738281 434.402344 82.941406 431.660156 C 81.351562 426.179688 78.8125 420.882812 76.136719 415.683594 C 74.765625 413.097656 73.351562 410.53125 71.863281 407.996094 C 70.367188 405.472656 68.835938 402.960938 67.261719 400.46875 C 66.601562 399.414062 65.90625 398.363281 65.238281 397.308594 C 66.296875 396.609375 67.34375 395.867188 68.382812 395.085938 C 69.085938 396.214844 69.792969 397.332031 70.484375 398.472656 C 73.582031 403.539062 76.59375 408.691406 79.382812 413.984375 C 80.746094 416.652344 82.105469 419.308594 83.332031 422.0625 C 84.570312 424.8125 85.679688 427.644531 86.589844 430.570312 C 87.496094 433.496094 88.160156 436.535156 88.441406 439.652344 C 88.582031 441.210938 88.621094 442.789062 88.5625 444.367188 C 88.472656 445.945312 88.289062 447.523438 87.980469 449.082031 C 87.65625 450.632812 87.230469 452.164062 86.707031 453.65625 C 86.167969 455.144531 85.542969 456.601562 84.820312 458.003906 C 84.1875 459.207031 83.472656 460.363281 82.722656 461.492188 C 80.292969 460.851562 77.847656 460.214844 75.386719 459.582031 C 74.71875 458.050781 74.074219 456.507812 73.316406 455.015625 Z M 33.84375 557.53125 C 34.207031 560.753906 34.964844 563.9375 36.257812 566.839844 C 36.914062 568.28125 37.6875 569.660156 38.605469 570.910156 C 39.542969 572.144531 40.605469 573.257812 41.789062 574.210938 L 42.707031 574.878906 C 43.011719 575.101562 43.351562 575.273438 43.671875 575.472656 C 43.835938 575.566406 43.996094 575.675781 44.164062 575.757812 L 44.671875 576.003906 C 45.003906 576.179688 45.359375 576.3125 45.710938 576.449219 C 47.121094 576.992188 48.628906 577.328125 50.164062 577.457031 C 53.246094 577.722656 56.441406 577.1875 59.378906 576.027344 C 62.308594 574.871094 65.023438 573.03125 67.394531 570.820312 C 69.773438 568.605469 71.839844 566.007812 73.636719 563.222656 C 77.148438 557.578125 79.894531 551.378906 81.511719 544.84375 C 82.191406 542.210938 82.707031 539.535156 83.136719 536.839844 C 84.355469 536.585938 85.574219 536.328125 86.792969 536.066406 C 86.8125 536.316406 86.800781 536.558594 86.839844 536.804688 C 87.046875 538.132812 87.453125 539.46875 87.992188 540.765625 C 88.523438 542.070312 89.199219 543.332031 89.917969 544.582031 C 90.652344 545.824219 91.402344 547.082031 92.234375 548.21875 C 93.054688 549.367188 93.980469 550.410156 95.050781 551.238281 C 95.585938 551.644531 96.152344 552.015625 96.761719 552.324219 C 97.371094 552.625 98.003906 552.882812 98.65625 553.097656 C 99.964844 553.523438 101.34375 553.753906 102.742188 553.855469 C 104.136719 553.957031 105.5625 553.929688 106.960938 553.796875 C 109.753906 553.546875 112.476562 552.777344 114.648438 551.332031 C 116.792969 549.871094 118.472656 547.714844 118.726562 545.394531 C 118.800781 544.808594 118.816406 544.203125 118.757812 543.585938 C 118.703125 542.96875 118.605469 542.34375 118.441406 541.714844 C 118.292969 541.082031 118.09375 540.445312 117.851562 539.835938 C 117.625 539.222656 117.339844 538.628906 117.039062 538.058594 C 116.730469 537.488281 116.378906 536.945312 116.003906 536.425781 C 115.8125 536.171875 115.609375 535.921875 115.410156 535.675781 C 115.199219 535.433594 114.980469 535.195312 114.78125 535.023438 C 114.378906 534.664062 113.972656 534.488281 113.734375 534.597656 C 113.613281 534.65625 113.550781 534.773438 113.542969 534.949219 C 113.542969 534.988281 113.546875 535.042969 113.554688 535.085938 C 113.5625 535.132812 113.632812 535.21875 113.667969 535.273438 C 113.757812 535.398438 113.84375 535.523438 113.941406 535.640625 C 110.804688 534.585938 109.117188 531.1875 110.171875 528.050781 C 111.222656 524.914062 114.621094 523.226562 117.757812 524.277344 C 118.203125 524.511719 118.628906 524.78125 119.042969 525.078125 C 119.242188 525.21875 119.472656 525.394531 119.628906 525.542969 C 119.789062 525.6875 119.953125 525.835938 120.09375 525.988281 C 120.679688 526.601562 121.152344 527.226562 121.511719 527.835938 C 122.234375 529.054688 122.578125 530.15625 122.816406 531.113281 C 122.9375 531.597656 123.011719 532.035156 123.085938 532.46875 C 123.167969 532.902344 123.238281 533.332031 123.292969 533.765625 C 123.421875 534.628906 123.507812 535.484375 123.578125 536.332031 C 123.644531 537.179688 123.671875 538.023438 123.6875 538.855469 C 123.691406 539.691406 123.671875 540.507812 123.628906 541.339844 C 123.570312 542.171875 123.496094 543.015625 123.355469 543.863281 C 123.207031 544.710938 123.015625 545.566406 122.738281 546.402344 C 122.152344 548.089844 121.238281 549.628906 120.109375 550.890625 C 118.984375 552.15625 117.652344 553.171875 116.214844 553.945312 C 113.324219 555.511719 110.148438 556.042969 107.105469 556.152344 C 104.074219 556.222656 100.980469 555.988281 98.027344 554.957031 C 97.292969 554.691406 96.570312 554.378906 95.875 554.011719 C 95.1875 553.632812 94.515625 553.207031 93.890625 552.722656 C 92.644531 551.738281 91.617188 550.554688 90.707031 549.339844 C 89.804688 548.113281 89.003906 546.875 88.207031 545.617188 C 87.410156 544.355469 86.644531 543.058594 85.96875 541.6875 C 85.785156 541.308594 85.605469 540.917969 85.433594 540.527344 C 85.121094 542.214844 84.765625 543.898438 84.351562 545.570312 C 84.171875 546.421875 83.917969 547.261719 83.667969 548.097656 L 82.929688 550.613281 C 82.65625 551.445312 82.347656 552.265625 82.058594 553.089844 L 81.617188 554.328125 L 81.394531 554.949219 L 81.136719 555.550781 L 80.089844 557.96875 C 79.914062 558.367188 79.75 558.777344 79.558594 559.171875 L 78.957031 560.34375 L 77.742188 562.6875 C 77.335938 563.464844 76.875 564.222656 76.414062 564.976562 C 74.558594 567.980469 72.386719 570.839844 69.796875 573.347656 C 67.203125 575.855469 64.199219 578.007812 60.773438 579.441406 C 57.367188 580.859375 53.636719 581.578125 49.878906 581.332031 C 48 581.210938 46.117188 580.839844 44.320312 580.183594 C 43.867188 580.019531 43.417969 579.855469 42.988281 579.644531 L 42.332031 579.339844 C 42.117188 579.238281 41.914062 579.109375 41.703125 578.996094 C 41.292969 578.753906 40.863281 578.535156 40.464844 578.269531 L 39.292969 577.445312 C 37.78125 576.28125 36.4375 574.921875 35.277344 573.445312 C 34.125 571.960938 33.167969 570.367188 32.320312 568.730469 C 30.65625 565.441406 29.503906 561.980469 28.652344 558.460938 C 28.222656 556.699219 27.894531 554.925781 27.59375 553.15625 C 27.304688 551.378906 27.0625 549.570312 26.90625 547.730469 C 26.832031 546.820312 26.777344 545.902344 26.746094 544.972656 C 29.351562 544.828125 31.945312 544.652344 34.527344 544.433594 C 33.5625 548.574219 33.378906 553.121094 33.84375 557.53125 Z M 26.746094 544.972656 C 29.351562 544.828125 31.945312 544.652344 34.527344 544.433594 C 34.972656 542.507812 35.539062 540.644531 36.378906 538.96875 C 36.699219 538.308594 37.070312 537.679688 37.441406 537.089844 C 37.636719 536.792969 37.847656 536.511719 38.046875 536.222656 L 38.6875 535.402344 C 38.917969 535.140625 39.132812 534.875 39.367188 534.625 C 39.613281 534.386719 39.839844 534.136719 40.09375 533.914062 C 40.59375 533.460938 41.082031 533.023438 41.621094 532.660156 C 43.726562 531.164062 46.09375 530.445312 48.066406 530.804688 C 50.695312 531.277344 53.535156 530.761719 55.910156 529.128906 C 56.316406 528.847656 56.691406 528.546875 57.046875 528.222656 C 57.832031 528.589844 58.574219 528.765625 59.171875 528.855469 C 59.917969 528.964844 60.488281 528.96875 60.917969 528.972656 C 61.371094 528.976562 61.824219 528.976562 62.289062 528.96875 C 63.210938 528.949219 64.15625 528.902344 65.117188 528.808594 C 67.039062 528.621094 69.050781 528.230469 71.019531 527.460938 C 72.996094 526.6875 74.796875 525.535156 76.292969 524.195312 C 77.796875 522.855469 79.03125 521.339844 80.0625 519.769531 C 82.09375 516.660156 83.386719 513.371094 84.328125 510.007812 C 84.546875 514.953125 84.605469 519.898438 84.378906 524.820312 C 84.183594 528.855469 83.769531 532.871094 83.136719 536.839844 C 84.355469 536.585938 85.574219 536.328125 86.792969 536.066406 C 86.695312 534.992188 86.714844 533.921875 86.945312 532.914062 C 86.960938 532.835938 86.972656 532.75 86.980469 532.671875 C 87.007812 532.273438 86.875 531.898438 86.648438 531.605469 C 86.851562 529.382812 87 527.15625 87.082031 524.929688 C 87.328125 518.007812 87.019531 511.101562 86.496094 504.242188 C 86.300781 501.582031 86.042969 498.929688 85.78125 496.28125 C 85.6875 494.035156 85.449219 491.804688 85.097656 489.609375 C 84.882812 487.644531 84.648438 485.679688 84.378906 483.714844 C 83.90625 480.292969 83.320312 476.875 82.523438 473.492188 C 81.851562 470.648438 81.03125 467.84375 80.078125 465.082031 C 80.890625 464.109375 81.65625 463.097656 82.386719 462.054688 C 82.507812 461.875 82.601562 461.675781 82.722656 461.492188 C 80.292969 460.851562 77.847656 460.214844 75.386719 459.582031 C 75.722656 460.355469 76.117188 461.105469 76.433594 461.886719 C 76.246094 462.089844 76.0625 462.292969 75.875 462.488281 C 73.949219 464.492188 71.804688 466.289062 69.5 467.847656 C 67.203125 469.417969 64.742188 470.742188 62.179688 471.796875 C 59.617188 472.851562 56.949219 473.628906 54.265625 474.101562 C 51.601562 474.542969 48.886719 474.699219 46.273438 474.449219 C 45.625 474.363281 44.96875 474.324219 44.339844 474.191406 L 43.390625 474.023438 L 42.472656 473.792969 C 41.851562 473.660156 41.277344 473.429688 40.6875 473.25 C 40.394531 473.15625 40.125 473.019531 39.84375 472.910156 C 39.574219 472.785156 39.28125 472.695312 39.027344 472.542969 C 36.917969 471.484375 35.191406 470.078125 34.125 468.359375 C 32.984375 466.660156 32.507812 464.769531 32.53125 462.816406 C 32.535156 461.839844 32.675781 460.835938 32.9375 459.832031 C 33.191406 458.828125 33.546875 457.816406 34.023438 456.832031 C 34.496094 455.847656 35.050781 454.878906 35.703125 453.964844 C 36.347656 453.042969 37.070312 452.171875 37.855469 451.367188 C 38.5 450.707031 39.203125 450.121094 39.917969 449.5625 C 34.269531 447.664062 28.699219 445.539062 23.246094 443.128906 C 21.847656 446.328125 20.769531 449.644531 20.214844 453.140625 C 19.929688 455.015625 19.765625 456.929688 19.808594 458.875 C 19.855469 460.820312 20.09375 462.792969 20.566406 464.738281 C 21.519531 468.617188 23.523438 472.367188 26.339844 475.082031 C 27.003906 475.804688 27.785156 476.394531 28.523438 477.015625 C 28.898438 477.320312 29.308594 477.570312 29.699219 477.84375 C 30.097656 478.105469 30.484375 478.386719 30.90625 478.597656 L 32.144531 479.261719 C 32.558594 479.484375 32.988281 479.640625 33.410156 479.828125 C 34.25 480.210938 35.109375 480.472656 35.960938 480.757812 C 39.386719 481.789062 42.804688 482.066406 46.105469 481.980469 C 46.929688 481.945312 47.75 481.890625 48.566406 481.820312 C 49.375 481.71875 50.191406 481.65625 50.988281 481.507812 L 52.1875 481.308594 L 53.375 481.066406 C 54.167969 480.914062 54.945312 480.691406 55.722656 480.492188 C 57.261719 480.0625 58.777344 479.585938 60.253906 479 C 61.730469 478.433594 63.183594 477.8125 64.589844 477.101562 C 69.707031 474.570312 74.402344 471.214844 78.308594 467.066406 C 79.054688 469.359375 79.703125 471.679688 80.25 474.023438 C 81.019531 477.316406 81.585938 480.660156 82.042969 484.03125 C 82.296875 485.933594 82.519531 487.84375 82.726562 489.757812 C 82.828125 492.9375 82.683594 496.101562 82.214844 499.1875 C 81.726562 502.347656 80.925781 505.429688 79.730469 508.300781 C 78.535156 511.15625 76.996094 513.90625 75.105469 516.097656 C 73.222656 518.304688 70.976562 519.867188 68.644531 520.402344 C 67.460938 520.691406 66.15625 520.78125 64.765625 520.738281 C 64.070312 520.714844 63.351562 520.65625 62.617188 520.574219 C 62.25 520.535156 61.878906 520.488281 61.5 520.433594 C 61.5 520.433594 61.496094 520.433594 61.496094 520.433594 C 61.476562 520.375 61.453125 520.3125 61.421875 520.230469 L 61.269531 519.792969 C 61.21875 519.632812 61.15625 519.480469 61.109375 519.320312 C 60.710938 518.058594 60.460938 516.78125 60.386719 515.570312 C 60.316406 514.359375 60.417969 513.210938 60.695312 512.21875 C 60.757812 511.964844 60.851562 511.730469 60.925781 511.496094 C 61.027344 511.269531 61.113281 511.03125 61.210938 510.851562 C 61.410156 510.472656 61.65625 510.097656 61.9375 509.757812 C 62.5 509.070312 63.210938 508.523438 63.875 508.226562 C 64.546875 507.925781 65.117188 507.890625 65.523438 507.988281 C 66.109375 508.121094 66.757812 508.1875 67.386719 508.148438 C 70.917969 507.933594 73.605469 504.894531 73.390625 501.367188 C 73.171875 497.835938 70.136719 495.152344 66.609375 495.367188 L 65.199219 495.453125 C 62.277344 495.628906 59.59375 496.707031 57.472656 498.195312 C 55.339844 499.691406 53.679688 501.574219 52.453125 503.683594 C 51.839844 504.738281 51.335938 505.855469 50.953125 507.027344 C 50.757812 507.628906 50.628906 508.191406 50.492188 508.761719 C 50.414062 509.160156 50.34375 509.558594 50.285156 509.957031 C 48.121094 509.886719 45.917969 510.480469 44 511.800781 L 41.023438 513.847656 C 36.65625 516.851562 33.53125 520.578125 31.355469 524.417969 C 30.816406 525.386719 30.316406 526.347656 29.882812 527.332031 C 29.449219 528.316406 29.070312 529.308594 28.714844 530.292969 L 28.242188 531.785156 C 28.109375 532.289062 27.964844 532.785156 27.847656 533.289062 C 27.597656 534.292969 27.402344 535.285156 27.242188 536.269531 C 26.769531 539.238281 26.644531 542.148438 26.746094 544.972656 Z M 60.773438 520.285156 C 60.695312 520.246094 60.84375 520.230469 61.121094 520.363281 C 61.132812 520.371094 61.140625 520.375 61.15625 520.382812 C 60.957031 520.347656 60.820312 520.3125 60.773438 520.285156 Z M 57.683594 385.535156 C 52.726562 377.828125 47.917969 369.910156 43.902344 361.53125 C 44.65625 370.6875 45.648438 379.804688 47.226562 388.820312 C 48.152344 394.015625 49.359375 399.148438 50.753906 404.222656 C 48.730469 404.863281 46.664062 405.421875 44.519531 405.863281 C 44.746094 402.546875 45.113281 399.238281 45.78125 395.980469 C 45.277344 393.777344 44.808594 391.566406 44.382812 389.347656 C 43.0625 382.574219 42.050781 375.753906 41.222656 368.921875 C 40.460938 362.734375 39.832031 356.542969 39.203125 350.363281 C 37.601562 345.878906 36.292969 341.265625 35.433594 336.535156 C 34.273438 330.535156 33.96875 324.332031 34.386719 318.226562 C 34.449219 316.691406 34.675781 315.175781 34.835938 313.65625 C 34.90625 312.890625 35.054688 312.140625 35.175781 311.386719 L 35.550781 309.125 L 36.03125 306.886719 C 36.199219 306.140625 36.335938 305.386719 36.542969 304.652344 C 36.945312 303.183594 37.28125 301.691406 37.761719 300.246094 C 39.066406 295.949219 40.773438 291.804688 42.644531 287.742188 C 44.21875 288.898438 45.816406 289.992188 47.414062 291.101562 C 46.90625 294.351562 46.671875 297.660156 46.453125 300.988281 C 46.21875 304.378906 46.074219 307.765625 46.085938 311.140625 C 46.097656 314.511719 46.261719 317.882812 46.800781 321.191406 C 47.050781 322.847656 47.421875 324.480469 47.855469 326.09375 C 48.097656 326.890625 48.308594 327.699219 48.613281 328.472656 L 49.039062 329.644531 L 49.425781 330.542969 C 49.726562 330.636719 49.972656 330.875 50.070312 331.1875 L 50.070312 331.191406 C 50.292969 331.941406 50.542969 332.683594 50.808594 333.417969 C 51.925781 335.480469 53.257812 337.433594 54.738281 339.265625 C 56.824219 341.871094 59.210938 344.234375 61.726562 346.460938 C 62.046875 346.75 62.386719 347.011719 62.710938 347.292969 C 62.121094 347.785156 61.535156 348.269531 60.964844 348.753906 C 60.722656 348.527344 60.472656 348.3125 60.234375 348.082031 C 59.261719 347.160156 58.320312 346.199219 57.394531 345.21875 C 58.148438 346.179688 58.9375 347.101562 59.765625 347.988281 C 60.078125 348.324219 60.429688 348.609375 60.75 348.933594 C 59.539062 349.96875 58.40625 351.019531 57.332031 352.09375 C 56.996094 351.660156 56.617188 351.257812 56.296875 350.816406 C 52.21875 345.160156 49.417969 338.671875 48.238281 331.957031 C 48.164062 331.785156 48.085938 331.613281 48.011719 331.4375 C 46.679688 328.222656 45.78125 324.847656 45.273438 321.433594 L 45.085938 320.152344 L 44.933594 318.867188 C 44.816406 318.011719 44.773438 317.15625 44.691406 316.296875 C 44.574219 314.582031 44.496094 312.863281 44.484375 311.152344 C 44.441406 307.722656 44.585938 304.304688 44.699219 300.902344 C 44.757812 299.199219 44.832031 297.492188 44.933594 295.78125 C 44.941406 295.679688 44.949219 295.578125 44.957031 295.476562 C 44.167969 297.550781 43.449219 299.652344 42.8125 301.769531 C 42.359375 303.132812 42.046875 304.535156 41.671875 305.917969 C 41.472656 306.609375 41.351562 307.3125 41.191406 308.011719 L 40.742188 310.113281 L 40.394531 312.230469 C 40.285156 312.933594 40.136719 313.636719 40.070312 314.347656 C 39.914062 315.765625 39.6875 317.179688 39.625 318.605469 L 39.480469 320.742188 C 39.445312 321.453125 39.453125 322.164062 39.4375 322.878906 C 39.433594 323.589844 39.386719 324.304688 39.425781 325.011719 L 39.5 327.148438 L 39.535156 328.214844 L 39.625 329.28125 L 39.808594 331.410156 C 40.007812 332.824219 40.144531 334.246094 40.417969 335.652344 C 40.867188 338.476562 41.554688 341.269531 42.316406 344.042969 L 42.925781 346.117188 C 43.128906 346.808594 43.371094 347.488281 43.59375 348.175781 C 44.027344 349.550781 44.546875 350.902344 45.03125 352.265625 C 47.097656 357.675781 49.550781 362.96875 52.300781 368.128906 C 55.027344 373.300781 58.039062 378.347656 61.117188 383.378906 C 63.5 387.285156 65.957031 391.175781 68.382812 395.085938 C 67.34375 395.867188 66.296875 396.609375 65.238281 397.308594 C 62.738281 393.382812 60.21875 389.46875 57.683594 385.535156 Z M 93.546875 418.523438 C 93.261719 417.644531 93.148438 416.722656 93.183594 415.847656 C 93.328125 412.410156 93.390625 409.03125 93.300781 405.699219 C 93.289062 404.859375 93.257812 404.027344 93.214844 403.203125 C 93.171875 402.375 93.144531 401.542969 93.082031 400.722656 C 92.964844 399.074219 92.816406 397.441406 92.632812 395.808594 C 91.855469 389.316406 90.304688 382.96875 87.480469 377.167969 C 87.113281 376.457031 86.769531 375.71875 86.375 375.019531 C 85.972656 374.324219 85.550781 373.636719 85.136719 372.941406 C 84.3125 371.671875 83.421875 370.429688 82.476562 369.214844 C 82.394531 369.183594 82.3125 369.15625 82.230469 369.128906 C 78.957031 367.960938 75.617188 366.648438 72.394531 364.933594 C 66.417969 361.757812 61.34375 357.277344 57.332031 352.09375 C 58.40625 351.019531 59.539062 349.96875 60.75 348.933594 C 62.746094 350.949219 64.894531 352.792969 67.214844 354.355469 C 66.148438 353.433594 65.085938 352.507812 64.03125 351.5625 C 63 350.644531 61.976562 349.703125 60.964844 348.753906 C 61.535156 348.269531 62.121094 347.785156 62.710938 347.292969 C 64.929688 349.21875 67.238281 351.054688 69.585938 352.863281 C 72.261719 354.953125 75.019531 356.976562 77.703125 359.136719 C 77.875 359.277344 78.046875 359.417969 78.21875 359.554688 C 83.277344 361.113281 88.761719 361.992188 94.46875 363.273438 C 97.878906 364.046875 101.402344 364.96875 104.953125 366.402344 C 108.488281 367.824219 112.074219 369.8125 115.214844 372.5625 L 115.363281 372.695312 C 117.882812 374.894531 118.136719 378.71875 115.933594 381.234375 C 113.734375 383.75 109.910156 384.007812 107.394531 381.804688 C 107.199219 381.636719 106.996094 381.429688 106.828125 381.242188 C 105.113281 379.289062 102.921875 377.613281 100.351562 376.175781 C 97.789062 374.738281 94.878906 373.542969 91.808594 372.433594 C 91.492188 372.320312 91.164062 372.207031 90.84375 372.09375 C 91.390625 372.804688 91.886719 373.546875 92.410156 374.277344 C 96.457031 380.246094 99.386719 386.90625 101.765625 393.632812 C 102.34375 395.316406 102.929688 397.003906 103.457031 398.695312 C 104.007812 400.382812 104.523438 402.082031 105.035156 403.765625 C 106.046875 407.144531 107.054688 410.507812 108.121094 413.808594 L 108.125 413.820312 C 109.421875 417.847656 107.210938 422.164062 103.1875 423.460938 C 99.160156 424.761719 94.84375 422.550781 93.546875 418.523438 Z M 40.199219 285.855469 C 39.003906 289.277344 38.230469 292.832031 38.074219 296.445312 C 35.929688 294.179688 34.503906 291.265625 34.039062 288.203125 C 31.808594 290.402344 30.519531 293.492188 30.546875 296.582031 C 30.5625 298.265625 30.941406 300 30.417969 301.609375 C 30.015625 302.851562 29.117188 303.871094 28.296875 304.898438 C 18.847656 316.828125 18.789062 333.21875 19.15625 348.265625 C 11.582031 325.253906 17.332031 298.707031 32.800781 279.855469 C 35.226562 281.9375 37.691406 283.941406 40.199219 285.855469 Z M 44.648438 268.433594 C 49.246094 264.96875 54.4375 261.988281 60.007812 260.625 C 60.910156 259.570312 61.796875 258.507812 62.714844 257.46875 C 63.71875 256.355469 64.695312 255.214844 65.730469 254.128906 C 69.808594 249.734375 74.085938 245.542969 78.472656 241.5 C 82.867188 237.464844 87.371094 233.574219 91.914062 229.75 C 92.800781 228.859375 93.773438 228.039062 94.824219 227.316406 C 98.410156 224.324219 102.027344 221.347656 105.816406 218.507812 C 108.652344 216.378906 111.597656 214.347656 114.667969 212.496094 C 117.164062 209.910156 119.429688 207.109375 121.457031 204.15625 C 123.894531 200.566406 125.9375 196.722656 127.433594 192.695312 C 128.902344 188.65625 130.027344 184.464844 130 180.460938 C 129.992188 178.449219 129.664062 176.566406 129.011719 174.738281 C 128.347656 172.921875 127.378906 171.226562 126.199219 169.710938 C 123.832031 166.683594 120.574219 164.371094 117.085938 163.347656 C 115.359375 162.820312 113.5625 162.609375 111.875 162.71875 C 110.199219 162.8125 108.808594 163.34375 108.0625 164.03125 C 107.667969 164.367188 107.335938 164.816406 106.996094 165.378906 C 106.664062 165.941406 106.355469 166.664062 106.066406 167.472656 C 105.785156 168.285156 105.53125 169.214844 105.273438 170.210938 L 104.890625 171.734375 C 104.777344 172.21875 104.683594 172.667969 104.617188 173.070312 C 104.484375 173.875 104.488281 174.488281 104.589844 174.824219 C 104.636719 174.996094 104.703125 175.085938 104.765625 175.191406 L 105.050781 175.574219 C 105.175781 175.730469 105.339844 175.921875 105.535156 176.132812 C 105.742188 176.34375 105.992188 176.585938 106.273438 176.839844 C 106.84375 177.351562 107.558594 177.933594 108.386719 178.597656 C 111.171875 180.828125 111.617188 184.894531 109.386719 187.679688 C 107.152344 190.464844 103.085938 190.914062 100.304688 188.679688 C 100.019531 188.453125 99.757812 188.203125 99.523438 187.941406 L 99.46875 187.878906 C 98.707031 187.015625 97.847656 186.050781 96.972656 184.898438 C 96.101562 183.742188 95.195312 182.386719 94.46875 180.71875 C 94.113281 179.878906 93.8125 178.96875 93.609375 178.007812 C 93.414062 177.039062 93.324219 176.03125 93.347656 175.101562 C 93.394531 173.230469 93.792969 171.652344 94.222656 170.328125 C 94.4375 169.664062 94.667969 169.054688 94.894531 168.492188 L 95.558594 166.882812 C 96.019531 165.792969 96.511719 164.644531 97.144531 163.449219 C 97.769531 162.253906 98.5 161.015625 99.488281 159.808594 C 100.472656 158.617188 101.695312 157.457031 103.160156 156.59375 C 104.617188 155.714844 106.179688 155.195312 107.667969 154.914062 C 109.164062 154.640625 110.597656 154.585938 111.972656 154.671875 C 114.695312 154.84375 117.289062 155.519531 119.675781 156.578125 C 124.441406 158.707031 128.316406 162.226562 130.9375 166.460938 C 132.242188 168.585938 133.234375 170.894531 133.828125 173.3125 C 134.429688 175.710938 134.605469 178.269531 134.375 180.664062 C 134.15625 183.070312 133.597656 185.378906 132.875 187.570312 C 132.152344 189.773438 131.257812 191.839844 130.3125 193.90625 C 128.390625 198.011719 126.074219 201.882812 123.542969 205.578125 C 122.753906 206.746094 121.929688 207.882812 121.09375 209.015625 C 121.144531 208.992188 121.1875 208.96875 121.238281 208.945312 C 126.726562 206.347656 132.417969 204.347656 138.203125 202.699219 C 143.988281 201.0625 149.886719 199.828125 155.859375 199.046875 C 161.832031 198.285156 167.886719 197.980469 173.949219 198.375 C 179.996094 198.78125 186.097656 199.886719 191.820312 202.292969 L 193.9375 203.257812 C 194.625 203.621094 195.320312 203.96875 196 204.351562 C 197.359375 205.136719 198.664062 206.039062 199.898438 207.039062 C 202.355469 209.042969 204.449219 211.558594 205.9375 214.382812 C 207.4375 217.210938 208.3125 220.304688 208.710938 223.398438 C 209.101562 226.484375 209.015625 229.617188 208.851562 232.554688 C 208.828125 232.9375 208.828125 233.230469 208.796875 233.667969 C 208.765625 234.074219 208.761719 234.480469 208.695312 234.882812 C 208.601562 235.691406 208.445312 236.492188 208.246094 237.277344 C 207.847656 238.851562 207.234375 240.359375 206.46875 241.773438 C 204.929688 244.605469 202.761719 247.050781 200.21875 248.992188 C 198.945312 249.96875 197.574219 250.820312 196.121094 251.523438 C 194.667969 252.230469 193.136719 252.796875 191.542969 253.179688 C 189.949219 253.5625 188.292969 253.785156 186.617188 253.777344 C 184.941406 253.769531 183.246094 253.550781 181.59375 253.105469 C 179.941406 252.644531 178.34375 251.96875 176.851562 251.105469 C 175.367188 250.226562 173.984375 249.175781 172.742188 247.980469 C 170.261719 245.582031 168.296875 242.664062 166.917969 239.433594 C 165.542969 236.203125 164.710938 232.640625 164.6875 228.839844 C 164.65625 225.050781 165.507812 220.976562 167.5 217.117188 L 168.347656 215.480469 C 170.253906 211.792969 174.789062 210.34375 178.476562 212.25 C 182.164062 214.15625 183.609375 218.691406 181.707031 222.378906 C 180.996094 223.753906 179.921875 224.816406 178.660156 225.511719 C 177.078125 226.382812 175.785156 228.042969 175.042969 230.121094 C 174.296875 232.195312 174.101562 234.652344 174.488281 237.0625 C 174.882812 239.476562 175.832031 241.863281 177.3125 243.867188 C 178.046875 244.867188 178.90625 245.78125 179.886719 246.542969 C 180.375 246.925781 180.886719 247.28125 181.425781 247.589844 C 181.695312 247.742188 181.964844 247.902344 182.253906 248.023438 C 182.535156 248.152344 182.816406 248.292969 183.109375 248.394531 C 185.433594 249.324219 188.089844 249.523438 190.691406 249.09375 C 193.296875 248.664062 195.851562 247.601562 198.085938 246.066406 C 200.320312 244.527344 202.246094 242.511719 203.589844 240.171875 C 204.261719 239.003906 204.78125 237.753906 205.132812 236.464844 C 205.3125 235.820312 205.429688 235.164062 205.507812 234.503906 C 205.566406 234.175781 205.5625 233.839844 205.59375 233.507812 C 205.621094 233.207031 205.625 232.761719 205.644531 232.402344 C 205.722656 230.910156 205.792969 229.484375 205.78125 228.058594 C 205.753906 226.636719 205.652344 225.226562 205.453125 223.84375 C 205.042969 221.078125 204.222656 218.40625 202.902344 216.019531 C 201.585938 213.636719 199.78125 211.542969 197.628906 209.847656 C 196.546875 209.003906 195.394531 208.238281 194.179688 207.566406 L 192.3125 206.601562 L 190.382812 205.742188 C 185.152344 203.601562 179.441406 202.570312 173.703125 202.21875 C 167.949219 201.871094 162.128906 202.1875 156.371094 202.949219 C 150.613281 203.734375 144.902344 204.957031 139.308594 206.570312 C 133.722656 208.1875 128.238281 210.207031 123.046875 212.71875 C 117.898438 215.226562 113.066406 218.441406 108.441406 221.984375 C 103.816406 225.519531 99.339844 229.371094 94.851562 233.207031 C 93.238281 234.59375 91.636719 235.992188 90.042969 237.394531 C 88.839844 239.429688 87.863281 241.636719 87.058594 243.914062 C 85.023438 249.824219 83.664062 256.0625 83.671875 262.300781 C 83.65625 265.417969 84.023438 268.523438 84.75 271.53125 C 85.492188 274.535156 86.671875 277.417969 88.183594 280.125 C 91.246094 285.511719 95.570312 290.246094 100.839844 293.382812 C 102.164062 294.144531 103.519531 294.847656 104.933594 295.390625 C 105.28125 295.542969 105.648438 295.640625 106.003906 295.769531 C 106.359375 295.894531 106.714844 296.019531 107.082031 296.105469 L 108.171875 296.398438 L 109.273438 296.617188 C 110.746094 296.863281 112.234375 297.019531 113.710938 296.9375 L 114.265625 296.925781 L 114.8125 296.859375 L 115.902344 296.734375 C 116.261719 296.679688 116.617188 296.582031 116.976562 296.507812 C 117.332031 296.417969 117.695312 296.375 118.039062 296.242188 C 120.84375 295.398438 123.484375 293.953125 125.6875 292.007812 C 127.878906 290.058594 129.691406 287.679688 130.882812 285.054688 L 131.292969 284.058594 C 131.359375 283.894531 131.4375 283.730469 131.492188 283.5625 L 131.648438 283.046875 L 131.964844 282.027344 L 132.179688 280.988281 C 132.359375 280.300781 132.378906 279.59375 132.453125 278.894531 C 132.5 278.546875 132.449219 278.195312 132.441406 277.84375 C 132.417969 277.496094 132.421875 277.148438 132.378906 276.800781 C 132 274.019531 130.664062 271.425781 128.84375 269.414062 C 127.898438 268.425781 126.960938 267.496094 125.894531 266.75 C 124.886719 265.949219 123.800781 265.320312 122.769531 264.710938 C 121.683594 264.195312 120.667969 263.648438 119.621094 263.261719 C 119.363281 263.160156 119.121094 263.011719 118.859375 262.929688 C 118.601562 262.84375 118.34375 262.742188 118.09375 262.632812 C 117.84375 262.507812 117.585938 262.429688 117.332031 262.332031 C 117.078125 262.226562 116.824219 262.121094 116.570312 261.976562 L 115.363281 261.292969 C 112.574219 259.703125 111.597656 256.152344 113.1875 253.363281 C 114.347656 251.324219 116.5625 250.253906 118.757812 250.449219 C 120.863281 250.636719 122.945312 251.21875 124.800781 252.167969 C 126.691406 253.0625 128.339844 254.335938 129.828125 255.707031 C 132.757812 258.523438 134.761719 262.039062 135.957031 265.65625 C 136.105469 266.113281 136.21875 266.582031 136.347656 267.035156 C 136.46875 267.496094 136.613281 267.9375 136.6875 268.410156 C 136.867188 269.339844 137.070312 270.238281 137.15625 271.171875 C 137.203125 271.636719 137.28125 272.085938 137.316406 272.542969 C 137.335938 273.007812 137.359375 273.464844 137.390625 273.921875 L 137.429688 274.601562 L 137.417969 275.289062 L 137.398438 276.652344 C 137.390625 277.101562 137.328125 277.554688 137.296875 278.007812 L 137.234375 278.679688 L 137.210938 279.015625 L 137.152344 279.351562 C 136.992188 280.234375 136.90625 281.132812 136.644531 281.992188 C 136.53125 282.421875 136.425781 282.855469 136.300781 283.285156 L 135.847656 284.535156 L 135.617188 285.160156 C 135.535156 285.367188 135.433594 285.5625 135.34375 285.765625 L 134.773438 286.960938 C 131.492188 293.1875 125.679688 297.878906 118.925781 299.570312 C 118.511719 299.703125 118.074219 299.746094 117.648438 299.832031 C 117.222656 299.902344 116.796875 299.996094 116.367188 300.042969 L 115.066406 300.152344 L 114.417969 300.203125 L 113.769531 300.199219 C 112.046875 300.230469 110.335938 300 108.667969 299.65625 C 105.324219 298.941406 102.207031 297.542969 99.367188 295.785156 C 97.960938 294.878906 96.613281 293.898438 95.347656 292.820312 C 94.097656 291.730469 92.878906 290.597656 91.777344 289.363281 C 89.539062 286.914062 87.640625 284.207031 86.042969 281.316406 C 84.453125 278.425781 83.210938 275.324219 82.433594 272.105469 C 81.648438 268.890625 81.269531 265.59375 81.265625 262.308594 C 81.222656 259.019531 81.578125 255.753906 82.109375 252.53125 C 82.390625 250.921875 82.714844 249.320312 83.117188 247.742188 C 83.503906 246.15625 83.949219 244.589844 84.457031 243.027344 C 84.558594 242.722656 84.664062 242.417969 84.769531 242.113281 C 83.738281 243.058594 82.707031 244.003906 81.6875 244.960938 C 77.414062 248.984375 73.277344 253.128906 69.351562 257.449219 C 61.46875 266.058594 54.511719 275.472656 49.25 285.761719 C 48.765625 286.714844 48.304688 287.679688 47.851562 288.644531 C 47.699219 289.398438 47.5625 290.15625 47.4375 290.917969 C 47.425781 290.976562 47.421875 291.039062 47.414062 291.101562 C 45.816406 289.992188 44.21875 288.898438 42.644531 287.742188 C 43.3125 286.292969 43.925781 284.820312 44.65625 283.402344 C 47.453125 278.027344 50.683594 272.890625 54.238281 268.019531 C 54.875 267.113281 55.554688 266.242188 56.226562 265.363281 C 48.75 270.175781 43.09375 277.570312 40.199219 285.855469 C 37.691406 283.941406 35.226562 281.9375 32.800781 279.855469 C 36.273438 275.617188 40.230469 271.761719 44.648438 268.433594 Z M 36.660156 252.460938 C 34.761719 252.460938 33.222656 250.921875 33.222656 249.027344 L 33.222656 42.914062 C 33.222656 41.015625 34.761719 39.480469 36.660156 39.480469 C 38.554688 39.480469 40.09375 41.015625 40.09375 42.914062 L 40.09375 249.027344 C 40.09375 250.921875 38.554688 252.460938 36.660156 252.460938 Z M 36.660156 602.492188 C 38.554688 602.492188 40.09375 604.03125 40.09375 605.925781 L 40.09375 806.5625 C 40.09375 808.460938 38.554688 810 36.660156 810 C 34.761719 810 33.222656 808.460938 33.222656 806.5625 L 33.222656 605.925781 C 33.222656 604.03125 34.761719 602.492188 36.660156 602.492188 Z M 574.226562 62.628906 C 577.015625 60.832031 579.609375 58.765625 581.828125 56.386719 C 584.039062 54.015625 585.878906 51.300781 587.035156 48.371094 C 588.195312 45.433594 588.726562 42.238281 588.464844 39.160156 C 588.332031 37.621094 588 36.113281 587.457031 34.703125 C 587.320312 34.351562 587.183594 33.996094 587.007812 33.664062 L 586.765625 33.15625 C 586.679688 32.988281 586.574219 32.828125 586.480469 32.664062 C 586.277344 32.34375 586.109375 32.007812 585.886719 31.699219 L 585.21875 30.78125 C 584.265625 29.597656 583.152344 28.535156 581.917969 27.597656 C 580.667969 26.679688 579.289062 25.90625 577.847656 25.25 C 574.945312 23.957031 571.761719 23.199219 568.539062 22.835938 C 562.074219 22.15625 555.253906 22.730469 549.976562 25.371094 C 549.316406 25.691406 548.6875 26.0625 548.097656 26.433594 C 547.800781 26.628906 547.515625 26.839844 547.230469 27.039062 L 546.410156 27.679688 C 546.148438 27.910156 545.882812 28.125 545.632812 28.359375 C 545.394531 28.605469 545.144531 28.835938 544.921875 29.085938 C 544.46875 29.585938 544.03125 30.074219 543.667969 30.617188 C 542.171875 32.722656 541.453125 35.089844 541.8125 37.058594 C 541.9375 37.742188 541.984375 38.4375 541.972656 39.136719 C 537.996094 34.210938 533.765625 29.488281 529.074219 25.117188 C 531.082031 23.195312 533.226562 21.59375 535.425781 20.347656 C 536.394531 19.8125 537.355469 19.308594 538.339844 18.875 C 539.324219 18.441406 540.316406 18.0625 541.300781 17.707031 L 542.792969 17.234375 C 543.296875 17.101562 543.792969 16.960938 544.296875 16.839844 C 545.300781 16.589844 546.292969 16.394531 547.277344 16.238281 C 551.222656 15.605469 555.054688 15.59375 558.734375 15.902344 C 560.578125 16.054688 562.386719 16.296875 564.164062 16.585938 C 565.933594 16.886719 567.707031 17.214844 569.46875 17.644531 C 572.988281 18.496094 576.449219 19.648438 579.738281 21.3125 C 581.371094 22.164062 582.96875 23.117188 584.453125 24.269531 C 585.929688 25.433594 587.289062 26.773438 588.453125 28.285156 L 589.277344 29.460938 C 589.542969 29.855469 589.761719 30.285156 590.003906 30.695312 C 590.117188 30.90625 590.246094 31.109375 590.347656 31.324219 L 590.648438 31.980469 C 590.863281 32.410156 591.027344 32.863281 591.191406 33.3125 C 591.84375 35.113281 592.21875 36.992188 592.339844 38.871094 C 592.582031 42.632812 591.867188 46.359375 590.449219 49.765625 C 589.011719 53.191406 586.863281 56.195312 584.355469 58.789062 C 581.847656 61.378906 578.988281 63.550781 575.980469 65.410156 C 575.226562 65.871094 574.472656 66.328125 573.691406 66.738281 L 571.351562 67.949219 L 570.179688 68.550781 C 569.785156 68.746094 569.375 68.90625 568.976562 69.085938 L 566.558594 70.128906 L 565.953125 70.386719 L 565.335938 70.609375 L 564.808594 70.796875 C 564.1875 69.9375 563.566406 69.074219 562.953125 68.210938 C 566.886719 66.695312 570.679688 64.835938 574.226562 62.628906 Z M 477.542969 46.417969 C 473.167969 46.554688 468.796875 46.828125 464.429688 47.113281 C 464.285156 45.703125 464.152344 44.292969 464.03125 42.878906 C 467.988281 43.363281 471.921875 43.996094 475.792969 44.929688 C 476.609375 45.125 477.617188 45.582031 477.542969 46.417969 Z M 411.476562 56.257812 C 413.96875 57.828125 416.476562 59.359375 419.003906 60.855469 C 421.539062 62.34375 424.105469 63.757812 426.691406 65.128906 C 431.886719 67.804688 437.183594 70.34375 442.667969 71.9375 C 445.40625 72.730469 448.191406 73.277344 450.976562 73.480469 C 452.367188 73.566406 453.753906 73.554688 455.132812 73.46875 C 456.5 73.351562 457.863281 73.152344 459.203125 72.847656 C 462.246094 72.152344 465.132812 70.886719 467.800781 69.246094 C 468.125 70.789062 468.492188 72.332031 468.863281 73.878906 C 467.503906 74.570312 466.097656 75.179688 464.664062 75.699219 C 463.167969 76.222656 461.640625 76.648438 460.089844 76.972656 C 458.53125 77.28125 456.953125 77.464844 455.375 77.554688 C 453.792969 77.613281 452.21875 77.574219 450.660156 77.433594 C 447.542969 77.152344 444.503906 76.488281 441.578125 75.585938 C 438.652344 74.671875 435.820312 73.5625 433.070312 72.328125 C 430.316406 71.101562 427.65625 69.738281 424.992188 68.375 C 419.699219 65.585938 414.546875 62.578125 409.476562 59.480469 C 407.136719 58.050781 404.832031 56.605469 402.515625 55.15625 C 403.039062 53.945312 403.585938 52.75 404.15625 51.5625 C 406.59375 53.128906 409.03125 54.71875 411.476562 56.257812 Z M 165.921875 96.660156 C 166.203125 95.171875 166.722656 93.609375 167.601562 92.152344 C 168.460938 90.691406 169.621094 89.464844 170.816406 88.480469 C 172.019531 87.492188 173.261719 86.761719 174.457031 86.136719 C 175.652344 85.507812 176.800781 85.011719 177.886719 84.550781 L 179.5 83.886719 C 180.0625 83.660156 180.667969 83.429688 181.335938 83.214844 C 182.65625 82.789062 184.234375 82.386719 186.109375 82.339844 C 187.039062 82.316406 188.046875 82.40625 189.015625 82.601562 C 189.976562 82.804688 190.886719 83.105469 191.726562 83.460938 C 193.394531 84.1875 194.75 85.09375 195.90625 85.964844 C 197.054688 86.839844 198.023438 87.699219 198.886719 88.460938 L 198.949219 88.515625 C 199.210938 88.75 199.460938 89.011719 199.6875 89.296875 C 201.917969 92.078125 201.472656 96.148438 198.6875 98.378906 C 195.902344 100.609375 191.835938 100.164062 189.605469 97.378906 C 188.941406 96.550781 188.359375 95.835938 187.847656 95.265625 C 187.59375 94.988281 187.351562 94.734375 187.140625 94.53125 C 186.929688 94.332031 186.738281 94.167969 186.582031 94.042969 L 186.199219 93.757812 C 186.09375 93.695312 186.003906 93.628906 185.832031 93.582031 C 185.496094 93.480469 184.878906 93.476562 184.078125 93.609375 C 183.675781 93.675781 183.226562 93.769531 182.742188 93.882812 L 181.214844 94.265625 C 180.222656 94.523438 179.292969 94.777344 178.480469 95.058594 C 177.671875 95.347656 176.949219 95.65625 176.386719 95.988281 C 175.824219 96.328125 175.375 96.664062 175.035156 97.054688 C 174.351562 97.800781 173.820312 99.191406 173.726562 100.867188 C 173.617188 102.554688 173.828125 104.351562 174.355469 106.078125 C 175.375 109.566406 177.691406 112.824219 180.714844 115.191406 C 182.234375 116.375 183.929688 117.339844 185.746094 118.003906 C 187.574219 118.65625 189.457031 118.984375 191.46875 118.992188 C 195.472656 119.019531 199.664062 117.894531 203.703125 116.425781 C 207.730469 114.929688 211.574219 112.886719 215.160156 110.449219 C 218.113281 108.421875 220.914062 106.160156 223.503906 103.660156 C 225.355469 100.589844 227.386719 97.644531 229.515625 94.808594 C 232.351562 91.019531 235.328125 87.402344 238.324219 83.816406 C 239.046875 82.765625 239.867188 81.792969 240.757812 80.90625 C 244.582031 76.363281 248.472656 71.859375 252.507812 67.464844 C 256.550781 63.078125 260.738281 58.804688 265.136719 54.722656 C 266.222656 53.691406 267.359375 52.710938 268.476562 51.707031 C 269.511719 50.789062 270.578125 49.902344 271.632812 49 C 272.992188 43.429688 275.972656 38.238281 279.441406 33.640625 C 281.78125 30.535156 284.386719 27.660156 287.195312 25.015625 C 288.003906 27.421875 288.695312 30.003906 289.425781 32.648438 C 284.222656 35.78125 279.683594 40.070312 276.371094 45.21875 C 277.246094 44.546875 278.121094 43.867188 279.027344 43.230469 C 282.660156 40.578125 286.484375 38.183594 290.402344 35.941406 C 290.917969 37.582031 291.523438 39.207031 292.21875 40.804688 C 283.703125 45.691406 275.769531 51.648438 268.457031 58.34375 C 264.136719 62.269531 259.988281 66.40625 255.96875 70.683594 C 255.011719 71.703125 254.0625 72.730469 253.121094 73.761719 C 253.425781 73.65625 253.730469 73.550781 254.035156 73.453125 C 255.597656 72.941406 257.164062 72.5 258.75 72.109375 C 260.328125 71.710938 261.929688 71.382812 263.539062 71.101562 C 266.761719 70.570312 270.027344 70.214844 273.316406 70.257812 C 276.601562 70.265625 279.898438 70.640625 283.113281 71.429688 C 286.332031 72.203125 289.429688 73.445312 292.324219 75.035156 C 295.214844 76.632812 297.921875 78.53125 300.367188 80.769531 C 301.605469 81.871094 302.738281 83.089844 303.828125 84.339844 C 304.90625 85.605469 305.886719 86.957031 306.792969 88.359375 C 308.550781 91.199219 309.949219 94.320312 310.664062 97.660156 C 311.007812 99.328125 311.238281 101.039062 311.207031 102.761719 L 311.210938 103.410156 L 311.160156 104.058594 L 311.050781 105.359375 C 311.003906 105.789062 310.910156 106.214844 310.839844 106.640625 C 310.753906 107.066406 310.710938 107.503906 310.578125 107.917969 C 308.886719 114.671875 304.191406 120.484375 297.96875 123.765625 L 296.769531 124.335938 C 296.570312 124.425781 296.375 124.53125 296.167969 124.609375 L 295.542969 124.839844 L 294.292969 125.296875 C 293.863281 125.417969 293.429688 125.523438 292.996094 125.636719 C 292.140625 125.898438 291.242188 125.988281 290.355469 126.144531 L 290.023438 126.203125 L 289.6875 126.230469 L 289.011719 126.289062 C 288.5625 126.320312 288.109375 126.382812 287.65625 126.390625 L 286.296875 126.410156 L 285.609375 126.421875 L 284.929688 126.382812 C 284.472656 126.355469 284.015625 126.328125 283.550781 126.3125 C 283.09375 126.273438 282.640625 126.195312 282.179688 126.148438 C 281.246094 126.066406 280.347656 125.859375 279.417969 125.679688 C 278.945312 125.609375 278.503906 125.460938 278.042969 125.339844 C 277.585938 125.210938 277.121094 125.097656 276.664062 124.949219 C 273.046875 123.753906 269.527344 121.75 266.714844 118.820312 C 265.34375 117.332031 264.070312 115.6875 263.175781 113.792969 C 262.226562 111.9375 261.644531 109.855469 261.457031 107.75 C 261.261719 105.554688 262.332031 103.339844 264.371094 102.179688 C 267.160156 100.589844 270.710938 101.566406 272.300781 104.355469 L 272.984375 105.5625 C 273.128906 105.816406 273.234375 106.070312 273.339844 106.324219 C 273.433594 106.578125 273.511719 106.835938 273.640625 107.085938 C 273.75 107.339844 273.851562 107.59375 273.9375 107.851562 C 274.019531 108.113281 274.167969 108.355469 274.265625 108.617188 C 274.65625 109.660156 275.199219 110.675781 275.71875 111.761719 C 276.328125 112.792969 276.957031 113.878906 277.753906 114.890625 C 278.503906 115.953125 279.433594 116.890625 280.421875 117.835938 C 282.433594 119.65625 285.023438 120.992188 287.808594 121.371094 C 288.15625 121.417969 288.503906 121.410156 288.851562 121.433594 C 289.203125 121.441406 289.554688 121.492188 289.902344 121.445312 C 290.597656 121.371094 291.308594 121.351562 291.996094 121.171875 L 293.035156 120.957031 L 294.054688 120.640625 L 294.570312 120.484375 C 294.738281 120.429688 294.902344 120.351562 295.066406 120.285156 L 296.0625 119.875 C 298.6875 118.683594 301.066406 116.871094 303.015625 114.679688 C 304.960938 112.476562 306.40625 109.835938 307.25 107.03125 C 307.382812 106.6875 307.425781 106.324219 307.515625 105.96875 C 307.589844 105.609375 307.6875 105.253906 307.742188 104.894531 L 307.867188 103.804688 L 307.933594 103.257812 L 307.945312 102.703125 C 308.027344 101.226562 307.871094 99.738281 307.621094 98.265625 L 307.40625 97.164062 L 307.113281 96.074219 C 307.027344 95.707031 306.898438 95.351562 306.777344 94.996094 C 306.648438 94.640625 306.550781 94.277344 306.398438 93.929688 C 305.855469 92.511719 305.152344 91.15625 304.390625 89.832031 C 301.253906 84.5625 296.519531 80.238281 291.132812 77.175781 C 288.425781 75.664062 285.542969 74.484375 282.539062 73.742188 C 279.53125 73.015625 276.425781 72.648438 273.308594 72.664062 C 267.070312 72.660156 260.832031 74.015625 254.917969 76.050781 C 252.644531 76.855469 250.433594 77.832031 248.402344 79.035156 C 247 80.628906 245.601562 82.230469 244.214844 83.84375 C 240.378906 88.332031 236.527344 92.808594 232.992188 97.433594 C 229.449219 102.058594 226.234375 106.890625 223.726562 112.039062 C 221.214844 117.230469 219.191406 122.714844 217.578125 128.304688 C 215.964844 133.894531 214.742188 139.605469 213.957031 145.363281 C 213.195312 151.125 212.878906 156.941406 213.222656 162.695312 C 213.578125 168.4375 214.609375 174.144531 216.75 179.378906 L 217.609375 181.304688 L 218.574219 183.175781 C 219.246094 184.386719 220.011719 185.539062 220.855469 186.621094 C 222.550781 188.773438 224.644531 190.578125 227.027344 191.894531 C 229.414062 193.21875 232.085938 194.039062 234.847656 194.445312 C 236.234375 194.644531 237.644531 194.746094 239.066406 194.773438 C 240.492188 194.785156 241.917969 194.714844 243.410156 194.640625 C 243.765625 194.617188 244.214844 194.613281 244.515625 194.585938 C 244.847656 194.558594 245.183594 194.558594 245.511719 194.503906 C 246.171875 194.421875 246.828125 194.304688 247.472656 194.125 C 248.761719 193.777344 250.011719 193.257812 251.179688 192.582031 C 253.519531 191.238281 255.535156 189.3125 257.074219 187.078125 C 258.609375 184.84375 259.671875 182.289062 260.101562 179.683594 C 260.527344 177.082031 260.332031 174.429688 259.402344 172.101562 C 259.300781 171.808594 259.160156 171.527344 259.027344 171.246094 C 258.910156 170.957031 258.75 170.6875 258.597656 170.417969 C 258.289062 169.878906 257.933594 169.367188 257.546875 168.878906 C 256.789062 167.898438 255.875 167.039062 254.871094 166.304688 C 252.871094 164.824219 250.484375 163.875 248.070312 163.480469 C 245.65625 163.09375 243.203125 163.289062 241.128906 164.035156 C 239.050781 164.78125 237.390625 166.070312 236.515625 167.652344 C 235.824219 168.914062 234.761719 169.988281 233.386719 170.699219 C 229.699219 172.601562 225.164062 171.15625 223.257812 167.46875 C 221.351562 163.78125 222.796875 159.246094 226.488281 157.339844 L 228.125 156.496094 C 231.984375 154.5 236.054688 153.648438 239.847656 153.679688 C 243.648438 153.703125 247.210938 154.535156 250.441406 155.910156 C 253.671875 157.289062 256.589844 159.253906 258.988281 161.734375 C 260.183594 162.980469 261.234375 164.363281 262.113281 165.84375 C 262.976562 167.335938 263.652344 168.9375 264.109375 170.585938 C 264.558594 172.238281 264.777344 173.933594 264.785156 175.609375 C 264.792969 177.285156 264.570312 178.941406 264.1875 180.535156 C 263.804688 182.128906 263.238281 183.664062 262.53125 185.113281 C 261.828125 186.566406 260.976562 187.941406 260 189.210938 C 258.058594 191.753906 255.613281 193.921875 252.78125 195.460938 C 251.367188 196.226562 249.859375 196.839844 248.285156 197.238281 C 247.5 197.4375 246.699219 197.59375 245.890625 197.6875 C 245.488281 197.753906 245.078125 197.757812 244.675781 197.789062 C 244.238281 197.824219 243.945312 197.820312 243.5625 197.84375 C 240.625 198.007812 237.492188 198.09375 234.40625 197.703125 C 231.3125 197.304688 228.214844 196.429688 225.390625 194.929688 C 222.566406 193.441406 220.050781 191.347656 218.042969 188.890625 C 217.046875 187.65625 216.144531 186.351562 215.359375 184.992188 C 214.976562 184.3125 214.628906 183.617188 214.265625 182.929688 L 213.300781 180.8125 C 210.894531 175.089844 209.789062 168.988281 209.382812 162.941406 C 208.988281 156.878906 209.292969 150.824219 210.054688 144.851562 C 210.835938 138.878906 212.070312 132.980469 213.703125 127.195312 C 215.355469 121.410156 217.355469 115.71875 219.953125 110.230469 C 219.976562 110.183594 220 110.136719 220.023438 110.089844 C 218.890625 110.921875 217.75 111.746094 216.585938 112.535156 C 212.890625 115.066406 209.019531 117.382812 204.914062 119.304688 C 202.847656 120.25 200.78125 121.144531 198.578125 121.867188 C 196.382812 122.589844 194.078125 123.148438 191.671875 123.367188 C 189.277344 123.601562 186.71875 123.421875 184.320312 122.820312 C 181.902344 122.230469 179.59375 121.234375 177.46875 119.929688 C 173.234375 117.308594 169.714844 113.433594 167.585938 108.667969 C 166.527344 106.285156 165.851562 103.6875 165.679688 100.964844 C 165.59375 99.59375 165.648438 98.15625 165.921875 96.660156 Z M 294.410156 33.648438 C 299.796875 30.878906 305.425781 28.523438 311.253906 26.753906 C 312.699219 26.273438 314.191406 25.9375 315.660156 25.535156 C 316.394531 25.328125 317.148438 25.191406 317.890625 25.023438 L 320.132812 24.542969 L 322.394531 24.167969 C 323.148438 24.046875 323.898438 23.898438 324.660156 23.828125 C 326.183594 23.671875 327.699219 23.441406 329.234375 23.378906 C 335.339844 22.960938 341.542969 23.265625 347.542969 24.425781 C 352.273438 25.285156 356.886719 26.59375 361.371094 28.195312 C 367.550781 28.824219 373.742188 29.453125 379.929688 30.21875 C 386.757812 31.046875 393.582031 32.054688 400.355469 33.375 C 402.574219 33.800781 404.785156 34.269531 406.984375 34.773438 C 408.6875 34.425781 410.410156 34.203125 412.128906 33.976562 C 411.621094 35.492188 411.058594 36.980469 410.4375 38.445312 C 406.925781 37.601562 403.390625 36.851562 399.828125 36.21875 C 390.8125 34.640625 381.695312 33.648438 372.539062 32.894531 C 380.917969 36.910156 388.835938 41.722656 396.539062 46.675781 C 399.085938 48.316406 401.621094 49.929688 404.15625 51.5625 C 403.585938 52.75 403.039062 53.945312 402.515625 55.15625 C 399.8125 53.460938 397.101562 51.765625 394.386719 50.109375 C 389.355469 47.03125 384.308594 44.023438 379.136719 41.292969 C 373.976562 38.542969 368.683594 36.089844 363.273438 34.023438 C 361.910156 33.539062 360.558594 33.019531 359.183594 32.585938 C 358.496094 32.367188 357.816406 32.121094 357.125 31.917969 L 355.050781 31.308594 C 352.277344 30.546875 349.484375 29.863281 346.660156 29.410156 C 345.253906 29.136719 343.832031 29 342.417969 28.800781 L 340.289062 28.617188 L 339.222656 28.527344 L 338.15625 28.492188 L 336.019531 28.417969 C 335.308594 28.382812 334.597656 28.429688 333.882812 28.429688 C 333.171875 28.445312 332.460938 28.441406 331.75 28.472656 L 329.613281 28.617188 C 328.1875 28.679688 326.773438 28.90625 325.355469 29.0625 C 324.644531 29.128906 323.941406 29.277344 323.238281 29.386719 L 321.121094 29.734375 L 319.019531 30.1875 C 318.320312 30.34375 317.617188 30.464844 316.925781 30.664062 C 315.542969 31.039062 314.140625 31.351562 312.777344 31.804688 C 310.65625 32.445312 308.558594 33.160156 306.484375 33.949219 C 306.585938 33.941406 306.6875 33.933594 306.789062 33.925781 C 308.496094 33.824219 310.207031 33.75 311.90625 33.691406 C 315.3125 33.578125 318.730469 33.433594 322.160156 33.476562 C 323.871094 33.488281 325.589844 33.570312 327.304688 33.683594 C 328.160156 33.765625 329.019531 33.8125 329.875 33.929688 L 331.160156 34.078125 L 332.441406 34.265625 C 335.855469 34.773438 339.230469 35.671875 342.445312 37.007812 C 342.621094 37.078125 342.792969 37.15625 342.964844 37.230469 C 349.675781 38.410156 356.167969 41.210938 361.824219 45.289062 C 362.769531 45.972656 363.65625 46.746094 364.554688 47.5 C 363.589844 48.777344 362.449219 49.960938 361.230469 51.089844 C 360.5 50.300781 359.789062 49.496094 358.996094 48.757812 C 358.109375 47.933594 357.183594 47.140625 356.226562 46.386719 C 357.207031 47.3125 358.167969 48.253906 359.089844 49.226562 C 359.746094 49.90625 360.363281 50.609375 360.996094 51.304688 C 360.425781 51.824219 359.847656 52.335938 359.261719 52.835938 C 358.664062 52.128906 358.085938 51.40625 357.46875 50.722656 C 355.242188 48.203125 352.878906 45.816406 350.273438 43.734375 C 348.441406 42.25 346.488281 40.917969 344.421875 39.800781 C 343.691406 39.535156 342.949219 39.289062 342.199219 39.0625 L 342.195312 39.0625 C 341.878906 38.96875 341.644531 38.71875 341.550781 38.417969 L 340.652344 38.035156 L 339.480469 37.605469 C 338.703125 37.300781 337.894531 37.089844 337.101562 36.847656 C 335.488281 36.414062 333.855469 36.042969 332.199219 35.792969 C 328.890625 35.253906 325.519531 35.089844 322.144531 35.078125 C 318.769531 35.066406 315.386719 35.210938 311.996094 35.449219 C 308.605469 35.667969 305.234375 35.898438 301.925781 36.429688 C 301.164062 36.554688 300.40625 36.691406 299.652344 36.84375 C 298.683594 37.296875 297.722656 37.757812 296.769531 38.242188 C 295.21875 39.035156 293.730469 39.9375 292.21875 40.804688 C 291.523438 39.207031 290.917969 37.582031 290.402344 35.941406 C 291.738281 35.175781 293.042969 34.359375 294.410156 33.648438 Z M 359.273438 8.148438 C 344.226562 7.78125 327.835938 7.839844 315.90625 17.292969 C 314.875 18.109375 313.859375 19.007812 312.617188 19.410156 C 311.007812 19.933594 309.273438 19.554688 307.589844 19.539062 C 304.5 19.511719 301.410156 20.800781 299.210938 23.035156 C 302.273438 23.496094 305.1875 24.921875 307.453125 27.066406 C 301.113281 27.34375 294.902344 29.355469 289.425781 32.648438 C 288.695312 30.003906 288.003906 27.421875 287.195312 25.015625 C 306.15625 7.148438 334.726562 0.0664062 359.273438 8.148438 Z M 362.570312 53.023438 C 363.515625 54.078125 364.441406 55.140625 365.363281 56.207031 C 364.144531 54.398438 362.730469 52.710938 361.230469 51.089844 C 362.449219 49.960938 363.589844 48.777344 364.554688 47.5 C 369.113281 51.320312 373.066406 55.976562 375.941406 61.386719 C 377.65625 64.609375 378.96875 67.949219 380.136719 71.226562 C 380.164062 71.304688 380.191406 71.386719 380.21875 71.46875 C 381.4375 72.414062 382.675781 73.304688 383.945312 74.128906 C 384.640625 74.542969 385.328125 74.964844 386.027344 75.367188 C 386.726562 75.761719 387.460938 76.105469 388.175781 76.472656 C 393.976562 79.296875 400.324219 80.847656 406.816406 81.625 C 408.449219 81.808594 410.082031 81.960938 411.730469 82.074219 C 412.546875 82.136719 413.382812 82.164062 414.210938 82.207031 C 415.035156 82.25 415.867188 82.28125 416.703125 82.292969 C 420.039062 82.382812 423.417969 82.320312 426.855469 82.175781 C 427.726562 82.140625 428.652344 82.253906 429.53125 82.539062 C 433.558594 83.835938 435.769531 88.152344 434.46875 92.179688 C 433.171875 96.207031 428.855469 98.414062 424.828125 97.117188 L 424.816406 97.113281 C 421.511719 96.046875 418.152344 95.039062 414.773438 94.027344 C 413.089844 93.515625 411.390625 93 409.703125 92.449219 C 408.011719 91.925781 406.324219 91.335938 404.640625 90.757812 C 397.914062 88.378906 391.253906 85.449219 385.285156 81.402344 C 384.554688 80.878906 383.808594 80.386719 383.101562 79.835938 C 383.214844 80.15625 383.328125 80.484375 383.441406 80.804688 C 384.550781 83.871094 385.746094 86.78125 387.183594 89.34375 C 388.617188 91.914062 390.292969 94.105469 392.25 95.820312 C 392.4375 95.988281 392.644531 96.191406 392.8125 96.386719 C 395.015625 98.902344 394.757812 102.726562 392.242188 104.925781 C 389.726562 107.128906 385.902344 106.875 383.699219 104.359375 L 383.570312 104.207031 C 380.820312 101.066406 378.828125 97.480469 377.40625 93.945312 C 375.976562 90.394531 375.054688 86.871094 374.28125 83.460938 C 373 77.753906 372.121094 72.269531 370.5625 67.210938 C 370.425781 67.039062 370.285156 66.867188 370.144531 66.695312 C 367.984375 64.011719 365.960938 61.253906 363.871094 58.578125 C 362.363281 56.628906 360.832031 54.710938 359.261719 52.835938 C 359.847656 52.335938 360.425781 51.824219 360.996094 51.304688 C 361.519531 51.878906 362.054688 52.445312 362.570312 53.023438 Z M 435.585938 34.496094 C 433.957031 35.675781 432.230469 36.714844 430.503906 37.75 C 434.003906 36.222656 437.785156 35.375 441.601562 35.203125 C 441.308594 34.914062 441.027344 34.613281 440.765625 34.285156 C 437.148438 29.746094 437.898438 23.136719 442.433594 19.519531 L 443.644531 18.554688 C 446.777344 16.058594 450.019531 14.078125 453.429688 12.507812 C 456.398438 11.15625 459.511719 10.179688 462.734375 9.539062 C 462.773438 15.121094 462.859375 20.703125 463.054688 26.285156 C 462.832031 26.484375 462.582031 26.644531 462.371094 26.851562 C 460.761719 28.417969 459.394531 30.230469 458.535156 32.109375 C 457.871094 33.542969 456.855469 34.898438 455.53125 35.953125 C 454.992188 36.382812 454.417969 36.746094 453.828125 37.054688 C 454.4375 37.277344 455.046875 37.515625 455.640625 37.777344 C 451.914062 39.277344 448.183594 40.777344 444.453125 42.28125 C 450.980469 41.835938 457.539062 42.089844 464.03125 42.878906 C 464.152344 44.292969 464.285156 45.703125 464.429688 47.113281 C 457.613281 47.558594 450.804688 48.121094 444.023438 48.925781 C 444.058594 48.945312 444.097656 48.964844 444.132812 48.988281 C 445.621094 49.867188 447.089844 50.773438 448.542969 51.695312 C 451.453125 53.53125 454.3125 55.417969 457.203125 57.230469 C 460.089844 59.042969 463.007812 60.785156 466.023438 62.308594 C 466.1875 62.394531 466.359375 62.453125 466.523438 62.535156 C 466.679688 63.453125 466.859375 64.375 467.035156 65.292969 C 466.355469 64.96875 465.65625 64.6875 464.988281 64.34375 C 463.4375 63.554688 461.921875 62.714844 460.425781 61.847656 C 458.921875 60.988281 457.445312 60.09375 455.984375 59.1875 C 450.125 55.570312 444.496094 51.683594 438.457031 48.617188 C 432.457031 45.480469 426.136719 42.945312 419.652344 40.945312 C 416.613281 40.003906 413.535156 39.1875 410.4375 38.445312 C 411.058594 36.980469 411.621094 35.492188 412.128906 33.976562 C 419.917969 32.941406 427.859375 33.066406 435.585938 34.496094 Z M 467.800781 69.246094 C 468.125 70.789062 468.492188 72.332031 468.863281 73.878906 C 468.910156 73.851562 468.964844 73.835938 469.011719 73.8125 C 470.40625 73.078125 471.765625 72.273438 473.0625 71.378906 C 474.105469 70.652344 475.117188 69.882812 476.089844 69.070312 C 478.851562 70.023438 481.65625 70.84375 484.5 71.515625 C 487.882812 72.316406 491.300781 72.902344 494.71875 73.371094 C 496.683594 73.640625 498.652344 73.875 500.613281 74.089844 C 502.8125 74.441406 505.039062 74.679688 507.289062 74.773438 C 509.9375 75.035156 512.589844 75.292969 515.246094 75.488281 C 522.109375 76.015625 529.015625 76.320312 535.9375 76.074219 C 538.164062 75.992188 540.390625 75.847656 542.613281 75.640625 C 542.90625 75.867188 543.277344 76 543.679688 75.972656 C 543.757812 75.964844 543.84375 75.953125 543.921875 75.9375 C 545.160156 75.65625 546.484375 75.625 547.8125 75.832031 C 549.140625 76.039062 550.476562 76.445312 551.773438 76.984375 C 553.074219 77.519531 554.339844 78.191406 555.589844 78.910156 C 556.832031 79.644531 558.089844 80.394531 559.226562 81.226562 C 560.375 82.046875 561.417969 82.972656 562.246094 84.042969 C 562.652344 84.578125 563.023438 85.148438 563.332031 85.753906 C 563.632812 86.363281 563.890625 86.996094 564.105469 87.648438 C 564.53125 88.957031 564.761719 90.339844 564.863281 91.734375 C 564.964844 93.128906 564.9375 94.554688 564.800781 95.957031 C 564.554688 98.746094 563.785156 101.46875 562.339844 103.640625 C 560.878906 105.789062 558.722656 107.464844 556.402344 107.71875 C 555.816406 107.792969 555.210938 107.8125 554.59375 107.75 C 553.976562 107.699219 553.351562 107.597656 552.722656 107.433594 C 552.089844 107.285156 551.453125 107.085938 550.84375 106.847656 C 550.230469 106.621094 549.636719 106.335938 549.066406 106.03125 C 548.496094 105.722656 547.953125 105.371094 547.433594 104.996094 C 547.175781 104.804688 546.929688 104.601562 546.683594 104.402344 C 546.441406 104.191406 546.203125 103.976562 546.03125 103.773438 C 545.671875 103.371094 545.496094 102.96875 545.605469 102.726562 C 545.664062 102.605469 545.777344 102.542969 545.957031 102.539062 C 545.996094 102.535156 546.050781 102.539062 546.09375 102.546875 C 546.140625 102.554688 546.222656 102.625 546.28125 102.660156 C 546.40625 102.75 546.53125 102.835938 546.648438 102.933594 C 545.59375 99.796875 542.195312 98.109375 539.058594 99.164062 C 535.921875 100.21875 534.234375 103.613281 535.285156 106.753906 C 535.519531 107.195312 535.789062 107.621094 536.082031 108.035156 C 536.226562 108.234375 536.402344 108.464844 536.550781 108.621094 C 536.695312 108.78125 536.84375 108.945312 536.996094 109.085938 C 537.609375 109.675781 538.230469 110.148438 538.84375 110.503906 C 540.0625 111.230469 541.164062 111.570312 542.121094 111.808594 C 542.605469 111.929688 543.042969 112.003906 543.476562 112.082031 C 543.910156 112.160156 544.339844 112.230469 544.773438 112.289062 C 545.636719 112.414062 546.492188 112.503906 547.339844 112.570312 C 548.183594 112.640625 549.027344 112.664062 549.859375 112.679688 C 550.699219 112.683594 551.515625 112.667969 552.347656 112.621094 C 553.179688 112.5625 554.023438 112.488281 554.871094 112.347656 C 555.71875 112.199219 556.570312 112.007812 557.410156 111.730469 C 559.097656 111.144531 560.636719 110.230469 561.894531 109.105469 C 563.164062 107.976562 564.179688 106.644531 564.953125 105.207031 C 566.519531 102.316406 567.050781 99.140625 567.160156 96.101562 C 567.226562 93.066406 566.996094 89.976562 565.960938 87.019531 C 565.699219 86.285156 565.386719 85.5625 565.019531 84.867188 C 564.640625 84.179688 564.214844 83.511719 563.730469 82.882812 C 562.746094 81.636719 561.5625 80.609375 560.347656 79.699219 C 559.121094 78.796875 557.882812 77.996094 556.625 77.199219 C 555.363281 76.402344 554.066406 75.636719 552.695312 74.960938 C 552.3125 74.777344 551.925781 74.597656 551.535156 74.425781 C 553.222656 74.113281 554.90625 73.757812 556.578125 73.34375 C 557.429688 73.164062 558.265625 72.910156 559.105469 72.660156 L 561.621094 71.921875 C 562.453125 71.652344 563.273438 71.339844 564.097656 71.050781 L 564.808594 70.796875 C 564.1875 69.9375 563.566406 69.074219 562.953125 68.210938 C 560.632812 69.101562 558.273438 69.902344 555.851562 70.503906 C 549.335938 72.1875 542.597656 73.042969 535.828125 73.371094 C 530.902344 73.597656 525.960938 73.539062 521.015625 73.320312 C 524.378906 72.378906 527.667969 71.085938 530.777344 69.054688 C 532.347656 68.023438 533.863281 66.789062 535.203125 65.285156 C 536.539062 63.789062 537.695312 61.988281 538.46875 60.011719 C 539.238281 58.042969 539.625 56.03125 539.816406 54.109375 C 539.910156 53.148438 539.957031 52.203125 539.972656 51.28125 C 539.984375 50.816406 539.984375 50.363281 539.980469 49.910156 C 539.976562 49.480469 539.972656 48.910156 539.863281 48.164062 C 539.769531 47.566406 539.597656 46.824219 539.230469 46.039062 C 539.554688 45.683594 539.855469 45.308594 540.136719 44.902344 C 541.34375 43.144531 541.933594 41.132812 541.972656 39.136719 C 537.996094 34.210938 533.765625 29.488281 529.074219 25.117188 C 527.574219 26.554688 526.136719 28.148438 524.855469 30.015625 L 522.808594 32.992188 C 521.488281 34.914062 520.894531 37.117188 520.964844 39.277344 C 520.566406 39.335938 520.167969 39.40625 519.769531 39.484375 C 519.199219 39.621094 518.636719 39.75 518.035156 39.945312 C 516.863281 40.328125 515.746094 40.832031 514.691406 41.445312 C 512.582031 42.671875 510.695312 44.332031 509.203125 46.464844 C 507.714844 48.585938 506.636719 51.269531 506.460938 54.191406 L 506.375 55.601562 C 506.15625 59.128906 508.84375 62.164062 512.375 62.382812 C 515.902344 62.597656 518.9375 59.910156 519.15625 56.378906 C 519.191406 55.75 519.128906 55.105469 518.996094 54.515625 C 518.898438 54.109375 518.933594 53.539062 519.234375 52.867188 C 519.53125 52.203125 520.078125 51.492188 520.761719 50.933594 C 521.105469 50.648438 521.476562 50.402344 521.859375 50.203125 C 522.039062 50.105469 522.277344 50.019531 522.5 49.917969 C 522.738281 49.84375 522.972656 49.75 523.226562 49.691406 C 524.21875 49.410156 525.363281 49.308594 526.578125 49.382812 C 527.789062 49.453125 529.066406 49.703125 530.328125 50.105469 C 530.484375 50.148438 530.640625 50.210938 530.800781 50.261719 L 531.238281 50.414062 C 531.320312 50.445312 531.382812 50.46875 531.441406 50.488281 C 531.441406 50.492188 531.441406 50.492188 531.441406 50.492188 C 531.492188 50.871094 531.542969 51.242188 531.582031 51.609375 C 531.664062 52.34375 531.722656 53.0625 531.742188 53.757812 C 531.789062 55.148438 531.699219 56.453125 531.410156 57.640625 C 530.871094 59.96875 529.3125 62.214844 527.105469 64.097656 C 524.914062 65.988281 522.164062 67.527344 519.308594 68.722656 C 516.4375 69.921875 513.355469 70.71875 510.195312 71.207031 C 507.109375 71.675781 503.941406 71.820312 500.765625 71.71875 C 498.851562 71.511719 496.941406 71.292969 495.039062 71.035156 C 491.667969 70.578125 488.324219 70.011719 485.03125 69.246094 C 482.6875 68.695312 480.363281 68.046875 478.074219 67.300781 C 482.222656 63.394531 485.578125 58.699219 488.109375 53.582031 C 488.820312 52.175781 489.441406 50.722656 490.007812 49.246094 C 490.59375 47.773438 491.066406 46.257812 491.5 44.714844 C 491.699219 43.9375 491.921875 43.160156 492.070312 42.367188 L 492.316406 41.179688 L 492.515625 39.980469 C 492.664062 39.183594 492.726562 38.367188 492.828125 37.558594 C 492.898438 36.742188 492.953125 35.921875 492.988281 35.097656 C 493.074219 31.796875 492.796875 28.378906 491.765625 24.953125 C 491.480469 24.101562 491.21875 23.242188 490.835938 22.402344 C 490.648438 21.980469 490.492188 21.550781 490.269531 21.136719 L 489.605469 19.898438 C 489.394531 19.480469 489.113281 19.089844 488.851562 18.691406 C 488.578125 18.300781 488.324219 17.890625 488.023438 17.515625 C 487.402344 16.777344 486.8125 15.996094 486.089844 15.332031 C 483.371094 12.515625 479.625 10.511719 475.746094 9.558594 C 473.800781 9.085938 471.828125 8.851562 469.882812 8.800781 C 467.9375 8.757812 466.023438 8.921875 464.148438 9.207031 C 463.664062 9.28125 463.210938 9.445312 462.734375 9.539062 C 462.773438 15.121094 462.859375 20.703125 463.054688 26.285156 C 463.671875 25.730469 464.292969 25.171875 464.972656 24.695312 C 465.886719 24.042969 466.855469 23.488281 467.839844 23.019531 C 468.824219 22.539062 469.832031 22.183594 470.839844 21.929688 C 471.84375 21.667969 472.847656 21.527344 473.824219 21.523438 C 475.777344 21.5 477.667969 21.980469 479.367188 23.117188 C 481.085938 24.1875 482.488281 25.910156 483.550781 28.019531 C 483.703125 28.273438 483.792969 28.566406 483.914062 28.839844 C 484.027344 29.117188 484.164062 29.386719 484.257812 29.679688 C 484.4375 30.269531 484.667969 30.84375 484.796875 31.464844 L 485.03125 32.386719 L 485.199219 33.332031 C 485.332031 33.960938 485.371094 34.617188 485.457031 35.265625 C 485.703125 37.878906 485.550781 40.59375 485.105469 43.257812 C 484.632812 45.945312 483.859375 48.609375 482.804688 51.171875 C 481.75 53.734375 480.421875 56.195312 478.855469 58.492188 C 477.296875 60.796875 475.5 62.941406 473.496094 64.867188 C 473.300781 65.054688 473.097656 65.242188 472.894531 65.425781 C 470.730469 64.558594 468.609375 63.578125 466.523438 62.535156 C 466.679688 63.453125 466.859375 64.375 467.035156 65.292969 C 468.324219 65.90625 469.605469 66.539062 470.921875 67.089844 C 469.925781 67.875 468.875 68.582031 467.800781 69.246094 Z M 531.390625 50.148438 C 531.382812 50.132812 531.375 50.125 531.371094 50.113281 C 531.238281 49.835938 531.253906 49.6875 531.292969 49.765625 C 531.320312 49.8125 531.355469 49.949219 531.390625 50.148438 Z M 260.03125 29.085938 L 53.921875 29.085938 C 52.023438 29.085938 50.484375 27.550781 50.484375 25.652344 C 50.484375 23.753906 52.023438 22.21875 53.921875 22.21875 L 260.03125 22.21875 C 261.929688 22.21875 263.46875 23.753906 263.46875 25.652344 C 263.46875 27.550781 261.929688 29.085938 260.03125 29.085938 Z M 616.933594 22.21875 L 817.570312 22.21875 C 819.46875 22.21875 821.003906 23.753906 821.003906 25.652344 C 821.003906 27.550781 819.46875 29.085938 817.570312 29.085938 L 616.933594 29.085938 C 615.039062 29.085938 613.5 27.550781 613.5 25.652344 C 613.5 23.753906 615.039062 22.21875 616.933594 22.21875 Z M 616.933594 22.21875 " fill-opacity="1" fill-rule="nonzero"/></svg>