<svg xmlns="http://www.w3.org/2000/svg" xmlns:xlink="http://www.w3.org/1999/xlink" width="1080" zoomAndPan="magnify" viewBox="0 0 810 809.999993" height="1080" preserveAspectRatio="xMidYMid meet" version="1.0"><defs><clipPath id="dfc1e86dcf"><path d="M 11.207031 4 L 810 4 L 810 810 L 11.207031 810 Z M 11.207031 4 " clip-rule="nonzero"/></clipPath></defs><g clip-path="url(#dfc1e86dcf)"><path fill="#ffffff" d="M 774.988281 466.539062 C 774.867188 462.691406 774.613281 458.851562 774.378906 455.011719 C 775.722656 454.640625 777.070312 454.28125 778.417969 453.898438 C 777.941406 457.558594 777.339844 461.199219 776.476562 464.785156 C 776.28125 465.601562 775.824219 466.609375 774.988281 466.539062 Z M 759.09375 455.015625 C 760.621094 452 762.363281 449.082031 764.175781 446.195312 C 765.988281 443.304688 767.875 440.445312 769.710938 437.535156 C 770.632812 436.082031 771.539062 434.613281 772.417969 433.125 C 772.441406 433.089844 772.460938 433.050781 772.480469 433.015625 C 773.347656 440.324219 773.929688 447.664062 774.378906 455.011719 C 775.722656 454.640625 777.070312 454.28125 778.417969 453.898438 C 779.300781 447.121094 779.589844 440.265625 779.125 433.445312 C 780.625 437.175781 782.128906 440.90625 783.628906 444.636719 C 783.890625 444.039062 784.128906 443.433594 784.351562 442.820312 C 784.65625 443.410156 785.023438 443.984375 785.453125 444.523438 C 786.507812 445.847656 787.863281 446.867188 789.296875 447.53125 C 790.40625 448.035156 791.46875 448.753906 792.496094 449.5625 C 798.144531 447.664062 803.714844 445.539062 809.167969 443.128906 C 809.066406 442.898438 809 442.652344 808.898438 442.421875 C 807.328125 439.015625 805.347656 435.769531 802.851562 432.636719 L 801.886719 431.425781 C 798.269531 426.890625 791.660156 426.144531 787.121094 429.757812 C 786.792969 430.019531 786.492188 430.300781 786.203125 430.59375 C 786.03125 426.777344 785.183594 422.996094 783.65625 419.496094 C 784.691406 421.222656 785.730469 422.949219 786.910156 424.578125 C 788.050781 418.417969 788.324219 412.117188 787.894531 405.863281 C 785.75 405.421875 783.683594 404.863281 781.660156 404.222656 C 781.253906 405.695312 780.910156 407.1875 780.460938 408.644531 C 778.460938 415.128906 775.925781 421.449219 772.789062 427.449219 C 769.722656 433.488281 765.835938 439.117188 762.21875 444.976562 C 761.3125 446.4375 760.417969 447.914062 759.558594 449.417969 C 758.691406 450.914062 757.851562 452.433594 757.0625 453.980469 C 756.070312 455.921875 755.15625 457.90625 754.3125 459.914062 C 751.589844 456.445312 749.535156 452.46875 748.558594 448.195312 C 748.253906 446.855469 748.054688 445.496094 747.9375 444.125 C 747.847656 442.746094 747.839844 441.359375 747.925781 439.96875 C 748.128906 437.183594 748.675781 434.402344 749.46875 431.660156 C 751.0625 426.179688 753.601562 420.882812 756.277344 415.683594 C 757.648438 413.097656 759.0625 410.53125 760.550781 407.996094 C 762.046875 405.472656 763.578125 402.960938 765.148438 400.46875 C 765.8125 399.414062 766.503906 398.363281 767.175781 397.308594 C 766.117188 396.609375 765.066406 395.867188 764.03125 395.085938 C 763.328125 396.214844 762.621094 397.332031 761.925781 398.472656 C 758.828125 403.539062 755.820312 408.691406 753.03125 413.984375 C 751.667969 416.652344 750.304688 419.308594 749.078125 422.0625 C 747.84375 424.8125 746.734375 427.644531 745.820312 430.570312 C 744.914062 433.496094 744.253906 436.535156 743.972656 439.652344 C 743.832031 441.210938 743.792969 442.789062 743.851562 444.367188 C 743.941406 445.945312 744.125 447.523438 744.433594 449.082031 C 744.757812 450.632812 745.179688 452.164062 745.707031 453.65625 C 746.246094 455.144531 746.867188 456.601562 747.59375 458.003906 C 748.226562 459.207031 748.941406 460.363281 749.6875 461.492188 C 752.121094 460.851562 754.566406 460.214844 757.027344 459.582031 C 757.695312 458.050781 758.335938 456.507812 759.09375 455.015625 Z M 798.570312 557.53125 C 798.207031 560.753906 797.449219 563.9375 796.15625 566.839844 C 795.5 568.28125 794.726562 569.660156 793.804688 570.910156 C 792.871094 572.144531 791.808594 573.257812 790.625 574.210938 L 789.707031 574.878906 C 789.398438 575.101562 789.0625 575.273438 788.742188 575.472656 C 788.578125 575.566406 788.417969 575.675781 788.25 575.757812 L 787.742188 576.003906 C 787.410156 576.179688 787.054688 576.3125 786.703125 576.449219 C 785.292969 576.992188 783.785156 577.328125 782.246094 577.457031 C 779.167969 577.722656 775.972656 577.1875 773.035156 576.027344 C 770.105469 574.871094 767.390625 573.03125 765.019531 570.820312 C 762.640625 568.605469 760.574219 566.007812 758.777344 563.222656 C 755.265625 557.578125 752.519531 551.378906 750.902344 544.84375 C 750.222656 542.210938 749.707031 539.535156 749.277344 536.839844 C 748.058594 536.585938 746.839844 536.328125 745.621094 536.066406 C 745.597656 536.316406 745.609375 536.558594 745.574219 536.804688 C 745.367188 538.132812 744.960938 539.46875 744.421875 540.765625 C 743.886719 542.070312 743.214844 543.332031 742.496094 544.582031 C 741.761719 545.824219 741.007812 547.082031 740.179688 548.21875 C 739.355469 549.367188 738.433594 550.410156 737.363281 551.238281 C 736.824219 551.644531 736.257812 552.015625 735.652344 552.324219 C 735.042969 552.625 734.410156 552.882812 733.757812 553.097656 C 732.449219 553.523438 731.066406 553.753906 729.671875 553.855469 C 728.277344 553.957031 726.851562 553.929688 725.449219 553.796875 C 722.660156 553.546875 719.9375 552.777344 717.761719 551.332031 C 715.617188 549.871094 713.941406 547.714844 713.6875 545.394531 C 713.609375 544.808594 713.59375 544.203125 713.65625 543.585938 C 713.707031 542.96875 713.808594 542.34375 713.972656 541.714844 C 714.121094 541.082031 714.320312 540.445312 714.558594 539.835938 C 714.785156 539.222656 715.070312 538.628906 715.375 538.058594 C 715.683594 537.488281 716.035156 536.945312 716.410156 536.425781 C 716.601562 536.171875 716.800781 535.921875 717.003906 535.675781 C 717.214844 535.433594 717.429688 535.195312 717.628906 535.023438 C 718.035156 534.664062 718.4375 534.488281 718.675781 534.597656 C 718.800781 534.65625 718.863281 534.773438 718.867188 534.949219 C 718.871094 534.988281 718.863281 535.042969 718.855469 535.085938 C 718.851562 535.132812 718.78125 535.21875 718.746094 535.273438 C 718.65625 535.398438 718.566406 535.523438 718.472656 535.640625 C 721.609375 534.585938 723.296875 531.1875 722.242188 528.050781 C 721.1875 524.914062 717.789062 523.226562 714.652344 524.277344 C 714.210938 524.511719 713.785156 524.78125 713.371094 525.078125 C 713.171875 525.21875 712.941406 525.394531 712.78125 525.542969 C 712.625 525.6875 712.460938 525.835938 712.316406 525.988281 C 711.730469 526.601562 711.257812 527.226562 710.902344 527.835938 C 710.175781 529.054688 709.835938 530.15625 709.597656 531.113281 C 709.472656 531.597656 709.402344 532.035156 709.324219 532.46875 C 709.246094 532.902344 709.175781 533.332031 709.117188 533.765625 C 708.992188 534.628906 708.902344 535.484375 708.835938 536.332031 C 708.765625 537.179688 708.742188 538.023438 708.726562 538.855469 C 708.722656 539.691406 708.738281 540.507812 708.785156 541.339844 C 708.84375 542.171875 708.917969 543.015625 709.054688 543.863281 C 709.207031 544.710938 709.394531 545.566406 709.675781 546.402344 C 710.261719 548.089844 711.175781 549.628906 712.300781 550.890625 C 713.429688 552.15625 714.761719 553.171875 716.199219 553.945312 C 719.089844 555.511719 722.261719 556.042969 725.304688 556.152344 C 728.339844 556.222656 731.429688 555.988281 734.386719 554.957031 C 735.121094 554.691406 735.839844 554.378906 736.539062 554.011719 C 737.226562 553.632812 737.894531 553.207031 738.523438 552.722656 C 739.769531 551.738281 740.796875 550.554688 741.707031 549.339844 C 742.609375 548.113281 743.410156 546.875 744.207031 545.617188 C 745 544.355469 745.769531 543.058594 746.445312 541.6875 C 746.628906 541.308594 746.808594 540.917969 746.980469 540.527344 C 747.289062 542.214844 747.648438 543.898438 748.0625 545.570312 C 748.242188 546.421875 748.496094 547.261719 748.746094 548.097656 L 749.484375 550.613281 C 749.753906 551.445312 750.066406 552.265625 750.355469 553.089844 L 750.796875 554.328125 L 751.019531 554.949219 L 751.277344 555.550781 L 752.320312 557.96875 C 752.5 558.367188 752.660156 558.777344 752.855469 559.171875 L 753.457031 560.34375 L 754.667969 562.6875 C 755.078125 563.464844 755.535156 564.222656 755.996094 564.976562 C 757.855469 567.980469 760.027344 570.839844 762.617188 573.347656 C 765.207031 575.855469 768.214844 578.007812 771.640625 579.441406 C 775.046875 580.859375 778.773438 581.578125 782.535156 581.332031 C 784.414062 581.210938 786.292969 580.839844 788.09375 580.183594 C 788.542969 580.019531 788.992188 579.855469 789.425781 579.644531 L 790.082031 579.339844 C 790.296875 579.238281 790.5 579.109375 790.710938 578.996094 C 791.121094 578.753906 791.550781 578.535156 791.945312 578.269531 L 793.121094 577.445312 C 794.632812 576.28125 795.972656 574.921875 797.136719 573.445312 C 798.285156 571.960938 799.242188 570.367188 800.09375 568.730469 C 801.753906 565.441406 802.910156 561.980469 803.761719 558.460938 C 804.191406 556.699219 804.519531 554.925781 804.820312 553.15625 C 805.109375 551.378906 805.351562 549.570312 805.503906 547.730469 C 805.582031 546.820312 805.636719 545.902344 805.667969 544.972656 C 803.0625 544.828125 800.46875 544.652344 797.886719 544.433594 C 798.847656 548.574219 799.035156 553.121094 798.570312 557.53125 Z M 805.667969 544.972656 C 803.0625 544.828125 800.46875 544.652344 797.886719 544.433594 C 797.4375 542.507812 796.875 540.644531 796.035156 538.96875 C 795.714844 538.308594 795.34375 537.679688 794.972656 537.089844 C 794.777344 536.792969 794.566406 536.511719 794.367188 536.222656 L 793.726562 535.402344 C 793.496094 535.140625 793.28125 534.875 793.046875 534.625 C 792.800781 534.386719 792.570312 534.136719 792.320312 533.914062 C 791.820312 533.460938 791.332031 533.023438 790.789062 532.660156 C 788.683594 531.164062 786.316406 530.445312 784.347656 530.804688 C 781.714844 531.277344 778.878906 530.761719 776.503906 529.128906 C 776.097656 528.847656 775.71875 528.546875 775.367188 528.222656 C 774.582031 528.589844 773.839844 528.765625 773.242188 528.855469 C 772.496094 528.964844 771.925781 528.96875 771.492188 528.972656 C 771.042969 528.976562 770.585938 528.976562 770.125 528.96875 C 769.203125 528.949219 768.257812 528.902344 767.296875 528.808594 C 765.375 528.621094 763.359375 528.230469 761.394531 527.460938 C 759.414062 526.6875 757.617188 525.535156 756.121094 524.195312 C 754.613281 522.855469 753.382812 521.339844 752.347656 519.769531 C 750.320312 516.660156 749.027344 513.371094 748.085938 510.007812 C 747.867188 514.953125 747.808594 519.898438 748.035156 524.820312 C 748.230469 528.855469 748.644531 532.871094 749.277344 536.839844 C 748.058594 536.585938 746.839844 536.328125 745.621094 536.066406 C 745.71875 534.992188 745.695312 533.921875 745.46875 532.914062 C 745.453125 532.835938 745.441406 532.75 745.433594 532.671875 C 745.40625 532.273438 745.539062 531.898438 745.765625 531.605469 C 745.558594 529.382812 745.414062 527.15625 745.328125 524.929688 C 745.085938 518.007812 745.390625 511.101562 745.917969 504.242188 C 746.113281 501.582031 746.367188 498.929688 746.628906 496.28125 C 746.726562 494.035156 746.964844 491.804688 747.316406 489.609375 C 747.53125 487.644531 747.761719 485.679688 748.035156 483.714844 C 748.503906 480.292969 749.089844 476.875 749.890625 473.492188 C 750.558594 470.648438 751.378906 467.84375 752.335938 465.082031 C 751.523438 464.109375 750.753906 463.097656 750.027344 462.054688 C 749.902344 461.875 749.808594 461.675781 749.6875 461.492188 C 752.121094 460.851562 754.566406 460.214844 757.027344 459.582031 C 756.6875 460.355469 756.296875 461.105469 755.980469 461.886719 C 756.164062 462.089844 756.351562 462.292969 756.539062 462.488281 C 758.464844 464.492188 760.605469 466.289062 762.914062 467.847656 C 765.210938 469.417969 767.671875 470.742188 770.234375 471.796875 C 772.792969 472.851562 775.460938 473.628906 778.148438 474.101562 C 780.8125 474.542969 783.527344 474.699219 786.140625 474.449219 C 786.789062 474.363281 787.445312 474.324219 788.074219 474.191406 L 789.019531 474.023438 L 789.941406 473.792969 C 790.5625 473.660156 791.136719 473.429688 791.726562 473.25 C 792.019531 473.15625 792.289062 473.019531 792.566406 472.910156 C 792.839844 472.785156 793.132812 472.695312 793.386719 472.542969 C 795.496094 471.484375 797.21875 470.078125 798.289062 468.359375 C 799.425781 466.660156 799.90625 464.769531 799.878906 462.816406 C 799.878906 461.839844 799.738281 460.835938 799.476562 459.832031 C 799.222656 458.828125 798.867188 457.816406 798.386719 456.832031 C 797.917969 455.847656 797.363281 454.878906 796.707031 453.964844 C 796.066406 453.042969 795.34375 452.171875 794.554688 451.367188 C 793.914062 450.707031 793.207031 450.121094 792.496094 449.5625 C 798.144531 447.664062 803.714844 445.539062 809.167969 443.128906 C 810.566406 446.328125 811.644531 449.644531 812.199219 453.140625 C 812.484375 455.015625 812.648438 456.929688 812.605469 458.875 C 812.554688 460.820312 812.320312 462.792969 811.847656 464.738281 C 810.894531 468.617188 808.890625 472.367188 806.074219 475.082031 C 805.410156 475.804688 804.625 476.394531 803.890625 477.015625 C 803.515625 477.320312 803.105469 477.570312 802.710938 477.84375 C 802.316406 478.105469 801.925781 478.386719 801.507812 478.597656 L 800.269531 479.261719 C 799.855469 479.484375 799.425781 479.640625 799.003906 479.828125 C 798.164062 480.210938 797.304688 480.472656 796.453125 480.757812 C 793.027344 481.789062 789.609375 482.066406 786.308594 481.980469 C 785.484375 481.945312 784.664062 481.890625 783.847656 481.820312 C 783.039062 481.71875 782.222656 481.65625 781.425781 481.507812 L 780.226562 481.308594 L 779.039062 481.066406 C 778.246094 480.914062 777.46875 480.691406 776.691406 480.492188 C 775.148438 480.0625 773.632812 479.585938 772.160156 479 C 770.683594 478.433594 769.230469 477.8125 767.824219 477.101562 C 762.707031 474.570312 758.011719 471.214844 754.105469 467.066406 C 753.359375 469.359375 752.707031 471.679688 752.160156 474.023438 C 751.394531 477.316406 750.828125 480.660156 750.371094 484.03125 C 750.113281 485.933594 749.894531 487.84375 749.6875 489.757812 C 749.585938 492.9375 749.726562 496.101562 750.195312 499.1875 C 750.6875 502.347656 751.484375 505.429688 752.683594 508.300781 C 753.878906 511.15625 755.417969 513.90625 757.304688 516.097656 C 759.191406 518.304688 761.433594 519.867188 763.765625 520.402344 C 764.953125 520.691406 766.253906 520.78125 767.648438 520.738281 C 768.34375 520.714844 769.058594 520.65625 769.796875 520.574219 C 770.164062 520.535156 770.535156 520.488281 770.914062 520.433594 C 770.914062 520.433594 770.914062 520.433594 770.917969 520.433594 C 770.9375 520.375 770.960938 520.3125 770.988281 520.230469 L 771.144531 519.792969 C 771.195312 519.632812 771.253906 519.480469 771.300781 519.320312 C 771.699219 518.058594 771.953125 516.78125 772.023438 515.570312 C 772.097656 514.359375 771.996094 513.210938 771.714844 512.21875 C 771.65625 511.964844 771.5625 511.730469 771.484375 511.496094 C 771.386719 511.269531 771.300781 511.03125 771.203125 510.851562 C 771 510.472656 770.757812 510.097656 770.472656 509.757812 C 769.914062 509.070312 769.203125 508.523438 768.539062 508.226562 C 767.867188 507.925781 767.296875 507.890625 766.890625 507.988281 C 766.300781 508.121094 765.65625 508.1875 765.023438 508.148438 C 761.496094 507.933594 758.808594 504.894531 759.023438 501.367188 C 759.238281 497.835938 762.277344 495.152344 765.804688 495.367188 L 767.214844 495.453125 C 770.136719 495.628906 772.820312 496.707031 774.941406 498.195312 C 777.074219 499.691406 778.730469 501.574219 779.960938 503.683594 C 780.574219 504.738281 781.078125 505.855469 781.460938 507.027344 C 781.65625 507.628906 781.785156 508.191406 781.921875 508.761719 C 781.996094 509.160156 782.066406 509.558594 782.128906 509.957031 C 784.289062 509.886719 786.492188 510.480469 788.414062 511.800781 L 791.386719 513.847656 C 795.757812 516.851562 798.882812 520.578125 801.058594 524.417969 C 801.59375 525.386719 802.097656 526.347656 802.53125 527.332031 C 802.964844 528.316406 803.34375 529.308594 803.695312 530.292969 L 804.171875 531.785156 C 804.304688 532.289062 804.445312 532.785156 804.566406 533.289062 C 804.816406 534.292969 805.007812 535.285156 805.167969 536.269531 C 805.644531 539.238281 805.765625 542.148438 805.667969 544.972656 Z M 771.640625 520.285156 C 771.71875 520.246094 771.570312 520.230469 771.292969 520.363281 C 771.28125 520.371094 771.269531 520.375 771.257812 520.382812 C 771.457031 520.347656 771.59375 520.3125 771.640625 520.285156 Z M 774.730469 385.535156 C 779.683594 377.828125 784.496094 369.910156 788.511719 361.53125 C 787.757812 370.6875 786.765625 379.804688 785.1875 388.820312 C 784.261719 394.015625 783.054688 399.148438 781.660156 404.222656 C 783.683594 404.863281 785.75 405.421875 787.894531 405.863281 C 787.667969 402.546875 787.300781 399.238281 786.632812 395.980469 C 787.136719 393.777344 787.605469 391.566406 788.03125 389.347656 C 789.351562 382.574219 790.359375 375.753906 791.1875 368.921875 C 791.949219 362.734375 792.582031 356.542969 793.210938 350.363281 C 794.8125 345.878906 796.117188 341.265625 796.980469 336.535156 C 798.140625 330.535156 798.445312 324.332031 798.027344 318.226562 C 797.964844 316.691406 797.734375 315.175781 797.578125 313.65625 C 797.503906 312.890625 797.359375 312.140625 797.238281 311.386719 L 796.863281 309.125 L 796.382812 306.886719 C 796.214844 306.140625 796.078125 305.386719 795.871094 304.652344 C 795.46875 303.183594 795.132812 301.691406 794.652344 300.246094 C 793.347656 295.949219 791.640625 291.804688 789.765625 287.742188 C 788.195312 288.898438 786.59375 289.992188 785 291.101562 C 785.507812 294.351562 785.738281 297.660156 785.957031 300.988281 C 786.195312 304.378906 786.335938 307.765625 786.328125 311.140625 C 786.316406 314.511719 786.152344 317.882812 785.613281 321.191406 C 785.363281 322.847656 784.992188 324.480469 784.558594 326.09375 C 784.3125 326.890625 784.105469 327.699219 783.800781 328.472656 L 783.371094 329.644531 L 782.988281 330.542969 C 782.6875 330.636719 782.4375 330.875 782.34375 331.1875 L 782.34375 331.191406 C 782.117188 331.941406 781.871094 332.683594 781.605469 333.417969 C 780.484375 335.480469 779.15625 337.433594 777.671875 339.265625 C 775.589844 341.871094 773.199219 344.234375 770.683594 346.460938 C 770.367188 346.75 770.027344 347.011719 769.703125 347.292969 C 770.292969 347.785156 770.878906 348.269531 771.449219 348.753906 C 771.6875 348.527344 771.941406 348.3125 772.179688 348.082031 C 773.152344 347.160156 774.09375 346.199219 775.019531 345.21875 C 774.265625 346.179688 773.472656 347.101562 772.648438 347.988281 C 772.335938 348.324219 771.984375 348.609375 771.664062 348.933594 C 772.875 349.96875 774.003906 351.019531 775.082031 352.09375 C 775.417969 351.660156 775.796875 351.257812 776.117188 350.816406 C 780.195312 345.160156 782.992188 338.671875 784.175781 331.957031 C 784.25 331.785156 784.328125 331.613281 784.398438 331.4375 C 785.734375 328.222656 786.628906 324.847656 787.140625 321.433594 L 787.328125 320.152344 L 787.476562 318.867188 C 787.59375 318.011719 787.640625 317.15625 787.722656 316.296875 C 787.835938 314.582031 787.917969 312.863281 787.929688 311.152344 C 787.972656 307.722656 787.828125 304.304688 787.714844 300.902344 C 787.65625 299.199219 787.582031 297.492188 787.480469 295.78125 C 787.472656 295.679688 787.464844 295.578125 787.457031 295.476562 C 788.246094 297.550781 788.960938 299.652344 789.601562 301.769531 C 790.054688 303.132812 790.367188 304.535156 790.742188 305.917969 C 790.941406 306.609375 791.0625 307.3125 791.21875 308.011719 L 791.667969 310.113281 L 792.019531 312.230469 C 792.128906 312.933594 792.277344 313.636719 792.34375 314.347656 C 792.5 315.765625 792.722656 317.179688 792.785156 318.605469 L 792.933594 320.742188 C 792.964844 321.453125 792.960938 322.164062 792.976562 322.878906 C 792.976562 323.589844 793.023438 324.304688 792.988281 325.011719 L 792.914062 327.148438 L 792.878906 328.214844 L 792.789062 329.28125 L 792.601562 331.410156 C 792.40625 332.824219 792.269531 334.246094 791.996094 335.652344 C 791.542969 338.476562 790.859375 341.269531 790.097656 344.042969 L 789.488281 346.117188 C 789.285156 346.808594 789.039062 347.488281 788.820312 348.175781 C 788.386719 349.550781 787.867188 350.902344 787.382812 352.265625 C 785.316406 357.675781 782.863281 362.96875 780.113281 368.128906 C 777.382812 373.300781 774.375 378.347656 771.296875 383.378906 C 768.914062 387.285156 766.457031 391.175781 764.03125 395.085938 C 765.066406 395.867188 766.117188 396.609375 767.175781 397.308594 C 769.675781 393.382812 772.195312 389.46875 774.730469 385.535156 Z M 738.867188 418.523438 C 739.152344 417.644531 739.265625 416.722656 739.230469 415.847656 C 739.085938 412.410156 739.023438 409.03125 739.113281 405.699219 C 739.125 404.859375 739.15625 404.027344 739.199219 403.203125 C 739.238281 402.375 739.269531 401.542969 739.332031 400.722656 C 739.445312 399.074219 739.597656 397.441406 739.78125 395.808594 C 740.558594 389.316406 742.109375 382.96875 744.929688 377.167969 C 745.300781 376.457031 745.644531 375.71875 746.039062 375.019531 C 746.441406 374.324219 746.863281 373.636719 747.277344 372.941406 C 748.101562 371.671875 748.992188 370.429688 749.9375 369.214844 C 750.019531 369.183594 750.097656 369.15625 750.179688 369.128906 C 753.457031 367.960938 756.796875 366.648438 760.019531 364.933594 C 765.996094 361.757812 771.070312 357.277344 775.082031 352.09375 C 774.003906 351.019531 772.875 349.96875 771.664062 348.933594 C 769.664062 350.949219 767.519531 352.792969 765.199219 354.355469 C 766.265625 353.433594 767.328125 352.507812 768.382812 351.5625 C 769.414062 350.644531 770.4375 349.703125 771.449219 348.753906 C 770.878906 348.269531 770.292969 347.785156 769.703125 347.292969 C 767.480469 349.21875 765.171875 351.054688 762.828125 352.863281 C 760.148438 354.953125 757.394531 356.976562 754.710938 359.136719 C 754.539062 359.277344 754.367188 359.417969 754.195312 359.554688 C 749.132812 361.113281 743.652344 361.992188 737.945312 363.273438 C 734.535156 364.046875 731.011719 364.96875 727.460938 366.402344 C 723.925781 367.824219 720.339844 369.8125 717.195312 372.5625 L 717.046875 372.695312 C 714.53125 374.894531 714.277344 378.71875 716.476562 381.234375 C 718.679688 383.75 722.503906 384.007812 725.019531 381.804688 C 725.214844 381.636719 725.417969 381.429688 725.582031 381.242188 C 727.300781 379.289062 729.492188 377.613281 732.0625 376.175781 C 734.625 374.738281 737.535156 373.542969 740.601562 372.433594 C 740.921875 372.320312 741.246094 372.207031 741.570312 372.09375 C 741.019531 372.804688 740.527344 373.546875 740.003906 374.277344 C 735.957031 380.246094 733.027344 386.90625 730.648438 393.632812 C 730.070312 395.316406 729.480469 397.003906 728.957031 398.695312 C 728.40625 400.382812 727.890625 402.082031 727.378906 403.765625 C 726.367188 407.144531 725.359375 410.507812 724.292969 413.808594 L 724.289062 413.820312 C 722.988281 417.847656 725.199219 422.164062 729.226562 423.460938 C 733.253906 424.761719 737.570312 422.550781 738.867188 418.523438 Z M 792.210938 285.855469 C 793.40625 289.277344 794.179688 292.832031 794.339844 296.445312 C 796.484375 294.179688 797.910156 291.265625 798.371094 288.203125 C 800.605469 290.402344 801.894531 293.492188 801.867188 296.582031 C 801.851562 298.265625 801.46875 300 801.996094 301.609375 C 802.398438 302.851562 803.296875 303.871094 804.113281 304.898438 C 813.566406 316.828125 813.625 333.21875 813.253906 348.265625 C 820.832031 325.253906 815.082031 298.707031 799.613281 279.855469 C 797.1875 281.9375 794.722656 283.941406 792.210938 285.855469 Z M 787.765625 268.433594 C 783.167969 264.96875 777.976562 261.988281 772.40625 260.625 C 771.503906 259.570312 770.617188 258.507812 769.699219 257.46875 C 768.695312 256.355469 767.714844 255.214844 766.683594 254.128906 C 762.601562 249.734375 758.328125 245.542969 753.941406 241.5 C 749.546875 237.464844 745.042969 233.574219 740.5 229.75 C 739.613281 228.859375 738.640625 228.039062 737.585938 227.316406 C 734 224.324219 730.386719 221.347656 726.597656 218.507812 C 723.761719 216.378906 720.816406 214.347656 717.746094 212.496094 C 715.246094 209.910156 712.984375 207.109375 710.957031 204.15625 C 708.519531 200.566406 706.476562 196.722656 704.980469 192.695312 C 703.511719 188.65625 702.386719 184.464844 702.414062 180.460938 C 702.417969 178.449219 702.75 176.566406 703.398438 174.738281 C 704.066406 172.921875 705.03125 171.226562 706.214844 169.710938 C 708.582031 166.683594 711.839844 164.371094 715.328125 163.347656 C 717.054688 162.820312 718.847656 162.609375 720.535156 162.71875 C 722.214844 162.8125 723.605469 163.34375 724.351562 164.03125 C 724.742188 164.367188 725.078125 164.816406 725.414062 165.378906 C 725.75 165.941406 726.058594 166.664062 726.34375 167.472656 C 726.628906 168.285156 726.878906 169.214844 727.140625 170.210938 L 727.519531 171.734375 C 727.636719 172.21875 727.730469 172.667969 727.796875 173.070312 C 727.929688 173.875 727.921875 174.488281 727.820312 174.824219 C 727.777344 174.996094 727.710938 175.085938 727.648438 175.191406 L 727.363281 175.574219 C 727.238281 175.730469 727.074219 175.921875 726.875 176.132812 C 726.671875 176.34375 726.417969 176.585938 726.140625 176.839844 C 725.570312 177.351562 724.855469 177.933594 724.027344 178.597656 C 721.242188 180.828125 720.796875 184.894531 723.027344 187.679688 C 725.257812 190.464844 729.324219 190.914062 732.109375 188.679688 C 732.394531 188.453125 732.65625 188.203125 732.890625 187.941406 L 732.945312 187.878906 C 733.703125 187.015625 734.566406 186.050781 735.441406 184.898438 C 736.3125 183.742188 737.21875 182.386719 737.945312 180.71875 C 738.300781 179.878906 738.601562 178.96875 738.804688 178.007812 C 739 177.039062 739.089844 176.03125 739.066406 175.101562 C 739.019531 173.230469 738.617188 171.652344 738.191406 170.328125 C 737.972656 169.664062 737.746094 169.054688 737.519531 168.492188 L 736.855469 166.882812 C 736.394531 165.792969 735.898438 164.644531 735.269531 163.449219 C 734.644531 162.253906 733.914062 161.015625 732.925781 159.808594 C 731.941406 158.617188 730.714844 157.457031 729.253906 156.59375 C 727.796875 155.714844 726.234375 155.195312 724.746094 154.914062 C 723.25 154.640625 721.8125 154.585938 720.441406 154.671875 C 717.71875 154.84375 715.121094 155.519531 712.738281 156.578125 C 707.972656 158.707031 704.097656 162.226562 701.472656 166.460938 C 700.171875 168.585938 699.175781 170.894531 698.585938 173.3125 C 697.984375 175.710938 697.804688 178.269531 698.039062 180.664062 C 698.257812 183.070312 698.816406 185.378906 699.539062 187.570312 C 700.261719 189.773438 701.15625 191.839844 702.101562 193.90625 C 704.023438 198.011719 706.339844 201.882812 708.871094 205.578125 C 709.660156 206.746094 710.484375 207.882812 711.316406 209.015625 C 711.269531 208.992188 711.222656 208.96875 711.175781 208.945312 C 705.683594 206.347656 699.996094 204.347656 694.210938 202.699219 C 688.425781 201.0625 682.527344 199.828125 676.554688 199.046875 C 670.582031 198.285156 664.523438 197.980469 658.464844 198.375 C 652.417969 198.78125 646.316406 199.886719 640.59375 202.292969 L 638.476562 203.257812 C 637.789062 203.621094 637.09375 203.96875 636.414062 204.351562 C 635.054688 205.136719 633.75 206.039062 632.515625 207.039062 C 630.058594 209.042969 627.964844 211.558594 626.472656 214.382812 C 624.976562 217.210938 624.101562 220.304688 623.703125 223.398438 C 623.3125 226.484375 623.394531 229.617188 623.5625 232.554688 C 623.585938 232.9375 623.582031 233.230469 623.617188 233.667969 C 623.648438 234.074219 623.652344 234.480469 623.71875 234.882812 C 623.8125 235.691406 623.96875 236.492188 624.167969 237.277344 C 624.566406 238.851562 625.175781 240.359375 625.945312 241.773438 C 627.484375 244.605469 629.648438 247.050781 632.195312 248.992188 C 633.464844 249.96875 634.839844 250.820312 636.292969 251.523438 C 637.742188 252.230469 639.277344 252.796875 640.871094 253.179688 C 642.464844 253.5625 644.117188 253.785156 645.796875 253.777344 C 647.472656 253.769531 649.167969 253.550781 650.820312 253.105469 C 652.46875 252.644531 654.070312 251.96875 655.5625 251.105469 C 657.042969 250.226562 658.425781 249.175781 659.671875 247.980469 C 662.152344 245.582031 664.117188 242.664062 665.496094 239.433594 C 666.871094 236.203125 667.703125 232.640625 667.726562 228.839844 C 667.757812 225.050781 666.90625 220.976562 664.910156 217.117188 L 664.066406 215.480469 C 662.160156 211.792969 657.625 210.34375 653.9375 212.25 C 650.25 214.15625 648.804688 218.691406 650.707031 222.378906 C 651.417969 223.753906 652.492188 224.816406 653.753906 225.511719 C 655.335938 226.382812 656.625 228.042969 657.371094 230.121094 C 658.117188 232.195312 658.3125 234.652344 657.925781 237.0625 C 657.53125 239.476562 656.582031 241.863281 655.101562 243.867188 C 654.367188 244.867188 653.503906 245.78125 652.523438 246.542969 C 652.039062 246.925781 651.527344 247.28125 650.988281 247.589844 C 650.71875 247.742188 650.445312 247.902344 650.160156 248.023438 C 649.878906 248.152344 649.597656 248.292969 649.300781 248.394531 C 646.976562 249.324219 644.324219 249.523438 641.722656 249.09375 C 639.113281 248.664062 636.5625 247.601562 634.328125 246.066406 C 632.09375 244.527344 630.167969 242.511719 628.824219 240.171875 C 628.148438 239.003906 627.628906 237.753906 627.28125 236.464844 C 627.101562 235.820312 626.984375 235.164062 626.902344 234.503906 C 626.847656 234.175781 626.847656 233.839844 626.820312 233.507812 C 626.792969 233.207031 626.789062 232.761719 626.765625 232.402344 C 626.6875 230.910156 626.621094 229.484375 626.632812 228.058594 C 626.660156 226.636719 626.761719 225.226562 626.960938 223.84375 C 627.367188 221.078125 628.1875 218.40625 629.511719 216.019531 C 630.828125 213.636719 632.628906 211.542969 634.785156 209.847656 C 635.867188 209.003906 637.015625 208.238281 638.230469 207.566406 L 640.101562 206.601562 L 642.027344 205.742188 C 647.257812 203.601562 652.96875 202.570312 658.710938 202.21875 C 664.464844 201.871094 670.28125 202.1875 676.039062 202.949219 C 681.800781 203.734375 687.511719 204.957031 693.101562 206.570312 C 698.691406 208.1875 704.175781 210.207031 709.363281 212.71875 C 714.515625 215.226562 719.347656 218.441406 723.972656 221.984375 C 728.597656 225.519531 733.074219 229.371094 737.558594 233.207031 C 739.175781 234.59375 740.777344 235.992188 742.371094 237.394531 C 743.574219 239.429688 744.550781 241.636719 745.355469 243.914062 C 747.390625 249.824219 748.746094 256.0625 748.742188 262.300781 C 748.757812 265.417969 748.390625 268.523438 747.664062 271.53125 C 746.921875 274.535156 745.738281 277.417969 744.226562 280.125 C 741.167969 285.511719 736.84375 290.246094 731.574219 293.382812 C 730.25 294.144531 728.894531 294.847656 727.476562 295.390625 C 727.128906 295.542969 726.765625 295.640625 726.410156 295.769531 C 726.050781 295.894531 725.695312 296.019531 725.332031 296.105469 L 724.242188 296.398438 L 723.140625 296.617188 C 721.667969 296.863281 720.179688 297.019531 718.703125 296.9375 L 718.148438 296.925781 L 717.601562 296.859375 L 716.511719 296.734375 C 716.152344 296.679688 715.796875 296.582031 715.4375 296.507812 C 715.082031 296.417969 714.71875 296.375 714.375 296.242188 C 711.570312 295.398438 708.929688 293.953125 706.726562 292.007812 C 704.53125 290.058594 702.722656 287.679688 701.53125 285.054688 L 701.121094 284.058594 C 701.054688 283.894531 700.976562 283.730469 700.917969 283.5625 L 700.765625 283.046875 L 700.449219 282.027344 L 700.234375 280.988281 C 700.054688 280.300781 700.035156 279.59375 699.960938 278.894531 C 699.914062 278.546875 699.960938 278.195312 699.972656 277.84375 C 699.996094 277.496094 699.988281 277.148438 700.035156 276.800781 C 700.414062 274.019531 701.75 271.425781 703.570312 269.414062 C 704.515625 268.425781 705.449219 267.496094 706.515625 266.75 C 707.527344 265.949219 708.613281 265.320312 709.644531 264.710938 C 710.730469 264.195312 711.746094 263.648438 712.789062 263.261719 C 713.046875 263.160156 713.292969 263.011719 713.554688 262.929688 C 713.8125 262.84375 714.066406 262.742188 714.320312 262.632812 C 714.570312 262.507812 714.828125 262.429688 715.082031 262.332031 C 715.335938 262.226562 715.589844 262.121094 715.84375 261.976562 L 717.046875 261.292969 C 719.839844 259.703125 720.8125 256.152344 719.226562 253.363281 C 718.066406 251.324219 715.847656 250.253906 713.652344 250.449219 C 711.550781 250.636719 709.46875 251.21875 707.613281 252.167969 C 705.71875 253.0625 704.074219 254.335938 702.585938 255.707031 C 699.65625 258.523438 697.652344 262.039062 696.457031 265.65625 C 696.308594 266.113281 696.195312 266.582031 696.066406 267.035156 C 695.945312 267.496094 695.796875 267.9375 695.726562 268.410156 C 695.546875 269.339844 695.339844 270.238281 695.257812 271.171875 C 695.210938 271.636719 695.132812 272.085938 695.09375 272.542969 C 695.078125 273.007812 695.050781 273.464844 695.023438 273.921875 L 694.984375 274.601562 L 694.996094 275.289062 L 695.015625 276.652344 C 695.023438 277.101562 695.082031 277.554688 695.117188 278.007812 L 695.175781 278.679688 L 695.203125 279.015625 L 695.261719 279.351562 C 695.417969 280.234375 695.507812 281.132812 695.765625 281.992188 C 695.882812 282.421875 695.988281 282.855469 696.109375 283.285156 L 696.566406 284.535156 L 696.796875 285.160156 C 696.875 285.367188 696.980469 285.5625 697.070312 285.765625 L 697.640625 286.960938 C 700.921875 293.1875 706.734375 297.878906 713.488281 299.570312 C 713.902344 299.703125 714.339844 299.746094 714.761719 299.832031 C 715.191406 299.902344 715.617188 299.996094 716.046875 300.042969 L 717.347656 300.152344 L 717.996094 300.203125 L 718.640625 300.199219 C 720.367188 300.230469 722.078125 300 723.746094 299.65625 C 727.085938 298.941406 730.207031 297.542969 733.046875 295.785156 C 734.449219 294.878906 735.800781 293.898438 737.066406 292.820312 C 738.316406 291.730469 739.53125 290.597656 740.636719 289.363281 C 742.871094 286.914062 744.773438 284.207031 746.371094 281.316406 C 747.960938 278.425781 749.203125 275.324219 749.976562 272.105469 C 750.761719 268.890625 751.140625 265.59375 751.148438 262.308594 C 751.191406 259.019531 750.835938 255.753906 750.304688 252.53125 C 750.023438 250.921875 749.695312 249.320312 749.296875 247.742188 C 748.90625 246.15625 748.464844 244.589844 747.953125 243.027344 C 747.851562 242.722656 747.75 242.417969 747.644531 242.113281 C 748.675781 243.058594 749.703125 244.003906 750.722656 244.960938 C 754.996094 248.984375 759.136719 253.128906 763.0625 257.449219 C 770.941406 266.058594 777.902344 275.472656 783.164062 285.761719 C 783.644531 286.714844 784.109375 287.679688 784.5625 288.644531 C 784.710938 289.398438 784.847656 290.15625 784.976562 290.917969 C 784.988281 290.976562 784.988281 291.039062 785 291.101562 C 786.59375 289.992188 788.195312 288.898438 789.765625 287.742188 C 789.101562 286.292969 788.488281 284.820312 787.757812 283.402344 C 784.960938 278.027344 781.730469 272.890625 778.175781 268.019531 C 777.535156 267.113281 776.859375 266.242188 776.183594 265.363281 C 783.664062 270.175781 789.316406 277.570312 792.210938 285.855469 C 794.722656 283.941406 797.1875 281.9375 799.613281 279.855469 C 796.136719 275.617188 792.179688 271.761719 787.765625 268.433594 Z M 795.753906 252.460938 C 797.652344 252.460938 799.1875 250.921875 799.1875 249.027344 L 799.1875 42.914062 C 799.1875 41.015625 797.652344 39.480469 795.753906 39.480469 C 793.855469 39.480469 792.320312 41.015625 792.320312 42.914062 L 792.320312 249.027344 C 792.320312 250.921875 793.855469 252.460938 795.753906 252.460938 Z M 795.753906 602.492188 C 793.855469 602.492188 792.320312 604.03125 792.320312 605.925781 L 792.320312 806.5625 C 792.320312 808.460938 793.855469 810 795.753906 810 C 797.652344 810 799.1875 808.460938 799.1875 806.5625 L 799.1875 605.925781 C 799.1875 604.03125 797.652344 602.492188 795.753906 602.492188 Z M 258.183594 62.628906 C 255.398438 60.832031 252.800781 58.765625 250.585938 56.386719 C 248.375 54.015625 246.535156 51.300781 245.378906 48.371094 C 244.21875 45.433594 243.683594 42.238281 243.949219 39.160156 C 244.078125 37.621094 244.414062 36.113281 244.957031 34.703125 C 245.09375 34.351562 245.226562 33.996094 245.402344 33.664062 L 245.648438 33.15625 C 245.730469 32.988281 245.839844 32.828125 245.933594 32.664062 C 246.132812 32.34375 246.304688 32.007812 246.527344 31.699219 L 247.195312 30.78125 C 248.148438 29.597656 249.261719 28.535156 250.496094 27.597656 C 251.746094 26.679688 253.125 25.90625 254.566406 25.25 C 257.46875 23.957031 260.652344 23.199219 263.875 22.835938 C 270.339844 22.15625 277.160156 22.730469 282.4375 25.371094 C 283.097656 25.691406 283.726562 26.0625 284.316406 26.433594 C 284.609375 26.628906 284.894531 26.839844 285.179688 27.039062 L 286.003906 27.679688 C 286.265625 27.910156 286.53125 28.125 286.777344 28.359375 C 287.019531 28.605469 287.269531 28.835938 287.492188 29.085938 C 287.945312 29.585938 288.382812 30.074219 288.746094 30.617188 C 290.242188 32.722656 290.960938 35.089844 290.601562 37.058594 C 290.476562 37.742188 290.429688 38.4375 290.441406 39.136719 C 294.414062 34.210938 298.648438 29.488281 303.339844 25.117188 C 301.328125 23.195312 299.1875 21.59375 296.988281 20.347656 C 296.019531 19.8125 295.054688 19.308594 294.074219 18.875 C 293.089844 18.441406 292.097656 18.0625 291.113281 17.707031 L 289.621094 17.234375 C 289.117188 17.101562 288.621094 16.960938 288.117188 16.839844 C 287.113281 16.589844 286.121094 16.394531 285.136719 16.238281 C 281.191406 15.605469 277.355469 15.59375 273.675781 15.902344 C 271.835938 16.054688 270.027344 16.296875 268.25 16.585938 C 266.480469 16.886719 264.707031 17.214844 262.941406 17.644531 C 259.425781 18.496094 255.960938 19.648438 252.675781 21.3125 C 251.039062 22.164062 249.445312 23.117188 247.960938 24.269531 C 246.484375 25.433594 245.125 26.773438 243.960938 28.285156 L 243.136719 29.460938 C 242.871094 29.855469 242.652344 30.285156 242.410156 30.695312 C 242.296875 30.90625 242.167969 31.109375 242.066406 31.324219 L 241.761719 31.980469 C 241.550781 32.410156 241.386719 32.863281 241.222656 33.3125 C 240.566406 35.113281 240.195312 36.992188 240.070312 38.871094 C 239.828125 42.632812 240.546875 46.359375 241.964844 49.765625 C 243.398438 53.191406 245.550781 56.195312 248.054688 58.789062 C 250.566406 61.378906 253.425781 63.550781 256.429688 65.410156 C 257.183594 65.871094 257.941406 66.328125 258.71875 66.738281 L 261.0625 67.949219 L 262.234375 68.550781 C 262.628906 68.746094 263.035156 68.90625 263.4375 69.085938 L 265.855469 70.128906 L 266.457031 70.386719 L 267.078125 70.609375 L 267.605469 70.796875 C 268.222656 69.9375 268.847656 69.074219 269.460938 68.210938 C 265.527344 66.695312 261.734375 64.835938 258.183594 62.628906 Z M 354.867188 46.417969 C 359.246094 46.554688 363.613281 46.828125 367.984375 47.113281 C 368.128906 45.703125 368.261719 44.292969 368.378906 42.878906 C 364.425781 43.363281 360.492188 43.996094 356.621094 44.929688 C 355.804688 45.125 354.796875 45.582031 354.867188 46.417969 Z M 420.9375 56.257812 C 418.445312 57.828125 415.933594 59.359375 413.40625 60.855469 C 410.875 62.34375 408.308594 63.757812 405.722656 65.128906 C 400.523438 67.804688 395.226562 70.34375 389.746094 71.9375 C 387.003906 72.730469 384.222656 73.277344 381.4375 73.480469 C 380.046875 73.566406 378.660156 73.554688 377.28125 73.46875 C 375.910156 73.351562 374.550781 73.152344 373.210938 72.847656 C 370.164062 72.152344 367.28125 70.886719 364.613281 69.246094 C 364.285156 70.789062 363.921875 72.332031 363.550781 73.878906 C 364.910156 74.570312 366.3125 75.179688 367.75 75.699219 C 369.242188 76.222656 370.773438 76.648438 372.324219 76.972656 C 373.878906 77.28125 375.457031 77.464844 377.039062 77.554688 C 378.617188 77.613281 380.191406 77.574219 381.753906 77.433594 C 384.867188 77.152344 387.910156 76.488281 390.835938 75.585938 C 393.761719 74.671875 396.59375 73.5625 399.339844 72.328125 C 402.097656 71.101562 404.753906 69.738281 407.421875 68.375 C 412.710938 65.585938 417.863281 62.578125 422.933594 59.480469 C 425.277344 58.050781 427.582031 56.605469 429.898438 55.15625 C 429.375 53.945312 428.828125 52.75 428.257812 51.5625 C 425.820312 53.128906 423.382812 54.71875 420.9375 56.257812 Z M 666.492188 96.660156 C 666.210938 95.171875 665.691406 93.609375 664.8125 92.152344 C 663.949219 90.691406 662.789062 89.464844 661.59375 88.480469 C 660.390625 87.492188 659.152344 86.761719 657.957031 86.136719 C 656.761719 85.507812 655.613281 85.011719 654.523438 84.550781 L 652.914062 83.886719 C 652.351562 83.660156 651.742188 83.429688 651.078125 83.214844 C 649.753906 82.789062 648.175781 82.386719 646.304688 82.339844 C 645.375 82.316406 644.367188 82.40625 643.398438 82.601562 C 642.4375 82.804688 641.527344 83.105469 640.6875 83.460938 C 639.019531 84.1875 637.664062 85.09375 636.507812 85.964844 C 635.355469 86.839844 634.390625 87.699219 633.527344 88.460938 L 633.464844 88.515625 C 633.203125 88.75 632.953125 89.011719 632.726562 89.296875 C 630.492188 92.078125 630.941406 96.148438 633.726562 98.378906 C 636.507812 100.609375 640.574219 100.164062 642.808594 97.378906 C 643.472656 96.550781 644.050781 95.835938 644.566406 95.265625 C 644.820312 94.988281 645.058594 94.734375 645.273438 94.53125 C 645.484375 94.332031 645.675781 94.167969 645.832031 94.042969 L 646.214844 93.757812 C 646.320312 93.695312 646.410156 93.628906 646.582031 93.582031 C 646.917969 93.480469 647.53125 93.476562 648.335938 93.609375 C 648.738281 93.675781 649.183594 93.769531 649.671875 93.882812 L 651.195312 94.265625 C 652.191406 94.523438 653.121094 94.777344 653.933594 95.058594 C 654.742188 95.347656 655.464844 95.65625 656.027344 95.988281 C 656.589844 96.328125 657.039062 96.664062 657.375 97.054688 C 658.0625 97.800781 658.59375 99.191406 658.6875 100.867188 C 658.792969 102.554688 658.585938 104.351562 658.058594 106.078125 C 657.035156 109.566406 654.722656 112.824219 651.695312 115.191406 C 650.179688 116.375 648.480469 117.339844 646.667969 118.003906 C 644.839844 118.65625 642.957031 118.984375 640.945312 118.992188 C 636.941406 119.019531 632.75 117.894531 628.710938 116.425781 C 624.683594 114.929688 620.835938 112.886719 617.25 110.449219 C 614.296875 108.421875 611.496094 106.160156 608.910156 103.660156 C 607.058594 100.589844 605.027344 97.644531 602.898438 94.808594 C 600.058594 91.019531 597.082031 87.402344 594.089844 83.816406 C 593.367188 82.765625 592.546875 81.792969 591.65625 80.90625 C 587.832031 76.363281 583.9375 71.859375 579.90625 67.464844 C 575.863281 63.078125 571.671875 58.804688 567.277344 54.722656 C 566.191406 53.691406 565.050781 52.710938 563.9375 51.707031 C 562.898438 50.789062 561.832031 49.902344 560.777344 49 C 559.417969 43.429688 556.4375 38.238281 552.972656 33.640625 C 550.628906 30.535156 548.023438 27.660156 545.214844 25.015625 C 544.410156 27.421875 543.71875 30.003906 542.984375 32.648438 C 548.1875 35.78125 552.730469 40.070312 556.039062 45.21875 C 555.164062 44.546875 554.292969 43.867188 553.386719 43.230469 C 549.753906 40.578125 545.925781 38.183594 542.011719 35.941406 C 541.496094 37.582031 540.890625 39.207031 540.195312 40.804688 C 548.710938 45.691406 556.644531 51.648438 563.957031 58.34375 C 568.277344 62.269531 572.421875 66.40625 576.445312 70.683594 C 577.402344 71.703125 578.347656 72.730469 579.292969 73.761719 C 578.988281 73.65625 578.683594 73.550781 578.375 73.453125 C 576.816406 72.941406 575.246094 72.5 573.664062 72.109375 C 572.082031 71.710938 570.480469 71.382812 568.875 71.101562 C 565.652344 70.570312 562.382812 70.214844 559.097656 70.257812 C 555.8125 70.265625 552.515625 70.640625 549.300781 71.429688 C 546.082031 72.203125 542.980469 73.445312 540.089844 75.035156 C 537.199219 76.632812 534.492188 78.53125 532.042969 80.769531 C 530.808594 81.871094 529.675781 83.089844 528.582031 84.339844 C 527.507812 85.605469 526.527344 86.957031 525.621094 88.359375 C 523.863281 91.199219 522.464844 94.320312 521.75 97.660156 C 521.40625 99.328125 521.175781 101.039062 521.207031 102.761719 L 521.203125 103.410156 L 521.253906 104.058594 L 521.363281 105.359375 C 521.40625 105.789062 521.503906 106.214844 521.574219 106.640625 C 521.660156 107.066406 521.703125 107.503906 521.835938 107.917969 C 523.523438 114.671875 528.21875 120.484375 534.445312 123.765625 L 535.640625 124.335938 C 535.84375 124.425781 536.039062 124.53125 536.246094 124.609375 L 536.867188 124.839844 L 538.121094 125.296875 C 538.550781 125.417969 538.984375 125.523438 539.414062 125.636719 C 540.273438 125.898438 541.167969 125.988281 542.054688 126.144531 L 542.390625 126.203125 L 542.726562 126.230469 L 543.398438 126.289062 C 543.847656 126.320312 544.304688 126.382812 544.753906 126.390625 L 546.117188 126.410156 L 546.800781 126.421875 L 547.484375 126.382812 C 547.9375 126.355469 548.398438 126.328125 548.863281 126.3125 C 549.320312 126.273438 549.769531 126.195312 550.234375 126.148438 C 551.167969 126.066406 552.066406 125.859375 552.996094 125.679688 C 553.46875 125.609375 553.910156 125.460938 554.371094 125.339844 C 554.824219 125.210938 555.292969 125.097656 555.746094 124.949219 C 559.367188 123.753906 562.882812 121.75 565.695312 118.820312 C 567.070312 117.332031 568.34375 115.6875 569.238281 113.792969 C 570.1875 111.9375 570.769531 109.855469 570.957031 107.75 C 571.152344 105.554688 570.082031 103.339844 568.042969 102.179688 C 565.25 100.589844 561.703125 101.566406 560.113281 104.355469 L 559.425781 105.5625 C 559.285156 105.816406 559.175781 106.070312 559.074219 106.324219 C 558.976562 106.578125 558.898438 106.835938 558.773438 107.085938 C 558.660156 107.339844 558.5625 107.59375 558.476562 107.851562 C 558.394531 108.113281 558.246094 108.355469 558.144531 108.617188 C 557.757812 109.660156 557.210938 110.675781 556.691406 111.761719 C 556.085938 112.792969 555.453125 113.878906 554.65625 114.890625 C 553.910156 115.953125 552.980469 116.890625 551.992188 117.835938 C 549.980469 119.65625 547.386719 120.992188 544.605469 121.371094 C 544.257812 121.417969 543.910156 121.410156 543.558594 121.433594 C 543.210938 121.441406 542.859375 121.492188 542.511719 121.445312 C 541.8125 121.371094 541.105469 121.351562 540.417969 121.171875 L 539.378906 120.957031 L 538.355469 120.640625 L 537.84375 120.484375 C 537.675781 120.429688 537.511719 120.351562 537.347656 120.285156 L 536.347656 119.875 C 533.726562 118.683594 531.347656 116.871094 529.398438 114.679688 C 527.453125 112.476562 526.007812 109.835938 525.164062 107.03125 C 525.03125 106.6875 524.988281 106.324219 524.898438 105.96875 C 524.824219 105.609375 524.722656 105.253906 524.671875 104.894531 L 524.546875 103.804688 L 524.480469 103.257812 L 524.46875 102.703125 C 524.386719 101.226562 524.542969 99.738281 524.789062 98.265625 L 525.007812 97.164062 L 525.300781 96.074219 C 525.386719 95.707031 525.511719 95.351562 525.636719 94.996094 C 525.765625 94.640625 525.863281 94.277344 526.015625 93.929688 C 526.554688 92.511719 527.261719 91.15625 528.019531 89.832031 C 531.160156 84.5625 535.894531 80.238281 541.28125 77.175781 C 543.988281 75.664062 546.871094 74.484375 549.875 73.742188 C 552.882812 73.015625 555.988281 72.648438 559.105469 72.664062 C 565.34375 72.660156 571.578125 74.015625 577.492188 76.050781 C 579.769531 76.855469 581.976562 77.832031 584.011719 79.035156 C 585.414062 80.628906 586.8125 82.230469 588.199219 83.84375 C 592.035156 88.332031 595.886719 92.808594 599.421875 97.433594 C 602.960938 102.058594 606.175781 106.890625 608.6875 112.039062 C 611.199219 117.230469 613.21875 122.714844 614.835938 128.304688 C 616.449219 133.894531 617.671875 139.605469 618.453125 145.363281 C 619.21875 151.125 619.535156 156.941406 619.1875 162.695312 C 618.835938 168.4375 617.804688 174.144531 615.664062 179.378906 L 614.804688 181.304688 L 613.839844 183.175781 C 613.164062 184.386719 612.402344 185.539062 611.558594 186.621094 C 609.863281 188.773438 607.769531 190.578125 605.382812 191.894531 C 603 193.21875 600.328125 194.039062 597.5625 194.445312 C 596.179688 194.644531 594.769531 194.746094 593.347656 194.773438 C 591.917969 194.785156 590.496094 194.714844 589 194.640625 C 588.644531 194.617188 588.199219 194.613281 587.894531 194.585938 C 587.566406 194.558594 587.230469 194.558594 586.902344 194.503906 C 586.242188 194.421875 585.585938 194.304688 584.941406 194.125 C 583.652344 193.777344 582.402344 193.257812 581.234375 192.582031 C 578.894531 191.238281 576.878906 189.3125 575.335938 187.078125 C 573.804688 184.84375 572.742188 182.289062 572.3125 179.683594 C 571.882812 177.082031 572.082031 174.429688 573.011719 172.101562 C 573.113281 171.808594 573.253906 171.527344 573.382812 171.246094 C 573.503906 170.957031 573.664062 170.6875 573.816406 170.417969 C 574.125 169.878906 574.480469 169.367188 574.863281 168.878906 C 575.625 167.898438 576.539062 167.039062 577.539062 166.304688 C 579.542969 164.824219 581.929688 163.875 584.34375 163.480469 C 586.753906 163.09375 589.210938 163.289062 591.285156 164.035156 C 593.359375 164.78125 595.023438 166.070312 595.894531 167.652344 C 596.589844 168.914062 597.652344 169.988281 599.027344 170.699219 C 602.714844 172.601562 607.25 171.15625 609.15625 167.46875 C 611.058594 163.78125 609.613281 159.246094 605.925781 157.339844 L 604.285156 156.496094 C 600.429688 154.5 596.355469 153.648438 592.566406 153.679688 C 588.765625 153.703125 585.203125 154.535156 581.96875 155.910156 C 578.742188 157.289062 575.824219 159.253906 573.425781 161.734375 C 572.230469 162.980469 571.179688 164.363281 570.300781 165.84375 C 569.433594 167.335938 568.757812 168.9375 568.300781 170.585938 C 567.851562 172.238281 567.636719 173.933594 567.628906 175.609375 C 567.621094 177.285156 567.84375 178.941406 568.222656 180.535156 C 568.609375 182.128906 569.175781 183.664062 569.882812 185.113281 C 570.585938 186.566406 571.4375 187.941406 572.414062 189.210938 C 574.355469 191.753906 576.800781 193.921875 579.632812 195.460938 C 581.046875 196.226562 582.554688 196.839844 584.128906 197.238281 C 584.914062 197.4375 585.714844 197.59375 586.523438 197.6875 C 586.925781 197.753906 587.332031 197.757812 587.738281 197.789062 C 588.175781 197.824219 588.46875 197.820312 588.847656 197.84375 C 591.789062 198.007812 594.921875 198.09375 598.007812 197.703125 C 601.097656 197.304688 604.195312 196.429688 607.019531 194.929688 C 609.847656 193.441406 612.359375 191.347656 614.367188 188.890625 C 615.367188 187.65625 616.265625 186.351562 617.054688 184.992188 C 617.4375 184.3125 617.78125 183.617188 618.148438 182.929688 L 619.113281 180.8125 C 621.515625 175.089844 622.625 168.988281 623.03125 162.941406 C 623.425781 156.878906 623.121094 150.824219 622.359375 144.851562 C 621.578125 138.878906 620.34375 132.980469 618.707031 127.195312 C 617.058594 121.410156 615.058594 115.71875 612.460938 110.230469 C 612.4375 110.183594 612.414062 110.136719 612.390625 110.089844 C 613.519531 110.921875 614.660156 111.746094 615.828125 112.535156 C 619.523438 115.066406 623.394531 117.382812 627.5 119.304688 C 629.566406 120.25 631.632812 121.144531 633.835938 121.867188 C 636.027344 122.589844 638.335938 123.148438 640.742188 123.367188 C 643.136719 123.601562 645.695312 123.421875 648.09375 122.820312 C 650.511719 122.230469 652.820312 121.234375 654.945312 119.929688 C 659.179688 117.308594 662.699219 113.433594 664.824219 108.667969 C 665.886719 106.285156 666.5625 103.6875 666.734375 100.964844 C 666.816406 99.59375 666.765625 98.15625 666.492188 96.660156 Z M 538.003906 33.648438 C 532.613281 30.878906 526.988281 28.523438 521.160156 26.753906 C 519.710938 26.273438 518.222656 25.9375 516.75 25.535156 C 516.019531 25.328125 515.265625 25.191406 514.519531 25.023438 L 512.28125 24.542969 L 510.019531 24.167969 C 509.265625 24.046875 508.515625 23.898438 507.75 23.828125 C 506.226562 23.671875 504.714844 23.441406 503.179688 23.378906 C 497.074219 22.960938 490.871094 23.265625 484.871094 24.425781 C 480.140625 25.285156 475.527344 26.59375 471.042969 28.195312 C 464.863281 28.824219 458.671875 29.453125 452.484375 30.21875 C 445.652344 31.046875 438.832031 32.054688 432.054688 33.375 C 429.839844 33.800781 427.628906 34.269531 425.425781 34.773438 C 423.726562 34.425781 422.003906 34.203125 420.28125 33.976562 C 420.792969 35.492188 421.355469 36.980469 421.976562 38.445312 C 425.488281 37.601562 429.023438 36.851562 432.582031 36.21875 C 441.601562 34.640625 450.71875 33.648438 459.875 32.894531 C 451.496094 36.910156 443.574219 41.722656 435.871094 46.675781 C 433.328125 48.316406 430.792969 49.929688 428.257812 51.5625 C 428.828125 52.75 429.375 53.945312 429.898438 55.15625 C 432.601562 53.460938 435.3125 51.765625 438.027344 50.109375 C 443.058594 47.03125 448.105469 44.023438 453.277344 41.292969 C 458.4375 38.542969 463.730469 36.089844 469.140625 34.023438 C 470.503906 33.539062 471.855469 33.019531 473.230469 32.585938 C 473.917969 32.367188 474.597656 32.121094 475.289062 31.917969 L 477.359375 31.308594 C 480.136719 30.546875 482.929688 29.863281 485.753906 29.410156 C 487.160156 29.136719 488.582031 29 489.996094 28.800781 L 492.125 28.617188 L 493.191406 28.527344 L 494.257812 28.492188 L 496.390625 28.417969 C 497.101562 28.382812 497.816406 28.429688 498.527344 28.429688 C 499.242188 28.445312 499.953125 28.441406 500.664062 28.472656 L 502.800781 28.617188 C 504.226562 28.679688 505.640625 28.90625 507.058594 29.0625 C 507.769531 29.128906 508.46875 29.277344 509.175781 29.386719 L 511.292969 29.734375 L 513.394531 30.1875 C 514.089844 30.34375 514.796875 30.464844 515.488281 30.664062 C 516.871094 31.039062 518.269531 31.351562 519.636719 31.804688 C 521.753906 32.445312 523.855469 33.160156 525.929688 33.949219 C 525.828125 33.941406 525.726562 33.933594 525.625 33.925781 C 523.914062 33.824219 522.207031 33.75 520.503906 33.691406 C 517.101562 33.578125 513.683594 33.433594 510.253906 33.476562 C 508.539062 33.488281 506.824219 33.570312 505.109375 33.683594 C 504.25 33.765625 503.390625 33.8125 502.539062 33.929688 L 501.253906 34.078125 L 499.972656 34.265625 C 496.558594 34.773438 493.183594 35.671875 489.964844 37.007812 C 489.792969 37.078125 489.621094 37.15625 489.449219 37.230469 C 482.734375 38.410156 476.246094 41.210938 470.589844 45.289062 C 469.644531 45.972656 468.757812 46.746094 467.859375 47.5 C 468.824219 48.777344 469.960938 49.960938 471.183594 51.089844 C 471.914062 50.300781 472.625 49.496094 473.417969 48.757812 C 474.304688 47.933594 475.226562 47.140625 476.1875 46.386719 C 475.207031 47.3125 474.246094 48.253906 473.324219 49.226562 C 472.667969 49.90625 472.050781 50.609375 471.417969 51.304688 C 471.988281 51.824219 472.566406 52.335938 473.152344 52.835938 C 473.746094 52.128906 474.328125 51.40625 474.941406 50.722656 C 477.171875 48.203125 479.535156 45.816406 482.140625 43.734375 C 483.96875 42.25 485.925781 40.917969 487.988281 39.800781 C 488.722656 39.535156 489.464844 39.289062 490.214844 39.0625 C 490.53125 38.96875 490.769531 38.71875 490.863281 38.417969 L 491.761719 38.035156 L 492.933594 37.605469 C 493.707031 37.300781 494.515625 37.089844 495.3125 36.847656 C 496.925781 36.414062 498.554688 36.042969 500.214844 35.792969 C 503.523438 35.253906 506.894531 35.089844 510.265625 35.078125 C 513.640625 35.066406 517.027344 35.210938 520.417969 35.449219 C 523.804688 35.667969 527.179688 35.898438 530.488281 36.429688 C 531.25 36.554688 532.007812 36.691406 532.761719 36.84375 C 533.726562 37.296875 534.691406 37.757812 535.644531 38.242188 C 537.195312 39.035156 538.683594 39.9375 540.195312 40.804688 C 540.890625 39.207031 541.496094 37.582031 542.011719 35.941406 C 540.675781 35.175781 539.371094 34.359375 538.003906 33.648438 Z M 473.140625 8.148438 C 488.1875 7.78125 504.578125 7.839844 516.503906 17.292969 C 517.535156 18.109375 518.554688 19.007812 519.796875 19.410156 C 521.40625 19.933594 523.136719 19.554688 524.824219 19.539062 C 527.914062 19.511719 531.003906 20.800781 533.203125 23.035156 C 530.136719 23.496094 527.226562 24.921875 524.960938 27.066406 C 531.296875 27.34375 537.511719 29.355469 542.984375 32.648438 C 543.71875 30.003906 544.410156 27.421875 545.214844 25.015625 C 526.257812 7.148438 497.6875 0.0664062 473.140625 8.148438 Z M 469.84375 53.023438 C 468.898438 54.078125 467.972656 55.140625 467.050781 56.207031 C 468.269531 54.398438 469.683594 52.710938 471.183594 51.089844 C 469.960938 49.960938 468.824219 48.777344 467.859375 47.5 C 463.296875 51.320312 459.347656 55.976562 456.472656 61.386719 C 454.753906 64.609375 453.445312 67.949219 452.277344 71.226562 C 452.25 71.304688 452.222656 71.386719 452.191406 71.46875 C 450.976562 72.414062 449.734375 73.304688 448.464844 74.128906 C 447.769531 74.542969 447.082031 74.964844 446.386719 75.367188 C 445.6875 75.761719 444.949219 76.105469 444.238281 76.472656 C 438.4375 79.296875 432.089844 80.847656 425.597656 81.625 C 423.964844 81.808594 422.332031 81.960938 420.683594 82.074219 C 419.863281 82.136719 419.03125 82.164062 418.203125 82.207031 C 417.378906 82.25 416.546875 82.28125 415.707031 82.292969 C 412.375 82.382812 408.996094 82.320312 405.558594 82.175781 C 404.683594 82.140625 403.761719 82.253906 402.882812 82.539062 C 398.855469 83.835938 396.644531 88.152344 397.941406 92.179688 C 399.242188 96.207031 403.558594 98.414062 407.585938 97.117188 L 407.597656 97.113281 C 410.898438 96.046875 414.261719 95.039062 417.640625 94.027344 C 419.324219 93.515625 421.023438 93 422.710938 92.449219 C 424.402344 91.925781 426.089844 91.335938 427.773438 90.757812 C 434.496094 88.378906 441.160156 85.449219 447.128906 81.402344 C 447.859375 80.878906 448.601562 80.386719 449.3125 79.835938 C 449.199219 80.15625 449.085938 80.484375 448.972656 80.804688 C 447.863281 83.871094 446.667969 86.78125 445.230469 89.34375 C 443.792969 91.914062 442.117188 94.105469 440.164062 95.820312 C 439.976562 95.988281 439.769531 96.191406 439.601562 96.386719 C 437.398438 98.902344 437.652344 102.726562 440.171875 104.925781 C 442.6875 107.128906 446.511719 106.875 448.710938 104.359375 L 448.84375 104.207031 C 451.589844 101.066406 453.582031 97.480469 455.003906 93.945312 C 456.433594 90.394531 457.359375 86.871094 458.132812 83.460938 C 459.414062 77.753906 460.292969 72.269531 461.847656 67.210938 C 461.988281 67.039062 462.128906 66.867188 462.269531 66.695312 C 464.429688 64.011719 466.453125 61.253906 468.542969 58.578125 C 470.046875 56.628906 471.582031 54.710938 473.152344 52.835938 C 472.566406 52.335938 471.988281 51.824219 471.417969 51.304688 C 470.894531 51.878906 470.359375 52.445312 469.84375 53.023438 Z M 396.824219 34.496094 C 398.457031 35.675781 400.183594 36.714844 401.910156 37.75 C 398.410156 36.222656 394.625 35.375 390.8125 35.203125 C 391.105469 34.914062 391.382812 34.613281 391.644531 34.285156 C 395.261719 29.746094 394.515625 23.136719 389.980469 19.519531 L 388.765625 18.554688 C 385.636719 16.058594 382.390625 14.078125 378.984375 12.507812 C 376.011719 11.15625 372.902344 10.179688 369.679688 9.539062 C 369.640625 15.121094 369.554688 20.703125 369.359375 26.285156 C 369.578125 26.484375 369.828125 26.644531 370.039062 26.851562 C 371.652344 28.417969 373.015625 30.230469 373.875 32.109375 C 374.539062 33.542969 375.558594 34.898438 376.882812 35.953125 C 377.421875 36.382812 377.992188 36.746094 378.585938 37.054688 C 377.972656 37.277344 377.367188 37.515625 376.769531 37.777344 C 380.5 39.277344 384.230469 40.777344 387.960938 42.28125 C 381.433594 41.835938 374.875 42.089844 368.378906 42.878906 C 368.261719 44.292969 368.128906 45.703125 367.984375 47.113281 C 374.800781 47.558594 381.605469 48.121094 388.390625 48.925781 C 388.355469 48.945312 388.316406 48.964844 388.28125 48.988281 C 386.792969 49.867188 385.324219 50.773438 383.871094 51.695312 C 380.957031 53.53125 378.101562 55.417969 375.210938 57.230469 C 372.324219 59.042969 369.40625 60.785156 366.390625 62.308594 C 366.226562 62.394531 366.054688 62.453125 365.890625 62.535156 C 365.730469 63.453125 365.550781 64.375 365.378906 65.292969 C 366.058594 64.96875 366.757812 64.6875 367.425781 64.34375 C 368.972656 63.554688 370.492188 62.714844 371.988281 61.847656 C 373.488281 60.988281 374.964844 60.09375 376.429688 59.1875 C 382.289062 55.570312 387.917969 51.683594 393.957031 48.617188 C 399.957031 45.480469 406.277344 42.945312 412.761719 40.945312 C 415.800781 40.003906 418.878906 39.1875 421.976562 38.445312 C 421.355469 36.980469 420.792969 35.492188 420.28125 33.976562 C 412.496094 32.941406 404.550781 33.066406 396.824219 34.496094 Z M 364.613281 69.246094 C 364.285156 70.789062 363.921875 72.332031 363.550781 73.878906 C 363.503906 73.851562 363.449219 73.835938 363.402344 73.8125 C 362.003906 73.078125 360.644531 72.273438 359.351562 71.378906 C 358.308594 70.652344 357.296875 69.882812 356.320312 69.070312 C 353.5625 70.023438 350.757812 70.84375 347.914062 71.515625 C 344.53125 72.316406 341.113281 72.902344 337.691406 73.371094 C 335.726562 73.640625 333.761719 73.875 331.796875 74.089844 C 329.601562 74.441406 327.371094 74.679688 325.125 74.773438 C 322.476562 75.035156 319.824219 75.292969 317.164062 75.488281 C 310.304688 76.015625 303.398438 76.320312 296.476562 76.074219 C 294.25 75.992188 292.023438 75.847656 289.800781 75.640625 C 289.507812 75.867188 289.132812 76 288.734375 75.972656 C 288.652344 75.964844 288.566406 75.953125 288.492188 75.9375 C 287.253906 75.65625 285.929688 75.625 284.601562 75.832031 C 283.269531 76.039062 281.9375 76.445312 280.640625 76.984375 C 279.335938 77.519531 278.070312 78.191406 276.824219 78.910156 C 275.582031 79.644531 274.324219 80.394531 273.1875 81.226562 C 272.039062 82.046875 270.996094 82.972656 270.167969 84.042969 C 269.761719 84.578125 269.390625 85.148438 269.082031 85.753906 C 268.78125 86.363281 268.523438 86.996094 268.308594 87.648438 C 267.882812 88.957031 267.652344 90.339844 267.550781 91.734375 C 267.445312 93.128906 267.476562 94.554688 267.609375 95.957031 C 267.859375 98.746094 268.625 101.46875 270.074219 103.640625 C 271.535156 105.789062 273.691406 107.464844 276.011719 107.71875 C 276.597656 107.792969 277.203125 107.8125 277.820312 107.75 C 278.433594 107.699219 279.0625 107.597656 279.691406 107.433594 C 280.324219 107.285156 280.960938 107.085938 281.570312 106.847656 C 282.183594 106.621094 282.777344 106.335938 283.347656 106.03125 C 283.917969 105.722656 284.460938 105.371094 284.976562 104.996094 C 285.234375 104.804688 285.484375 104.601562 285.730469 104.402344 C 285.972656 104.191406 286.207031 103.976562 286.382812 103.773438 C 286.742188 103.371094 286.917969 102.96875 286.808594 102.726562 C 286.75 102.605469 286.632812 102.542969 286.453125 102.539062 C 286.414062 102.535156 286.359375 102.539062 286.316406 102.546875 C 286.273438 102.554688 286.1875 102.625 286.128906 102.660156 C 286.007812 102.75 285.882812 102.835938 285.765625 102.933594 C 286.820312 99.796875 290.21875 98.109375 293.355469 99.164062 C 296.492188 100.21875 298.179688 103.613281 297.125 106.753906 C 296.894531 107.195312 296.625 107.621094 296.328125 108.035156 C 296.183594 108.234375 296.011719 108.464844 295.863281 108.621094 C 295.714844 108.78125 295.570312 108.945312 295.417969 109.085938 C 294.804688 109.675781 294.179688 110.148438 293.570312 110.503906 C 292.351562 111.230469 291.25 111.570312 290.292969 111.808594 C 289.808594 111.929688 289.371094 112.003906 288.9375 112.082031 C 288.503906 112.160156 288.070312 112.230469 287.640625 112.289062 C 286.777344 112.414062 285.921875 112.503906 285.074219 112.570312 C 284.226562 112.640625 283.382812 112.664062 282.550781 112.679688 C 281.714844 112.683594 280.898438 112.667969 280.066406 112.621094 C 279.230469 112.5625 278.390625 112.488281 277.539062 112.347656 C 276.695312 112.199219 275.839844 112.007812 275.003906 111.730469 C 273.316406 111.144531 271.777344 110.230469 270.515625 109.105469 C 269.25 107.976562 268.234375 106.644531 267.460938 105.207031 C 265.894531 102.316406 265.359375 99.140625 265.253906 96.101562 C 265.183594 93.066406 265.417969 89.976562 266.449219 87.019531 C 266.714844 86.285156 267.027344 85.5625 267.394531 84.867188 C 267.773438 84.179688 268.199219 83.511719 268.683594 82.882812 C 269.667969 81.636719 270.851562 80.609375 272.066406 79.699219 C 273.292969 78.796875 274.53125 77.996094 275.789062 77.199219 C 277.050781 76.402344 278.347656 75.636719 279.71875 74.960938 C 280.097656 74.777344 280.484375 74.597656 280.878906 74.425781 C 279.191406 74.113281 277.507812 73.757812 275.835938 73.34375 C 274.980469 73.164062 274.144531 72.910156 273.308594 72.660156 L 270.792969 71.921875 C 269.960938 71.652344 269.140625 71.339844 268.316406 71.050781 L 267.605469 70.796875 C 268.222656 69.9375 268.847656 69.074219 269.460938 68.210938 C 271.78125 69.101562 274.136719 69.902344 276.5625 70.503906 C 283.074219 72.1875 289.8125 73.042969 296.585938 73.371094 C 301.507812 73.597656 306.453125 73.539062 311.398438 73.320312 C 308.035156 72.378906 304.746094 71.085938 301.632812 69.054688 C 300.066406 68.023438 298.550781 66.789062 297.210938 65.285156 C 295.871094 63.789062 294.71875 61.988281 293.945312 60.011719 C 293.175781 58.042969 292.785156 56.03125 292.597656 54.109375 C 292.5 53.148438 292.457031 52.203125 292.4375 51.28125 C 292.429688 50.816406 292.429688 50.363281 292.433594 49.910156 C 292.4375 49.480469 292.441406 48.910156 292.550781 48.164062 C 292.640625 47.566406 292.816406 46.824219 293.183594 46.039062 C 292.859375 45.683594 292.554688 45.308594 292.277344 44.902344 C 291.070312 43.144531 290.480469 41.132812 290.441406 39.136719 C 294.414062 34.210938 298.648438 29.488281 303.339844 25.117188 C 304.839844 26.554688 306.273438 28.148438 307.558594 30.015625 L 309.605469 32.992188 C 310.925781 34.914062 311.519531 37.117188 311.449219 39.277344 C 311.847656 39.335938 312.246094 39.40625 312.644531 39.484375 C 313.214844 39.621094 313.777344 39.75 314.375 39.945312 C 315.550781 40.328125 316.667969 40.832031 317.722656 41.445312 C 319.832031 42.671875 321.714844 44.332031 323.210938 46.464844 C 324.699219 48.585938 325.777344 51.269531 325.953125 54.191406 L 326.039062 55.601562 C 326.253906 59.128906 323.570312 62.164062 320.039062 62.382812 C 316.507812 62.597656 313.472656 59.910156 313.257812 56.378906 C 313.21875 55.75 313.28125 55.105469 313.417969 54.515625 C 313.515625 54.109375 313.480469 53.539062 313.175781 52.867188 C 312.882812 52.203125 312.335938 51.492188 311.648438 50.933594 C 311.308594 50.648438 310.933594 50.402344 310.554688 50.203125 C 310.375 50.105469 310.136719 50.019531 309.910156 49.917969 C 309.675781 49.84375 309.441406 49.75 309.1875 49.691406 C 308.191406 49.410156 307.046875 49.308594 305.835938 49.382812 C 304.625 49.453125 303.347656 49.703125 302.085938 50.105469 C 301.925781 50.148438 301.773438 50.210938 301.613281 50.261719 L 301.175781 50.414062 C 301.09375 50.445312 301.027344 50.46875 300.972656 50.488281 C 300.972656 50.492188 300.972656 50.492188 300.972656 50.492188 C 300.917969 50.871094 300.871094 51.242188 300.832031 51.609375 C 300.75 52.34375 300.691406 53.0625 300.667969 53.757812 C 300.621094 55.148438 300.714844 56.453125 301 57.640625 C 301.539062 59.96875 303.101562 62.214844 305.308594 64.097656 C 307.5 65.988281 310.25 67.527344 313.105469 68.722656 C 315.976562 69.921875 319.058594 70.71875 322.21875 71.207031 C 325.304688 71.675781 328.46875 71.820312 331.648438 71.71875 C 333.5625 71.511719 335.472656 71.292969 337.375 71.035156 C 340.742188 70.578125 344.089844 70.011719 347.378906 69.246094 C 349.726562 68.695312 352.046875 68.046875 354.339844 67.300781 C 350.191406 63.394531 346.835938 58.699219 344.304688 53.582031 C 343.59375 52.175781 342.972656 50.722656 342.402344 49.246094 C 341.820312 47.773438 341.34375 46.257812 340.914062 44.714844 C 340.714844 43.9375 340.492188 43.160156 340.339844 42.367188 L 340.09375 41.179688 L 339.898438 39.980469 C 339.75 39.183594 339.6875 38.367188 339.585938 37.558594 C 339.515625 36.742188 339.460938 35.921875 339.425781 35.097656 C 339.339844 31.796875 339.617188 28.378906 340.648438 24.953125 C 340.929688 24.101562 341.195312 23.242188 341.578125 22.402344 C 341.765625 21.980469 341.917969 21.550781 342.140625 21.136719 L 342.808594 19.898438 C 343.019531 19.480469 343.300781 19.089844 343.5625 18.691406 C 343.835938 18.300781 344.085938 17.890625 344.386719 17.515625 C 345.011719 16.777344 345.601562 15.996094 346.324219 15.332031 C 349.039062 12.515625 352.789062 10.511719 356.667969 9.558594 C 358.609375 9.085938 360.585938 8.851562 362.527344 8.800781 C 364.476562 8.757812 366.390625 8.921875 368.265625 9.207031 C 368.746094 9.28125 369.203125 9.445312 369.679688 9.539062 C 369.640625 15.121094 369.554688 20.703125 369.359375 26.285156 C 368.738281 25.730469 368.121094 25.171875 367.441406 24.695312 C 366.527344 24.042969 365.558594 23.488281 364.574219 23.019531 C 363.589844 22.539062 362.578125 22.183594 361.574219 21.929688 C 360.570312 21.667969 359.566406 21.527344 358.589844 21.523438 C 356.636719 21.5 354.746094 21.980469 353.046875 23.117188 C 351.328125 24.1875 349.921875 25.910156 348.859375 28.019531 C 348.710938 28.273438 348.621094 28.566406 348.496094 28.839844 C 348.386719 29.117188 348.25 29.386719 348.15625 29.679688 C 347.976562 30.269531 347.746094 30.84375 347.613281 31.464844 L 347.382812 32.386719 L 347.214844 33.332031 C 347.082031 33.960938 347.042969 34.617188 346.957031 35.265625 C 346.707031 37.878906 346.863281 40.59375 347.304688 43.257812 C 347.777344 45.945312 348.554688 48.609375 349.609375 51.171875 C 350.660156 53.734375 351.988281 56.195312 353.558594 58.492188 C 355.117188 60.796875 356.914062 62.941406 358.914062 64.867188 C 359.113281 65.054688 359.316406 65.242188 359.519531 65.425781 C 361.683594 64.558594 363.804688 63.578125 365.890625 62.535156 C 365.730469 63.453125 365.550781 64.375 365.378906 65.292969 C 364.089844 65.90625 362.808594 66.539062 361.488281 67.089844 C 362.488281 67.875 363.535156 68.582031 364.613281 69.246094 Z M 301.023438 50.148438 C 301.03125 50.132812 301.035156 50.125 301.042969 50.113281 C 301.175781 49.835938 301.160156 49.6875 301.121094 49.765625 C 301.09375 49.8125 301.058594 49.949219 301.023438 50.148438 Z M 572.378906 29.085938 L 778.492188 29.085938 C 780.390625 29.085938 781.925781 27.550781 781.925781 25.652344 C 781.925781 23.753906 780.390625 22.21875 778.492188 22.21875 L 572.378906 22.21875 C 570.484375 22.21875 568.945312 23.753906 568.945312 25.652344 C 568.945312 27.550781 570.484375 29.085938 572.378906 29.085938 Z M 215.476562 22.21875 L 14.84375 22.21875 C 12.945312 22.21875 11.40625 23.753906 11.40625 25.652344 C 11.40625 27.550781 12.945312 29.085938 14.84375 29.085938 L 215.476562 29.085938 C 217.375 29.085938 218.914062 27.550781 218.914062 25.652344 C 218.914062 23.753906 217.375 22.21875 215.476562 22.21875 Z M 215.476562 22.21875 " fill-opacity="1" fill-rule="nonzero"/></g></svg>