<svg xmlns="http://www.w3.org/2000/svg" xmlns:xlink="http://www.w3.org/1999/xlink" width="1080" zoomAndPan="magnify" viewBox="0 0 810 809.999993" height="1080" preserveAspectRatio="xMidYMid meet" version="1.0"><defs><clipPath id="312baa5f5a"><path d="M 14 9.605469 L 800 9.605469 L 800 796 L 14 796 Z M 14 9.605469 " clip-rule="nonzero"/></clipPath></defs><g clip-path="url(#312baa5f5a)"><path fill="#ffffff" d="M 54.980469 344.960938 C 55.09375 348.714844 55.34375 352.460938 55.574219 356.207031 C 54.257812 356.566406 52.945312 356.917969 51.632812 357.292969 C 52.097656 353.722656 52.679688 350.171875 53.523438 346.671875 C 53.714844 345.875 54.164062 344.894531 54.980469 344.960938 Z M 70.480469 356.203125 C 68.996094 359.144531 67.292969 361.992188 65.523438 364.808594 C 63.757812 367.625 61.917969 370.414062 60.125 373.253906 C 59.226562 374.671875 58.34375 376.105469 57.484375 377.558594 C 57.464844 377.59375 57.445312 377.628906 57.421875 377.664062 C 56.578125 370.535156 56.011719 363.375 55.574219 356.207031 C 54.257812 356.566406 52.945312 356.917969 51.632812 357.292969 C 50.769531 363.90625 50.488281 370.59375 50.941406 377.246094 C 49.476562 373.605469 48.011719 369.96875 46.546875 366.328125 C 46.292969 366.910156 46.0625 367.503906 45.84375 368.101562 C 45.542969 367.523438 45.1875 366.964844 44.765625 366.4375 C 43.738281 365.148438 42.417969 364.152344 41.015625 363.503906 C 39.9375 363.011719 38.898438 362.308594 37.898438 361.523438 C 32.386719 363.375 26.953125 365.445312 21.632812 367.796875 C 21.730469 368.023438 21.792969 368.265625 21.898438 368.488281 C 23.425781 371.8125 25.359375 374.980469 27.792969 378.035156 L 28.734375 379.214844 C 32.265625 383.640625 38.714844 384.371094 43.140625 380.84375 C 43.460938 380.585938 43.753906 380.3125 44.035156 380.027344 C 44.203125 383.75 45.03125 387.441406 46.523438 390.855469 C 45.511719 389.171875 44.496094 387.484375 43.34375 385.894531 C 42.234375 391.90625 41.96875 398.054688 42.386719 404.152344 C 44.476562 404.582031 46.496094 405.128906 48.46875 405.753906 C 48.863281 404.316406 49.199219 402.863281 49.640625 401.441406 C 51.589844 395.113281 54.0625 388.949219 57.121094 383.09375 C 60.113281 377.207031 63.90625 371.714844 67.433594 365.996094 C 68.320312 364.570312 69.191406 363.128906 70.03125 361.664062 C 70.875 360.203125 71.695312 358.722656 72.464844 357.214844 C 73.433594 355.320312 74.324219 353.382812 75.144531 351.421875 C 77.800781 354.808594 79.808594 358.6875 80.761719 362.855469 C 81.058594 364.164062 81.25 365.492188 81.367188 366.828125 C 81.453125 368.171875 81.460938 369.523438 81.378906 370.882812 C 81.179688 373.597656 80.648438 376.3125 79.871094 378.988281 C 78.320312 384.335938 75.84375 389.503906 73.230469 394.574219 C 71.894531 397.097656 70.511719 399.601562 69.0625 402.070312 C 67.601562 404.539062 66.109375 406.988281 64.574219 409.417969 C 63.929688 410.449219 63.253906 411.472656 62.597656 412.5 C 63.632812 413.183594 64.65625 413.910156 65.667969 414.667969 C 66.355469 413.566406 67.042969 412.476562 67.71875 411.367188 C 70.742188 406.421875 73.675781 401.394531 76.398438 396.230469 C 77.726562 393.628906 79.054688 391.039062 80.253906 388.347656 C 81.457031 385.667969 82.542969 382.90625 83.429688 380.050781 C 84.316406 377.195312 84.960938 374.230469 85.238281 371.1875 C 85.375 369.667969 85.410156 368.132812 85.351562 366.59375 C 85.265625 365.050781 85.085938 363.511719 84.785156 361.992188 C 84.46875 360.480469 84.054688 358.988281 83.542969 357.527344 C 83.015625 356.078125 82.410156 354.65625 81.703125 353.289062 C 81.085938 352.113281 80.390625 350.988281 79.65625 349.882812 C 77.285156 350.507812 74.898438 351.128906 72.5 351.746094 C 71.847656 353.242188 71.222656 354.75 70.480469 356.203125 Z M 31.96875 256.1875 C 32.324219 253.046875 33.0625 249.941406 34.328125 247.109375 C 34.964844 245.703125 35.71875 244.359375 36.617188 243.140625 C 37.53125 241.933594 38.566406 240.847656 39.722656 239.917969 L 40.617188 239.265625 C 40.917969 239.050781 41.246094 238.882812 41.5625 238.6875 C 41.71875 238.597656 41.875 238.492188 42.039062 238.410156 L 42.535156 238.171875 C 42.859375 238 43.203125 237.867188 43.546875 237.734375 C 44.925781 237.203125 46.394531 236.878906 47.894531 236.75 C 50.902344 236.492188 54.015625 237.015625 56.882812 238.148438 C 59.742188 239.273438 62.390625 241.070312 64.703125 243.226562 C 67.023438 245.386719 69.039062 247.921875 70.792969 250.640625 C 74.21875 256.144531 76.894531 262.195312 78.476562 268.566406 C 79.140625 271.136719 79.640625 273.746094 80.058594 276.375 C 81.25 276.625 82.4375 276.875 83.625 277.128906 C 83.648438 276.890625 83.636719 276.652344 83.675781 276.410156 C 83.875 275.113281 84.269531 273.8125 84.796875 272.546875 C 85.316406 271.277344 85.976562 270.042969 86.675781 268.824219 C 87.390625 267.613281 88.125 266.382812 88.933594 265.273438 C 89.738281 264.152344 90.640625 263.136719 91.683594 262.332031 C 92.207031 261.933594 92.761719 261.570312 93.351562 261.269531 C 93.945312 260.976562 94.566406 260.726562 95.199219 260.515625 C 96.476562 260.097656 97.824219 259.875 99.1875 259.777344 C 100.546875 259.675781 101.9375 259.703125 103.304688 259.835938 C 106.027344 260.078125 108.683594 260.828125 110.804688 262.238281 C 112.898438 263.664062 114.535156 265.765625 114.78125 268.03125 C 114.855469 268.601562 114.871094 269.191406 114.8125 269.796875 C 114.761719 270.394531 114.664062 271.007812 114.503906 271.621094 C 114.359375 272.238281 114.164062 272.859375 113.929688 273.453125 C 113.707031 274.054688 113.429688 274.628906 113.132812 275.1875 C 112.835938 275.746094 112.488281 276.273438 112.125 276.777344 C 111.9375 277.03125 111.742188 277.273438 111.546875 277.511719 C 111.339844 277.746094 111.128906 277.980469 110.933594 278.148438 C 110.539062 278.5 110.144531 278.671875 109.914062 278.5625 C 109.792969 278.507812 109.730469 278.394531 109.726562 278.21875 C 109.726562 278.179688 109.730469 278.128906 109.738281 278.085938 C 109.742188 278.042969 109.8125 277.960938 109.847656 277.902344 C 109.933594 277.78125 110.019531 277.660156 110.113281 277.546875 C 107.054688 278.574219 105.40625 281.890625 106.433594 284.949219 C 107.464844 288.011719 110.777344 289.660156 113.839844 288.628906 C 114.273438 288.402344 114.6875 288.140625 115.089844 287.851562 C 115.285156 287.710938 115.507812 287.542969 115.664062 287.398438 C 115.816406 287.253906 115.976562 287.113281 116.117188 286.960938 C 116.6875 286.363281 117.148438 285.757812 117.5 285.160156 C 118.207031 283.972656 118.539062 282.898438 118.769531 281.960938 C 118.890625 281.488281 118.960938 281.0625 119.035156 280.640625 C 119.113281 280.21875 119.183594 279.796875 119.238281 279.375 C 119.363281 278.535156 119.449219 277.699219 119.515625 276.875 C 119.582031 276.046875 119.605469 275.222656 119.621094 274.410156 C 119.625 273.59375 119.609375 272.796875 119.5625 271.984375 C 119.507812 271.171875 119.433594 270.351562 119.300781 269.523438 C 119.152344 268.699219 118.96875 267.863281 118.695312 267.046875 C 118.125 265.402344 117.230469 263.898438 116.132812 262.671875 C 115.03125 261.433594 113.730469 260.441406 112.332031 259.6875 C 109.511719 258.160156 106.414062 257.640625 103.445312 257.535156 C 100.484375 257.46875 97.46875 257.695312 94.585938 258.703125 C 93.871094 258.960938 93.167969 259.265625 92.488281 259.625 C 91.816406 259.996094 91.164062 260.410156 90.550781 260.882812 C 89.335938 261.84375 88.332031 262.996094 87.445312 264.179688 C 86.566406 265.378906 85.785156 266.585938 85.007812 267.8125 C 84.230469 269.042969 83.484375 270.308594 82.824219 271.648438 C 82.644531 272.019531 82.46875 272.398438 82.300781 272.777344 C 82 271.132812 81.648438 269.492188 81.246094 267.859375 C 81.070312 267.027344 80.824219 266.210938 80.582031 265.394531 L 79.859375 262.9375 C 79.59375 262.128906 79.292969 261.328125 79.007812 260.523438 L 78.578125 259.316406 L 78.363281 258.710938 L 78.109375 258.121094 L 77.089844 255.765625 C 76.917969 255.375 76.757812 254.972656 76.570312 254.589844 L 75.980469 253.445312 L 74.800781 251.160156 C 74.402344 250.402344 73.953125 249.664062 73.503906 248.929688 C 71.691406 245.996094 69.574219 243.207031 67.046875 240.757812 C 64.519531 238.316406 61.585938 236.214844 58.242188 234.816406 C 54.921875 233.433594 51.285156 232.734375 47.613281 232.96875 C 45.78125 233.089844 43.945312 233.453125 42.191406 234.089844 C 41.753906 234.25 41.3125 234.410156 40.890625 234.617188 L 40.253906 234.914062 C 40.042969 235.015625 39.84375 235.136719 39.640625 235.25 C 39.238281 235.488281 38.820312 235.699219 38.433594 235.960938 L 37.289062 236.761719 C 35.8125 237.898438 34.503906 239.226562 33.371094 240.664062 C 32.246094 242.113281 31.3125 243.667969 30.484375 245.261719 C 28.863281 248.472656 27.738281 251.851562 26.90625 255.28125 C 26.488281 257.003906 26.167969 258.730469 25.875 260.457031 C 25.589844 262.195312 25.355469 263.957031 25.207031 265.753906 C 25.132812 266.640625 25.078125 267.535156 25.046875 268.441406 C 27.589844 268.582031 30.121094 268.753906 32.636719 268.964844 C 31.699219 264.929688 31.519531 260.492188 31.96875 256.1875 Z M 25.046875 268.441406 C 27.589844 268.582031 30.121094 268.753906 32.636719 268.964844 C 33.074219 270.847656 33.625 272.664062 34.445312 274.300781 C 34.757812 274.945312 35.121094 275.558594 35.480469 276.132812 C 35.671875 276.421875 35.878906 276.699219 36.070312 276.976562 L 36.699219 277.78125 C 36.921875 278.035156 37.128906 278.292969 37.359375 278.535156 C 37.601562 278.769531 37.824219 279.011719 38.070312 279.230469 C 38.554688 279.671875 39.03125 280.101562 39.5625 280.453125 C 41.613281 281.914062 43.925781 282.613281 45.847656 282.261719 C 48.414062 281.800781 51.183594 282.308594 53.5 283.902344 C 53.894531 284.171875 54.261719 284.46875 54.605469 284.78125 C 55.375 284.425781 56.097656 284.253906 56.683594 284.167969 C 57.410156 284.058594 57.964844 284.054688 58.386719 284.050781 C 58.824219 284.046875 59.269531 284.046875 59.722656 284.058594 C 60.621094 284.074219 61.542969 284.117188 62.480469 284.210938 C 64.355469 284.394531 66.320312 284.773438 68.238281 285.527344 C 70.167969 286.28125 71.921875 287.40625 73.382812 288.710938 C 74.851562 290.019531 76.054688 291.496094 77.0625 293.027344 C 79.042969 296.0625 80.304688 299.273438 81.222656 302.554688 C 81.4375 297.726562 81.492188 292.90625 81.273438 288.101562 C 81.082031 284.167969 80.675781 280.25 80.058594 276.375 C 81.25 276.625 82.4375 276.875 83.625 277.128906 C 83.53125 278.179688 83.554688 279.226562 83.773438 280.207031 C 83.792969 280.28125 83.804688 280.363281 83.808594 280.441406 C 83.835938 280.832031 83.707031 281.195312 83.484375 281.484375 C 83.6875 283.652344 83.828125 285.824219 83.910156 287.996094 C 84.148438 294.75 83.851562 301.484375 83.335938 308.179688 C 83.144531 310.773438 82.898438 313.359375 82.640625 315.945312 C 82.550781 318.136719 82.316406 320.3125 81.972656 322.457031 C 81.761719 324.371094 81.535156 326.289062 81.273438 328.207031 C 80.8125 331.542969 80.242188 334.878906 79.460938 338.175781 C 78.808594 340.949219 78.007812 343.6875 77.074219 346.378906 C 77.867188 347.332031 78.617188 348.320312 79.328125 349.335938 C 79.449219 349.511719 79.539062 349.707031 79.65625 349.882812 C 77.285156 350.507812 74.898438 351.128906 72.5 351.746094 C 72.828125 350.992188 73.214844 350.261719 73.519531 349.496094 C 73.339844 349.300781 73.160156 349.105469 72.976562 348.910156 C 71.097656 346.957031 69.007812 345.203125 66.757812 343.683594 C 64.515625 342.152344 62.113281 340.859375 59.613281 339.832031 C 57.117188 338.804688 54.515625 338.046875 51.894531 337.585938 C 49.296875 337.152344 46.644531 337 44.097656 337.242188 C 43.464844 337.328125 42.824219 337.367188 42.210938 337.496094 L 41.289062 337.660156 L 40.390625 337.886719 C 39.78125 338.015625 39.222656 338.238281 38.648438 338.414062 C 38.363281 338.503906 38.101562 338.636719 37.828125 338.746094 C 37.5625 338.867188 37.273438 338.957031 37.027344 339.101562 C 34.96875 340.136719 33.289062 341.507812 32.246094 343.183594 C 31.136719 344.84375 30.667969 346.6875 30.691406 348.589844 C 30.695312 349.546875 30.832031 350.523438 31.085938 351.503906 C 31.335938 352.484375 31.683594 353.472656 32.148438 354.429688 C 32.609375 355.390625 33.148438 356.335938 33.785156 357.230469 C 34.414062 358.125 35.117188 358.980469 35.886719 359.765625 C 36.515625 360.40625 37.203125 360.976562 37.898438 361.523438 C 32.386719 363.375 26.953125 365.445312 21.632812 367.796875 C 20.269531 364.675781 19.214844 361.441406 18.675781 358.03125 C 18.398438 356.203125 18.238281 354.335938 18.28125 352.4375 C 18.328125 350.539062 18.558594 348.613281 19.019531 346.71875 C 19.949219 342.933594 21.902344 339.277344 24.652344 336.625 C 25.300781 335.921875 26.0625 335.347656 26.78125 334.738281 C 27.148438 334.445312 27.546875 334.199219 27.929688 333.933594 C 28.316406 333.675781 28.695312 333.402344 29.105469 333.195312 L 30.316406 332.546875 C 30.714844 332.328125 31.136719 332.179688 31.546875 331.996094 C 32.367188 331.625 33.207031 331.367188 34.039062 331.089844 C 37.378906 330.082031 40.710938 329.8125 43.933594 329.898438 C 44.738281 329.929688 45.539062 329.984375 46.332031 330.050781 C 47.125 330.152344 47.917969 330.210938 48.695312 330.359375 L 49.867188 330.550781 L 51.023438 330.789062 C 51.796875 330.9375 52.554688 331.152344 53.316406 331.347656 C 54.820312 331.769531 56.296875 332.234375 57.734375 332.800781 C 59.179688 333.355469 60.597656 333.960938 61.96875 334.65625 C 66.957031 337.125 71.539062 340.398438 75.347656 344.445312 C 76.078125 342.210938 76.710938 339.945312 77.246094 337.65625 C 77.996094 334.445312 78.546875 331.183594 78.992188 327.894531 C 79.242188 326.039062 79.460938 324.175781 79.660156 322.308594 C 79.761719 319.207031 79.621094 316.121094 79.164062 313.109375 C 78.683594 310.027344 77.90625 307.019531 76.738281 304.21875 C 75.574219 301.433594 74.070312 298.75 72.226562 296.613281 C 70.390625 294.460938 68.199219 292.9375 65.925781 292.410156 C 64.769531 292.132812 63.496094 292.042969 62.136719 292.085938 C 61.460938 292.109375 60.761719 292.164062 60.042969 292.246094 C 59.683594 292.285156 59.320312 292.332031 58.953125 292.382812 C 58.953125 292.382812 58.949219 292.382812 58.949219 292.382812 C 58.929688 292.4375 58.90625 292.5 58.878906 292.582031 L 58.726562 293.007812 C 58.675781 293.164062 58.617188 293.3125 58.574219 293.46875 C 58.183594 294.699219 57.9375 295.945312 57.867188 297.128906 C 57.796875 298.308594 57.894531 299.425781 58.167969 300.398438 C 58.226562 300.644531 58.320312 300.871094 58.394531 301.101562 C 58.492188 301.324219 58.574219 301.554688 58.671875 301.730469 C 58.867188 302.101562 59.105469 302.464844 59.382812 302.796875 C 59.929688 303.46875 60.621094 304.003906 61.269531 304.289062 C 61.925781 304.582031 62.480469 304.617188 62.878906 304.523438 C 63.449219 304.390625 64.082031 304.332031 64.695312 304.367188 C 68.140625 304.578125 70.761719 307.539062 70.550781 310.984375 C 70.339844 314.425781 67.378906 317.046875 63.9375 316.835938 L 62.558594 316.753906 C 59.710938 316.578125 57.09375 315.527344 55.023438 314.078125 C 52.941406 312.621094 51.324219 310.78125 50.125 308.722656 C 49.527344 307.695312 49.035156 306.601562 48.664062 305.460938 C 48.472656 304.875 48.347656 304.324219 48.210938 303.769531 C 48.136719 303.378906 48.070312 302.992188 48.011719 302.601562 C 45.902344 302.671875 43.753906 302.089844 41.878906 300.804688 L 38.976562 298.808594 C 34.714844 295.878906 31.667969 292.242188 29.546875 288.496094 C 29.019531 287.550781 28.53125 286.609375 28.105469 285.652344 C 27.683594 284.691406 27.316406 283.722656 26.96875 282.761719 L 26.507812 281.308594 C 26.375 280.816406 26.238281 280.332031 26.121094 279.839844 C 25.878906 278.859375 25.6875 277.894531 25.535156 276.933594 C 25.070312 274.035156 24.949219 271.199219 25.046875 268.441406 Z M 58.242188 292.527344 C 58.167969 292.566406 58.3125 292.582031 58.582031 292.449219 C 58.59375 292.445312 58.601562 292.4375 58.617188 292.433594 C 58.421875 292.464844 58.289062 292.5 58.242188 292.527344 Z M 55.230469 423.988281 C 50.394531 431.503906 45.703125 439.230469 41.785156 447.40625 C 42.519531 438.46875 43.488281 429.578125 45.027344 420.78125 C 45.929688 415.714844 47.105469 410.707031 48.46875 405.753906 C 46.496094 405.128906 44.476562 404.582031 42.386719 404.152344 C 42.609375 407.390625 42.964844 410.617188 43.617188 413.796875 C 43.125 415.945312 42.667969 418.101562 42.253906 420.265625 C 40.964844 426.875 39.980469 433.53125 39.171875 440.195312 C 38.429688 446.230469 37.8125 452.269531 37.199219 458.300781 C 35.636719 462.675781 34.363281 467.175781 33.523438 471.789062 C 32.390625 477.640625 32.09375 483.695312 32.503906 489.652344 C 32.5625 491.148438 32.785156 492.625 32.941406 494.109375 C 33.007812 494.855469 33.152344 495.585938 33.269531 496.324219 L 33.636719 498.53125 L 34.105469 500.714844 C 34.269531 501.441406 34.402344 502.175781 34.605469 502.890625 C 34.996094 504.328125 35.328125 505.78125 35.792969 507.191406 C 37.066406 511.382812 38.734375 515.425781 40.558594 519.390625 C 42.09375 518.261719 43.652344 517.195312 45.210938 516.117188 C 44.714844 512.945312 44.488281 509.714844 44.273438 506.46875 C 44.042969 503.160156 43.90625 499.859375 43.914062 496.566406 C 43.925781 493.273438 44.085938 489.984375 44.609375 486.757812 C 44.855469 485.140625 45.21875 483.546875 45.640625 481.976562 C 45.878906 481.199219 46.085938 480.410156 46.382812 479.65625 L 46.796875 478.511719 L 47.171875 477.636719 C 47.46875 477.542969 47.707031 477.3125 47.800781 477.003906 C 48.019531 476.269531 48.261719 475.546875 48.523438 474.832031 C 49.613281 472.816406 50.910156 470.910156 52.359375 469.125 C 54.390625 466.582031 56.722656 464.277344 59.175781 462.105469 C 59.488281 461.824219 59.820312 461.566406 60.136719 461.292969 C 59.558594 460.816406 58.984375 460.339844 58.429688 459.871094 C 58.195312 460.089844 57.949219 460.300781 57.71875 460.523438 C 56.769531 461.425781 55.847656 462.359375 54.949219 463.316406 C 55.683594 462.382812 56.453125 461.480469 57.261719 460.613281 C 57.5625 460.289062 57.910156 460.011719 58.222656 459.695312 C 57.039062 458.683594 55.933594 457.65625 54.886719 456.609375 C 54.558594 457.03125 54.1875 457.425781 53.878906 457.859375 C 49.898438 463.375 47.167969 469.707031 46.015625 476.257812 C 45.941406 476.425781 45.863281 476.589844 45.796875 476.761719 C 44.492188 479.898438 43.617188 483.191406 43.121094 486.523438 L 42.9375 487.773438 L 42.792969 489.023438 C 42.679688 489.859375 42.636719 490.695312 42.554688 491.53125 C 42.441406 493.207031 42.363281 494.882812 42.351562 496.554688 C 42.3125 499.898438 42.453125 503.230469 42.5625 506.554688 C 42.621094 508.210938 42.691406 509.878906 42.789062 511.550781 C 42.796875 511.648438 42.804688 511.746094 42.8125 511.84375 C 42.042969 509.820312 41.34375 507.773438 40.722656 505.707031 C 40.28125 504.375 39.976562 503.007812 39.605469 501.660156 C 39.414062 500.984375 39.296875 500.296875 39.140625 499.617188 L 38.703125 497.566406 L 38.363281 495.503906 C 38.253906 494.8125 38.109375 494.128906 38.042969 493.433594 C 37.894531 492.050781 37.671875 490.671875 37.613281 489.28125 L 37.46875 487.199219 C 37.4375 486.503906 37.441406 485.808594 37.425781 485.113281 C 37.425781 484.417969 37.382812 483.722656 37.417969 483.03125 L 37.488281 480.949219 L 37.523438 479.90625 L 37.792969 476.789062 C 37.984375 475.410156 38.117188 474.023438 38.382812 472.652344 C 38.824219 469.894531 39.496094 467.167969 40.238281 464.464844 L 40.832031 462.441406 C 41.027344 461.765625 41.269531 461.105469 41.484375 460.433594 C 41.90625 459.089844 42.414062 457.773438 42.886719 456.445312 C 44.898438 451.164062 47.292969 446 49.976562 440.96875 C 52.640625 435.921875 55.574219 430.996094 58.578125 426.089844 C 60.902344 422.277344 63.300781 418.484375 65.667969 414.667969 C 64.65625 413.910156 63.632812 413.183594 62.597656 412.5 C 60.160156 416.328125 57.703125 420.148438 55.230469 423.988281 Z M 90.214844 391.800781 C 89.9375 392.660156 89.828125 393.5625 89.859375 394.414062 C 90.003906 397.765625 90.066406 401.0625 89.976562 404.316406 C 89.964844 405.132812 89.933594 405.945312 89.890625 406.75 C 89.851562 407.554688 89.824219 408.371094 89.761719 409.167969 C 89.652344 410.777344 89.503906 412.371094 89.324219 413.960938 C 88.566406 420.296875 87.054688 426.488281 84.300781 432.148438 C 83.9375 432.84375 83.605469 433.5625 83.21875 434.246094 C 82.828125 434.925781 82.417969 435.597656 82.011719 436.273438 C 81.207031 437.511719 80.335938 438.722656 79.417969 439.910156 C 79.335938 439.9375 79.257812 439.964844 79.179688 439.992188 C 75.984375 441.132812 72.726562 442.410156 69.582031 444.085938 C 63.75 447.183594 58.800781 451.550781 54.886719 456.609375 C 55.933594 457.65625 57.039062 458.683594 58.222656 459.695312 C 60.167969 457.730469 62.265625 455.925781 64.527344 454.40625 C 63.488281 455.304688 62.449219 456.207031 61.421875 457.128906 C 60.414062 458.027344 59.417969 458.941406 58.429688 459.871094 C 58.984375 460.339844 59.558594 460.816406 60.136719 461.292969 C 62.300781 459.414062 64.550781 457.625 66.839844 455.859375 C 69.453125 453.820312 72.140625 451.847656 74.761719 449.738281 C 74.929688 449.605469 75.09375 449.464844 75.261719 449.332031 C 80.199219 447.8125 85.546875 446.953125 91.117188 445.703125 C 94.441406 444.949219 97.878906 444.050781 101.34375 442.652344 C 104.792969 441.265625 108.292969 439.324219 111.355469 436.640625 L 111.503906 436.515625 C 113.957031 434.367188 114.207031 430.636719 112.058594 428.179688 C 109.910156 425.726562 106.179688 425.476562 103.726562 427.625 C 103.535156 427.789062 103.339844 427.992188 103.175781 428.175781 C 101.5 430.082031 99.363281 431.714844 96.855469 433.117188 C 94.355469 434.519531 91.515625 435.6875 88.523438 436.765625 C 88.210938 436.878906 87.894531 436.988281 87.578125 437.097656 C 88.113281 436.40625 88.597656 435.679688 89.109375 434.96875 C 93.058594 429.148438 95.914062 422.648438 98.234375 416.085938 C 98.796875 414.445312 99.371094 412.796875 99.882812 411.148438 C 100.421875 409.5 100.925781 407.84375 101.421875 406.199219 C 102.410156 402.902344 103.394531 399.625 104.433594 396.402344 L 104.4375 396.390625 C 105.707031 392.464844 103.550781 388.253906 99.621094 386.984375 C 95.691406 385.71875 91.480469 387.875 90.214844 391.800781 Z M 38.175781 521.234375 C 37.007812 517.894531 36.253906 514.425781 36.097656 510.898438 C 34.003906 513.109375 32.617188 515.953125 32.164062 518.941406 C 29.988281 516.796875 28.730469 513.78125 28.753906 510.765625 C 28.769531 509.121094 29.140625 507.433594 28.628906 505.863281 C 28.234375 504.652344 27.359375 503.65625 26.5625 502.652344 C 17.339844 491.015625 17.285156 475.027344 17.644531 460.34375 C 10.253906 482.796875 15.863281 508.695312 30.953125 527.085938 C 33.320312 525.054688 35.722656 523.097656 38.175781 521.234375 Z M 42.511719 538.226562 C 47 541.609375 52.0625 544.515625 57.496094 545.84375 C 58.375 546.875 59.242188 547.914062 60.136719 548.925781 C 61.117188 550.011719 62.070312 551.125 63.078125 552.183594 C 67.058594 556.472656 71.230469 560.558594 75.511719 564.503906 C 79.796875 568.4375 84.191406 572.238281 88.625 575.96875 C 89.488281 576.835938 90.4375 577.636719 91.464844 578.339844 C 94.960938 581.261719 98.492188 584.164062 102.183594 586.933594 C 104.953125 589.011719 107.828125 590.992188 110.824219 592.796875 C 113.257812 595.324219 115.46875 598.054688 117.445312 600.9375 C 119.824219 604.4375 121.816406 608.1875 123.277344 612.117188 C 124.707031 616.058594 125.804688 620.144531 125.78125 624.050781 C 125.773438 626.015625 125.453125 627.851562 124.816406 629.636719 C 124.167969 631.40625 123.222656 633.0625 122.074219 634.542969 C 119.761719 637.492188 116.582031 639.75 113.183594 640.746094 C 111.496094 641.261719 109.746094 641.464844 108.097656 641.359375 C 106.460938 641.269531 105.105469 640.75 104.378906 640.082031 C 103.996094 639.753906 103.667969 639.316406 103.339844 638.765625 C 103.011719 638.214844 102.710938 637.511719 102.433594 636.722656 C 102.15625 635.929688 101.910156 635.023438 101.65625 634.054688 L 101.285156 632.566406 C 101.171875 632.089844 101.078125 631.65625 101.015625 631.261719 C 100.886719 630.480469 100.890625 629.878906 100.992188 629.550781 C 101.035156 629.382812 101.101562 629.296875 101.160156 629.195312 L 101.4375 628.820312 C 101.5625 628.667969 101.722656 628.480469 101.914062 628.273438 C 102.113281 628.066406 102.359375 627.832031 102.632812 627.585938 C 103.1875 627.085938 103.886719 626.519531 104.695312 625.871094 C 107.410156 623.691406 107.847656 619.726562 105.667969 617.007812 C 103.492188 614.292969 99.523438 613.855469 96.808594 616.035156 C 96.53125 616.257812 96.277344 616.5 96.046875 616.753906 L 95.992188 616.816406 C 95.253906 617.65625 94.414062 618.601562 93.558594 619.722656 C 92.707031 620.851562 91.824219 622.171875 91.117188 623.800781 C 90.769531 624.621094 90.476562 625.507812 90.277344 626.445312 C 90.089844 627.390625 90 628.375 90.023438 629.28125 C 90.070312 631.109375 90.457031 632.648438 90.875 633.9375 C 91.085938 634.585938 91.3125 635.179688 91.53125 635.726562 L 92.179688 637.300781 C 92.628906 638.363281 93.109375 639.484375 93.726562 640.648438 C 94.335938 641.816406 95.050781 643.023438 96.015625 644.199219 C 96.972656 645.363281 98.167969 646.496094 99.597656 647.335938 C 101.019531 648.195312 102.539062 648.703125 103.992188 648.972656 C 105.453125 649.242188 106.851562 649.292969 108.191406 649.210938 C 110.847656 649.042969 113.382812 648.382812 115.707031 647.351562 C 120.355469 645.277344 124.136719 641.839844 126.695312 637.710938 C 127.96875 635.636719 128.9375 633.382812 129.515625 631.027344 C 130.101562 628.683594 130.273438 626.191406 130.046875 623.855469 C 129.832031 621.503906 129.289062 619.257812 128.585938 617.117188 C 127.878906 614.96875 127.007812 612.949219 126.085938 610.9375 C 124.207031 606.929688 121.949219 603.152344 119.480469 599.546875 C 118.710938 598.410156 117.90625 597.296875 117.09375 596.195312 C 117.140625 596.21875 117.183594 596.242188 117.230469 596.261719 C 122.585938 598.796875 128.136719 600.75 133.78125 602.359375 C 139.425781 603.953125 145.179688 605.160156 151.007812 605.921875 C 156.835938 606.664062 162.742188 606.960938 168.65625 606.574219 C 174.554688 606.179688 180.507812 605.097656 186.089844 602.753906 L 188.15625 601.8125 C 188.824219 601.457031 189.503906 601.117188 190.167969 600.742188 C 191.496094 599.976562 192.765625 599.101562 193.96875 598.125 C 196.367188 596.167969 198.410156 593.714844 199.863281 590.957031 C 201.324219 588.203125 202.179688 585.179688 202.566406 582.164062 C 202.949219 579.152344 202.867188 576.097656 202.707031 573.230469 C 202.683594 572.855469 202.683594 572.570312 202.652344 572.144531 C 202.621094 571.75 202.617188 571.351562 202.554688 570.960938 C 202.460938 570.171875 202.308594 569.390625 202.113281 568.625 C 201.726562 567.089844 201.128906 565.617188 200.378906 564.234375 C 198.878906 561.472656 196.765625 559.089844 194.28125 557.195312 C 193.042969 556.242188 191.703125 555.410156 190.285156 554.726562 C 188.871094 554.035156 187.375 553.484375 185.820312 553.109375 C 184.265625 552.734375 182.652344 552.515625 181.015625 552.527344 C 179.378906 552.535156 177.722656 552.746094 176.113281 553.183594 C 174.503906 553.628906 172.941406 554.289062 171.488281 555.132812 C 170.039062 555.988281 168.691406 557.015625 167.480469 558.179688 C 165.058594 560.523438 163.140625 563.367188 161.796875 566.519531 C 160.453125 569.671875 159.644531 573.144531 159.621094 576.855469 C 159.589844 580.554688 160.421875 584.523438 162.367188 588.289062 L 163.191406 589.890625 C 165.050781 593.488281 169.472656 594.898438 173.070312 593.039062 C 176.671875 591.179688 178.082031 586.757812 176.222656 583.160156 C 175.527344 581.816406 174.480469 580.78125 173.25 580.101562 C 171.707031 579.25 170.449219 577.628906 169.722656 575.605469 C 168.996094 573.582031 168.804688 571.1875 169.183594 568.832031 C 169.566406 566.480469 170.492188 564.148438 171.9375 562.195312 C 172.652344 561.21875 173.492188 560.328125 174.449219 559.585938 C 174.925781 559.210938 175.425781 558.863281 175.949219 558.5625 C 176.214844 558.414062 176.476562 558.257812 176.757812 558.140625 C 177.03125 558.015625 177.304688 557.875 177.59375 557.777344 C 179.863281 556.871094 182.449219 556.679688 184.988281 557.09375 C 187.53125 557.511719 190.019531 558.550781 192.203125 560.046875 C 194.382812 561.550781 196.261719 563.519531 197.574219 565.800781 C 198.230469 566.941406 198.738281 568.160156 199.078125 569.414062 C 199.253906 570.042969 199.367188 570.6875 199.445312 571.328125 C 199.5 571.652344 199.5 571.976562 199.527344 572.300781 C 199.554688 572.59375 199.558594 573.03125 199.578125 573.378906 C 199.652344 574.835938 199.722656 576.222656 199.710938 577.617188 C 199.683594 579.003906 199.585938 580.378906 199.390625 581.730469 C 198.992188 584.429688 198.191406 587.03125 196.902344 589.359375 C 195.617188 591.6875 193.859375 593.726562 191.757812 595.382812 C 190.699219 596.207031 189.578125 596.953125 188.394531 597.609375 L 186.570312 598.550781 L 184.6875 599.386719 C 179.585938 601.476562 174.015625 602.480469 168.414062 602.828125 C 162.800781 603.164062 157.125 602.855469 151.507812 602.113281 C 145.890625 601.347656 140.320312 600.152344 134.863281 598.582031 C 129.414062 597.003906 124.058594 595.03125 118.996094 592.582031 C 113.972656 590.132812 109.261719 586.996094 104.746094 583.542969 C 100.234375 580.09375 95.867188 576.335938 91.492188 572.59375 C 89.917969 571.242188 88.351562 569.878906 86.796875 568.507812 C 85.625 566.523438 84.671875 564.371094 83.886719 562.148438 C 81.902344 556.382812 80.578125 550.296875 80.582031 544.210938 C 80.570312 541.167969 80.925781 538.140625 81.636719 535.207031 C 82.355469 532.273438 83.511719 529.460938 84.984375 526.820312 C 87.972656 521.566406 92.191406 516.949219 97.332031 513.886719 C 98.625 513.144531 99.945312 512.457031 101.328125 511.929688 C 101.667969 511.78125 102.023438 511.683594 102.371094 511.558594 C 102.71875 511.441406 103.066406 511.316406 103.421875 511.230469 L 104.484375 510.945312 L 105.558594 510.734375 C 106.996094 510.492188 108.445312 510.339844 109.890625 510.421875 L 110.429688 510.433594 L 110.960938 510.496094 L 112.023438 510.617188 C 112.378906 510.667969 112.722656 510.769531 113.074219 510.839844 C 113.417969 510.925781 113.773438 510.96875 114.113281 511.097656 C 116.847656 511.921875 119.421875 513.332031 121.574219 515.230469 C 123.710938 517.132812 125.476562 519.453125 126.640625 522.011719 L 127.042969 522.984375 C 127.105469 523.144531 127.183594 523.304688 127.238281 523.46875 L 127.386719 523.96875 L 127.695312 524.964844 L 127.90625 525.980469 C 128.078125 526.652344 128.101562 527.34375 128.171875 528.019531 C 128.21875 528.359375 128.171875 528.707031 128.160156 529.046875 C 128.136719 529.386719 128.144531 529.726562 128.097656 530.0625 C 127.730469 532.78125 126.425781 535.308594 124.652344 537.269531 C 123.730469 538.234375 122.816406 539.140625 121.777344 539.871094 C 120.792969 540.648438 119.730469 541.265625 118.726562 541.859375 C 117.664062 542.363281 116.675781 542.894531 115.65625 543.277344 C 115.402344 543.375 115.164062 543.519531 114.910156 543.597656 C 114.660156 543.683594 114.410156 543.777344 114.164062 543.886719 C 113.921875 544.011719 113.667969 544.085938 113.421875 544.179688 C 113.171875 544.28125 112.925781 544.386719 112.679688 544.527344 L 111.5 545.195312 C 108.777344 546.746094 107.828125 550.207031 109.378906 552.929688 C 110.511719 554.921875 112.671875 555.960938 114.8125 555.773438 C 116.867188 555.589844 118.898438 555.019531 120.707031 554.09375 C 122.554688 553.222656 124.160156 551.980469 125.609375 550.640625 C 128.46875 547.898438 130.425781 544.464844 131.59375 540.9375 C 131.738281 540.492188 131.847656 540.035156 131.972656 539.59375 C 132.089844 539.144531 132.234375 538.714844 132.304688 538.253906 C 132.476562 537.34375 132.679688 536.464844 132.761719 535.558594 C 132.804688 535.105469 132.882812 534.664062 132.917969 534.21875 C 132.9375 533.765625 132.960938 533.316406 132.988281 532.875 L 133.027344 532.207031 L 133.015625 531.539062 L 132.996094 530.210938 C 132.992188 529.769531 132.929688 529.328125 132.898438 528.890625 L 132.839844 528.230469 L 132.8125 527.902344 L 132.757812 527.578125 C 132.601562 526.714844 132.515625 525.839844 132.261719 525.003906 C 132.152344 524.582031 132.046875 524.15625 131.929688 523.738281 L 131.261719 521.910156 C 131.179688 521.707031 131.082031 521.515625 130.992188 521.320312 L 130.4375 520.152344 C 127.234375 514.082031 121.566406 509.5 114.976562 507.851562 C 114.574219 507.722656 114.144531 507.679688 113.730469 507.597656 C 113.3125 507.527344 112.898438 507.433594 112.476562 507.390625 L 111.210938 507.285156 L 110.578125 507.234375 L 109.945312 507.238281 C 108.265625 507.207031 106.597656 507.433594 104.96875 507.769531 C 101.707031 508.464844 98.664062 509.828125 95.894531 511.542969 C 94.523438 512.425781 93.207031 513.382812 91.972656 514.433594 C 90.753906 515.5 89.566406 516.605469 88.492188 517.8125 C 86.308594 520.199219 84.453125 522.839844 82.894531 525.660156 C 81.34375 528.480469 80.132812 531.507812 79.375 534.648438 C 78.609375 537.78125 78.242188 541 78.234375 544.203125 C 78.191406 547.410156 78.539062 550.597656 79.058594 553.742188 C 79.332031 555.3125 79.652344 556.871094 80.042969 558.414062 C 80.421875 559.960938 80.851562 561.488281 81.351562 563.011719 C 81.449219 563.308594 81.550781 563.609375 81.652344 563.90625 C 80.644531 562.984375 79.644531 562.058594 78.648438 561.128906 C 74.480469 557.203125 70.441406 553.160156 66.609375 548.945312 C 58.921875 540.542969 52.136719 531.363281 47 521.324219 C 46.53125 520.394531 46.078125 519.453125 45.636719 518.511719 C 45.488281 517.773438 45.355469 517.035156 45.230469 516.292969 C 45.222656 516.234375 45.21875 516.175781 45.210938 516.117188 C 43.652344 517.195312 42.09375 518.261719 40.558594 519.390625 C 41.210938 520.804688 41.808594 522.242188 42.519531 523.625 C 45.246094 528.867188 48.398438 533.878906 51.867188 538.632812 C 52.492188 539.515625 53.152344 540.367188 53.808594 541.222656 C 46.511719 536.53125 40.996094 529.3125 38.175781 521.234375 C 35.722656 523.097656 33.320312 525.054688 30.953125 527.085938 C 34.34375 531.21875 38.203125 534.980469 42.511719 538.226562 Z M 34.71875 553.8125 C 32.867188 553.8125 31.367188 555.3125 31.367188 557.160156 L 31.367188 758.238281 C 31.367188 760.089844 32.867188 761.589844 34.71875 761.589844 C 36.570312 761.589844 38.070312 760.089844 38.070312 758.238281 L 38.070312 557.160156 C 38.070312 555.3125 36.570312 553.8125 34.71875 553.8125 Z M 34.71875 212.328125 C 36.570312 212.328125 38.070312 210.828125 38.070312 208.976562 L 38.070312 13.242188 C 38.070312 11.390625 36.570312 9.890625 34.71875 9.890625 C 32.867188 9.890625 31.367188 11.390625 31.367188 13.242188 L 31.367188 208.976562 C 31.367188 210.828125 32.867188 212.328125 34.71875 212.328125 Z M 559.160156 739.007812 C 561.878906 740.761719 564.410156 742.773438 566.574219 745.097656 C 568.730469 747.410156 570.527344 750.058594 571.652344 752.914062 C 572.785156 755.78125 573.304688 758.898438 573.046875 761.902344 C 572.921875 763.40625 572.59375 764.875 572.066406 766.25 C 571.929688 766.59375 571.800781 766.9375 571.628906 767.265625 L 571.390625 767.761719 C 571.308594 767.925781 571.203125 768.078125 571.113281 768.238281 C 570.914062 768.550781 570.75 768.882812 570.535156 769.183594 L 569.878906 770.078125 C 568.949219 771.230469 567.863281 772.265625 566.660156 773.179688 C 565.441406 774.078125 564.097656 774.832031 562.691406 775.472656 C 559.859375 776.734375 556.753906 777.472656 553.609375 777.828125 C 547.300781 778.492188 540.648438 777.933594 535.5 775.355469 C 534.855469 775.042969 534.242188 774.679688 533.664062 774.316406 C 533.378906 774.125 533.101562 773.921875 532.820312 773.726562 L 532.019531 773.101562 C 531.765625 772.875 531.503906 772.667969 531.261719 772.441406 C 531.03125 772.199219 530.785156 771.976562 530.566406 771.730469 C 530.125 771.242188 529.699219 770.765625 529.347656 770.238281 C 527.886719 768.183594 527.183594 765.875 527.535156 763.953125 C 527.65625 763.285156 527.703125 762.605469 527.691406 761.921875 C 523.8125 766.730469 519.683594 771.335938 515.105469 775.601562 C 517.066406 777.476562 519.160156 779.039062 521.304688 780.253906 C 522.25 780.777344 523.1875 781.265625 524.148438 781.691406 C 525.105469 782.117188 526.074219 782.484375 527.035156 782.828125 L 528.492188 783.292969 C 528.984375 783.421875 529.46875 783.5625 529.957031 783.679688 C 530.9375 783.921875 531.90625 784.109375 532.867188 784.265625 C 536.714844 784.882812 540.457031 784.890625 544.046875 784.59375 C 545.84375 784.445312 547.605469 784.207031 549.339844 783.925781 C 551.066406 783.632812 552.796875 783.3125 554.515625 782.890625 C 557.949219 782.0625 561.328125 780.9375 564.535156 779.316406 C 566.128906 778.484375 567.6875 777.550781 569.132812 776.429688 C 570.574219 775.296875 571.898438 773.988281 573.035156 772.511719 L 573.839844 771.367188 C 574.101562 770.980469 574.3125 770.5625 574.546875 770.160156 C 574.660156 769.953125 574.785156 769.757812 574.886719 769.546875 L 575.179688 768.90625 C 575.386719 768.484375 575.550781 768.046875 575.707031 767.609375 C 576.347656 765.851562 576.710938 764.015625 576.828125 762.183594 C 577.066406 758.515625 576.367188 754.878906 574.984375 751.558594 C 573.582031 748.214844 571.484375 745.28125 569.039062 742.753906 C 566.589844 740.226562 563.804688 738.105469 560.871094 736.292969 C 560.136719 735.84375 559.398438 735.398438 558.636719 735 L 556.351562 733.816406 L 555.210938 733.226562 C 554.824219 733.039062 554.425781 732.882812 554.035156 732.710938 L 551.675781 731.691406 L 551.085938 731.4375 L 550.484375 731.222656 L 549.96875 731.039062 C 549.363281 731.878906 548.757812 732.71875 548.160156 733.5625 C 552 735.039062 555.695312 736.851562 559.160156 739.007812 Z M 464.835938 754.820312 C 460.566406 754.6875 456.304688 754.421875 452.042969 754.144531 C 451.902344 755.519531 451.773438 756.898438 451.65625 758.273438 C 455.511719 757.804688 459.351562 757.183594 463.128906 756.273438 C 463.925781 756.082031 464.90625 755.636719 464.835938 754.820312 Z M 400.378906 745.222656 C 402.8125 743.691406 405.261719 742.195312 407.726562 740.734375 C 410.199219 739.285156 412.703125 737.90625 415.226562 736.570312 C 420.296875 733.957031 425.464844 731.480469 430.8125 729.925781 C 433.484375 729.152344 436.199219 728.617188 438.914062 728.421875 C 440.273438 728.335938 441.628906 728.347656 442.972656 728.433594 C 444.308594 728.546875 445.636719 728.738281 446.941406 729.039062 C 449.914062 729.714844 452.726562 730.949219 455.332031 732.550781 C 455.648438 731.046875 456.007812 729.539062 456.367188 728.03125 C 455.039062 727.355469 453.671875 726.765625 452.269531 726.253906 C 450.8125 725.742188 449.320312 725.328125 447.808594 725.011719 C 446.289062 724.710938 444.75 724.53125 443.207031 724.445312 C 441.667969 724.390625 440.128906 724.425781 438.609375 724.5625 C 435.570312 724.839844 432.601562 725.484375 429.746094 726.367188 C 426.894531 727.257812 424.132812 728.339844 421.449219 729.546875 C 418.761719 730.742188 416.167969 732.070312 413.566406 733.402344 C 408.40625 736.121094 403.378906 739.058594 398.433594 742.078125 C 396.148438 743.472656 393.898438 744.882812 391.640625 746.296875 C 392.152344 747.476562 392.683594 748.644531 393.238281 749.804688 C 395.617188 748.273438 397.996094 746.722656 400.378906 745.222656 Z M 160.824219 705.808594 C 161.097656 707.257812 161.605469 708.78125 162.460938 710.203125 C 163.304688 711.632812 164.433594 712.824219 165.601562 713.785156 C 166.773438 714.75 167.984375 715.460938 169.148438 716.074219 C 170.316406 716.6875 171.4375 717.171875 172.5 717.621094 L 174.070312 718.269531 C 174.621094 718.488281 175.210938 718.710938 175.859375 718.921875 C 177.152344 719.339844 178.691406 719.730469 180.519531 719.777344 C 181.425781 719.800781 182.410156 719.710938 183.351562 719.519531 C 184.289062 719.324219 185.179688 719.03125 186 718.683594 C 187.625 717.976562 188.949219 717.089844 190.078125 716.242188 C 191.199219 715.386719 192.140625 714.546875 192.984375 713.804688 L 193.042969 713.753906 C 193.300781 713.523438 193.542969 713.269531 193.765625 712.992188 C 195.941406 710.273438 195.507812 706.308594 192.789062 704.128906 C 190.074219 701.953125 186.105469 702.390625 183.929688 705.105469 C 183.28125 705.914062 182.714844 706.613281 182.214844 707.167969 C 181.964844 707.4375 181.730469 707.683594 181.523438 707.886719 C 181.320312 708.078125 181.132812 708.238281 180.980469 708.359375 L 180.605469 708.636719 C 180.503906 708.699219 180.417969 708.761719 180.246094 708.808594 C 179.921875 708.90625 179.320312 708.914062 178.535156 708.78125 C 178.144531 708.71875 177.707031 708.628906 177.234375 708.515625 L 175.746094 708.140625 C 174.773438 707.890625 173.867188 707.644531 173.074219 707.367188 C 172.285156 707.085938 171.582031 706.785156 171.035156 706.460938 C 170.484375 706.132812 170.046875 705.804688 169.71875 705.421875 C 169.046875 704.691406 168.53125 703.335938 168.4375 701.699219 C 168.332031 700.054688 168.539062 698.304688 169.050781 696.617188 C 170.046875 693.214844 172.304688 690.035156 175.257812 687.726562 C 176.738281 686.574219 178.394531 685.628906 180.164062 684.980469 C 181.949219 684.347656 183.785156 684.027344 185.746094 684.019531 C 189.652344 683.992188 193.742188 685.089844 197.683594 686.523438 C 201.609375 687.984375 205.363281 689.976562 208.863281 692.355469 C 211.742188 694.332031 214.476562 696.539062 217 698.976562 C 218.808594 701.972656 220.789062 704.847656 222.863281 707.613281 C 225.632812 711.308594 228.539062 714.835938 231.457031 718.335938 C 232.164062 719.359375 232.964844 720.308594 233.832031 721.175781 C 237.5625 725.609375 241.359375 730 245.296875 734.289062 C 249.238281 738.570312 253.328125 742.738281 257.617188 746.71875 C 258.675781 747.726562 259.785156 748.683594 260.875 749.660156 C 261.886719 750.558594 262.925781 751.421875 263.953125 752.300781 C 265.28125 757.734375 268.1875 762.800781 271.570312 767.285156 C 273.855469 770.316406 276.398438 773.121094 279.136719 775.703125 C 279.925781 773.351562 280.597656 770.832031 281.3125 768.253906 C 276.238281 765.199219 271.808594 761.011719 268.578125 755.988281 C 269.429688 756.648438 270.285156 757.308594 271.167969 757.929688 C 274.710938 760.515625 278.445312 762.855469 282.265625 765.042969 C 282.765625 763.441406 283.359375 761.855469 284.039062 760.300781 C 275.726562 755.53125 267.988281 749.71875 260.855469 743.1875 C 256.640625 739.359375 252.59375 735.320312 248.671875 731.148438 C 247.738281 730.15625 246.8125 729.152344 245.894531 728.144531 C 246.191406 728.246094 246.488281 728.351562 246.789062 728.449219 C 248.3125 728.945312 249.839844 729.378906 251.382812 729.757812 C 252.925781 730.148438 254.488281 730.464844 256.058594 730.742188 C 259.203125 731.257812 262.390625 731.605469 265.597656 731.5625 C 268.800781 731.558594 272.019531 731.1875 275.152344 730.421875 C 278.292969 729.667969 281.316406 728.453125 284.136719 726.902344 C 286.960938 725.347656 289.601562 723.492188 291.988281 721.308594 C 293.195312 720.234375 294.296875 719.046875 295.363281 717.824219 C 296.414062 716.589844 297.371094 715.273438 298.253906 713.902344 C 299.972656 711.132812 301.332031 708.089844 302.03125 704.832031 C 302.367188 703.203125 302.589844 701.535156 302.558594 699.851562 L 302.5625 699.222656 L 302.515625 698.589844 L 302.410156 697.320312 C 302.363281 696.898438 302.273438 696.484375 302.203125 696.066406 C 302.121094 695.652344 302.078125 695.226562 301.949219 694.824219 C 300.300781 688.234375 295.71875 682.566406 289.644531 679.363281 L 288.476562 678.808594 C 288.28125 678.71875 288.089844 678.617188 287.890625 678.539062 L 287.28125 678.316406 L 286.058594 677.871094 C 285.640625 677.75 285.21875 677.648438 284.796875 677.535156 C 283.960938 677.285156 283.085938 677.195312 282.222656 677.042969 L 281.894531 676.984375 L 281.566406 676.960938 L 280.910156 676.902344 C 280.472656 676.871094 280.027344 676.808594 279.585938 676.800781 L 278.257812 676.78125 L 277.589844 676.773438 L 276.925781 676.808594 C 276.480469 676.835938 276.035156 676.863281 275.582031 676.878906 C 275.132812 676.917969 274.695312 676.992188 274.242188 677.039062 C 273.332031 677.121094 272.453125 677.320312 271.546875 677.496094 C 271.085938 677.566406 270.65625 677.710938 270.207031 677.828125 C 269.761719 677.953125 269.304688 678.0625 268.863281 678.207031 C 265.332031 679.375 261.902344 681.332031 259.15625 684.1875 C 257.820312 685.640625 256.578125 687.246094 255.703125 689.09375 C 254.777344 690.902344 254.210938 692.933594 254.023438 694.984375 C 253.835938 697.128906 254.878906 699.289062 256.867188 700.421875 C 259.589844 701.972656 263.054688 701.019531 264.605469 698.296875 L 265.273438 697.121094 C 265.414062 696.875 265.515625 696.625 265.621094 696.378906 C 265.710938 696.128906 265.789062 695.878906 265.910156 695.632812 C 266.019531 695.390625 266.117188 695.140625 266.203125 694.886719 C 266.28125 694.632812 266.425781 694.394531 266.523438 694.144531 C 266.902344 693.125 267.433594 692.132812 267.941406 691.074219 C 268.535156 690.066406 269.148438 689.007812 269.925781 688.023438 C 270.65625 686.984375 271.566406 686.070312 272.527344 685.148438 C 274.488281 683.371094 277.019531 682.070312 279.734375 681.699219 C 280.074219 681.65625 280.410156 681.660156 280.753906 681.636719 C 281.09375 681.628906 281.4375 681.578125 281.777344 681.625 C 282.457031 681.699219 283.148438 681.71875 283.816406 681.894531 L 284.832031 682.101562 L 285.828125 682.410156 L 286.328125 682.5625 C 286.496094 682.617188 286.652344 682.695312 286.816406 682.757812 L 287.789062 683.15625 C 290.347656 684.320312 292.667969 686.085938 294.570312 688.226562 C 296.46875 690.375 297.875 692.953125 298.699219 695.6875 C 298.828125 696.023438 298.871094 696.378906 298.960938 696.726562 C 299.03125 697.074219 299.128906 697.421875 299.179688 697.773438 L 299.304688 698.835938 L 299.367188 699.371094 L 299.378906 699.910156 C 299.457031 701.351562 299.308594 702.804688 299.066406 704.242188 L 298.851562 705.316406 L 298.566406 706.378906 C 298.480469 706.734375 298.359375 707.082031 298.238281 707.429688 C 298.113281 707.777344 298.019531 708.132812 297.871094 708.472656 C 297.34375 709.855469 296.65625 711.175781 295.914062 712.46875 C 292.851562 717.609375 288.234375 721.828125 282.976562 724.8125 C 280.335938 726.289062 277.523438 727.441406 274.59375 728.164062 C 271.660156 728.875 268.628906 729.230469 265.589844 729.214844 C 259.503906 729.222656 253.417969 727.898438 247.648438 725.914062 C 245.425781 725.128906 243.273438 724.171875 241.289062 723 C 239.921875 721.445312 238.558594 719.882812 237.203125 718.308594 C 233.460938 713.933594 229.707031 709.5625 226.257812 705.050781 C 222.800781 700.539062 219.664062 695.828125 217.214844 690.800781 C 214.765625 685.738281 212.796875 680.386719 211.21875 674.9375 C 209.644531 669.480469 208.453125 663.910156 207.6875 658.292969 C 206.941406 652.671875 206.632812 647 206.972656 641.386719 C 207.316406 635.785156 208.324219 630.210938 210.410156 625.109375 L 211.25 623.226562 L 212.191406 621.40625 C 212.847656 620.21875 213.59375 619.097656 214.417969 618.042969 C 216.070312 615.941406 218.109375 614.183594 220.4375 612.898438 C 222.765625 611.609375 225.371094 610.808594 228.070312 610.410156 C 229.417969 610.214844 230.792969 610.117188 232.179688 610.089844 C 233.574219 610.078125 234.964844 610.144531 236.421875 610.21875 C 236.769531 610.242188 237.207031 610.246094 237.5 610.273438 C 237.824219 610.300781 238.148438 610.296875 238.46875 610.355469 C 239.113281 610.433594 239.753906 610.546875 240.382812 610.722656 C 241.640625 611.0625 242.859375 611.570312 244 612.226562 C 246.28125 613.539062 248.25 615.417969 249.75 617.59375 C 251.246094 619.777344 252.285156 622.265625 252.703125 624.808594 C 253.121094 627.347656 252.929688 629.9375 252.019531 632.207031 C 251.921875 632.496094 251.785156 632.765625 251.65625 633.042969 C 251.539062 633.324219 251.382812 633.585938 251.238281 633.851562 C 250.933594 634.375 250.589844 634.875 250.214844 635.351562 C 249.472656 636.304688 248.582031 637.144531 247.601562 637.863281 C 245.652344 639.308594 243.320312 640.234375 240.96875 640.617188 C 238.613281 640.996094 236.21875 640.804688 234.195312 640.078125 C 232.167969 639.351562 230.546875 638.09375 229.695312 636.550781 C 229.019531 635.316406 227.984375 634.269531 226.640625 633.578125 C 223.042969 631.71875 218.617188 633.128906 216.761719 636.726562 C 214.902344 640.324219 216.3125 644.75 219.910156 646.609375 L 221.507812 647.433594 C 225.273438 649.378906 229.246094 650.207031 232.945312 650.179688 C 236.652344 650.15625 240.128906 649.347656 243.28125 648.003906 C 246.433594 646.660156 249.277344 644.742188 251.617188 642.320312 C 252.785156 641.109375 253.808594 639.757812 254.664062 638.3125 C 255.511719 636.855469 256.167969 635.296875 256.617188 633.6875 C 257.054688 632.074219 257.265625 630.417969 257.273438 628.785156 C 257.28125 627.148438 257.0625 625.535156 256.691406 623.980469 C 256.316406 622.425781 255.761719 620.929688 255.074219 619.511719 C 254.386719 618.09375 253.558594 616.753906 252.605469 615.515625 C 250.710938 613.035156 248.324219 610.921875 245.5625 609.417969 C 244.183594 608.667969 242.710938 608.074219 241.175781 607.683594 C 240.410156 607.492188 239.628906 607.335938 238.839844 607.246094 C 238.449219 607.179688 238.050781 607.175781 237.652344 607.144531 C 237.230469 607.113281 236.941406 607.117188 236.570312 607.09375 C 233.703125 606.933594 230.648438 606.851562 227.636719 607.230469 C 224.621094 607.617188 221.597656 608.472656 218.84375 609.933594 C 216.085938 611.386719 213.632812 613.429688 211.675781 615.828125 C 210.699219 617.03125 209.820312 618.304688 209.054688 619.632812 C 208.679688 620.296875 208.34375 620.972656 207.988281 621.644531 L 207.046875 623.710938 C 204.699219 629.292969 203.621094 635.242188 203.222656 641.144531 C 202.839844 647.054688 203.136719 652.964844 203.878906 658.792969 C 204.640625 664.617188 205.84375 670.371094 207.441406 676.019531 C 209.050781 681.660156 211.003906 687.210938 213.535156 692.566406 C 213.558594 692.613281 213.582031 692.660156 213.605469 692.707031 C 212.5 691.894531 211.386719 691.089844 210.25 690.316406 C 206.644531 687.847656 202.867188 685.589844 198.863281 683.714844 C 196.847656 682.792969 194.832031 681.921875 192.683594 681.214844 C 190.542969 680.507812 188.292969 679.964844 185.945312 679.753906 C 183.609375 679.523438 181.113281 679.699219 178.773438 680.285156 C 176.414062 680.863281 174.160156 681.832031 172.089844 683.105469 C 167.957031 685.660156 164.523438 689.445312 162.449219 694.09375 C 161.414062 696.417969 160.757812 698.949219 160.585938 701.605469 C 160.503906 702.945312 160.558594 704.347656 160.824219 705.808594 Z M 286.175781 767.28125 C 291.429688 769.980469 296.921875 772.277344 302.609375 774.003906 C 304.019531 774.472656 305.472656 774.804688 306.90625 775.195312 C 307.621094 775.398438 308.355469 775.527344 309.082031 775.691406 L 311.269531 776.160156 L 313.476562 776.53125 C 314.210938 776.648438 314.945312 776.789062 315.6875 776.859375 C 317.171875 777.015625 318.652344 777.238281 320.148438 777.296875 C 326.105469 777.707031 332.15625 777.410156 338.011719 776.277344 C 342.625 775.4375 347.125 774.164062 351.5 772.601562 C 357.53125 771.984375 363.570312 771.371094 369.605469 770.628906 C 376.269531 769.820312 382.925781 768.835938 389.535156 767.546875 C 391.695312 767.128906 393.851562 766.675781 396 766.183594 C 397.660156 766.523438 399.339844 766.738281 401.019531 766.960938 C 400.523438 765.480469 399.972656 764.027344 399.367188 762.601562 C 395.941406 763.425781 392.492188 764.152344 389.019531 764.773438 C 380.222656 766.3125 371.328125 767.28125 362.394531 768.015625 C 370.570312 764.097656 378.296875 759.402344 385.8125 754.570312 C 388.292969 752.96875 390.765625 751.394531 393.238281 749.804688 C 392.683594 748.644531 392.152344 747.476562 391.640625 746.296875 C 389.003906 747.949219 386.355469 749.605469 383.710938 751.21875 C 378.800781 754.222656 373.875 757.160156 368.832031 759.820312 C 363.796875 762.503906 358.636719 764.898438 353.355469 766.914062 C 352.027344 767.386719 350.707031 767.894531 349.367188 768.316406 C 348.695312 768.53125 348.03125 768.769531 347.355469 768.964844 L 345.335938 769.5625 C 342.628906 770.304688 339.90625 770.972656 337.148438 771.414062 C 335.777344 771.683594 334.390625 771.8125 333.011719 772.007812 L 330.929688 772.1875 L 329.890625 772.273438 L 328.851562 772.308594 L 326.769531 772.382812 C 326.074219 772.417969 325.378906 772.371094 324.683594 772.371094 C 323.992188 772.355469 323.296875 772.359375 322.601562 772.328125 L 320.519531 772.1875 C 319.128906 772.125 317.75 771.90625 316.363281 771.753906 C 315.671875 771.6875 314.984375 771.542969 314.296875 771.4375 L 312.234375 771.097656 L 310.183594 770.65625 C 309.503906 770.503906 308.8125 770.382812 308.140625 770.191406 C 306.789062 769.824219 305.425781 769.519531 304.09375 769.078125 C 302.027344 768.453125 299.976562 767.753906 297.953125 766.988281 C 298.054688 766.992188 298.152344 767.003906 298.25 767.007812 C 299.917969 767.109375 301.585938 767.179688 303.246094 767.238281 C 306.566406 767.347656 309.898438 767.488281 313.246094 767.445312 C 314.917969 767.433594 316.59375 767.359375 318.265625 767.246094 C 319.101562 767.164062 319.941406 767.121094 320.773438 767.007812 L 322.027344 766.859375 L 323.277344 766.675781 C 326.605469 766.179688 329.902344 765.304688 333.039062 764.003906 C 333.207031 763.933594 333.375 763.855469 333.542969 763.785156 C 340.09375 762.632812 346.421875 759.902344 351.941406 755.921875 C 352.863281 755.257812 353.726562 754.503906 354.605469 753.769531 C 353.664062 752.519531 352.554688 751.363281 351.363281 750.265625 C 350.652344 751.035156 349.957031 751.820312 349.183594 752.539062 C 348.320312 753.34375 347.417969 754.117188 346.484375 754.851562 C 347.4375 753.949219 348.375 753.03125 349.277344 752.082031 C 349.914062 751.417969 350.519531 750.730469 351.132812 750.054688 C 350.578125 749.546875 350.015625 749.046875 349.441406 748.558594 C 348.859375 749.25 348.296875 749.953125 347.695312 750.625 C 345.519531 753.078125 343.214844 755.410156 340.671875 757.441406 C 338.886719 758.886719 336.980469 760.1875 334.96875 761.277344 C 334.253906 761.535156 333.527344 761.777344 332.796875 761.996094 L 332.792969 762 C 332.484375 762.089844 332.257812 762.332031 332.164062 762.625 L 331.289062 763 L 330.144531 763.417969 C 329.386719 763.714844 328.597656 763.921875 327.820312 764.160156 C 326.25 764.582031 324.65625 764.941406 323.042969 765.1875 C 319.8125 765.714844 316.523438 765.875 313.234375 765.882812 C 309.941406 765.894531 306.640625 765.753906 303.332031 765.523438 C 300.023438 765.308594 296.734375 765.082031 293.507812 764.566406 C 292.765625 764.441406 292.023438 764.308594 291.289062 764.160156 C 290.34375 763.71875 289.40625 763.269531 288.476562 762.796875 C 286.964844 762.023438 285.511719 761.144531 284.039062 760.300781 C 283.359375 761.855469 282.765625 763.441406 282.265625 765.042969 C 283.566406 765.789062 284.839844 766.585938 286.175781 767.28125 Z M 349.453125 792.15625 C 334.773438 792.515625 318.785156 792.460938 307.148438 783.238281 C 306.140625 782.441406 305.148438 781.5625 303.9375 781.167969 C 302.367188 780.65625 300.675781 781.027344 299.03125 781.042969 C 296.015625 781.070312 293.003906 779.8125 290.859375 777.636719 C 293.847656 777.183594 296.6875 775.792969 298.898438 773.703125 C 292.714844 773.429688 286.65625 771.46875 281.3125 768.253906 C 280.597656 770.832031 279.925781 773.351562 279.136719 775.703125 C 297.632812 793.132812 325.507812 800.039062 349.453125 792.15625 Z M 352.671875 748.375 C 353.59375 747.347656 354.496094 746.3125 355.394531 745.273438 C 354.207031 747.039062 352.824219 748.683594 351.363281 750.265625 C 352.554688 751.363281 353.664062 752.519531 354.605469 753.769531 C 359.054688 750.039062 362.910156 745.496094 365.714844 740.21875 C 367.390625 737.074219 368.667969 733.816406 369.804688 730.621094 C 369.835938 730.539062 369.859375 730.460938 369.890625 730.382812 C 371.074219 729.460938 372.285156 728.59375 373.523438 727.785156 C 374.203125 727.382812 374.875 726.972656 375.554688 726.582031 C 376.238281 726.195312 376.953125 725.859375 377.648438 725.5 C 383.308594 722.746094 389.503906 721.234375 395.835938 720.476562 C 397.429688 720.296875 399.023438 720.148438 400.628906 720.035156 C 401.429688 719.976562 402.242188 719.945312 403.050781 719.90625 C 403.855469 719.867188 404.667969 719.835938 405.484375 719.824219 C 408.738281 719.734375 412.03125 719.796875 415.386719 719.9375 C 416.238281 719.972656 417.136719 719.859375 417.996094 719.585938 C 421.925781 718.316406 424.082031 714.105469 422.8125 710.179688 C 421.546875 706.25 417.335938 704.09375 413.40625 705.359375 L 413.398438 705.363281 C 410.175781 706.402344 406.894531 707.386719 403.597656 708.375 C 401.957031 708.875 400.300781 709.375 398.652344 709.914062 C 397 710.425781 395.355469 711 393.710938 711.566406 C 387.152344 713.886719 380.652344 716.742188 374.832031 720.691406 C 374.117188 721.203125 373.390625 721.683594 372.699219 722.21875 C 372.8125 721.90625 372.917969 721.585938 373.03125 721.277344 C 374.113281 718.285156 375.277344 715.445312 376.683594 712.941406 C 378.082031 710.4375 379.71875 708.296875 381.625 706.625 C 381.808594 706.460938 382.007812 706.261719 382.175781 706.074219 C 384.320312 703.621094 384.074219 699.886719 381.617188 697.742188 C 379.164062 695.59375 375.433594 695.84375 373.285156 698.296875 L 373.15625 698.441406 C 370.476562 701.507812 368.53125 705.003906 367.144531 708.457031 C 365.75 711.921875 364.851562 715.355469 364.097656 718.683594 C 362.847656 724.25 361.988281 729.601562 360.46875 734.539062 C 360.332031 734.703125 360.195312 734.871094 360.058594 735.039062 C 357.949219 737.65625 355.976562 740.347656 353.9375 742.957031 C 352.46875 744.863281 350.976562 746.730469 349.441406 748.558594 C 350.015625 749.046875 350.578125 749.546875 351.132812 750.054688 C 351.644531 749.492188 352.167969 748.941406 352.671875 748.375 Z M 423.902344 766.453125 C 422.3125 765.300781 420.628906 764.289062 418.945312 763.277344 C 422.359375 764.769531 426.050781 765.59375 429.769531 765.761719 C 429.488281 766.042969 429.210938 766.339844 428.957031 766.660156 C 425.429688 771.085938 426.15625 777.535156 430.585938 781.0625 L 431.765625 782.003906 C 434.820312 784.4375 437.984375 786.371094 441.308594 787.902344 C 444.207031 789.222656 447.242188 790.175781 450.390625 790.800781 C 450.425781 785.355469 450.507812 779.910156 450.699219 774.460938 C 450.484375 774.269531 450.242188 774.113281 450.035156 773.910156 C 448.464844 772.382812 447.132812 770.613281 446.292969 768.78125 C 445.644531 767.382812 444.652344 766.058594 443.363281 765.03125 C 442.832031 764.613281 442.277344 764.253906 441.699219 763.953125 C 442.296875 763.738281 442.886719 763.507812 443.46875 763.253906 C 439.832031 761.789062 436.191406 760.324219 432.554688 758.859375 C 438.921875 759.289062 445.320312 759.042969 451.65625 758.273438 C 451.773438 756.898438 451.902344 755.519531 452.042969 754.144531 C 445.394531 753.710938 438.75 753.160156 432.132812 752.375 C 432.167969 752.355469 432.207031 752.335938 432.242188 752.316406 C 433.691406 751.457031 435.125 750.574219 436.542969 749.675781 C 439.382812 747.882812 442.171875 746.039062 444.992188 744.273438 C 447.808594 742.503906 450.652344 740.804688 453.597656 739.316406 C 453.757812 739.238281 453.925781 739.175781 454.082031 739.097656 C 454.238281 738.199219 454.414062 737.304688 454.582031 736.410156 C 453.921875 736.726562 453.238281 737 452.585938 737.335938 C 451.074219 738.105469 449.59375 738.925781 448.136719 739.769531 C 446.671875 740.609375 445.230469 741.480469 443.800781 742.367188 C 438.085938 745.894531 432.59375 749.683594 426.703125 752.675781 C 420.847656 755.738281 414.683594 758.210938 408.355469 760.160156 C 405.390625 761.078125 402.390625 761.875 399.367188 762.601562 C 399.972656 764.027344 400.523438 765.480469 401.019531 766.960938 C 408.617188 767.96875 416.367188 767.847656 423.902344 766.453125 Z M 455.332031 732.550781 C 455.648438 731.046875 456.007812 729.539062 456.367188 728.03125 C 456.414062 728.054688 456.464844 728.070312 456.511719 728.097656 C 457.875 728.8125 459.199219 729.597656 460.464844 730.472656 C 461.480469 731.179688 462.46875 731.929688 463.417969 732.722656 C 466.109375 731.792969 468.847656 730.992188 471.621094 730.335938 C 474.921875 729.558594 478.257812 728.984375 481.59375 728.527344 C 483.511719 728.261719 485.425781 728.035156 487.34375 727.824219 C 489.488281 727.480469 491.660156 727.25 493.855469 727.15625 C 496.4375 726.902344 499.023438 726.652344 501.621094 726.460938 C 508.3125 725.949219 515.050781 725.652344 521.804688 725.886719 C 523.972656 725.96875 526.148438 726.113281 528.316406 726.3125 C 528.601562 726.089844 528.964844 725.964844 529.355469 725.988281 C 529.433594 725.996094 529.519531 726.007812 529.589844 726.023438 C 530.800781 726.296875 532.09375 726.328125 533.390625 726.125 C 534.6875 725.921875 535.988281 725.527344 537.253906 725 C 538.523438 724.480469 539.757812 723.824219 540.976562 723.121094 C 542.1875 722.40625 543.414062 721.671875 544.523438 720.863281 C 545.644531 720.0625 546.664062 719.160156 547.46875 718.117188 C 547.863281 717.589844 548.226562 717.039062 548.527344 716.449219 C 548.824219 715.851562 549.074219 715.234375 549.285156 714.597656 C 549.699219 713.320312 549.921875 711.972656 550.023438 710.613281 C 550.125 709.25 550.09375 707.859375 549.964844 706.496094 C 549.722656 703.773438 548.972656 701.113281 547.558594 698.996094 C 546.136719 696.902344 544.03125 695.265625 541.765625 695.015625 C 541.195312 694.945312 540.605469 694.929688 540.003906 694.988281 C 539.402344 695.039062 538.792969 695.136719 538.175781 695.296875 C 537.5625 695.441406 536.9375 695.632812 536.34375 695.871094 C 535.746094 696.089844 535.167969 696.367188 534.613281 696.664062 C 534.054688 696.964844 533.523438 697.308594 533.019531 697.675781 C 532.769531 697.863281 532.527344 698.058594 532.289062 698.253906 C 532.050781 698.457031 531.820312 698.671875 531.652344 698.863281 C 531.300781 699.257812 531.128906 699.652344 531.234375 699.886719 C 531.292969 700.007812 531.40625 700.066406 531.578125 700.074219 C 531.617188 700.074219 531.671875 700.070312 531.714844 700.0625 C 531.757812 700.054688 531.839844 699.988281 531.894531 699.953125 C 532.015625 699.863281 532.140625 699.78125 532.253906 699.683594 C 531.222656 702.746094 527.910156 704.394531 524.847656 703.363281 C 521.789062 702.335938 520.140625 699.023438 521.167969 695.960938 C 521.394531 695.527344 521.660156 695.113281 521.945312 694.707031 C 522.085938 694.515625 522.257812 694.289062 522.402344 694.136719 C 522.542969 693.980469 522.6875 693.820312 522.835938 693.683594 C 523.433594 693.109375 524.042969 692.648438 524.636719 692.300781 C 525.828125 691.59375 526.902344 691.261719 527.835938 691.027344 C 528.308594 690.90625 528.734375 690.835938 529.15625 690.761719 C 529.582031 690.6875 530.003906 690.617188 530.425781 690.5625 C 531.265625 690.4375 532.101562 690.351562 532.925781 690.285156 C 533.753906 690.21875 534.574219 690.195312 535.386719 690.175781 C 536.203125 690.175781 537.003906 690.191406 537.8125 690.234375 C 538.625 690.292969 539.449219 690.363281 540.277344 690.5 C 541.101562 690.644531 541.933594 690.832031 542.75 691.105469 C 544.398438 691.675781 545.898438 692.570312 547.128906 693.667969 C 548.363281 694.765625 549.355469 696.066406 550.109375 697.46875 C 551.636719 700.289062 552.15625 703.386719 552.265625 706.351562 C 552.332031 709.3125 552.101562 712.328125 551.097656 715.210938 C 550.839844 715.929688 550.535156 716.632812 550.175781 717.308594 C 549.804688 717.984375 549.390625 718.636719 548.917969 719.246094 C 547.957031 720.460938 546.804688 721.464844 545.617188 722.351562 C 544.417969 723.234375 543.214844 724.011719 541.984375 724.792969 C 540.753906 725.566406 539.492188 726.316406 538.152344 726.976562 C 537.78125 727.15625 537.402344 727.328125 537.019531 727.496094 C 538.667969 727.800781 540.308594 728.152344 541.9375 728.554688 C 542.773438 728.726562 543.589844 728.976562 544.40625 729.21875 L 546.859375 729.941406 C 547.671875 730.207031 548.472656 730.507812 549.277344 730.789062 L 549.96875 731.039062 C 549.363281 731.878906 548.757812 732.71875 548.160156 733.5625 C 545.894531 732.691406 543.597656 731.910156 541.230469 731.324219 C 534.875 729.683594 528.300781 728.847656 521.695312 728.527344 C 516.894531 728.304688 512.070312 728.363281 507.246094 728.578125 C 510.527344 729.496094 513.734375 730.757812 516.769531 732.734375 C 518.300781 733.742188 519.78125 734.945312 521.085938 736.414062 C 522.390625 737.875 523.519531 739.628906 524.269531 741.5625 C 525.023438 743.480469 525.402344 745.445312 525.589844 747.316406 C 525.679688 748.257812 525.726562 749.179688 525.742188 750.078125 C 525.75 750.527344 525.75 750.972656 525.746094 751.414062 C 525.742188 751.832031 525.738281 752.390625 525.632812 753.117188 C 525.542969 753.699219 525.375 754.425781 525.015625 755.191406 C 525.332031 755.535156 525.628906 755.902344 525.898438 756.300781 C 527.078125 758.015625 527.652344 759.976562 527.691406 761.921875 C 523.8125 766.730469 519.683594 771.335938 515.105469 775.601562 C 513.644531 774.203125 512.242188 772.644531 510.992188 770.820312 L 508.996094 767.917969 C 507.707031 766.046875 507.128906 763.898438 507.195312 761.789062 C 506.808594 761.730469 506.417969 761.660156 506.03125 761.585938 C 505.472656 761.453125 504.925781 761.328125 504.339844 761.136719 C 503.195312 760.761719 502.105469 760.273438 501.074219 759.675781 C 499.019531 758.476562 497.179688 756.855469 495.722656 754.773438 C 494.269531 752.707031 493.21875 750.085938 493.046875 747.238281 L 492.960938 745.863281 C 492.75 742.421875 495.371094 739.457031 498.816406 739.25 C 502.257812 739.039062 505.21875 741.660156 505.429688 745.101562 C 505.46875 745.71875 505.40625 746.347656 505.273438 746.921875 C 505.179688 747.316406 505.214844 747.875 505.511719 748.527344 C 505.796875 749.175781 506.332031 749.871094 507 750.417969 C 507.332031 750.695312 507.699219 750.933594 508.070312 751.128906 C 508.242188 751.222656 508.476562 751.308594 508.695312 751.40625 C 508.925781 751.480469 509.15625 751.570312 509.402344 751.628906 C 510.371094 751.902344 511.488281 752 512.671875 751.929688 C 513.855469 751.863281 515.097656 751.613281 516.332031 751.226562 C 516.484375 751.179688 516.636719 751.121094 516.792969 751.070312 L 517.21875 750.921875 C 517.296875 750.894531 517.363281 750.871094 517.417969 750.851562 C 517.417969 750.847656 517.417969 750.847656 517.417969 750.847656 C 517.46875 750.480469 517.515625 750.113281 517.554688 749.757812 C 517.636719 749.039062 517.691406 748.339844 517.710938 747.660156 C 517.757812 746.304688 517.667969 745.03125 517.386719 743.875 C 516.863281 741.601562 515.339844 739.410156 513.1875 737.570312 C 511.050781 735.726562 508.367188 734.226562 505.582031 733.0625 C 502.777344 731.894531 499.773438 731.117188 496.691406 730.636719 C 493.679688 730.179688 490.589844 730.039062 487.488281 730.140625 C 485.621094 730.339844 483.757812 730.554688 481.90625 730.804688 C 478.617188 731.25 475.351562 731.804688 472.140625 732.554688 C 469.851562 733.085938 467.589844 733.722656 465.355469 734.449219 C 469.402344 738.261719 472.671875 742.839844 475.144531 747.832031 C 475.835938 749.203125 476.445312 750.621094 476.996094 752.0625 C 477.566406 753.5 478.03125 754.980469 478.449219 756.484375 C 478.648438 757.242188 478.863281 758 479.007812 758.773438 L 479.25 759.933594 L 479.441406 761.101562 C 479.585938 761.878906 479.648438 762.675781 479.746094 763.464844 C 479.8125 764.261719 479.867188 765.0625 479.902344 765.867188 C 479.984375 769.085938 479.71875 772.417969 478.707031 775.761719 C 478.433594 776.59375 478.175781 777.429688 477.804688 778.25 C 477.621094 778.660156 477.46875 779.082031 477.253906 779.484375 L 476.601562 780.691406 C 476.398438 781.101562 476.125 781.480469 475.867188 781.871094 C 475.601562 782.253906 475.355469 782.652344 475.0625 783.019531 C 474.453125 783.738281 473.875 784.5 473.171875 785.148438 C 470.523438 787.898438 466.867188 789.851562 463.082031 790.78125 C 461.1875 791.242188 459.261719 791.472656 457.363281 791.519531 C 455.464844 791.5625 453.597656 791.402344 451.769531 791.125 C 451.296875 791.050781 450.855469 790.894531 450.390625 790.800781 C 450.425781 785.355469 450.507812 779.910156 450.699219 774.460938 C 451.304688 775.003906 451.910156 775.550781 452.570312 776.011719 C 453.460938 776.652344 454.40625 777.191406 455.367188 777.652344 C 456.328125 778.117188 457.3125 778.464844 458.292969 778.714844 C 459.277344 778.96875 460.253906 779.105469 461.207031 779.105469 C 463.113281 779.132812 464.957031 778.664062 466.613281 777.554688 C 468.289062 776.511719 469.660156 774.828125 470.699219 772.769531 C 470.84375 772.523438 470.929688 772.238281 471.050781 771.972656 C 471.160156 771.699219 471.296875 771.4375 471.386719 771.152344 C 471.5625 770.578125 471.785156 770.015625 471.914062 769.410156 L 472.140625 768.511719 L 472.304688 767.585938 C 472.433594 766.972656 472.472656 766.335938 472.558594 765.703125 C 472.796875 763.152344 472.644531 760.503906 472.214844 757.902344 C 471.753906 755.285156 470.996094 752.683594 469.96875 750.183594 C 468.941406 747.683594 467.644531 745.28125 466.117188 743.042969 C 464.59375 740.792969 462.839844 738.703125 460.886719 736.824219 C 460.695312 736.640625 460.5 736.457031 460.300781 736.28125 C 458.1875 737.125 456.117188 738.078125 454.082031 739.097656 C 454.238281 738.199219 454.414062 737.304688 454.582031 736.410156 C 455.839844 735.808594 457.089844 735.191406 458.378906 734.652344 C 457.402344 733.890625 456.378906 733.199219 455.332031 732.550781 Z M 517.367188 751.183594 C 517.359375 751.195312 517.355469 751.207031 517.347656 751.21875 C 517.21875 751.488281 517.234375 751.632812 517.273438 751.554688 C 517.300781 751.511719 517.332031 751.378906 517.367188 751.183594 Z M 252.636719 771.730469 L 51.558594 771.730469 C 49.707031 771.730469 48.207031 773.230469 48.207031 775.082031 C 48.207031 776.929688 49.707031 778.433594 51.558594 778.433594 L 252.636719 778.433594 C 254.488281 778.433594 255.988281 776.929688 255.988281 775.082031 C 255.988281 773.230469 254.488281 771.730469 252.636719 771.730469 Z M 600.824219 778.433594 L 796.558594 778.433594 C 798.410156 778.433594 799.910156 776.929688 799.910156 775.082031 C 799.910156 773.230469 798.410156 771.730469 796.558594 771.730469 L 600.824219 771.730469 C 598.972656 771.730469 597.472656 773.230469 597.472656 775.082031 C 597.472656 776.929688 598.972656 778.433594 600.824219 778.433594 Z M 600.824219 778.433594 " fill-opacity="1" fill-rule="nonzero"/></g></svg>