<svg xmlns="http://www.w3.org/2000/svg" xmlns:xlink="http://www.w3.org/1999/xlink" width="1080" zoomAndPan="magnify" viewBox="0 0 810 809.999993" height="1080" preserveAspectRatio="xMidYMid meet" version="1.0"><defs><clipPath id="c929089146"><path d="M 10 9.605469 L 796 9.605469 L 796 796 L 10 796 Z M 10 9.605469 " clip-rule="nonzero"/></clipPath></defs><g clip-path="url(#c929089146)"><path fill="#ffffff" d="M 755.015625 344.960938 C 754.898438 348.714844 754.648438 352.460938 754.421875 356.207031 C 755.734375 356.566406 757.050781 356.917969 758.363281 357.292969 C 757.898438 353.722656 757.3125 350.171875 756.46875 346.671875 C 756.277344 345.875 755.832031 344.894531 755.015625 344.960938 Z M 739.511719 356.203125 C 741 359.144531 742.699219 361.992188 744.46875 364.808594 C 746.234375 367.625 748.078125 370.414062 749.867188 373.253906 C 750.765625 374.671875 751.648438 376.105469 752.507812 377.558594 C 752.53125 377.59375 752.550781 377.628906 752.570312 377.664062 C 753.414062 370.535156 753.980469 363.375 754.421875 356.207031 C 755.734375 356.566406 757.050781 356.917969 758.363281 357.292969 C 759.226562 363.90625 759.503906 370.59375 759.050781 377.246094 C 760.515625 373.609375 761.980469 369.96875 763.445312 366.328125 C 763.703125 366.910156 763.933594 367.503906 764.148438 368.101562 C 764.449219 367.523438 764.804688 366.964844 765.226562 366.4375 C 766.253906 365.148438 767.574219 364.152344 768.976562 363.503906 C 770.058594 363.011719 771.097656 362.308594 772.097656 361.523438 C 777.605469 363.375 783.042969 365.445312 788.363281 367.796875 C 788.261719 368.023438 788.199219 368.265625 788.097656 368.488281 C 786.566406 371.8125 784.632812 374.980469 782.199219 378.035156 L 781.257812 379.214844 C 777.730469 383.640625 771.28125 384.371094 766.851562 380.84375 C 766.53125 380.585938 766.238281 380.3125 765.957031 380.027344 C 765.789062 383.75 764.964844 387.441406 763.472656 390.855469 C 764.484375 389.171875 765.496094 387.484375 766.648438 385.894531 C 767.761719 391.90625 768.027344 398.054688 767.609375 404.152344 C 765.515625 404.582031 763.5 405.128906 761.527344 405.753906 C 761.132812 404.316406 760.796875 402.863281 760.355469 401.441406 C 758.402344 395.113281 755.933594 388.949219 752.871094 383.09375 C 749.878906 377.207031 746.085938 371.714844 742.558594 365.996094 C 741.675781 364.570312 740.800781 363.128906 739.964844 361.664062 C 739.117188 360.203125 738.296875 358.722656 737.527344 357.214844 C 736.558594 355.320312 735.671875 353.382812 734.847656 351.421875 C 732.191406 354.808594 730.183594 358.6875 729.230469 362.855469 C 728.933594 364.164062 728.742188 365.492188 728.625 366.828125 C 728.539062 368.171875 728.53125 369.523438 728.613281 370.882812 C 728.8125 373.597656 729.347656 376.3125 730.121094 378.988281 C 731.675781 384.335938 734.152344 389.503906 736.761719 394.574219 C 738.097656 397.097656 739.480469 399.601562 740.929688 402.070312 C 742.390625 404.539062 743.882812 406.988281 745.417969 409.417969 C 746.066406 410.449219 746.742188 411.472656 747.394531 412.5 C 746.359375 413.183594 745.339844 413.910156 744.324219 414.667969 C 743.640625 413.566406 742.953125 412.476562 742.273438 411.367188 C 739.253906 406.421875 736.316406 401.394531 733.59375 396.230469 C 732.265625 393.628906 730.9375 391.039062 729.742188 388.347656 C 728.535156 385.667969 727.453125 382.90625 726.5625 380.050781 C 725.679688 377.195312 725.035156 374.230469 724.757812 371.191406 C 724.621094 369.667969 724.582031 368.132812 724.640625 366.59375 C 724.726562 365.050781 724.90625 363.511719 725.207031 361.992188 C 725.523438 360.480469 725.9375 358.988281 726.449219 357.527344 C 726.976562 356.078125 727.582031 354.65625 728.289062 353.289062 C 728.90625 352.113281 729.605469 350.988281 730.335938 349.882812 C 732.707031 350.507812 735.09375 351.128906 737.492188 351.746094 C 738.144531 353.242188 738.773438 354.75 739.511719 356.203125 Z M 778.023438 256.1875 C 777.667969 253.046875 776.929688 249.941406 775.667969 247.109375 C 775.027344 245.703125 774.273438 244.359375 773.375 243.140625 C 772.460938 241.933594 771.425781 240.847656 770.273438 239.917969 L 769.375 239.265625 C 769.074219 239.050781 768.746094 238.882812 768.433594 238.6875 C 768.273438 238.597656 768.121094 238.492188 767.953125 238.410156 L 767.457031 238.171875 C 767.132812 238 766.789062 237.867188 766.445312 237.734375 C 765.070312 237.203125 763.597656 236.878906 762.097656 236.75 C 759.09375 236.492188 755.976562 237.015625 753.109375 238.148438 C 750.253906 239.273438 747.605469 241.070312 745.292969 243.226562 C 742.96875 245.386719 740.957031 247.921875 739.203125 250.640625 C 735.777344 256.144531 733.097656 262.195312 731.519531 268.566406 C 730.855469 271.136719 730.351562 273.746094 729.933594 276.375 C 728.742188 276.625 727.554688 276.875 726.367188 277.128906 C 726.34375 276.890625 726.355469 276.652344 726.320312 276.410156 C 726.117188 275.113281 725.722656 273.8125 725.195312 272.546875 C 724.675781 271.277344 724.019531 270.042969 723.316406 268.824219 C 722.601562 267.613281 721.867188 266.386719 721.058594 265.273438 C 720.253906 264.152344 719.351562 263.136719 718.3125 262.332031 C 717.785156 261.933594 717.234375 261.570312 716.640625 261.269531 C 716.046875 260.976562 715.429688 260.726562 714.792969 260.515625 C 713.515625 260.097656 712.167969 259.875 710.804688 259.777344 C 709.445312 259.675781 708.054688 259.703125 706.6875 259.835938 C 703.96875 260.078125 701.308594 260.828125 699.1875 262.238281 C 697.097656 263.664062 695.460938 265.765625 695.210938 268.03125 C 695.136719 268.601562 695.121094 269.191406 695.183594 269.796875 C 695.234375 270.394531 695.332031 271.007812 695.488281 271.621094 C 695.636719 272.238281 695.828125 272.859375 696.0625 273.453125 C 696.285156 274.054688 696.5625 274.628906 696.859375 275.1875 C 697.160156 275.746094 697.503906 276.273438 697.871094 276.777344 C 698.054688 277.03125 698.25 277.273438 698.449219 277.511719 C 698.652344 277.746094 698.863281 277.980469 699.058594 278.148438 C 699.453125 278.5 699.847656 278.671875 700.082031 278.5625 C 700.199219 278.507812 700.261719 278.394531 700.265625 278.21875 C 700.269531 278.179688 700.265625 278.128906 700.257812 278.085938 C 700.25 278.042969 700.179688 277.960938 700.144531 277.902344 C 700.058594 277.78125 699.972656 277.660156 699.878906 277.546875 C 702.941406 278.574219 704.585938 281.890625 703.558594 284.949219 C 702.53125 288.011719 699.214844 289.660156 696.15625 288.628906 C 695.722656 288.402344 695.308594 288.140625 694.902344 287.851562 C 694.710938 287.710938 694.484375 287.542969 694.332031 287.398438 C 694.175781 287.253906 694.015625 287.113281 693.875 286.960938 C 693.304688 286.367188 692.84375 285.757812 692.496094 285.160156 C 691.789062 283.972656 691.457031 282.898438 691.222656 281.960938 C 691.101562 281.488281 691.03125 281.0625 690.957031 280.640625 C 690.878906 280.21875 690.8125 279.796875 690.753906 279.375 C 690.632812 278.535156 690.546875 277.699219 690.480469 276.875 C 690.414062 276.046875 690.386719 275.222656 690.371094 274.410156 C 690.367188 273.59375 690.386719 272.796875 690.429688 271.984375 C 690.484375 271.171875 690.558594 270.351562 690.695312 269.523438 C 690.839844 268.699219 691.027344 267.863281 691.300781 267.046875 C 691.871094 265.402344 692.761719 263.898438 693.859375 262.671875 C 694.960938 261.433594 696.261719 260.441406 697.664062 259.6875 C 700.484375 258.160156 703.578125 257.640625 706.546875 257.535156 C 709.507812 257.46875 712.523438 257.695312 715.40625 258.703125 C 716.125 258.960938 716.824219 259.265625 717.503906 259.625 C 718.175781 259.996094 718.828125 260.410156 719.441406 260.882812 C 720.65625 261.84375 721.660156 262.996094 722.546875 264.179688 C 723.429688 265.378906 724.207031 266.585938 724.988281 267.8125 C 725.761719 269.042969 726.511719 270.308594 727.167969 271.648438 C 727.351562 272.019531 727.523438 272.398438 727.691406 272.777344 C 727.996094 271.132812 728.34375 269.492188 728.746094 267.859375 C 728.921875 267.027344 729.171875 266.210938 729.414062 265.394531 L 730.132812 262.9375 C 730.398438 262.128906 730.703125 261.328125 730.984375 260.523438 L 731.414062 259.316406 L 731.632812 258.710938 L 731.882812 258.121094 L 732.902344 255.765625 C 733.078125 255.375 733.234375 254.972656 733.421875 254.589844 L 734.011719 253.449219 L 735.195312 251.160156 C 735.59375 250.402344 736.039062 249.664062 736.488281 248.929688 C 738.300781 245.996094 740.421875 243.207031 742.949219 240.757812 C 745.476562 238.316406 748.40625 236.214844 751.75 234.816406 C 755.070312 233.433594 758.710938 232.734375 762.378906 232.96875 C 764.210938 233.089844 766.046875 233.453125 767.800781 234.089844 C 768.242188 234.25 768.679688 234.410156 769.101562 234.617188 L 769.738281 234.914062 C 769.949219 235.015625 770.148438 235.136719 770.355469 235.25 C 770.753906 235.488281 771.175781 235.699219 771.558594 235.960938 L 772.707031 236.761719 C 774.183594 237.898438 775.488281 239.226562 776.625 240.664062 C 777.746094 242.113281 778.679688 243.667969 779.511719 245.261719 C 781.128906 248.472656 782.257812 251.851562 783.085938 255.28125 C 783.503906 257.003906 783.828125 258.730469 784.121094 260.457031 C 784.402344 262.195312 784.636719 263.957031 784.789062 265.753906 C 784.863281 266.640625 784.914062 267.535156 784.949219 268.441406 C 782.40625 268.582031 779.875 268.753906 777.355469 268.96875 C 778.292969 264.929688 778.476562 260.492188 778.023438 256.1875 Z M 784.949219 268.441406 C 782.40625 268.582031 779.875 268.753906 777.355469 268.96875 C 776.917969 270.847656 776.367188 272.664062 775.550781 274.300781 C 775.238281 274.945312 774.875 275.558594 774.511719 276.132812 C 774.320312 276.421875 774.113281 276.699219 773.921875 276.976562 L 773.296875 277.78125 C 773.070312 278.035156 772.863281 278.292969 772.632812 278.535156 C 772.394531 278.769531 772.171875 279.011719 771.925781 279.230469 C 771.4375 279.671875 770.960938 280.101562 770.433594 280.453125 C 768.378906 281.914062 766.070312 282.613281 764.144531 282.261719 C 761.582031 281.800781 758.8125 282.308594 756.492188 283.902344 C 756.097656 284.171875 755.730469 284.46875 755.386719 284.78125 C 754.621094 284.425781 753.894531 284.253906 753.3125 284.167969 C 752.582031 284.058594 752.027344 284.054688 751.609375 284.050781 C 751.167969 284.046875 750.722656 284.046875 750.273438 284.058594 C 749.371094 284.074219 748.453125 284.117188 747.511719 284.210938 C 745.636719 284.394531 743.671875 284.773438 741.753906 285.527344 C 739.824219 286.28125 738.070312 287.40625 736.609375 288.710938 C 735.140625 290.019531 733.9375 291.496094 732.929688 293.027344 C 730.953125 296.0625 729.691406 299.273438 728.773438 302.554688 C 728.558594 297.730469 728.5 292.90625 728.722656 288.101562 C 728.910156 284.167969 729.316406 280.25 729.933594 276.375 C 728.742188 276.625 727.554688 276.875 726.367188 277.128906 C 726.460938 278.179688 726.441406 279.226562 726.21875 280.207031 C 726.203125 280.28125 726.191406 280.363281 726.183594 280.441406 C 726.15625 280.832031 726.285156 281.195312 726.507812 281.484375 C 726.308594 283.652344 726.164062 285.824219 726.082031 287.996094 C 725.84375 294.75 726.144531 301.484375 726.65625 308.179688 C 726.847656 310.773438 727.097656 313.359375 727.351562 315.945312 C 727.445312 318.136719 727.675781 320.3125 728.019531 322.457031 C 728.230469 324.371094 728.457031 326.289062 728.71875 328.207031 C 729.179688 331.542969 729.75 334.878906 730.53125 338.175781 C 731.183594 340.949219 731.984375 343.6875 732.917969 346.378906 C 732.125 347.332031 731.375 348.320312 730.664062 349.335938 C 730.542969 349.511719 730.453125 349.707031 730.335938 349.882812 C 732.707031 350.507812 735.09375 351.128906 737.492188 351.746094 C 737.164062 350.992188 736.78125 350.261719 736.472656 349.496094 C 736.652344 349.300781 736.832031 349.105469 737.015625 348.910156 C 738.894531 346.957031 740.988281 345.203125 743.234375 343.683594 C 745.476562 342.152344 747.878906 340.859375 750.378906 339.832031 C 752.875 338.804688 755.480469 338.046875 758.097656 337.585938 C 760.699219 337.152344 763.347656 337 765.898438 337.242188 C 766.527344 337.328125 767.167969 337.367188 767.78125 337.496094 L 768.707031 337.660156 L 769.605469 337.886719 C 770.210938 338.015625 770.769531 338.238281 771.34375 338.414062 C 771.632812 338.503906 771.894531 338.640625 772.167969 338.746094 C 772.433594 338.867188 772.71875 338.957031 772.964844 339.101562 C 775.023438 340.136719 776.707031 341.507812 777.75 343.183594 C 778.859375 344.84375 779.324219 346.6875 779.300781 348.589844 C 779.296875 349.546875 779.164062 350.523438 778.90625 351.503906 C 778.660156 352.484375 778.3125 353.472656 777.84375 354.429688 C 777.386719 355.390625 776.84375 356.335938 776.207031 357.230469 C 775.578125 358.125 774.875 358.980469 774.105469 359.765625 C 773.480469 360.40625 772.792969 360.976562 772.097656 361.523438 C 777.605469 363.375 783.042969 365.445312 788.363281 367.796875 C 789.722656 364.679688 790.777344 361.441406 791.320312 358.03125 C 791.597656 356.203125 791.757812 354.335938 791.714844 352.4375 C 791.667969 350.539062 791.4375 348.613281 790.976562 346.71875 C 790.046875 342.933594 788.089844 339.277344 785.339844 336.625 C 784.695312 335.921875 783.929688 335.347656 783.214844 334.738281 C 782.847656 334.445312 782.445312 334.199219 782.0625 333.933594 C 781.675781 333.675781 781.296875 333.402344 780.886719 333.195312 L 779.679688 332.546875 C 779.277344 332.328125 778.855469 332.179688 778.445312 331.996094 C 777.625 331.625 776.785156 331.367188 775.957031 331.089844 C 772.613281 330.082031 769.28125 329.8125 766.058594 329.898438 C 765.253906 329.929688 764.457031 329.984375 763.660156 330.050781 C 762.871094 330.152344 762.074219 330.210938 761.296875 330.359375 L 760.125 330.550781 L 758.96875 330.789062 C 758.195312 330.9375 757.4375 331.152344 756.675781 331.347656 C 755.171875 331.769531 753.695312 332.234375 752.257812 332.800781 C 750.816406 333.355469 749.398438 333.960938 748.027344 334.65625 C 743.035156 337.125 738.453125 340.398438 734.644531 344.445312 C 733.914062 342.210938 733.28125 339.945312 732.746094 337.65625 C 731.996094 334.445312 731.445312 331.183594 731 327.894531 C 730.75 326.039062 730.535156 324.175781 730.332031 322.308594 C 730.234375 319.207031 730.375 316.121094 730.832031 313.109375 C 731.308594 310.027344 732.089844 307.019531 733.253906 304.21875 C 734.421875 301.433594 735.921875 298.75 737.765625 296.613281 C 739.605469 294.460938 741.792969 292.9375 744.070312 292.410156 C 745.226562 292.132812 746.496094 292.042969 747.855469 292.085938 C 748.535156 292.109375 749.234375 292.164062 749.949219 292.246094 C 750.308594 292.285156 750.671875 292.332031 751.039062 292.382812 C 751.042969 292.382812 751.042969 292.382812 751.042969 292.382812 C 751.066406 292.4375 751.085938 292.5 751.117188 292.582031 L 751.265625 293.007812 C 751.316406 293.164062 751.375 293.3125 751.421875 293.46875 C 751.808594 294.699219 752.054688 295.945312 752.125 297.128906 C 752.195312 298.308594 752.097656 299.425781 751.824219 300.398438 C 751.765625 300.644531 751.675781 300.871094 751.601562 301.101562 C 751.503906 301.324219 751.417969 301.554688 751.324219 301.730469 C 751.128906 302.101562 750.886719 302.464844 750.613281 302.800781 C 750.066406 303.46875 749.371094 304.003906 748.722656 304.289062 C 748.070312 304.582031 747.511719 304.617188 747.113281 304.523438 C 746.542969 304.390625 745.914062 304.332031 745.296875 304.367188 C 741.855469 304.578125 739.234375 307.539062 739.441406 310.984375 C 739.652344 314.425781 742.613281 317.046875 746.058594 316.835938 L 747.433594 316.753906 C 750.28125 316.578125 752.902344 315.527344 754.96875 314.078125 C 757.050781 312.621094 758.667969 310.78125 759.867188 308.726562 C 760.464844 307.695312 760.957031 306.601562 761.328125 305.460938 C 761.523438 304.875 761.648438 304.324219 761.78125 303.769531 C 761.855469 303.378906 761.921875 302.992188 761.980469 302.601562 C 764.089844 302.671875 766.242188 302.089844 768.113281 300.804688 L 771.015625 298.808594 C 775.277344 295.878906 778.324219 292.242188 780.449219 288.496094 C 780.972656 287.550781 781.460938 286.609375 781.886719 285.652344 C 782.3125 284.691406 782.679688 283.722656 783.023438 282.765625 L 783.488281 281.308594 C 783.617188 280.816406 783.753906 280.332031 783.871094 279.839844 C 784.117188 278.859375 784.304688 277.894531 784.460938 276.933594 C 784.921875 274.035156 785.042969 271.199219 784.949219 268.441406 Z M 751.75 292.527344 C 751.824219 292.566406 751.683594 292.582031 751.414062 292.453125 C 751.398438 292.445312 751.390625 292.4375 751.378906 292.433594 C 751.570312 292.464844 751.703125 292.5 751.75 292.527344 Z M 754.761719 423.988281 C 759.597656 431.503906 764.289062 439.230469 768.210938 447.40625 C 767.472656 438.46875 766.507812 429.578125 764.96875 420.78125 C 764.0625 415.714844 762.886719 410.707031 761.527344 405.753906 C 763.5 405.128906 765.515625 404.582031 767.609375 404.152344 C 767.386719 407.390625 767.027344 410.617188 766.375 413.796875 C 766.867188 415.945312 767.324219 418.101562 767.742188 420.265625 C 769.027344 426.875 770.011719 433.53125 770.820312 440.195312 C 771.566406 446.230469 772.179688 452.269531 772.792969 458.300781 C 774.355469 462.675781 775.632812 467.175781 776.472656 471.789062 C 777.601562 477.640625 777.902344 483.695312 777.492188 489.652344 C 777.429688 491.148438 777.207031 492.625 777.054688 494.109375 C 776.984375 494.855469 776.839844 495.585938 776.722656 496.324219 L 776.355469 498.53125 L 775.886719 500.714844 C 775.722656 501.441406 775.589844 502.175781 775.386719 502.890625 C 774.996094 504.328125 774.667969 505.78125 774.199219 507.191406 C 772.925781 511.382812 771.261719 515.425781 769.433594 519.390625 C 767.902344 518.265625 766.339844 517.195312 764.785156 516.117188 C 765.28125 512.945312 765.503906 509.714844 765.71875 506.46875 C 765.949219 503.160156 766.089844 499.859375 766.078125 496.566406 C 766.066406 493.273438 765.910156 489.984375 765.382812 486.757812 C 765.136719 485.140625 764.777344 483.546875 764.355469 481.976562 C 764.113281 481.199219 763.910156 480.410156 763.613281 479.65625 L 763.195312 478.511719 L 762.820312 477.636719 C 762.527344 477.542969 762.285156 477.3125 762.191406 477.003906 C 761.972656 476.269531 761.730469 475.546875 761.46875 474.832031 C 760.378906 472.816406 759.082031 470.910156 757.636719 469.125 C 755.605469 466.582031 753.273438 464.277344 750.816406 462.105469 C 750.507812 461.824219 750.175781 461.566406 749.859375 461.292969 C 750.4375 460.816406 751.007812 460.339844 751.5625 459.871094 C 751.796875 460.089844 752.042969 460.300781 752.277344 460.523438 C 753.222656 461.425781 754.144531 462.363281 755.046875 463.316406 C 754.3125 462.382812 753.539062 461.480469 752.734375 460.617188 C 752.429688 460.289062 752.085938 460.011719 751.773438 459.695312 C 752.957031 458.683594 754.058594 457.65625 755.105469 456.609375 C 755.433594 457.03125 755.804688 457.425781 756.117188 457.859375 C 760.09375 463.375 762.828125 469.707031 763.980469 476.257812 C 764.050781 476.425781 764.128906 476.589844 764.199219 476.761719 C 765.5 479.898438 766.375 483.191406 766.871094 486.523438 L 767.054688 487.773438 L 767.203125 489.023438 C 767.316406 489.859375 767.359375 490.695312 767.441406 491.53125 C 767.550781 493.207031 767.628906 494.882812 767.640625 496.554688 C 767.683594 499.898438 767.542969 503.234375 767.433594 506.554688 C 767.375 508.210938 767.300781 509.878906 767.203125 511.550781 C 767.195312 511.648438 767.1875 511.746094 767.179688 511.84375 C 767.949219 509.820312 768.648438 507.773438 769.273438 505.707031 C 769.714844 504.375 770.019531 503.007812 770.386719 501.660156 C 770.578125 500.984375 770.699219 500.296875 770.851562 499.617188 L 771.289062 497.566406 L 771.632812 495.503906 C 771.738281 494.8125 771.882812 494.128906 771.949219 493.433594 C 772.097656 492.050781 772.320312 490.671875 772.378906 489.28125 L 772.523438 487.199219 C 772.554688 486.503906 772.550781 485.808594 772.566406 485.113281 C 772.566406 484.417969 772.613281 483.722656 772.578125 483.03125 L 772.503906 480.949219 L 772.46875 479.90625 L 772.382812 478.867188 L 772.203125 476.789062 C 772.007812 475.410156 771.875 474.023438 771.609375 472.652344 C 771.167969 469.894531 770.5 467.167969 769.757812 464.464844 L 769.160156 462.441406 C 768.964844 461.765625 768.726562 461.105469 768.507812 460.433594 C 768.085938 459.089844 767.582031 457.773438 767.105469 456.445312 C 765.09375 451.164062 762.699219 446 760.015625 440.96875 C 757.355469 435.921875 754.417969 430.996094 751.414062 426.089844 C 749.089844 422.277344 746.695312 418.484375 744.324219 414.667969 C 745.339844 413.910156 746.359375 413.183594 747.394531 412.5 C 749.832031 416.328125 752.289062 420.148438 754.761719 423.988281 Z M 719.777344 391.800781 C 720.054688 392.660156 720.164062 393.5625 720.132812 394.414062 C 719.992188 397.765625 719.929688 401.0625 720.019531 404.316406 C 720.027344 405.132812 720.058594 405.945312 720.101562 406.75 C 720.140625 407.554688 720.167969 408.371094 720.230469 409.167969 C 720.34375 410.777344 720.488281 412.371094 720.671875 413.960938 C 721.429688 420.296875 722.9375 426.488281 725.695312 432.148438 C 726.054688 432.84375 726.386719 433.5625 726.773438 434.246094 C 727.167969 434.925781 727.578125 435.597656 727.980469 436.273438 C 728.785156 437.511719 729.65625 438.722656 730.578125 439.910156 C 730.65625 439.9375 730.734375 439.964844 730.816406 439.992188 C 734.011719 441.132812 737.269531 442.410156 740.414062 444.085938 C 746.242188 447.183594 751.191406 451.550781 755.105469 456.609375 C 754.058594 457.65625 752.957031 458.683594 751.773438 459.695312 C 749.824219 457.730469 747.730469 455.925781 745.464844 454.40625 C 746.503906 455.304688 747.542969 456.207031 748.570312 457.128906 C 749.578125 458.027344 750.574219 458.941406 751.5625 459.871094 C 751.007812 460.339844 750.4375 460.816406 749.859375 461.292969 C 747.695312 459.414062 745.441406 457.625 743.152344 455.859375 C 740.539062 453.820312 737.851562 451.847656 735.234375 449.738281 C 735.066406 449.605469 734.898438 449.464844 734.730469 449.332031 C 729.792969 447.8125 724.445312 446.953125 718.878906 445.703125 C 715.550781 444.949219 712.113281 444.050781 708.652344 442.652344 C 705.199219 441.265625 701.703125 439.324219 698.636719 436.640625 L 698.492188 436.515625 C 696.035156 434.367188 695.789062 430.636719 697.933594 428.179688 C 700.082031 425.726562 703.8125 425.476562 706.269531 427.625 C 706.457031 427.789062 706.65625 427.992188 706.820312 428.175781 C 708.492188 430.082031 710.632812 431.714844 713.136719 433.117188 C 715.640625 434.519531 718.476562 435.6875 721.46875 436.765625 C 721.78125 436.878906 722.101562 436.988281 722.414062 437.097656 C 721.878906 436.40625 721.398438 435.679688 720.886719 434.96875 C 716.9375 429.148438 714.078125 422.648438 711.761719 416.085938 C 711.195312 414.445312 710.621094 412.796875 710.109375 411.148438 C 709.570312 409.5 709.070312 407.84375 708.570312 406.199219 C 707.582031 402.902344 706.597656 399.625 705.558594 396.402344 L 705.554688 396.390625 C 704.289062 392.464844 706.445312 388.253906 710.371094 386.984375 C 714.300781 385.71875 718.511719 387.875 719.777344 391.800781 Z M 771.820312 521.234375 C 772.984375 517.894531 773.742188 514.425781 773.894531 510.898438 C 775.988281 513.109375 777.378906 515.953125 777.828125 518.941406 C 780.007812 516.796875 781.265625 513.78125 781.238281 510.765625 C 781.222656 509.121094 780.851562 507.433594 781.363281 505.863281 C 781.757812 504.652344 782.632812 503.65625 783.429688 502.652344 C 792.652344 491.015625 792.710938 475.027344 792.347656 460.34375 C 799.742188 482.796875 794.128906 508.695312 779.039062 527.085938 C 776.675781 525.054688 774.269531 523.097656 771.820312 521.234375 Z M 767.480469 538.226562 C 762.996094 541.609375 757.929688 544.515625 752.496094 545.84375 C 751.617188 546.875 750.75 547.914062 749.855469 548.925781 C 748.875 550.011719 747.921875 551.125 746.914062 552.183594 C 742.933594 556.472656 738.761719 560.558594 734.480469 564.503906 C 730.195312 568.4375 725.800781 572.238281 721.371094 575.96875 C 720.503906 576.835938 719.554688 577.636719 718.527344 578.339844 C 715.03125 581.261719 711.503906 584.164062 707.808594 586.933594 C 705.039062 589.011719 702.167969 590.992188 699.171875 592.796875 C 696.734375 595.324219 694.527344 598.054688 692.550781 600.9375 C 690.171875 604.4375 688.179688 608.1875 686.714844 612.117188 C 685.285156 616.058594 684.1875 620.144531 684.214844 624.050781 C 684.21875 626.015625 684.542969 627.851562 685.175781 629.636719 C 685.824219 631.40625 686.769531 633.0625 687.921875 634.542969 C 690.230469 637.492188 693.410156 639.75 696.8125 640.746094 C 698.5 641.261719 700.25 641.464844 701.894531 641.359375 C 703.53125 641.269531 704.886719 640.75 705.617188 640.082031 C 706 639.753906 706.324219 639.316406 706.65625 638.765625 C 706.980469 638.214844 707.28125 637.511719 707.5625 636.722656 C 707.835938 635.929688 708.082031 635.023438 708.335938 634.054688 L 708.707031 632.566406 C 708.820312 632.09375 708.914062 631.65625 708.976562 631.261719 C 709.105469 630.480469 709.101562 629.878906 709.003906 629.550781 C 708.957031 629.382812 708.894531 629.296875 708.832031 629.195312 L 708.554688 628.820312 C 708.433594 628.667969 708.269531 628.480469 708.078125 628.273438 C 707.878906 628.066406 707.632812 627.832031 707.363281 627.585938 C 706.804688 627.085938 706.109375 626.519531 705.300781 625.871094 C 702.582031 623.691406 702.148438 619.726562 704.324219 617.007812 C 706.503906 614.292969 710.46875 613.855469 713.183594 616.035156 C 713.464844 616.257812 713.71875 616.5 713.949219 616.753906 L 714 616.816406 C 714.742188 617.65625 715.582031 618.601562 716.4375 619.722656 C 717.285156 620.851562 718.167969 622.171875 718.878906 623.800781 C 719.222656 624.621094 719.515625 625.507812 719.714844 626.445312 C 719.90625 627.390625 719.996094 628.375 719.972656 629.28125 C 719.925781 631.109375 719.535156 632.648438 719.117188 633.9375 C 718.90625 634.585938 718.683594 635.179688 718.464844 635.726562 L 717.816406 637.300781 C 717.367188 638.363281 716.882812 639.484375 716.269531 640.648438 C 715.65625 641.816406 714.945312 643.023438 713.980469 644.199219 C 713.019531 645.363281 711.824219 646.496094 710.398438 647.335938 C 708.976562 648.195312 707.453125 648.703125 706 648.972656 C 704.542969 649.242188 703.140625 649.292969 701.800781 649.214844 C 699.144531 649.042969 696.613281 648.382812 694.285156 647.351562 C 689.636719 645.277344 685.855469 641.839844 683.296875 637.710938 C 682.027344 635.636719 681.058594 633.382812 680.480469 631.027344 C 679.890625 628.683594 679.71875 626.191406 679.945312 623.855469 C 680.160156 621.507812 680.703125 619.257812 681.410156 617.117188 C 682.117188 614.96875 682.984375 612.949219 683.910156 610.9375 C 685.785156 606.929688 688.042969 603.152344 690.511719 599.546875 C 691.285156 598.410156 692.085938 597.296875 692.902344 596.195312 C 692.855469 596.21875 692.808594 596.242188 692.761719 596.261719 C 687.40625 598.796875 681.855469 600.75 676.210938 602.359375 C 670.566406 603.953125 664.8125 605.160156 658.988281 605.921875 C 653.160156 606.664062 647.25 606.960938 641.335938 606.574219 C 635.4375 606.179688 629.484375 605.097656 623.902344 602.753906 L 621.839844 601.8125 C 621.167969 601.457031 620.492188 601.117188 619.828125 600.746094 C 618.5 599.976562 617.226562 599.101562 616.023438 598.125 C 613.625 596.167969 611.582031 593.714844 610.128906 590.957031 C 608.667969 588.203125 607.8125 585.179688 607.425781 582.164062 C 607.042969 579.152344 607.125 576.097656 607.289062 573.230469 C 607.308594 572.855469 607.308594 572.570312 607.339844 572.144531 C 607.371094 571.75 607.375 571.351562 607.441406 570.960938 C 607.53125 570.171875 607.683594 569.390625 607.878906 568.625 C 608.265625 567.089844 608.863281 565.617188 609.613281 564.234375 C 611.113281 561.472656 613.226562 559.089844 615.710938 557.195312 C 616.949219 556.242188 618.289062 555.410156 619.707031 554.726562 C 621.125 554.035156 622.617188 553.484375 624.175781 553.109375 C 625.730469 552.734375 627.34375 552.519531 628.980469 552.527344 C 630.613281 552.535156 632.269531 552.746094 633.882812 553.183594 C 635.492188 553.628906 637.050781 554.289062 638.503906 555.132812 C 639.953125 555.988281 641.300781 557.015625 642.515625 558.183594 C 644.933594 560.523438 646.851562 563.367188 648.195312 566.519531 C 649.539062 569.671875 650.351562 573.144531 650.371094 576.855469 C 650.402344 580.554688 649.574219 584.523438 647.628906 588.289062 L 646.800781 589.890625 C 644.941406 593.488281 640.519531 594.898438 636.921875 593.039062 C 633.324219 591.179688 631.914062 586.757812 633.769531 583.160156 C 634.464844 581.816406 635.511719 580.78125 636.742188 580.101562 C 638.285156 579.25 639.546875 577.628906 640.269531 575.605469 C 641 573.582031 641.191406 571.1875 640.8125 568.832031 C 640.429688 566.480469 639.503906 564.148438 638.058594 562.195312 C 637.339844 561.21875 636.5 560.328125 635.542969 559.585938 C 635.070312 559.210938 634.570312 558.863281 634.042969 558.5625 C 633.78125 558.414062 633.515625 558.257812 633.238281 558.140625 C 632.960938 558.015625 632.6875 557.875 632.398438 557.777344 C 630.132812 556.871094 627.542969 556.679688 625.003906 557.09375 C 622.460938 557.511719 619.972656 558.550781 617.789062 560.046875 C 615.613281 561.550781 613.734375 563.519531 612.421875 565.800781 C 611.765625 566.941406 611.257812 568.160156 610.914062 569.417969 C 610.742188 570.042969 610.625 570.6875 610.546875 571.328125 C 610.492188 571.652344 610.496094 571.976562 610.46875 572.300781 C 610.441406 572.59375 610.4375 573.03125 610.414062 573.378906 C 610.339844 574.835938 610.273438 576.222656 610.285156 577.617188 C 610.308594 579.003906 610.410156 580.378906 610.605469 581.730469 C 611 584.429688 611.800781 587.03125 613.09375 589.359375 C 614.375 591.6875 616.136719 593.726562 618.238281 595.382812 C 619.292969 596.207031 620.414062 596.953125 621.601562 597.609375 L 623.421875 598.550781 L 625.304688 599.386719 C 630.40625 601.476562 635.976562 602.480469 641.578125 602.828125 C 647.191406 603.164062 652.867188 602.855469 658.484375 602.113281 C 664.105469 601.347656 669.675781 600.152344 675.128906 598.582031 C 680.582031 597.003906 685.933594 595.03125 690.996094 592.582031 C 696.023438 590.132812 700.734375 586.996094 705.246094 583.542969 C 709.757812 580.09375 714.125 576.335938 718.503906 572.59375 C 720.078125 571.242188 721.640625 569.878906 723.195312 568.507812 C 724.367188 566.523438 725.320312 564.371094 726.109375 562.152344 C 728.09375 556.382812 729.417969 550.296875 729.410156 544.210938 C 729.425781 541.167969 729.066406 538.140625 728.359375 535.207031 C 727.636719 532.277344 726.480469 529.460938 725.007812 526.820312 C 722.019531 521.566406 717.800781 516.949219 712.664062 513.886719 C 711.371094 513.144531 710.046875 512.457031 708.667969 511.929688 C 708.328125 511.78125 707.972656 511.683594 707.625 511.558594 C 707.277344 511.441406 706.929688 511.316406 706.570312 511.230469 L 705.507812 510.945312 L 704.433594 510.734375 C 703 510.492188 701.546875 510.339844 700.105469 510.421875 L 699.5625 510.433594 L 699.03125 510.496094 L 697.96875 510.617188 C 697.617188 510.671875 697.269531 510.769531 696.921875 510.839844 C 696.574219 510.925781 696.21875 510.96875 695.882812 511.097656 C 693.144531 511.921875 690.570312 513.332031 688.421875 515.230469 C 686.28125 517.132812 684.515625 519.453125 683.351562 522.011719 L 682.953125 522.984375 C 682.886719 523.144531 682.8125 523.304688 682.757812 523.46875 L 682.605469 523.96875 L 682.296875 524.964844 L 682.085938 525.980469 C 681.914062 526.652344 681.890625 527.34375 681.820312 528.019531 C 681.773438 528.359375 681.824219 528.707031 681.832031 529.046875 C 681.855469 529.386719 681.851562 529.726562 681.894531 530.066406 C 682.261719 532.78125 683.566406 535.308594 685.34375 537.269531 C 686.265625 538.234375 687.175781 539.140625 688.21875 539.871094 C 689.203125 540.648438 690.261719 541.265625 691.265625 541.859375 C 692.328125 542.363281 693.320312 542.894531 694.335938 543.277344 C 694.589844 543.375 694.828125 543.519531 695.082031 543.597656 C 695.335938 543.683594 695.582031 543.777344 695.828125 543.886719 C 696.074219 544.011719 696.324219 544.085938 696.574219 544.179688 C 696.820312 544.28125 697.070312 544.386719 697.316406 544.527344 L 698.492188 545.195312 C 701.214844 546.746094 702.164062 550.207031 700.617188 552.929688 C 699.484375 554.921875 697.320312 555.960938 695.179688 555.773438 C 693.128906 555.589844 691.097656 555.019531 689.289062 554.09375 C 687.441406 553.222656 685.832031 551.980469 684.382812 550.640625 C 681.523438 547.898438 679.566406 544.464844 678.402344 540.9375 C 678.257812 540.492188 678.148438 540.035156 678.019531 539.59375 C 677.90625 539.144531 677.761719 538.714844 677.6875 538.253906 C 677.515625 537.34375 677.316406 536.464844 677.234375 535.558594 C 677.1875 535.105469 677.113281 534.664062 677.074219 534.21875 C 677.058594 533.765625 677.03125 533.316406 677.003906 532.875 L 676.96875 532.210938 L 676.976562 531.539062 L 676.996094 530.210938 C 677.003906 529.769531 677.0625 529.328125 677.097656 528.890625 L 677.15625 528.230469 L 677.179688 527.902344 L 677.234375 527.578125 C 677.390625 526.714844 677.476562 525.839844 677.730469 525.003906 C 677.839844 524.582031 677.945312 524.15625 678.066406 523.738281 L 678.507812 522.519531 L 678.734375 521.910156 C 678.8125 521.707031 678.914062 521.515625 679.003906 521.320312 L 679.554688 520.15625 C 682.757812 514.082031 688.429688 509.5 695.019531 507.851562 C 695.421875 507.722656 695.847656 507.679688 696.261719 507.597656 C 696.679688 507.527344 697.09375 507.433594 697.515625 507.390625 L 698.785156 507.285156 L 699.417969 507.234375 L 700.046875 507.238281 C 701.726562 507.207031 703.398438 507.433594 705.023438 507.769531 C 708.285156 508.464844 711.328125 509.828125 714.097656 511.542969 C 715.46875 512.425781 716.785156 513.382812 718.019531 514.433594 C 719.242188 515.5 720.425781 516.605469 721.503906 517.8125 C 723.683594 520.199219 725.539062 522.839844 727.097656 525.660156 C 728.648438 528.480469 729.859375 531.507812 730.617188 534.648438 C 731.382812 537.78125 731.753906 541 731.757812 544.203125 C 731.800781 547.410156 731.453125 550.597656 730.933594 553.742188 C 730.660156 555.3125 730.34375 556.871094 729.953125 558.414062 C 729.574219 559.960938 729.140625 561.488281 728.644531 563.011719 C 728.542969 563.308594 728.441406 563.609375 728.339844 563.90625 C 729.347656 562.984375 730.351562 562.058594 731.34375 561.128906 C 735.515625 557.203125 739.550781 553.160156 743.382812 548.945312 C 751.070312 540.542969 757.859375 531.363281 762.992188 521.324219 C 763.464844 520.394531 763.914062 519.453125 764.355469 518.511719 C 764.503906 517.773438 764.636719 517.035156 764.761719 516.292969 C 764.769531 516.234375 764.773438 516.175781 764.785156 516.117188 C 766.339844 517.195312 767.902344 518.265625 769.433594 519.390625 C 768.785156 520.804688 768.183594 522.242188 767.476562 523.625 C 764.746094 528.867188 761.59375 533.878906 758.125 538.632812 C 757.503906 539.515625 756.84375 540.367188 756.183594 541.222656 C 763.480469 536.53125 768.996094 529.3125 771.820312 521.234375 C 774.269531 523.097656 776.675781 525.054688 779.039062 527.085938 C 775.648438 531.21875 771.789062 534.980469 767.480469 538.226562 Z M 775.273438 553.8125 C 777.125 553.8125 778.625 555.3125 778.625 557.160156 L 778.625 758.238281 C 778.625 760.089844 777.125 761.589844 775.273438 761.589844 C 773.425781 761.589844 771.925781 760.089844 771.925781 758.238281 L 771.925781 557.160156 C 771.925781 555.3125 773.425781 553.8125 775.273438 553.8125 Z M 775.273438 212.328125 C 773.425781 212.328125 771.925781 210.828125 771.925781 208.976562 L 771.925781 13.242188 C 771.925781 11.390625 773.425781 9.890625 775.273438 9.890625 C 777.125 9.890625 778.625 11.390625 778.625 13.242188 L 778.625 208.976562 C 778.625 210.828125 777.125 212.328125 775.273438 212.328125 Z M 250.835938 739.007812 C 248.117188 740.761719 245.582031 742.773438 243.421875 745.097656 C 241.265625 747.410156 239.46875 750.058594 238.339844 752.917969 C 237.207031 755.78125 236.6875 758.898438 236.945312 761.902344 C 237.074219 763.40625 237.398438 764.875 237.929688 766.25 C 238.0625 766.59375 238.195312 766.941406 238.363281 767.265625 L 238.605469 767.761719 C 238.683594 767.925781 238.789062 768.078125 238.882812 768.238281 C 239.078125 768.550781 239.246094 768.882812 239.460938 769.183594 L 240.113281 770.078125 C 241.042969 771.230469 242.128906 772.265625 243.332031 773.179688 C 244.550781 774.078125 245.898438 774.832031 247.304688 775.472656 C 250.136719 776.734375 253.238281 777.472656 256.382812 777.828125 C 262.691406 778.492188 269.34375 777.933594 274.492188 775.355469 C 275.140625 775.042969 275.75 774.679688 276.328125 774.316406 C 276.617188 774.125 276.894531 773.921875 277.171875 773.726562 L 277.972656 773.101562 C 278.226562 772.875 278.488281 772.667969 278.730469 772.441406 C 278.964844 772.199219 279.207031 771.976562 279.425781 771.730469 C 279.867188 771.242188 280.296875 770.765625 280.648438 770.238281 C 282.105469 768.183594 282.808594 765.875 282.457031 763.953125 C 282.335938 763.285156 282.289062 762.605469 282.304688 761.921875 C 286.179688 766.730469 290.308594 771.335938 294.886719 775.601562 C 292.925781 777.476562 290.835938 779.039062 288.691406 780.253906 C 287.746094 780.78125 286.804688 781.269531 285.847656 781.691406 C 284.886719 782.117188 283.917969 782.484375 282.957031 782.832031 L 281.5 783.292969 C 281.011719 783.421875 280.527344 783.5625 280.035156 783.679688 C 279.054688 783.921875 278.085938 784.109375 277.128906 784.265625 C 273.28125 784.882812 269.539062 784.890625 265.949219 784.59375 C 264.152344 784.445312 262.386719 784.207031 260.652344 783.925781 C 258.925781 783.632812 257.195312 783.3125 255.476562 782.890625 C 252.046875 782.0625 248.667969 780.9375 245.457031 779.316406 C 243.863281 778.484375 242.308594 777.550781 240.859375 776.429688 C 239.417969 775.296875 238.09375 773.988281 236.957031 772.511719 L 236.152344 771.367188 C 235.890625 770.980469 235.679688 770.5625 235.445312 770.160156 C 235.332031 769.953125 235.207031 769.757812 235.109375 769.546875 L 234.8125 768.90625 C 234.605469 768.484375 234.445312 768.046875 234.285156 767.609375 C 233.648438 765.851562 233.285156 764.015625 233.164062 762.183594 C 232.925781 758.515625 233.625 754.878906 235.011719 751.558594 C 236.410156 748.214844 238.507812 745.28125 240.953125 742.753906 C 243.402344 740.226562 246.191406 738.105469 249.121094 736.292969 C 249.859375 735.84375 250.597656 735.398438 251.355469 735 L 253.640625 733.816406 L 254.785156 733.226562 C 255.167969 733.039062 255.566406 732.882812 255.957031 732.710938 L 258.316406 731.691406 L 258.90625 731.4375 L 259.507812 731.222656 L 260.023438 731.039062 C 260.628906 731.878906 261.234375 732.71875 261.835938 733.5625 C 257.996094 735.039062 254.296875 736.851562 250.835938 739.007812 Z M 345.15625 754.820312 C 349.425781 754.6875 353.6875 754.421875 357.953125 754.144531 C 358.09375 755.519531 358.222656 756.898438 358.339844 758.273438 C 354.480469 757.804688 350.644531 757.183594 346.867188 756.273438 C 346.070312 756.082031 345.085938 755.636719 345.15625 754.820312 Z M 409.613281 745.222656 C 407.179688 743.691406 404.730469 742.195312 402.265625 740.734375 C 399.796875 739.285156 397.292969 737.90625 394.769531 736.570312 C 389.699219 733.957031 384.53125 731.480469 379.179688 729.925781 C 376.507812 729.152344 373.792969 728.617188 371.078125 728.421875 C 369.71875 728.335938 368.367188 728.347656 367.023438 728.433594 C 365.6875 728.546875 364.359375 728.742188 363.050781 729.039062 C 360.082031 729.714844 357.265625 730.949219 354.664062 732.550781 C 354.34375 731.046875 353.988281 729.539062 353.628906 728.03125 C 354.953125 727.355469 356.324219 726.765625 357.722656 726.257812 C 359.179688 725.742188 360.671875 725.328125 362.1875 725.011719 C 363.703125 724.710938 365.242188 724.53125 366.785156 724.445312 C 368.328125 724.390625 369.863281 724.425781 371.382812 724.5625 C 374.425781 724.839844 377.390625 725.484375 380.246094 726.367188 C 383.097656 727.257812 385.863281 728.339844 388.542969 729.546875 C 391.230469 730.742188 393.824219 732.070312 396.425781 733.402344 C 401.589844 736.121094 406.613281 739.058594 411.558594 742.078125 C 413.84375 743.472656 416.09375 744.882812 418.355469 746.296875 C 417.84375 747.476562 417.308594 748.644531 416.753906 749.804688 C 414.375 748.273438 412 746.722656 409.613281 745.222656 Z M 649.167969 705.808594 C 648.894531 707.257812 648.390625 708.78125 647.53125 710.203125 C 646.691406 711.632812 645.558594 712.824219 644.394531 713.785156 C 643.21875 714.75 642.007812 715.460938 640.84375 716.074219 C 639.675781 716.6875 638.554688 717.171875 637.496094 717.621094 L 635.921875 718.269531 C 635.375 718.488281 634.78125 718.710938 634.132812 718.921875 C 632.839844 719.339844 631.300781 719.730469 629.472656 719.777344 C 628.566406 719.800781 627.585938 719.710938 626.640625 719.523438 C 625.703125 719.324219 624.816406 719.03125 623.996094 718.683594 C 622.367188 717.976562 621.042969 717.089844 619.917969 716.242188 C 618.792969 715.386719 617.851562 714.546875 617.011719 713.804688 L 616.949219 713.753906 C 616.691406 713.523438 616.449219 713.269531 616.226562 712.992188 C 614.050781 710.273438 614.488281 706.308594 617.203125 704.128906 C 619.917969 701.953125 623.886719 702.390625 626.0625 705.105469 C 626.710938 705.914062 627.277344 706.613281 627.78125 707.167969 C 628.027344 707.441406 628.261719 707.683594 628.46875 707.886719 C 628.675781 708.078125 628.859375 708.238281 629.011719 708.359375 L 629.390625 708.636719 C 629.492188 708.699219 629.578125 708.761719 629.746094 708.808594 C 630.074219 708.90625 630.671875 708.914062 631.457031 708.78125 C 631.851562 708.71875 632.285156 708.628906 632.761719 708.515625 L 634.25 708.140625 C 635.21875 707.890625 636.125 707.644531 636.917969 707.367188 C 637.707031 707.085938 638.410156 706.785156 638.960938 706.460938 C 639.511719 706.132812 639.949219 705.804688 640.277344 705.421875 C 640.945312 704.691406 641.460938 703.335938 641.554688 701.699219 C 641.660156 700.054688 641.457031 698.304688 640.941406 696.617188 C 639.945312 693.214844 637.6875 690.035156 634.734375 687.726562 C 633.253906 686.574219 631.601562 685.628906 629.832031 684.980469 C 628.046875 684.347656 626.207031 684.027344 624.246094 684.019531 C 620.339844 683.996094 616.253906 685.089844 612.3125 686.523438 C 608.382812 687.984375 604.628906 689.976562 601.132812 692.355469 C 598.25 694.332031 595.519531 696.539062 592.992188 698.976562 C 591.1875 701.972656 589.207031 704.847656 587.128906 707.613281 C 584.359375 711.308594 581.457031 714.835938 578.535156 718.335938 C 577.828125 719.363281 577.027344 720.308594 576.160156 721.175781 C 572.433594 725.609375 568.632812 730 564.695312 734.289062 C 560.753906 738.570312 556.667969 742.738281 552.378906 746.71875 C 551.320312 747.726562 550.207031 748.683594 549.121094 749.660156 C 548.109375 750.558594 547.066406 751.421875 546.039062 752.300781 C 544.710938 757.734375 541.804688 762.800781 538.421875 767.285156 C 536.136719 770.316406 533.597656 773.121094 530.855469 775.703125 C 530.066406 773.351562 529.394531 770.832031 528.679688 768.253906 C 533.757812 765.199219 538.1875 761.015625 541.417969 755.988281 C 540.5625 756.648438 539.710938 757.308594 538.828125 757.929688 C 535.28125 760.515625 531.550781 762.855469 527.730469 765.042969 C 527.226562 763.441406 526.632812 761.855469 525.957031 760.300781 C 534.265625 755.53125 542.003906 749.71875 549.140625 743.1875 C 553.355469 739.359375 557.398438 735.320312 561.320312 731.148438 C 562.253906 730.15625 563.179688 729.152344 564.101562 728.144531 C 563.800781 728.246094 563.503906 728.351562 563.207031 728.449219 C 561.683594 728.945312 560.152344 729.378906 558.609375 729.757812 C 557.066406 730.148438 555.503906 730.464844 553.9375 730.742188 C 550.792969 731.257812 547.605469 731.605469 544.398438 731.5625 C 541.191406 731.558594 537.976562 731.1875 534.839844 730.421875 C 531.703125 729.667969 528.675781 728.453125 525.855469 726.902344 C 523.03125 725.347656 520.394531 723.492188 518.003906 721.308594 C 516.800781 720.234375 515.695312 719.046875 514.628906 717.828125 C 513.578125 716.589844 512.621094 715.273438 511.738281 713.902344 C 510.023438 711.132812 508.660156 708.089844 507.960938 704.832031 C 507.628906 703.203125 507.402344 701.535156 507.433594 699.851562 L 507.429688 699.222656 L 507.480469 698.589844 L 507.582031 697.320312 C 507.628906 696.898438 507.722656 696.488281 507.789062 696.066406 C 507.875 695.652344 507.917969 695.226562 508.046875 694.824219 C 509.695312 688.234375 514.273438 682.566406 520.347656 679.363281 L 521.515625 678.808594 C 521.710938 678.71875 521.902344 678.617188 522.101562 678.539062 L 522.710938 678.316406 L 523.933594 677.871094 C 524.351562 677.75 524.773438 677.648438 525.195312 677.535156 C 526.03125 677.285156 526.90625 677.195312 527.773438 677.042969 L 528.097656 676.984375 L 528.425781 676.960938 L 529.082031 676.902344 C 529.523438 676.871094 529.964844 676.808594 530.40625 676.800781 L 531.734375 676.78125 L 532.402344 676.773438 L 533.066406 676.808594 C 533.511719 676.839844 533.960938 676.863281 534.414062 676.878906 C 534.859375 676.917969 535.300781 676.992188 535.75 677.039062 C 536.660156 677.121094 537.539062 677.320312 538.445312 677.496094 C 538.90625 677.566406 539.335938 677.710938 539.785156 677.828125 C 540.230469 677.953125 540.6875 678.0625 541.128906 678.207031 C 544.660156 679.375 548.09375 681.332031 550.835938 684.1875 C 552.175781 685.640625 553.417969 687.246094 554.289062 689.09375 C 555.214844 690.902344 555.785156 692.933594 555.96875 694.984375 C 556.15625 697.128906 555.113281 699.289062 553.125 700.421875 C 550.402344 701.972656 546.9375 701.019531 545.390625 698.296875 L 544.71875 697.121094 C 544.582031 696.875 544.476562 696.625 544.375 696.378906 C 544.28125 696.128906 544.207031 695.878906 544.082031 695.632812 C 543.972656 695.390625 543.875 695.140625 543.789062 694.886719 C 543.710938 694.632812 543.566406 694.394531 543.46875 694.144531 C 543.089844 693.125 542.558594 692.132812 542.050781 691.074219 C 541.460938 690.066406 540.84375 689.007812 540.066406 688.023438 C 539.335938 686.984375 538.429688 686.070312 537.464844 685.148438 C 535.503906 683.371094 532.976562 682.070312 530.257812 681.699219 C 529.921875 681.65625 529.582031 681.660156 529.242188 681.636719 C 528.898438 681.628906 528.554688 681.578125 528.214844 681.625 C 527.535156 681.699219 526.847656 681.71875 526.175781 681.894531 L 525.160156 682.101562 L 524.164062 682.410156 L 523.664062 682.5625 C 523.5 682.617188 523.339844 682.695312 523.175781 682.757812 L 522.207031 683.15625 C 519.648438 684.320312 517.328125 686.085938 515.421875 688.226562 C 513.527344 690.375 512.117188 692.953125 511.292969 695.6875 C 511.164062 696.023438 511.121094 696.378906 511.035156 696.726562 C 510.960938 697.074219 510.863281 697.421875 510.8125 697.773438 L 510.691406 698.835938 L 510.628906 699.371094 L 510.613281 699.910156 C 510.535156 701.351562 510.6875 702.804688 510.929688 704.242188 L 511.140625 705.316406 L 511.425781 706.378906 C 511.511719 706.734375 511.632812 707.082031 511.753906 707.429688 C 511.878906 707.777344 511.976562 708.132812 512.125 708.472656 C 512.652344 709.855469 513.339844 711.175781 514.082031 712.46875 C 517.140625 717.609375 521.761719 721.828125 527.015625 724.8125 C 529.65625 726.289062 532.46875 727.441406 535.398438 728.164062 C 538.335938 728.875 541.363281 729.230469 544.40625 729.214844 C 550.492188 729.222656 556.574219 727.898438 562.34375 725.914062 C 564.566406 725.128906 566.71875 724.171875 568.703125 723 C 570.074219 721.445312 571.4375 719.882812 572.789062 718.308594 C 576.53125 713.933594 580.289062 709.5625 583.738281 705.050781 C 587.191406 700.539062 590.328125 695.828125 592.777344 690.800781 C 595.226562 685.738281 597.199219 680.386719 598.773438 674.9375 C 600.347656 669.480469 601.542969 663.910156 602.304688 658.292969 C 603.050781 652.671875 603.359375 647 603.023438 641.386719 C 602.675781 635.785156 601.671875 630.214844 599.582031 625.109375 L 598.742188 623.226562 L 597.800781 621.40625 C 597.144531 620.222656 596.398438 619.097656 595.578125 618.042969 C 593.921875 615.941406 591.882812 614.183594 589.554688 612.898438 C 587.226562 611.609375 584.621094 610.808594 581.925781 610.410156 C 580.574219 610.214844 579.199219 610.117188 577.8125 610.089844 C 576.417969 610.078125 575.03125 610.144531 573.570312 610.222656 C 573.226562 610.242188 572.789062 610.246094 572.492188 610.273438 C 572.171875 610.300781 571.84375 610.296875 571.523438 610.355469 C 570.878906 610.433594 570.238281 610.546875 569.609375 610.722656 C 568.351562 611.0625 567.132812 611.570312 565.996094 612.226562 C 563.710938 613.539062 561.746094 615.417969 560.242188 617.59375 C 558.746094 619.777344 557.707031 622.265625 557.289062 624.808594 C 556.871094 627.347656 557.0625 629.9375 557.972656 632.207031 C 558.070312 632.496094 558.210938 632.765625 558.335938 633.042969 C 558.453125 633.324219 558.609375 633.585938 558.757812 633.851562 C 559.058594 634.375 559.40625 634.875 559.78125 635.351562 C 560.523438 636.304688 561.414062 637.144531 562.390625 637.863281 C 564.34375 639.308594 566.671875 640.234375 569.027344 640.617188 C 571.378906 640.996094 573.773438 640.804688 575.800781 640.078125 C 577.824219 639.351562 579.445312 638.09375 580.296875 636.550781 C 580.976562 635.316406 582.011719 634.269531 583.351562 633.578125 C 586.949219 631.71875 591.375 633.128906 593.234375 636.726562 C 595.09375 640.324219 593.683594 644.75 590.082031 646.609375 L 588.484375 647.433594 C 584.71875 649.378906 580.746094 650.207031 577.050781 650.179688 C 573.339844 650.15625 569.863281 649.347656 566.710938 648.003906 C 563.5625 646.660156 560.71875 644.742188 558.375 642.320312 C 557.210938 641.109375 556.183594 639.757812 555.328125 638.3125 C 554.484375 636.855469 553.824219 635.296875 553.378906 633.6875 C 552.941406 632.074219 552.730469 630.417969 552.71875 628.785156 C 552.710938 627.148438 552.929688 625.535156 553.300781 623.980469 C 553.675781 622.425781 554.230469 620.929688 554.921875 619.511719 C 555.605469 618.09375 556.4375 616.757812 557.386719 615.515625 C 559.28125 613.035156 561.667969 610.921875 564.429688 609.417969 C 565.808594 608.671875 567.28125 608.074219 568.816406 607.683594 C 569.585938 607.492188 570.363281 607.335938 571.152344 607.246094 C 571.546875 607.179688 571.945312 607.175781 572.339844 607.144531 C 572.765625 607.113281 573.050781 607.117188 573.421875 607.09375 C 576.292969 606.933594 579.347656 606.851562 582.359375 607.230469 C 585.375 607.617188 588.394531 608.472656 591.152344 609.933594 C 593.90625 611.386719 596.359375 613.429688 598.320312 615.828125 C 599.292969 617.03125 600.171875 618.304688 600.9375 619.632812 C 601.3125 620.296875 601.652344 620.972656 602.007812 621.644531 L 602.949219 623.710938 C 605.292969 629.292969 606.371094 635.242188 606.769531 641.144531 C 607.15625 647.054688 606.859375 652.964844 606.117188 658.792969 C 605.351562 664.617188 604.148438 670.371094 602.554688 676.019531 C 600.945312 681.660156 598.992188 687.210938 596.457031 692.566406 C 596.433594 692.613281 596.410156 692.660156 596.390625 692.707031 C 597.492188 691.894531 598.605469 691.089844 599.742188 690.320312 C 603.347656 687.847656 607.125 685.589844 611.128906 683.714844 C 613.144531 682.792969 615.164062 681.921875 617.3125 681.214844 C 619.449219 680.507812 621.699219 679.964844 624.050781 679.753906 C 626.386719 679.523438 628.878906 679.699219 631.222656 680.285156 C 633.578125 680.863281 635.832031 681.832031 637.902344 683.105469 C 642.035156 685.660156 645.46875 689.445312 647.542969 694.09375 C 648.578125 696.417969 649.238281 698.949219 649.40625 701.605469 C 649.488281 702.945312 649.4375 704.347656 649.167969 705.808594 Z M 523.820312 767.28125 C 518.5625 769.984375 513.074219 772.277344 507.386719 774.007812 C 505.976562 774.472656 504.519531 774.804688 503.085938 775.195312 C 502.371094 775.398438 501.636719 775.527344 500.910156 775.691406 L 498.726562 776.160156 L 496.519531 776.53125 C 495.78125 776.648438 495.050781 776.789062 494.304688 776.859375 C 492.820312 777.015625 491.34375 777.238281 489.847656 777.296875 C 483.886719 777.707031 477.835938 777.410156 471.984375 776.277344 C 467.371094 775.4375 462.867188 774.164062 458.492188 772.601562 C 452.464844 771.984375 446.421875 771.371094 440.390625 770.628906 C 433.726562 769.820312 427.066406 768.835938 420.460938 767.546875 C 418.296875 767.128906 416.140625 766.675781 413.992188 766.183594 C 412.332031 766.523438 410.652344 766.738281 408.972656 766.960938 C 409.46875 765.480469 410.019531 764.027344 410.625 762.601562 C 414.050781 763.425781 417.5 764.152344 420.972656 764.773438 C 429.773438 766.3125 438.664062 767.28125 447.597656 768.015625 C 439.425781 764.097656 431.699219 759.402344 424.183594 754.570312 C 421.699219 752.96875 419.226562 751.394531 416.753906 749.804688 C 417.308594 748.644531 417.84375 747.476562 418.355469 746.296875 C 420.992188 747.949219 423.636719 749.605469 426.28125 751.21875 C 431.191406 754.222656 436.117188 757.160156 441.160156 759.820312 C 446.195312 762.503906 451.359375 764.898438 456.636719 766.914062 C 457.964844 767.386719 459.285156 767.894531 460.628906 768.316406 C 461.296875 768.53125 461.960938 768.769531 462.636719 768.964844 L 464.65625 769.5625 C 467.363281 770.304688 470.089844 770.972656 472.84375 771.414062 C 474.21875 771.683594 475.605469 771.8125 476.984375 772.007812 L 479.0625 772.1875 L 480.101562 772.273438 L 481.140625 772.308594 L 483.222656 772.382812 C 483.917969 772.417969 484.613281 772.371094 485.308594 772.371094 C 486.003906 772.355469 486.699219 772.359375 487.390625 772.328125 L 489.476562 772.1875 C 490.867188 772.125 492.246094 771.90625 493.628906 771.753906 C 494.324219 771.6875 495.007812 771.542969 495.695312 771.4375 L 497.761719 771.097656 L 499.808594 770.65625 C 500.492188 770.503906 501.179688 770.382812 501.851562 770.191406 C 503.203125 769.824219 504.570312 769.519531 505.898438 769.078125 C 507.96875 768.453125 510.015625 767.753906 512.039062 766.988281 C 511.941406 766.992188 511.84375 767.003906 511.742188 767.007812 C 510.074219 767.109375 508.40625 767.179688 506.746094 767.238281 C 503.425781 767.347656 500.09375 767.488281 496.75 767.445312 C 495.074219 767.433594 493.402344 767.359375 491.726562 767.246094 C 490.890625 767.164062 490.054688 767.121094 489.21875 767.007812 L 487.96875 766.859375 L 486.71875 766.675781 C 483.386719 766.179688 480.09375 765.304688 476.957031 764.003906 C 476.785156 763.933594 476.621094 763.859375 476.453125 763.785156 C 469.902344 762.632812 463.570312 759.902344 458.050781 755.921875 C 457.128906 755.257812 456.265625 754.503906 455.386719 753.769531 C 456.328125 752.519531 457.441406 751.363281 458.628906 750.265625 C 459.34375 751.035156 460.039062 751.820312 460.808594 752.539062 C 461.675781 753.34375 462.578125 754.117188 463.511719 754.851562 C 462.554688 753.949219 461.621094 753.03125 460.71875 752.082031 C 460.078125 751.421875 459.476562 750.730469 458.859375 750.054688 C 459.414062 749.546875 459.980469 749.046875 460.550781 748.558594 C 461.132812 749.25 461.699219 749.953125 462.300781 750.625 C 464.472656 753.078125 466.777344 755.410156 469.320312 757.441406 C 471.105469 758.886719 473.011719 760.1875 475.027344 761.277344 C 475.742188 761.535156 476.464844 761.777344 477.195312 761.996094 L 477.199219 762 C 477.507812 762.089844 477.738281 762.332031 477.828125 762.628906 L 478.707031 763 L 479.847656 763.417969 C 480.605469 763.714844 481.394531 763.921875 482.171875 764.160156 C 483.742188 764.582031 485.335938 764.941406 486.953125 765.1875 C 490.179688 765.714844 493.46875 765.875 496.761719 765.882812 C 500.050781 765.894531 503.355469 765.753906 506.660156 765.523438 C 509.96875 765.308594 513.257812 765.082031 516.488281 764.566406 C 517.230469 764.441406 517.96875 764.308594 518.703125 764.160156 C 519.648438 763.71875 520.585938 763.269531 521.519531 762.796875 C 523.03125 762.023438 524.484375 761.144531 525.957031 760.300781 C 526.632812 761.855469 527.226562 763.441406 527.730469 765.042969 C 526.425781 765.789062 525.152344 766.585938 523.820312 767.28125 Z M 460.539062 792.15625 C 475.21875 792.515625 491.207031 792.460938 502.847656 783.238281 C 503.851562 782.441406 504.847656 781.5625 506.058594 781.167969 C 507.625 780.65625 509.316406 781.03125 510.960938 781.042969 C 513.976562 781.070312 516.992188 779.8125 519.136719 777.636719 C 516.144531 777.183594 513.304688 775.792969 511.09375 773.703125 C 517.277344 773.429688 523.335938 771.46875 528.679688 768.253906 C 529.394531 770.832031 530.066406 773.351562 530.855469 775.703125 C 512.359375 793.132812 484.488281 800.039062 460.539062 792.15625 Z M 457.324219 748.375 C 456.402344 747.347656 455.5 746.3125 454.597656 745.273438 C 455.789062 747.039062 457.167969 748.683594 458.628906 750.265625 C 457.441406 751.363281 456.328125 752.519531 455.386719 753.769531 C 450.9375 750.039062 447.085938 745.496094 444.277344 740.21875 C 442.605469 737.074219 441.328125 733.816406 440.1875 730.621094 C 440.160156 730.542969 440.132812 730.460938 440.105469 730.382812 C 438.917969 729.460938 437.707031 728.59375 436.46875 727.785156 C 435.789062 727.382812 435.121094 726.972656 434.441406 726.582031 C 433.757812 726.195312 433.039062 725.859375 432.34375 725.5 C 426.683594 722.746094 420.492188 721.234375 414.15625 720.476562 C 412.566406 720.296875 410.972656 720.148438 409.363281 720.035156 C 408.566406 719.976562 407.75 719.945312 406.945312 719.90625 C 406.140625 719.867188 405.328125 719.835938 404.511719 719.824219 C 401.257812 719.734375 397.960938 719.796875 394.609375 719.9375 C 393.757812 719.972656 392.855469 719.859375 391.996094 719.585938 C 388.070312 718.316406 385.914062 714.105469 387.179688 710.179688 C 388.445312 706.25 392.65625 704.09375 396.585938 705.359375 L 396.597656 705.363281 C 399.820312 706.402344 403.097656 707.386719 406.394531 708.375 C 408.039062 708.875 409.695312 709.375 411.339844 709.914062 C 412.992188 710.425781 414.640625 711 416.28125 711.566406 C 422.839844 713.886719 429.339844 716.742188 435.164062 720.691406 C 435.875 721.203125 436.601562 721.683594 437.292969 722.21875 C 437.183594 721.90625 437.074219 721.585938 436.960938 721.277344 C 435.878906 718.285156 434.714844 715.445312 433.3125 712.941406 C 431.910156 710.4375 430.277344 708.296875 428.367188 706.625 C 428.183594 706.460938 427.984375 706.261719 427.820312 706.074219 C 425.671875 703.621094 425.921875 699.886719 428.375 697.742188 C 430.828125 695.59375 434.5625 695.84375 436.707031 698.296875 L 436.835938 698.441406 C 439.519531 701.507812 441.460938 705.003906 442.847656 708.457031 C 444.242188 711.921875 445.144531 715.355469 445.898438 718.683594 C 447.148438 724.25 448.007812 729.601562 449.523438 734.539062 C 449.660156 734.703125 449.796875 734.871094 449.933594 735.039062 C 452.042969 737.65625 454.015625 740.347656 456.054688 742.957031 C 457.523438 744.863281 459.019531 746.730469 460.550781 748.558594 C 459.980469 749.046875 459.414062 749.546875 458.859375 750.054688 C 458.347656 749.492188 457.824219 748.941406 457.324219 748.375 Z M 386.089844 766.453125 C 387.679688 765.300781 389.363281 764.289062 391.046875 763.277344 C 387.632812 764.769531 383.945312 765.59375 380.222656 765.761719 C 380.507812 766.042969 380.78125 766.339844 381.035156 766.660156 C 384.566406 771.085938 383.835938 777.535156 379.410156 781.0625 L 378.226562 782.003906 C 375.175781 784.4375 372.007812 786.371094 368.683594 787.902344 C 365.785156 789.222656 362.75 790.175781 359.605469 790.800781 C 359.570312 785.355469 359.484375 779.910156 359.292969 774.460938 C 359.507812 774.269531 359.753906 774.113281 359.957031 773.910156 C 361.527344 772.382812 362.863281 770.613281 363.699219 768.78125 C 364.347656 767.382812 365.34375 766.058594 366.632812 765.03125 C 367.160156 764.613281 367.71875 764.253906 368.292969 763.953125 C 367.699219 763.738281 367.105469 763.507812 366.523438 763.253906 C 370.164062 761.789062 373.800781 760.324219 377.441406 758.859375 C 371.074219 759.289062 364.671875 759.042969 358.339844 758.273438 C 358.222656 756.898438 358.09375 755.519531 357.953125 754.144531 C 364.601562 753.710938 371.242188 753.160156 377.859375 752.375 C 377.824219 752.355469 377.789062 752.335938 377.753906 752.316406 C 376.300781 751.457031 374.867188 750.574219 373.449219 749.675781 C 370.609375 747.882812 367.820312 746.039062 365 744.273438 C 362.183594 742.503906 359.339844 740.804688 356.394531 739.316406 C 356.238281 739.238281 356.070312 739.175781 355.910156 739.097656 C 355.753906 738.203125 355.578125 737.304688 355.410156 736.410156 C 356.074219 736.726562 356.753906 737 357.40625 737.335938 C 358.917969 738.105469 360.398438 738.925781 361.859375 739.769531 C 363.324219 740.609375 364.761719 741.480469 366.191406 742.367188 C 371.910156 745.894531 377.398438 749.683594 383.289062 752.675781 C 389.144531 755.738281 395.308594 758.210938 401.636719 760.160156 C 404.601562 761.078125 407.605469 761.875 410.625 762.601562 C 410.019531 764.027344 409.46875 765.480469 408.972656 766.960938 C 401.375 767.96875 393.628906 767.847656 386.089844 766.453125 Z M 354.664062 732.550781 C 354.34375 731.046875 353.988281 729.539062 353.628906 728.03125 C 353.582031 728.054688 353.527344 728.070312 353.480469 728.097656 C 352.121094 728.8125 350.792969 729.597656 349.527344 730.472656 C 348.511719 731.179688 347.527344 731.929688 346.574219 732.722656 C 343.882812 731.792969 341.144531 730.992188 338.371094 730.335938 C 335.070312 729.558594 331.738281 728.984375 328.402344 728.527344 C 326.484375 728.261719 324.566406 728.035156 322.648438 727.824219 C 320.507812 727.480469 318.332031 727.25 316.136719 727.15625 C 313.554688 726.902344 310.96875 726.652344 308.375 726.460938 C 301.679688 725.949219 294.941406 725.652344 288.191406 725.886719 C 286.019531 725.96875 283.847656 726.113281 281.679688 726.3125 C 281.390625 726.089844 281.027344 725.964844 280.636719 725.988281 C 280.558594 725.996094 280.476562 726.007812 280.402344 726.023438 C 279.195312 726.296875 277.898438 726.328125 276.605469 726.125 C 275.308594 725.925781 274.003906 725.527344 272.738281 725 C 271.46875 724.480469 270.234375 723.824219 269.015625 723.121094 C 267.804688 722.40625 266.578125 721.671875 265.46875 720.863281 C 264.347656 720.0625 263.332031 719.160156 262.523438 718.117188 C 262.128906 717.589844 261.765625 717.039062 261.464844 716.449219 C 261.171875 715.851562 260.921875 715.234375 260.710938 714.597656 C 260.292969 713.320312 260.070312 711.972656 259.972656 710.613281 C 259.871094 709.25 259.898438 707.859375 260.03125 706.496094 C 260.273438 703.773438 261.019531 701.113281 262.433594 698.996094 C 263.859375 696.902344 265.960938 695.265625 268.226562 695.015625 C 268.796875 694.945312 269.386719 694.929688 269.988281 694.988281 C 270.589844 695.039062 271.203125 695.136719 271.816406 695.296875 C 272.429688 695.441406 273.054688 695.632812 273.648438 695.871094 C 274.246094 696.089844 274.824219 696.367188 275.382812 696.664062 C 275.9375 696.964844 276.46875 697.308594 276.972656 697.675781 C 277.222656 697.863281 277.46875 698.058594 277.707031 698.253906 C 277.941406 698.457031 278.171875 698.671875 278.34375 698.867188 C 278.691406 699.257812 278.863281 699.652344 278.757812 699.886719 C 278.703125 700.007812 278.589844 700.066406 278.414062 700.074219 C 278.375 700.074219 278.324219 700.070312 278.28125 700.0625 C 278.238281 700.054688 278.152344 699.988281 278.097656 699.953125 C 277.976562 699.863281 277.855469 699.78125 277.742188 699.683594 C 278.769531 702.746094 282.085938 704.394531 285.144531 703.363281 C 288.207031 702.335938 289.851562 699.023438 288.824219 695.960938 C 288.597656 695.527344 288.335938 695.113281 288.046875 694.707031 C 287.90625 694.515625 287.734375 694.289062 287.59375 694.136719 C 287.449219 693.980469 287.304688 693.820312 287.15625 693.683594 C 286.558594 693.109375 285.953125 692.648438 285.355469 692.300781 C 284.167969 691.59375 283.089844 691.261719 282.15625 691.027344 C 281.683594 690.90625 281.257812 690.835938 280.835938 690.761719 C 280.414062 690.6875 279.992188 690.617188 279.570312 690.5625 C 278.730469 690.4375 277.894531 690.351562 277.066406 690.285156 C 276.242188 690.21875 275.417969 690.195312 274.605469 690.175781 C 273.789062 690.175781 272.992188 690.191406 272.179688 690.234375 C 271.367188 690.292969 270.542969 690.363281 269.71875 690.5 C 268.890625 690.644531 268.058594 690.832031 267.242188 691.105469 C 265.597656 691.675781 264.09375 692.570312 262.863281 693.667969 C 261.628906 694.765625 260.636719 696.066406 259.882812 697.46875 C 258.355469 700.289062 257.835938 703.386719 257.730469 706.351562 C 257.664062 709.3125 257.890625 712.328125 258.898438 715.210938 C 259.152344 715.929688 259.460938 716.632812 259.816406 717.308594 C 260.1875 717.984375 260.601562 718.636719 261.078125 719.246094 C 262.035156 720.460938 263.191406 721.46875 264.375 722.351562 C 265.574219 723.234375 266.78125 724.011719 268.007812 724.792969 C 269.238281 725.566406 270.503906 726.316406 271.839844 726.976562 C 272.214844 727.15625 272.589844 727.328125 272.972656 727.496094 C 271.324219 727.800781 269.683594 728.152344 268.054688 728.554688 C 267.222656 728.730469 266.40625 728.976562 265.589844 729.21875 L 263.132812 729.941406 C 262.324219 730.207031 261.523438 730.507812 260.714844 730.789062 L 260.023438 731.039062 C 260.628906 731.878906 261.234375 732.71875 261.835938 733.5625 C 264.097656 732.691406 266.398438 731.910156 268.761719 731.324219 C 275.117188 729.683594 281.691406 728.847656 288.296875 728.527344 C 293.101562 728.304688 297.921875 728.363281 302.746094 728.578125 C 299.464844 729.496094 296.257812 730.757812 293.222656 732.738281 C 291.691406 733.742188 290.214844 734.945312 288.90625 736.414062 C 287.601562 737.875 286.476562 739.628906 285.722656 741.5625 C 284.96875 743.480469 284.589844 745.445312 284.40625 747.316406 C 284.3125 748.257812 284.269531 749.179688 284.25 750.078125 C 284.242188 750.527344 284.242188 750.972656 284.246094 751.414062 C 284.25 751.832031 284.253906 752.390625 284.359375 753.117188 C 284.449219 753.699219 284.617188 754.425781 284.976562 755.191406 C 284.664062 755.535156 284.367188 755.90625 284.09375 756.300781 C 282.914062 758.015625 282.339844 759.980469 282.304688 761.921875 C 286.179688 766.730469 290.308594 771.335938 294.886719 775.601562 C 296.351562 774.203125 297.75 772.644531 299.003906 770.820312 L 301 767.917969 C 302.285156 766.046875 302.863281 763.898438 302.796875 761.789062 C 303.183594 761.730469 303.574219 761.660156 303.964844 761.585938 C 304.519531 761.453125 305.070312 761.328125 305.652344 761.136719 C 306.796875 760.761719 307.890625 760.273438 308.917969 759.675781 C 310.976562 758.476562 312.8125 756.859375 314.273438 754.773438 C 315.722656 752.707031 316.773438 750.085938 316.949219 747.238281 L 317.03125 745.863281 C 317.242188 742.421875 314.621094 739.457031 311.179688 739.25 C 307.734375 739.039062 304.773438 741.660156 304.5625 745.101562 C 304.523438 745.71875 304.585938 746.347656 304.71875 746.921875 C 304.8125 747.316406 304.777344 747.875 304.484375 748.527344 C 304.195312 749.175781 303.660156 749.871094 302.992188 750.417969 C 302.660156 750.695312 302.296875 750.933594 301.921875 751.128906 C 301.75 751.222656 301.515625 751.308594 301.296875 751.40625 C 301.066406 751.480469 300.839844 751.570312 300.589844 751.628906 C 299.621094 751.902344 298.503906 752 297.320312 751.929688 C 296.140625 751.863281 294.894531 751.613281 293.664062 751.226562 C 293.507812 751.179688 293.355469 751.121094 293.203125 751.070312 L 292.773438 750.921875 C 292.695312 750.894531 292.632812 750.871094 292.574219 750.851562 C 292.574219 750.847656 292.574219 750.847656 292.574219 750.847656 C 292.523438 750.480469 292.476562 750.113281 292.4375 749.757812 C 292.359375 749.039062 292.304688 748.339844 292.28125 747.660156 C 292.234375 746.304688 292.328125 745.03125 292.605469 743.875 C 293.128906 741.601562 294.652344 739.410156 296.804688 737.570312 C 298.945312 735.730469 301.625 734.226562 304.414062 733.0625 C 307.214844 731.894531 310.222656 731.117188 313.304688 730.636719 C 316.3125 730.179688 319.402344 730.039062 322.503906 730.140625 C 324.371094 730.339844 326.234375 730.554688 328.089844 730.804688 C 331.375 731.25 334.640625 731.804688 337.851562 732.554688 C 340.140625 733.085938 342.40625 733.722656 344.640625 734.449219 C 340.59375 738.261719 337.320312 742.839844 334.851562 747.832031 C 334.15625 749.203125 333.550781 750.621094 332.996094 752.0625 C 332.425781 753.5 331.964844 754.980469 331.542969 756.484375 C 331.347656 757.242188 331.132812 758 330.984375 758.773438 L 330.746094 759.933594 L 330.550781 761.101562 C 330.40625 761.878906 330.34375 762.675781 330.246094 763.464844 C 330.179688 764.261719 330.125 765.0625 330.089844 765.867188 C 330.007812 769.085938 330.277344 772.417969 331.285156 775.761719 C 331.558594 776.59375 331.816406 777.429688 332.191406 778.25 C 332.371094 778.660156 332.523438 779.082031 332.742188 779.484375 L 333.390625 780.691406 C 333.597656 781.101562 333.871094 781.480469 334.128906 781.871094 C 334.394531 782.253906 334.636719 782.652344 334.933594 783.019531 C 335.539062 783.738281 336.117188 784.5 336.820312 785.148438 C 339.46875 787.898438 343.125 789.851562 346.910156 790.78125 C 348.808594 791.242188 350.734375 791.472656 352.628906 791.519531 C 354.527344 791.5625 356.398438 791.402344 358.226562 791.125 C 358.695312 791.050781 359.140625 790.894531 359.605469 790.800781 C 359.570312 785.355469 359.484375 779.910156 359.292969 774.460938 C 358.6875 775.003906 358.085938 775.550781 357.421875 776.011719 C 356.53125 776.652344 355.585938 777.191406 354.625 777.652344 C 353.664062 778.117188 352.679688 778.464844 351.699219 778.714844 C 350.71875 778.96875 349.738281 779.105469 348.785156 779.105469 C 346.878906 779.132812 345.039062 778.664062 343.378906 777.554688 C 341.703125 776.511719 340.332031 774.828125 339.296875 772.769531 C 339.148438 772.523438 339.0625 772.238281 338.941406 771.972656 C 338.832031 771.699219 338.699219 771.4375 338.605469 771.152344 C 338.433594 770.578125 338.207031 770.015625 338.078125 769.410156 L 337.851562 768.511719 L 337.6875 767.585938 C 337.558594 766.972656 337.519531 766.335938 337.4375 765.703125 C 337.195312 763.152344 337.347656 760.503906 337.777344 757.902344 C 338.238281 755.285156 338.996094 752.683594 340.027344 750.183594 C 341.050781 747.683594 342.347656 745.28125 343.878906 743.042969 C 345.398438 740.792969 347.152344 738.703125 349.105469 736.824219 C 349.296875 736.640625 349.496094 736.457031 349.691406 736.28125 C 351.804688 737.125 353.875 738.078125 355.910156 739.097656 C 355.753906 738.203125 355.578125 737.304688 355.410156 736.410156 C 354.152344 735.808594 352.902344 735.191406 351.617188 734.652344 C 352.589844 733.890625 353.613281 733.199219 354.664062 732.550781 Z M 292.625 751.183594 C 292.632812 751.195312 292.640625 751.207031 292.644531 751.21875 C 292.773438 751.488281 292.761719 751.632812 292.722656 751.554688 C 292.695312 751.511719 292.660156 751.378906 292.625 751.183594 Z M 557.355469 771.730469 L 758.433594 771.730469 C 760.285156 771.730469 761.785156 773.230469 761.785156 775.082031 C 761.785156 776.929688 760.285156 778.433594 758.433594 778.433594 L 557.355469 778.433594 C 555.503906 778.433594 554.003906 776.929688 554.003906 775.082031 C 554.003906 773.230469 555.503906 771.730469 557.355469 771.730469 Z M 209.171875 778.433594 L 13.433594 778.433594 C 11.585938 778.433594 10.082031 776.929688 10.082031 775.082031 C 10.082031 773.230469 11.585938 771.730469 13.433594 771.730469 L 209.171875 771.730469 C 211.023438 771.730469 212.523438 773.230469 212.523438 775.082031 C 212.523438 776.929688 211.023438 778.433594 209.171875 778.433594 Z M 209.171875 778.433594 " fill-opacity="1" fill-rule="nonzero"/></g></svg>