<svg xmlns="http://www.w3.org/2000/svg" xmlns:xlink="http://www.w3.org/1999/xlink" width="1080" zoomAndPan="magnify" viewBox="0 0 810 809.999993" height="1080" preserveAspectRatio="xMidYMid meet" version="1.0"><defs><g/><clipPath id="0d1b222f86"><path d="M 17 303.351562 L 793 303.351562 L 793 720.488281 L 17 720.488281 Z M 17 303.351562 " clip-rule="nonzero"/></clipPath></defs><g clip-path="url(#0d1b222f86)"><path fill="#ffffff" d="M 792.976562 541.832031 C 792.976562 587.738281 755.652344 624.097656 706.023438 624.097656 C 650.402344 624.097656 605.242188 564.488281 605.242188 491.054688 C 605.242188 489.953125 605.257812 488.835938 605.289062 487.730469 L 551.515625 644.492188 L 529.851562 646.367188 L 424.847656 339.789062 C 424.007812 341.230469 423.140625 342.738281 422.242188 344.335938 L 350.152344 473.921875 L 423.1875 601.128906 C 440.195312 630.789062 446.265625 634.125 465.585938 634.125 L 472.179688 634.125 L 472.179688 642.132812 L 387.851562 642.132812 L 387.851562 634.125 L 396.789062 634.125 C 412.804688 634.125 419.882812 633.175781 419.882812 626.582031 C 419.882812 621.863281 416.574219 614.800781 409.980469 603.023438 L 343.078125 486.628906 L 280.226562 599.71875 C 224.636719 699.738281 181.273438 721.292969 114.355469 721.292969 C 91.109375 721.292969 72.472656 713.023438 57.835938 701.507812 C 35.347656 683.800781 17.019531 656.457031 17.019531 617.300781 C 17.019531 561.292969 56.890625 519.761719 106.921875 511.632812 L 107.683594 516.289062 C 59.761719 524.078125 21.738281 563.683594 21.738281 617.300781 C 21.738281 654.855469 39.152344 680.804688 60.753906 697.796875 C 73.308594 707.683594 91.542969 712.292969 104.332031 712.292969 C 161.675781 712.292969 205.375 666.511719 251.484375 582.753906 L 320.464844 457.421875 L 313.714844 446.40625 C 304.976562 434.394531 290.296875 424.492188 272.855469 424.492188 C 257.566406 424.492188 246.144531 433.539062 246.144531 446.453125 C 246.144531 456.429688 253.980469 462.652344 261.632812 462.667969 C 266.832031 462.667969 271.070312 459.890625 273.367188 456.925781 L 277.089844 459.8125 C 274.015625 463.769531 268.554688 467.386719 261.632812 467.386719 C 251.484375 467.371094 241.425781 459.144531 241.425781 446.453125 C 241.425781 430.203125 255.890625 419.773438 272.851562 419.773438 C 284.445312 419.773438 295.046875 423.871094 303.535156 429.785156 L 251.203125 344.335938 C 232.828125 315.128906 229.523438 308.050781 215.386719 308.050781 L 164.035156 308.050781 L 164.035156 303.351562 L 285.128906 303.351562 L 285.128906 311.824219 L 276.640625 311.824219 C 261.570312 311.824219 254.496094 313.234375 254.496094 319.832031 C 254.496094 324.546875 258.265625 332.089844 264.859375 342.921875 L 327.527344 444.699219 L 388.78125 334.449219 C 394.679688 323.929688 403.183594 316.789062 409.640625 313.714844 C 410.414062 313.328125 411.160156 313.035156 411.875 312.769531 L 411.875 311.824219 L 387.367188 311.824219 L 387.367188 303.351562 L 478.480469 303.351562 L 478.480469 311.824219 L 458.042969 311.824219 C 453.15625 311.824219 449.242188 312.289062 445.410156 314.335938 C 450.484375 317.519531 454.457031 323.539062 456.816406 330.199219 L 544.917969 587.9375 C 548.222656 596.894531 548.691406 602.542969 548.691406 604.4375 L 548.691406 604.902344 L 552.460938 604.902344 L 552.460938 604.4375 C 552.460938 603.023438 552.925781 597.359375 557.179688 586.527344 L 644.351562 336.792969 C 646.242188 331.128906 647.5625 326.070312 647.5625 321.832031 C 647.5625 313.25 642.070312 308.050781 624.546875 308.050781 L 559.058594 308.050781 L 559.058594 303.351562 L 693.824219 303.351562 L 693.824219 311.824219 L 684.390625 311.824219 C 667.425781 311.824219 664.324219 315.65625 657.058594 336.792969 L 613.34375 464.265625 C 611.03125 473.191406 609.960938 482.207031 609.960938 491.054688 C 609.960938 561.882812 652.992188 619.378906 706.023438 619.378906 C 753.277344 619.378906 788.257812 584.976562 788.257812 541.832031 C 788.257812 500.425781 757.65625 470.398438 717.957031 470.398438 C 689.601562 470.398438 670.65625 484.953125 659.527344 502.507812 L 655.539062 499.976562 C 667.347656 481.371094 687.804688 465.679688 717.957031 465.679688 C 760.214844 465.679688 792.976562 497.914062 792.976562 541.832031 Z M 411.875 311.824219 L 411.875 312.769531 C 411.160156 313.035156 410.414062 313.328125 409.640625 313.714844 C 406.269531 312.242188 401.988281 311.824219 396.027344 311.824219 Z M 411.875 311.824219 " fill-opacity="1" fill-rule="nonzero"/></g><g fill="#ffffff" fill-opacity="1"><g transform="translate(282.644696, 245.370154)"><g><path d="M 152.21875 -72.9375 C 152.21875 -67.769531 151.1875 -62.453125 149.125 -56.984375 C 147.070312 -51.523438 144.429688 -46.125 141.203125 -40.78125 C 137.972656 -35.4375 134.445312 -30.179688 130.625 -25.015625 C 126.8125 -19.847656 123.140625 -14.941406 119.609375 -10.296875 C 116.085938 -5.660156 112.976562 -1.378906 110.28125 2.546875 C 107.582031 6.484375 105.765625 9.921875 104.828125 12.859375 C 106.585938 11.679688 108.203125 10.300781 109.671875 8.71875 C 111.140625 7.132812 112.578125 5.609375 113.984375 4.140625 C 115.390625 2.671875 116.882812 1.347656 118.46875 0.171875 C 120.0625 -0.992188 121.914062 -1.816406 124.03125 -2.296875 C 124.144531 -1.703125 124.289062 -1.050781 124.46875 -0.34375 C 124.644531 0.351562 124.734375 0.992188 124.734375 1.578125 C 124.734375 3.460938 123.878906 5.664062 122.171875 8.1875 C 120.472656 10.71875 118.445312 13.15625 116.09375 15.5 C 113.75 17.851562 111.253906 19.847656 108.609375 21.484375 C 105.960938 23.128906 103.703125 23.953125 101.828125 23.953125 C 100.648438 23.953125 99.382812 23.660156 98.03125 23.078125 C 96.6875 22.492188 95.394531 21.726562 94.15625 20.78125 C 92.925781 19.84375 91.898438 18.785156 91.078125 17.609375 C 90.253906 16.441406 89.84375 15.210938 89.84375 13.921875 C 89.84375 13.453125 91.078125 11.25 93.546875 7.3125 C 96.015625 3.375 99.066406 -1.585938 102.703125 -7.578125 C 106.347656 -13.566406 110.3125 -20.203125 114.59375 -27.484375 C 118.882812 -34.765625 122.847656 -41.984375 126.484375 -49.140625 C 130.128906 -56.304688 133.1875 -63.03125 135.65625 -69.3125 C 138.125 -75.601562 139.359375 -80.6875 139.359375 -84.5625 C 139.359375 -85.738281 138.707031 -86.441406 137.40625 -86.671875 C 134.351562 -85.023438 131.066406 -82.703125 127.546875 -79.703125 C 124.023438 -76.710938 120.414062 -73.25 116.71875 -69.3125 C 113.019531 -65.382812 109.316406 -61.25 105.609375 -56.90625 C 101.910156 -52.5625 98.328125 -48.242188 94.859375 -43.953125 C 91.398438 -39.671875 88.171875 -35.617188 85.171875 -31.796875 C 82.179688 -27.984375 79.507812 -24.722656 77.15625 -22.015625 C 76.457031 -22.015625 75.664062 -22.394531 74.78125 -23.15625 C 73.90625 -23.925781 73.054688 -24.8125 72.234375 -25.8125 C 71.410156 -26.8125 70.734375 -27.804688 70.203125 -28.796875 C 69.671875 -29.796875 69.40625 -30.648438 69.40625 -31.359375 C 69.40625 -32.066406 70.019531 -33.59375 71.25 -35.9375 C 72.488281 -38.289062 74.046875 -41.140625 75.921875 -44.484375 C 77.804688 -47.828125 79.804688 -51.4375 81.921875 -55.3125 C 84.035156 -59.1875 86.03125 -62.941406 87.90625 -66.578125 C 89.789062 -70.222656 91.347656 -73.539062 92.578125 -76.53125 C 93.804688 -79.53125 94.421875 -81.851562 94.421875 -83.5 L 94.421875 -85.09375 C 88.316406 -80.976562 81.914062 -75.75 75.21875 -69.40625 C 68.53125 -63.0625 61.953125 -56.335938 55.484375 -49.234375 C 49.023438 -42.128906 42.890625 -34.960938 37.078125 -27.734375 C 31.265625 -20.515625 26.1875 -13.910156 21.84375 -7.921875 C 21.488281 -7.335938 20.867188 -6.515625 19.984375 -5.453125 C 19.109375 -4.398438 18.171875 -3.285156 17.171875 -2.109375 C 16.171875 -0.941406 15.203125 0.0507812 14.265625 0.875 C 13.328125 1.695312 12.503906 2.109375 11.796875 2.109375 C 11.097656 2.109375 10.335938 1.753906 9.515625 1.046875 C 8.691406 0.347656 7.894531 -0.46875 7.125 -1.40625 C 6.363281 -2.34375 5.71875 -3.3125 5.1875 -4.3125 C 4.664062 -5.3125 4.40625 -6.101562 4.40625 -6.6875 C 4.40625 -7.632812 5.488281 -10.191406 7.65625 -14.359375 C 9.832031 -18.523438 12.535156 -23.71875 15.765625 -29.9375 C 18.992188 -36.164062 22.488281 -43.039062 26.25 -50.5625 C 30.007812 -58.082031 33.503906 -65.628906 36.734375 -73.203125 C 39.960938 -80.773438 42.660156 -88.023438 44.828125 -94.953125 C 47.003906 -101.878906 48.09375 -107.867188 48.09375 -112.921875 C 48.09375 -114.335938 47.882812 -115.894531 47.46875 -117.59375 C 47.0625 -119.300781 45.921875 -120.15625 44.046875 -120.15625 C 41.335938 -120.15625 38.601562 -119.445312 35.84375 -118.03125 C 33.082031 -116.625 30.441406 -114.863281 27.921875 -112.75 C 25.398438 -110.632812 22.992188 -108.34375 20.703125 -105.875 C 18.410156 -103.40625 16.351562 -101.113281 14.53125 -99 C 12.707031 -96.894531 11.207031 -95.132812 10.03125 -93.71875 C 8.863281 -92.3125 8.046875 -91.609375 7.578125 -91.609375 C 6.171875 -91.609375 4.644531 -92.222656 3 -93.453125 C 1.351562 -94.691406 0.53125 -96.132812 0.53125 -97.78125 C 0.53125 -100.707031 1.96875 -103.992188 4.84375 -107.640625 C 7.71875 -111.285156 11.179688 -114.660156 15.234375 -117.765625 C 19.285156 -120.878906 23.515625 -123.492188 27.921875 -125.609375 C 32.328125 -127.722656 36 -128.78125 38.9375 -128.78125 C 41.875 -128.78125 44.601562 -128.191406 47.125 -127.015625 C 49.644531 -125.847656 51.84375 -124.289062 53.71875 -122.34375 C 55.601562 -120.40625 57.070312 -118.144531 58.125 -115.5625 C 59.1875 -112.976562 59.71875 -110.28125 59.71875 -107.46875 C 59.71875 -102.0625 58.660156 -96.039062 56.546875 -89.40625 C 54.429688 -82.769531 51.875 -76.015625 48.875 -69.140625 C 45.882812 -62.273438 42.742188 -55.640625 39.453125 -49.234375 C 36.171875 -42.835938 33.414062 -37.171875 31.1875 -32.234375 L 30.484375 -30.484375 C 31.296875 -30.828125 32.671875 -32 34.609375 -34 C 36.554688 -36 38.847656 -38.460938 41.484375 -41.390625 C 44.128906 -44.328125 47.035156 -47.617188 50.203125 -51.265625 C 53.378906 -54.910156 56.640625 -58.609375 59.984375 -62.359375 C 63.328125 -66.117188 66.671875 -69.757812 70.015625 -73.28125 C 73.367188 -76.8125 76.570312 -79.957031 79.625 -82.71875 C 82.675781 -85.476562 85.460938 -87.675781 87.984375 -89.3125 C 90.515625 -90.957031 92.601562 -91.78125 94.25 -91.78125 C 95.894531 -91.78125 97.300781 -91.367188 98.46875 -90.546875 C 99.644531 -89.722656 100.613281 -88.664062 101.375 -87.375 C 102.144531 -86.082031 102.707031 -84.671875 103.0625 -83.140625 C 103.414062 -81.617188 103.59375 -80.15625 103.59375 -78.75 C 103.59375 -76.050781 103.179688 -73.4375 102.359375 -70.90625 C 101.535156 -68.382812 100.566406 -65.914062 99.453125 -63.5 C 98.335938 -61.09375 97.132812 -58.710938 95.84375 -56.359375 C 94.550781 -54.015625 93.429688 -51.613281 92.484375 -49.15625 C 93.429688 -50.320312 95.046875 -52.164062 97.328125 -54.6875 C 99.617188 -57.21875 102.203125 -60.039062 105.078125 -63.15625 C 107.960938 -66.269531 111.046875 -69.46875 114.328125 -72.75 C 117.617188 -76.039062 120.789062 -79.035156 123.84375 -81.734375 C 126.894531 -84.441406 129.679688 -86.675781 132.203125 -88.4375 C 134.734375 -90.195312 136.707031 -91.078125 138.125 -91.078125 C 139.882812 -91.078125 141.613281 -90.429688 143.3125 -89.140625 C 145.019531 -87.847656 146.519531 -86.257812 147.8125 -84.375 C 149.101562 -82.5 150.160156 -80.503906 150.984375 -78.390625 C 151.804688 -76.273438 152.21875 -74.457031 152.21875 -72.9375 Z M 152.21875 -72.9375 "/></g></g></g><g fill="#ffffff" fill-opacity="1"><g transform="translate(436.259955, 245.370154)"><g><path d="M 12.328125 -8.8125 C 13.035156 -9.039062 14.472656 -9.832031 16.640625 -11.1875 C 18.816406 -12.539062 21.375 -14.1875 24.3125 -16.125 C 27.25 -18.0625 30.359375 -20.144531 33.640625 -22.375 C 36.929688 -24.601562 39.984375 -26.628906 42.796875 -28.453125 C 45.617188 -30.273438 48 -31.800781 49.9375 -33.03125 C 51.875 -34.257812 53.019531 -34.875 53.375 -34.875 C 53.96875 -34.875 54.5 -34.929688 54.96875 -35.046875 C 55.4375 -35.171875 55.785156 -35 56.015625 -34.53125 C 55.785156 -33.945312 54.46875 -32.65625 52.0625 -30.65625 C 49.65625 -28.65625 46.71875 -26.332031 43.25 -23.6875 C 39.78125 -21.050781 36.050781 -18.265625 32.0625 -15.328125 C 28.070312 -12.390625 24.3125 -9.6875 20.78125 -7.21875 C 17.257812 -4.75 14.234375 -2.722656 11.703125 -1.140625 C 9.179688 0.441406 7.75 1.234375 7.40625 1.234375 C 6.34375 1.234375 5.34375 0.9375 4.40625 0.34375 C 3.46875 -0.238281 2.644531 -1 1.9375 -1.9375 C 1.226562 -2.875 0.664062 -3.898438 0.25 -5.015625 C -0.15625 -6.128906 -0.359375 -7.21875 -0.359375 -8.28125 C -0.359375 -10.28125 0.140625 -12.953125 1.140625 -16.296875 C 2.140625 -19.640625 3.34375 -23.101562 4.75 -26.6875 C 6.164062 -30.269531 7.609375 -33.703125 9.078125 -36.984375 C 10.546875 -40.273438 11.75 -42.921875 12.6875 -44.921875 C 13.039062 -45.628906 13.800781 -47.210938 14.96875 -49.671875 C 16.144531 -52.140625 17.40625 -54.722656 18.75 -57.421875 C 20.101562 -60.128906 21.394531 -62.539062 22.625 -64.65625 C 23.863281 -66.769531 24.71875 -67.828125 25.1875 -67.828125 C 27.1875 -67.828125 29.066406 -67.148438 30.828125 -65.796875 C 32.585938 -64.453125 33.765625 -62.835938 34.359375 -60.953125 C 33.765625 -59.898438 32.789062 -58.019531 31.4375 -55.3125 C 30.09375 -52.613281 28.625 -49.472656 27.03125 -45.890625 C 25.445312 -42.304688 23.773438 -38.519531 22.015625 -34.53125 C 20.253906 -30.539062 18.640625 -26.78125 17.171875 -23.25 C 15.703125 -19.726562 14.523438 -16.644531 13.640625 -14 C 12.765625 -11.363281 12.328125 -9.632812 12.328125 -8.8125 Z M 40.703125 -94.421875 C 41.171875 -94.421875 41.929688 -94.273438 42.984375 -93.984375 C 44.046875 -93.691406 45.101562 -93.3125 46.15625 -92.84375 C 47.21875 -92.375 48.128906 -91.84375 48.890625 -91.25 C 49.648438 -90.664062 50.03125 -90.019531 50.03125 -89.3125 C 50.03125 -88.488281 49.585938 -87.398438 48.703125 -86.046875 C 47.828125 -84.703125 46.800781 -83.382812 45.625 -82.09375 C 44.445312 -80.800781 43.242188 -79.6875 42.015625 -78.75 C 40.785156 -77.8125 39.816406 -77.34375 39.109375 -77.34375 C 37.816406 -77.34375 36.4375 -78.132812 34.96875 -79.71875 C 33.5 -81.300781 32.765625 -82.738281 32.765625 -84.03125 C 32.765625 -84.382812 33.113281 -85.117188 33.8125 -86.234375 C 34.519531 -87.347656 35.316406 -88.519531 36.203125 -89.75 C 37.085938 -90.988281 37.96875 -92.078125 38.84375 -93.015625 C 39.726562 -93.953125 40.347656 -94.421875 40.703125 -94.421875 Z M 40.703125 -94.421875 "/></g></g></g><g fill="#ffffff" fill-opacity="1"><g transform="translate(480.124848, 245.370154)"><g><path d="M 35.0625 -74.34375 C 36.582031 -74.34375 38.34375 -74.109375 40.34375 -73.640625 C 42.34375 -73.171875 44.222656 -72.492188 45.984375 -71.609375 C 47.742188 -70.734375 49.238281 -69.617188 50.46875 -68.265625 C 51.707031 -66.910156 52.328125 -65.296875 52.328125 -63.421875 C 52.328125 -62.710938 52.148438 -61.710938 51.796875 -60.421875 C 51.441406 -59.128906 51 -57.835938 50.46875 -56.546875 C 49.945312 -55.253906 49.300781 -54.109375 48.53125 -53.109375 C 47.769531 -52.117188 46.976562 -51.625 46.15625 -51.625 C 45.332031 -51.625 44.300781 -52.03125 43.0625 -52.84375 C 41.832031 -53.664062 41.21875 -54.550781 41.21875 -55.5 C 41.21875 -56.082031 41.421875 -56.875 41.828125 -57.875 C 42.242188 -58.875 42.539062 -59.929688 42.71875 -61.046875 C 42.894531 -62.160156 42.863281 -63.21875 42.625 -64.21875 C 42.394531 -65.21875 41.691406 -66.007812 40.515625 -66.59375 L 40.515625 -66.765625 C 38.992188 -66.648438 37.054688 -65.914062 34.703125 -64.5625 C 32.359375 -63.21875 30.097656 -61.578125 27.921875 -59.640625 C 25.742188 -57.703125 23.863281 -55.613281 22.28125 -53.375 C 20.695312 -51.144531 19.90625 -49.09375 19.90625 -47.21875 C 19.90625 -44.863281 20.171875 -42.335938 20.703125 -39.640625 C 21.234375 -36.941406 21.789062 -34.179688 22.375 -31.359375 C 22.957031 -28.535156 23.515625 -25.742188 24.046875 -22.984375 C 24.578125 -20.222656 24.84375 -17.671875 24.84375 -15.328125 C 24.84375 -14.859375 24.867188 -14.503906 24.921875 -14.265625 C 24.984375 -14.035156 25.304688 -13.800781 25.890625 -13.5625 C 27.421875 -14.03125 29.742188 -15.054688 32.859375 -16.640625 C 35.972656 -18.234375 39.234375 -19.910156 42.640625 -21.671875 C 46.046875 -23.429688 49.363281 -24.984375 52.59375 -26.328125 C 55.820312 -27.679688 58.375 -28.359375 60.25 -28.359375 C 60.832031 -28.359375 61.503906 -28.300781 62.265625 -28.1875 C 63.035156 -28.070312 63.476562 -27.546875 63.59375 -26.609375 L 61.84375 -25.1875 C 61.25 -25.3125 60.007812 -25.050781 58.125 -24.40625 C 56.25 -23.757812 54.078125 -22.875 51.609375 -21.75 C 49.148438 -20.632812 46.507812 -19.375 43.6875 -17.96875 C 40.875 -16.5625 38.234375 -15.210938 35.765625 -13.921875 C 33.296875 -12.628906 31.148438 -11.484375 29.328125 -10.484375 C 27.515625 -9.484375 26.3125 -8.804688 25.71875 -8.453125 C 25.363281 -8.222656 24.773438 -6.753906 23.953125 -4.046875 C 23.128906 -1.347656 21.894531 1.992188 20.25 5.984375 C 18.613281 9.984375 16.472656 14.269531 13.828125 18.84375 C 11.179688 23.425781 7.976562 27.6875 4.21875 31.625 C 0.46875 35.5625 -3.957031 38.820312 -9.0625 41.40625 C -14.175781 43.988281 -20.023438 45.28125 -26.609375 45.28125 C -29.535156 45.28125 -32.023438 44.394531 -34.078125 42.625 C -36.140625 40.863281 -37.171875 38.457031 -37.171875 35.40625 C -37.171875 33.644531 -36.113281 31.441406 -34 28.796875 C -31.882812 26.160156 -29.148438 23.398438 -25.796875 20.515625 C -22.453125 17.640625 -18.753906 14.703125 -14.703125 11.703125 C -10.648438 8.710938 -6.6875 5.925781 -2.8125 3.34375 C 1.0625 0.757812 4.550781 -1.523438 7.65625 -3.515625 C 10.769531 -5.515625 13.09375 -6.925781 14.625 -7.75 C 15.914062 -8.457031 16.5 -9.691406 16.375 -11.453125 C 16.257812 -13.210938 16.203125 -14.738281 16.203125 -16.03125 C 16.203125 -18.851562 15.910156 -21.671875 15.328125 -24.484375 C 14.742188 -27.304688 14.097656 -30.15625 13.390625 -33.03125 C 12.679688 -35.90625 12.03125 -38.75 11.4375 -41.5625 C 10.851562 -44.382812 10.5625 -47.148438 10.5625 -49.859375 C 10.5625 -52.910156 11.351562 -55.90625 12.9375 -58.84375 C 14.53125 -61.78125 16.53125 -64.390625 18.9375 -66.671875 C 21.34375 -68.960938 23.984375 -70.8125 26.859375 -72.21875 C 29.742188 -73.632812 32.476562 -74.34375 35.0625 -74.34375 Z M -34 36.296875 C -34 37.816406 -33.441406 38.722656 -32.328125 39.015625 C -31.210938 39.316406 -30.007812 39.523438 -28.71875 39.640625 C -24.375 38.460938 -19.9375 36.582031 -15.40625 34 C -10.882812 31.414062 -6.65625 28.300781 -2.71875 24.65625 C 1.207031 21.019531 4.664062 16.96875 7.65625 12.5 C 10.65625 8.039062 12.800781 3.40625 14.09375 -1.40625 L 14.265625 -1.578125 C 14.265625 -2.054688 14.148438 -2.296875 13.921875 -2.296875 L 13.03125 -2.296875 C 11.738281 -1.703125 9.679688 -0.5 6.859375 1.3125 C 4.046875 3.132812 0.910156 5.25 -2.546875 7.65625 C -6.015625 10.070312 -9.628906 12.6875 -13.390625 15.5 C -17.148438 18.320312 -20.554688 21.050781 -23.609375 23.6875 C -26.660156 26.332031 -29.15625 28.769531 -31.09375 31 C -33.03125 33.238281 -34 35.003906 -34 36.296875 Z M -34 36.296875 "/></g></g></g></svg>