<svg width="1059" height="1074" viewBox="0 0 1059 1074" fill="none" xmlns="http://www.w3.org/2000/svg">
<path d="M55.5677 616.052C55.7292 610.922 56.0677 605.802 56.3802 600.682C54.5833 600.188 52.7865 599.708 50.9948 599.198C51.6302 604.078 52.4271 608.932 53.5833 613.714C53.8438 614.802 54.4531 616.146 55.5677 616.052ZM76.7552 600.688C74.724 596.667 72.401 592.776 69.9844 588.927C67.5677 585.073 65.0521 581.26 62.6042 577.38C61.375 575.443 60.1667 573.484 58.9948 571.5C58.9635 571.453 58.9375 571.401 58.9115 571.354C57.7552 581.099 56.9792 590.885 56.3802 600.682C54.5833 600.188 52.7865 599.708 50.9948 599.198C49.8125 590.162 49.4323 581.021 50.0521 571.927C48.0469 576.901 46.0469 581.875 44.0469 586.849C43.6979 586.052 43.3802 585.245 43.0833 584.427C42.6719 585.214 42.1875 585.979 41.6146 586.698C40.2083 588.464 38.401 589.823 36.4844 590.708C35.0104 591.38 33.5885 592.339 32.224 593.417C24.6927 590.885 17.2656 588.052 9.99479 584.839C10.1302 584.531 10.2135 584.203 10.3542 583.896C12.4479 579.354 15.0885 575.026 18.4167 570.849L19.7031 569.234C24.526 563.188 33.3385 562.193 39.3906 567.01C39.8281 567.359 40.2292 567.734 40.6146 568.125C40.8437 563.037 41.974 557.995 44.0104 553.328C42.6302 555.63 41.2448 557.932 39.6719 560.104C38.151 551.891 37.7865 543.49 38.3594 535.151C41.2187 534.563 43.974 533.818 46.6719 532.964C47.2083 534.927 47.6667 536.917 48.2708 538.859C50.9375 547.505 54.3125 555.932 58.5 563.932C62.5885 571.984 67.7708 579.49 72.5885 587.302C73.8021 589.25 74.9948 591.219 76.1406 593.224C77.2917 595.219 78.4167 597.245 79.4688 599.307C80.7917 601.896 82.0052 604.542 83.1302 607.219C86.7604 602.594 89.5052 597.292 90.8073 591.594C91.2135 589.807 91.474 587.995 91.6354 586.167C91.75 584.328 91.7604 582.479 91.651 580.625C91.3802 576.912 90.651 573.203 89.5885 569.547C87.4688 562.24 84.0833 555.177 80.5156 548.245C78.6875 544.797 76.8021 541.375 74.8177 537.995C72.8229 534.63 70.7813 531.281 68.6823 527.958C67.8021 526.552 66.875 525.151 65.9844 523.745C67.3958 522.813 68.7917 521.823 70.1771 520.781C71.1146 522.287 72.0573 523.776 72.9792 525.297C77.1094 532.052 81.125 538.922 84.8438 545.979C86.6615 549.537 88.474 553.078 90.1094 556.75C91.7604 560.417 93.2396 564.193 94.4531 568.094C95.6615 571.995 96.5469 576.047 96.9219 580.203C97.1094 582.281 97.1615 584.385 97.0833 586.49C96.9635 588.594 96.7188 590.698 96.3073 592.776C95.875 594.844 95.3073 596.885 94.6094 598.875C93.8906 600.859 93.0573 602.802 92.0938 604.672C91.25 606.276 90.2969 607.818 89.2969 609.323C86.0573 608.469 82.7969 607.62 79.5156 606.776C78.625 604.734 77.7656 602.677 76.7552 600.688ZM24.125 737.375C24.6094 741.672 25.6198 745.917 27.3437 749.786C28.2187 751.708 29.25 753.547 30.474 755.214C31.724 756.859 33.1406 758.344 34.7187 759.615L35.9427 760.505C36.349 760.802 36.8021 761.031 37.2292 761.297C37.4479 761.422 37.6615 761.568 37.8854 761.677L38.5625 762.005C39.0052 762.24 39.4792 762.417 39.9479 762.599C41.8281 763.323 43.8385 763.771 45.8854 763.943C49.9948 764.297 54.2552 763.583 58.1719 762.036C62.0781 760.495 65.6979 758.042 68.8594 755.094C72.0313 752.141 74.7865 748.677 77.1823 744.964C81.8646 737.438 85.526 729.172 87.6823 720.458C88.5885 716.948 89.276 713.38 89.849 709.786C91.474 709.448 93.099 709.104 94.724 708.755C94.75 709.089 94.7344 709.411 94.7865 709.74C95.0625 711.51 95.6042 713.292 96.3229 715.021C97.0313 716.76 97.9323 718.443 98.8906 720.109C99.8698 721.766 100.87 723.443 101.979 724.958C103.073 726.49 104.307 727.88 105.734 728.984C106.448 729.526 107.203 730.021 108.016 730.432C108.828 730.833 109.672 731.177 110.542 731.464C112.286 732.031 114.125 732.339 115.99 732.474C117.849 732.609 119.75 732.573 121.615 732.396C125.339 732.063 128.969 731.036 131.865 729.109C134.724 727.161 136.964 724.286 137.302 721.193C137.401 720.411 137.422 719.604 137.344 718.781C137.271 717.958 137.141 717.125 136.922 716.286C136.724 715.443 136.458 714.594 136.135 713.781C135.833 712.964 135.453 712.172 135.052 711.411C134.641 710.651 134.172 709.927 133.672 709.234C133.417 708.896 133.146 708.563 132.88 708.234C132.599 707.911 132.307 707.594 132.042 707.365C131.505 706.885 130.964 706.651 130.646 706.797C130.484 706.875 130.401 707.031 130.391 707.266C130.391 707.318 130.396 707.391 130.406 707.448C130.417 707.51 130.51 707.625 130.557 707.698C130.677 707.865 130.792 708.031 130.922 708.188C126.74 706.781 124.49 702.25 125.896 698.068C127.297 693.885 131.828 691.635 136.01 693.036C136.604 693.349 137.172 693.708 137.724 694.104C137.99 694.292 138.297 694.526 138.505 694.724C138.719 694.917 138.938 695.115 139.125 695.318C139.906 696.135 140.536 696.969 141.016 697.781C141.979 699.406 142.438 700.875 142.755 702.151C142.917 702.797 143.016 703.38 143.115 703.958C143.224 704.536 143.318 705.109 143.391 705.688C143.563 706.839 143.677 707.979 143.771 709.109C143.859 710.24 143.896 711.365 143.917 712.474C143.922 713.589 143.896 714.677 143.839 715.786C143.76 716.896 143.661 718.021 143.474 719.151C143.276 720.281 143.021 721.422 142.651 722.536C141.87 724.786 140.651 726.839 139.146 728.521C137.646 730.208 135.87 731.563 133.953 732.594C130.099 734.682 125.865 735.391 121.807 735.536C117.766 735.63 113.641 735.318 109.703 733.943C108.724 733.589 107.76 733.172 106.833 732.682C105.917 732.177 105.021 731.609 104.188 730.964C102.526 729.651 101.156 728.073 99.9427 726.453C98.7396 724.818 97.6719 723.167 96.6094 721.49C95.5469 719.807 94.526 718.078 93.625 716.25C93.3802 715.745 93.1406 715.224 92.9115 714.703C92.4948 716.953 92.0208 719.198 91.4688 721.427C91.2292 722.563 90.8906 723.682 90.5573 724.797L89.5729 728.151C89.2083 729.26 88.7969 730.354 88.4115 731.453L87.8229 733.104L87.526 733.932L87.1823 734.734L85.7865 737.958C85.5521 738.49 85.3333 739.036 85.0781 739.563L84.276 741.125L82.6563 744.25C82.1146 745.286 81.5 746.297 80.8854 747.302C78.4115 751.307 75.5156 755.12 72.0625 758.464C68.6042 761.807 64.599 764.677 60.0313 766.589C55.4896 768.479 50.5156 769.438 45.5052 769.109C43 768.948 40.4896 768.453 38.0937 767.578C37.4896 767.359 36.8906 767.141 36.3177 766.859L35.4427 766.453C35.1562 766.318 34.8854 766.146 34.6042 765.995C34.0573 765.672 33.4844 765.38 32.9531 765.026L31.3906 763.927C29.375 762.375 27.5833 760.563 26.0365 758.594C24.5 756.615 23.224 754.49 22.0937 752.307C19.875 747.922 18.3385 743.307 17.2031 738.615C16.6302 736.266 16.1927 733.901 15.7917 731.542C15.4062 729.172 15.0833 726.76 14.875 724.307C14.776 723.094 14.7031 721.87 14.6615 720.63C18.1354 720.438 21.5937 720.203 25.0365 719.911C23.75 725.432 23.5052 731.495 24.125 737.375ZM14.6615 720.63C18.1354 720.438 21.5937 720.203 25.0365 719.911C25.6302 717.344 26.3854 714.859 27.5052 712.625C27.9323 711.745 28.4271 710.906 28.9219 710.12C29.1823 709.724 29.4635 709.349 29.7292 708.964L30.5833 707.87C30.8906 707.521 31.1771 707.167 31.4896 706.833C31.8177 706.516 32.1198 706.182 32.4583 705.885C33.125 705.281 33.776 704.698 34.4948 704.214C37.3021 702.219 40.4583 701.26 43.0885 701.74C46.5938 702.37 50.3802 701.682 53.5469 699.505C54.0885 699.13 54.5885 698.729 55.0625 698.297C56.1094 698.786 57.099 699.021 57.8958 699.141C58.8906 699.286 59.651 699.292 60.224 699.297C60.8281 699.302 61.4323 699.302 62.0521 699.292C63.2813 699.266 64.5417 699.203 65.8229 699.078C68.3854 698.828 71.0677 698.307 73.6927 697.281C76.3281 696.25 78.7292 694.714 80.724 692.927C82.7292 691.141 84.375 689.12 85.75 687.026C88.4583 682.88 90.1823 678.495 91.4375 674.01C91.7292 680.604 91.8073 687.198 91.5052 693.76C91.2448 699.141 90.6927 704.495 89.849 709.786C91.474 709.448 93.099 709.104 94.724 708.755C94.5938 707.323 94.6198 705.896 94.9271 704.552C94.9479 704.448 94.9635 704.333 94.974 704.229C95.0104 703.698 94.8333 703.198 94.5313 702.807C94.8021 699.844 95 696.875 95.1094 693.906C95.4375 684.677 95.026 675.469 94.3281 666.323C94.0677 662.776 93.724 659.24 93.375 655.708C93.25 652.714 92.9323 649.74 92.4635 646.813C92.1771 644.193 91.8646 641.573 91.5052 638.953C90.875 634.391 90.0938 629.833 89.0313 625.323C88.1354 621.531 87.0417 617.792 85.7708 614.109C86.8542 612.813 87.875 611.464 88.849 610.073C89.0104 609.833 89.1354 609.568 89.2969 609.323C86.0573 608.469 82.7969 607.62 79.5156 606.776C79.9635 607.807 80.4896 608.807 80.9115 609.849C80.6615 610.12 80.4167 610.391 80.1667 610.651C77.599 613.323 74.7396 615.719 71.6667 617.797C68.6042 619.891 65.3229 621.656 61.9063 623.063C58.4896 624.469 54.9323 625.505 51.3542 626.135C47.8021 626.724 44.1823 626.932 40.6979 626.599C39.8333 626.484 38.9583 626.432 38.1198 626.255L36.8542 626.031L35.6302 625.724C34.8021 625.547 34.0365 625.24 33.25 625C32.8594 624.875 32.5 624.693 32.125 624.547C31.7656 624.38 31.375 624.26 31.0365 624.057C28.224 622.646 25.9219 620.771 24.5 618.479C22.9792 616.214 22.3437 613.693 22.375 611.089C22.3802 609.787 22.5677 608.448 22.9167 607.109C23.2552 605.771 23.7292 604.422 24.3646 603.109C24.9948 601.797 25.7344 600.505 26.6042 599.287C27.4635 598.057 28.4271 596.896 29.474 595.823C30.3333 594.943 31.2708 594.162 32.224 593.417C24.6927 590.885 17.2656 588.052 9.99479 584.839C8.13021 589.104 6.69271 593.526 5.95312 598.188C5.57292 600.688 5.35416 603.24 5.41146 605.833C5.47396 608.427 5.79167 611.057 6.42187 613.651C7.69271 618.823 10.3646 623.823 14.1198 627.443C15.0052 628.406 16.0469 629.193 17.0312 630.021C17.5312 630.427 18.0781 630.76 18.599 631.125C19.1302 631.474 19.6458 631.849 20.2083 632.13L21.8594 633.016C22.4115 633.313 22.9844 633.521 23.5469 633.771C24.6667 634.281 25.8125 634.63 26.9479 635.01C31.5156 636.385 36.0729 636.755 40.474 636.641C41.5729 636.594 42.6667 636.521 43.7552 636.427C44.8333 636.292 45.9219 636.208 46.9844 636.01L48.5833 635.745L50.1667 635.422C51.224 635.219 52.2604 634.922 53.2969 634.656C55.349 634.083 57.3698 633.448 59.3385 632.667C61.3073 631.912 63.2448 631.083 65.1198 630.135C71.9427 626.76 78.2031 622.287 83.4115 616.755C84.4063 619.813 85.2708 622.906 86 626.031C87.026 630.422 87.7813 634.88 88.3906 639.375C88.7292 641.912 89.026 644.458 89.3021 647.01C89.4375 651.25 89.2448 655.469 88.6198 659.583C87.9688 663.797 86.901 667.906 85.3073 671.734C83.7135 675.542 81.6615 679.208 79.1406 682.13C76.6302 685.073 73.6354 687.156 70.526 687.87C68.9479 688.255 67.2083 688.375 65.3542 688.318C64.4271 688.286 63.4688 688.208 62.4896 688.099C62 688.047 61.5052 687.984 61 687.911H60.9948C60.9688 687.833 60.9375 687.75 60.8958 687.641L60.6927 687.057C60.625 686.844 60.5417 686.641 60.4792 686.427C59.9479 684.745 59.6146 683.042 59.5156 681.427C59.4219 679.813 59.5573 678.281 59.9271 676.958C60.0104 676.62 60.1354 676.307 60.2344 675.995C60.3698 675.693 60.4844 675.375 60.6146 675.135C60.8802 674.63 61.2083 674.13 61.5833 673.677C62.3333 672.76 63.2813 672.031 64.1667 671.635C65.0625 671.234 65.8229 671.188 66.3646 671.318C67.1458 671.495 68.0104 671.583 68.849 671.531C73.5573 671.245 77.1406 667.193 76.8542 662.49C76.5625 657.781 72.5156 654.203 67.8125 654.49L65.9323 654.604C62.0365 654.839 58.4583 656.276 55.6302 658.26C52.7865 660.255 50.5729 662.766 48.9375 665.578C48.1198 666.984 47.4479 668.474 46.9375 670.037C46.6771 670.839 46.5052 671.589 46.3229 672.349C46.2188 672.88 46.125 673.412 46.0469 673.943C43.1615 673.849 40.224 674.641 37.6667 676.401L33.6979 679.13C27.875 683.135 23.7083 688.104 20.8073 693.224C20.0885 694.516 19.4219 695.797 18.8437 697.109C18.2656 698.422 17.7604 699.745 17.2865 701.057L16.6562 703.047C16.4792 703.719 16.2865 704.38 16.1302 705.052C15.7969 706.391 15.5365 707.714 15.3229 709.026C14.6927 712.984 14.526 716.865 14.6615 720.63ZM60.0313 687.714C59.9271 687.661 60.125 687.641 60.4948 687.818C60.5104 687.828 60.5208 687.833 60.5417 687.844C60.276 687.797 60.0938 687.75 60.0313 687.714ZM55.9115 508.047C49.3021 497.771 42.8906 487.214 37.5365 476.042C38.5417 488.25 39.8646 500.406 41.9687 512.427C43.2031 519.354 44.8125 526.198 46.6719 532.964C43.974 533.818 41.2187 534.563 38.3594 535.151C38.6615 530.729 39.151 526.318 40.0417 521.974C39.3698 519.037 38.7448 516.089 38.1771 513.13C36.4167 504.099 35.0677 495.005 33.9635 485.896C32.9479 477.646 32.1094 469.391 31.2708 461.151C29.1354 455.172 27.3906 449.021 26.2448 442.714C24.6979 434.714 24.2917 426.443 24.849 418.302C24.9323 416.255 25.2344 414.234 25.4479 412.208C25.5417 411.188 25.7396 410.188 25.901 409.182L26.401 406.167L27.0417 403.182C27.2656 402.188 27.4479 401.182 27.724 400.203C28.2604 398.245 28.7083 396.255 29.349 394.328C31.0885 388.599 33.3646 383.073 35.8594 377.656C37.9583 379.198 40.0885 380.656 42.2187 382.135C41.5417 386.469 41.2292 390.88 40.9375 395.318C40.625 399.839 40.4323 404.354 40.4479 408.854C40.4635 413.349 40.6823 417.844 41.401 422.255C41.7344 424.464 42.2292 426.641 42.8073 428.792C43.1302 429.854 43.4115 430.932 43.8177 431.964L44.3854 433.526L44.901 434.724C45.3021 434.849 45.6302 435.167 45.7604 435.583V435.589C46.0573 436.589 46.3906 437.578 46.7448 438.557C48.2344 441.307 50.0104 443.912 51.9844 446.354C54.7656 449.828 57.9479 452.979 61.3021 455.948C61.7292 456.333 62.1823 456.682 62.6146 457.057C61.8281 457.714 61.0469 458.359 60.2865 459.005C59.9635 458.703 59.6302 458.417 59.3125 458.109C58.0156 456.88 56.7604 455.599 55.526 454.292C56.5313 455.573 57.5833 456.802 58.6875 457.984C59.1042 458.432 59.5729 458.813 60 459.245C58.3854 460.625 56.875 462.026 55.4427 463.458C54.9948 462.88 54.4896 462.344 54.0625 461.755C48.625 454.214 44.8906 445.563 43.3177 436.609C43.2188 436.38 43.1146 436.151 43.0156 435.917C41.2396 431.63 40.0417 427.13 39.3646 422.578L39.1146 420.87L38.9115 419.156C38.7552 418.016 38.6979 416.875 38.5885 415.729C38.4323 413.443 38.3281 411.151 38.3125 408.87C38.2552 404.297 38.4479 399.74 38.599 395.203C38.6771 392.932 38.776 390.656 38.9115 388.375C38.9219 388.24 38.9323 388.104 38.9427 387.969C37.8906 390.734 36.9323 393.537 36.0833 396.359C35.4792 398.177 35.0625 400.047 34.5625 401.891C34.2969 402.813 34.1354 403.75 33.9219 404.682L33.3229 407.484L32.8594 410.307C32.7135 411.245 32.5156 412.182 32.4271 413.13C32.2187 415.021 31.9167 416.906 31.8333 418.807L31.6406 421.656C31.5937 422.604 31.6042 423.552 31.5833 424.505C31.5781 425.453 31.5156 426.406 31.5677 427.349L31.6667 430.198L31.7135 431.62L31.8333 433.042L32.0781 435.88C32.3437 437.766 32.526 439.662 32.8906 441.537C33.4896 445.302 34.4062 449.026 35.4219 452.724L36.2344 455.49C36.5052 456.412 36.8281 457.318 37.125 458.234C37.7031 460.068 38.3958 461.87 39.0417 463.688C41.7969 470.901 45.0677 477.958 48.7344 484.839C52.3698 491.734 56.3854 498.464 60.4896 505.172C63.6667 510.38 66.9427 515.568 70.1771 520.781C68.7917 521.823 67.3958 522.813 65.9844 523.745C62.651 518.51 59.2917 513.292 55.9115 508.047ZM103.729 552.031C103.349 550.859 103.198 549.63 103.245 548.464C103.438 543.88 103.521 539.375 103.401 534.932C103.385 533.813 103.344 532.703 103.286 531.604C103.229 530.5 103.193 529.391 103.109 528.297C102.953 526.099 102.755 523.922 102.51 521.745C101.474 513.089 99.4063 504.625 95.6406 496.891C95.151 495.943 94.6927 494.958 94.1667 494.026C93.6302 493.099 93.0677 492.182 92.5156 491.255C91.4167 489.563 90.2292 487.906 88.9688 486.287C88.8594 486.245 88.75 486.208 88.6406 486.172C84.276 484.615 79.8229 482.865 75.526 480.578C67.5573 476.344 60.7917 470.37 55.4427 463.458C56.875 462.026 58.3854 460.625 60 459.245C62.6615 461.932 65.526 464.391 68.6198 466.474C67.1979 465.245 65.7813 464.01 64.375 462.75C63 461.526 61.6354 460.271 60.2865 459.005C61.0469 458.359 61.8281 457.714 62.6146 457.057C65.5729 459.625 68.651 462.073 71.7813 464.484C75.349 467.271 79.026 469.969 82.6042 472.849C82.8333 473.037 83.0625 473.224 83.2917 473.406C90.0365 475.484 97.349 476.656 104.958 478.365C109.505 479.396 114.203 480.625 118.938 482.537C123.651 484.432 128.432 487.083 132.62 490.75L132.818 490.927C136.177 493.859 136.516 498.958 133.578 502.313C130.646 505.667 125.547 506.01 122.193 503.073C121.932 502.849 121.661 502.573 121.438 502.323C119.151 499.719 116.229 497.484 112.802 495.568C109.385 493.651 105.505 492.057 101.411 490.578C100.99 490.427 100.552 490.276 100.125 490.125C100.854 491.073 101.516 492.063 102.214 493.037C107.609 500.995 111.516 509.875 114.688 518.844C115.458 521.089 116.24 523.339 116.943 525.594C117.677 527.844 118.365 530.109 119.047 532.354C120.396 536.859 121.74 541.344 123.161 545.745L123.167 545.76C124.896 551.13 121.948 556.885 116.583 558.615C111.214 560.349 105.458 557.401 103.729 552.031ZM32.599 375.141C31.0052 379.703 29.974 384.443 29.7656 389.26C26.9062 386.24 25.0052 382.354 24.3854 378.271C21.4115 381.203 19.6927 385.323 19.7292 389.443C19.75 391.688 20.2552 394 19.5573 396.146C19.0208 397.802 17.8229 399.162 16.7292 400.531C4.13021 416.438 4.05208 438.292 4.54167 458.354C-5.55729 427.672 2.10937 392.276 22.7344 367.141C25.9687 369.917 29.2552 372.589 32.599 375.141ZM38.5312 351.912C44.6615 347.292 51.5833 343.318 59.0104 341.5C60.2135 340.094 61.3958 338.677 62.6198 337.292C63.9583 335.807 65.2604 334.286 66.6406 332.839C72.0781 326.979 77.7813 321.391 83.6302 316C89.4896 310.62 95.4948 305.432 101.552 300.333C102.734 299.146 104.031 298.052 105.432 297.089C110.214 293.099 115.036 289.13 120.089 285.344C123.87 282.505 127.797 279.797 131.891 277.328C135.219 273.88 138.24 270.146 140.943 266.208C144.193 261.422 146.917 256.297 148.911 250.927C150.87 245.542 152.37 239.953 152.333 234.615C152.323 231.932 151.885 229.422 151.016 226.984C150.13 224.563 148.839 222.302 147.266 220.281C144.109 216.245 139.766 213.161 135.115 211.797C132.813 211.094 130.417 210.813 128.167 210.958C125.932 211.083 124.078 211.792 123.083 212.708C122.557 213.156 122.115 213.755 121.661 214.505C121.219 215.255 120.807 216.219 120.422 217.297C120.047 218.38 119.708 219.62 119.365 220.948L118.854 222.979C118.703 223.625 118.578 224.224 118.49 224.76C118.313 225.833 118.318 226.651 118.453 227.099C118.516 227.328 118.604 227.448 118.688 227.589L119.068 228.099C119.234 228.307 119.453 228.563 119.714 228.844C119.99 229.125 120.323 229.448 120.698 229.786C121.458 230.469 122.411 231.245 123.516 232.13C127.229 235.104 127.823 240.526 124.849 244.24C121.87 247.953 116.448 248.552 112.74 245.573C112.359 245.271 112.01 244.938 111.698 244.589L111.625 244.505C110.609 243.354 109.464 242.068 108.297 240.531C107.135 238.99 105.927 237.182 104.958 234.958C104.484 233.839 104.083 232.625 103.813 231.344C103.552 230.052 103.432 228.708 103.464 227.469C103.526 224.974 104.057 222.87 104.63 221.104C104.917 220.219 105.224 219.406 105.526 218.656L106.411 216.51C107.026 215.057 107.682 213.526 108.526 211.932C109.359 210.339 110.333 208.688 111.651 207.078C112.964 205.49 114.594 203.943 116.547 202.792C118.49 201.62 120.573 200.927 122.557 200.552C124.552 200.188 126.464 200.115 128.297 200.229C131.927 200.458 135.385 201.359 138.568 202.771C144.922 205.609 150.089 210.302 153.583 215.948C155.323 218.781 156.646 221.859 157.438 225.083C158.24 228.281 158.474 231.693 158.167 234.885C157.875 238.094 157.13 241.172 156.167 244.094C155.203 247.031 154.01 249.786 152.75 252.542C150.188 258.016 147.099 263.177 143.724 268.104C142.672 269.661 141.573 271.177 140.458 272.688C140.526 272.656 140.583 272.625 140.651 272.594C147.969 269.13 155.557 266.464 163.271 264.266C170.984 262.083 178.849 260.438 186.813 259.396C194.776 258.38 202.849 257.974 210.932 258.5C218.995 259.042 227.13 260.516 234.76 263.724L237.583 265.01C238.5 265.495 239.427 265.958 240.333 266.469C242.146 267.516 243.885 268.719 245.531 270.052C248.807 272.724 251.599 276.078 253.583 279.844C255.583 283.615 256.75 287.74 257.281 291.865C257.802 295.979 257.688 300.156 257.469 304.073C257.438 304.583 257.438 304.974 257.396 305.557C257.354 306.099 257.349 306.641 257.26 307.177C257.135 308.255 256.927 309.323 256.661 310.37C256.13 312.469 255.313 314.479 254.292 316.365C252.24 320.141 249.349 323.401 245.958 325.99C244.26 327.292 242.432 328.427 240.495 329.365C238.557 330.307 236.516 331.063 234.391 331.573C232.266 332.083 230.057 332.38 227.823 332.37C225.589 332.359 223.328 332.068 221.125 331.474C218.922 330.859 216.792 329.958 214.802 328.807C212.823 327.635 210.979 326.234 209.323 324.641C206.016 321.443 203.396 317.552 201.557 313.245C199.724 308.938 198.615 304.188 198.583 299.12C198.542 294.068 199.677 288.635 202.333 283.49L203.464 281.307C206.005 276.391 212.052 274.458 216.969 277C221.885 279.542 223.813 285.589 221.276 290.505C220.328 292.339 218.896 293.755 217.214 294.682C215.104 295.844 213.38 298.057 212.391 300.828C211.396 303.594 211.135 306.87 211.651 310.083C212.177 313.302 213.443 316.484 215.417 319.156C216.396 320.49 217.542 321.708 218.849 322.724C219.5 323.234 220.182 323.708 220.901 324.12C221.26 324.323 221.62 324.536 222.005 324.698C222.38 324.87 222.755 325.057 223.146 325.193C226.245 326.432 229.786 326.698 233.255 326.125C236.729 325.552 240.135 324.135 243.115 322.089C246.094 320.036 248.661 317.349 250.453 314.229C251.349 312.672 252.042 311.005 252.51 309.286C252.75 308.427 252.906 307.552 253.01 306.672C253.089 306.234 253.083 305.786 253.125 305.344C253.161 304.943 253.167 304.349 253.193 303.87C253.297 301.88 253.391 299.979 253.375 298.078C253.339 296.182 253.203 294.302 252.938 292.458C252.391 288.771 251.297 285.208 249.536 282.026C247.781 278.849 245.375 276.057 242.505 273.797C241.063 272.672 239.526 271.651 237.906 270.755L235.417 269.469L232.844 268.323C225.87 265.469 218.255 264.094 210.604 263.625C202.932 263.161 195.172 263.583 187.495 264.599C179.818 265.646 172.203 267.276 164.745 269.427C157.297 271.583 149.984 274.276 143.063 277.625C136.198 280.969 129.755 285.255 123.589 289.979C117.422 294.693 111.453 299.828 105.469 304.943C103.318 306.792 101.182 308.656 99.0573 310.526C97.4531 313.24 96.151 316.182 95.0781 319.219C92.3646 327.099 90.5521 335.417 90.5625 343.734C90.5417 347.891 91.0313 352.031 92 356.042C92.9896 360.047 94.5625 363.891 96.5781 367.5C100.661 374.682 106.427 380.995 113.453 385.177C115.219 386.193 117.026 387.13 118.911 387.854C119.375 388.057 119.865 388.188 120.339 388.359C120.813 388.526 121.286 388.693 121.776 388.807L123.229 389.198L124.698 389.49C126.661 389.818 128.646 390.026 130.615 389.917L131.354 389.901L132.083 389.813L133.536 389.646C134.016 389.573 134.49 389.443 134.969 389.344C135.443 389.224 135.927 389.167 136.385 388.99C140.125 387.865 143.646 385.938 146.583 383.344C149.505 380.745 151.922 377.573 153.51 374.073L154.057 372.745C154.146 372.526 154.25 372.307 154.323 372.083L154.531 371.396L154.953 370.037L155.24 368.651C155.479 367.734 155.505 366.792 155.604 365.859C155.667 365.396 155.599 364.927 155.589 364.458C155.557 363.995 155.563 363.531 155.505 363.068C155 359.359 153.219 355.901 150.792 353.219C149.531 351.901 148.281 350.662 146.859 349.667C145.516 348.599 144.068 347.76 142.693 346.948C141.245 346.26 139.891 345.531 138.495 345.016C138.151 344.88 137.828 344.682 137.479 344.573C137.135 344.458 136.792 344.323 136.458 344.177C136.125 344.01 135.781 343.906 135.443 343.776C135.104 343.635 134.766 343.495 134.427 343.302L132.818 342.391C129.099 340.271 127.797 335.536 129.917 331.818C131.464 329.099 134.417 327.672 137.344 327.932C140.151 328.182 142.927 328.958 145.401 330.224C147.922 331.417 150.12 333.115 152.104 334.943C156.01 338.698 158.682 343.385 160.276 348.208C160.474 348.818 160.625 349.443 160.797 350.047C160.958 350.662 161.151 351.25 161.25 351.88C161.49 353.12 161.76 354.318 161.875 355.563C161.938 356.182 162.042 356.781 162.089 357.391C162.115 358.01 162.146 358.62 162.188 359.229L162.24 360.135L162.224 361.052L162.198 362.87C162.188 363.469 162.104 364.073 162.063 364.677L161.979 365.573L161.948 366.021L161.87 366.469C161.656 367.646 161.542 368.844 161.193 369.99C161.042 370.563 160.901 371.141 160.734 371.714L160.13 373.38L159.823 374.214C159.714 374.49 159.578 374.75 159.458 375.021L158.698 376.615C154.323 384.917 146.573 391.172 137.568 393.427C137.016 393.604 136.432 393.662 135.865 393.776C135.297 393.87 134.729 393.995 134.156 394.057L132.422 394.203L131.557 394.271L130.693 394.266C128.396 394.307 126.115 394 123.891 393.542C119.432 392.589 115.276 390.724 111.49 388.38C109.615 387.172 107.818 385.865 106.13 384.427C104.464 382.974 102.839 381.464 101.37 379.818C98.3854 376.552 95.8542 372.943 93.724 369.089C91.6042 365.234 89.9479 361.099 88.9115 356.807C87.8646 352.521 87.3594 348.125 87.3542 343.745C87.2969 339.359 87.7708 335.005 88.4792 330.708C88.8542 328.563 89.2865 326.427 89.8229 324.323C90.3385 322.208 90.9323 320.12 91.6094 318.036C91.7448 317.63 91.8854 317.224 92.026 316.818C90.651 318.078 89.276 319.339 87.9167 320.615C82.2188 325.979 76.7031 331.505 71.4688 337.266C60.9583 348.745 51.6823 361.297 44.6667 375.016C44.0208 376.287 43.4063 377.573 42.8021 378.859C42.599 379.865 42.4167 380.875 42.25 381.891C42.2344 381.969 42.2292 382.052 42.2187 382.135C40.0885 380.656 37.9583 379.198 35.8594 377.656C36.75 375.724 37.5677 373.76 38.5417 371.87C42.2708 364.703 46.5781 357.854 51.3177 351.359C52.1667 350.151 53.0729 348.99 53.9688 347.818C44 354.234 36.4583 364.094 32.599 375.141C29.2552 372.589 25.9687 369.917 22.7344 367.141C27.3646 361.49 32.6406 356.349 38.5312 351.912ZM27.8802 330.615C25.349 330.615 23.2969 328.563 23.2969 326.036V51.2188C23.2969 48.6875 25.349 46.6407 27.8802 46.6407C30.4062 46.6407 32.4583 48.6875 32.4583 51.2188V326.036C32.4583 328.563 30.4062 330.615 27.8802 330.615ZM27.8802 797.323C30.4062 797.323 32.4583 799.375 32.4583 801.901V1069.42C32.4583 1071.95 30.4062 1074 27.8802 1074C25.349 1074 23.2969 1071.95 23.2969 1069.42V801.901C23.2969 799.375 25.349 797.323 27.8802 797.323ZM744.635 77.5052C748.354 75.1094 751.812 72.3542 754.771 69.1823C757.719 66.0209 760.172 62.4011 761.714 58.4948C763.26 54.5782 763.969 50.3177 763.62 46.2136C763.443 44.1615 763 42.1511 762.276 40.2709C762.094 39.8021 761.911 39.3282 761.677 38.8854L761.354 38.2084C761.24 37.9844 761.099 37.7709 760.974 37.5521C760.703 37.125 760.479 36.6771 760.182 36.2656L759.292 35.0417C758.021 33.4636 756.536 32.0469 754.891 30.7969C753.224 29.5729 751.385 28.5417 749.464 27.6667C745.594 25.9427 741.349 24.9323 737.052 24.4479C728.432 23.5417 719.339 24.3073 712.302 27.8281C711.422 28.2552 710.583 28.75 709.797 29.2448C709.401 29.5052 709.021 29.7865 708.641 30.0521L707.547 30.9063C707.198 31.2136 706.844 31.5 706.51 31.8125C706.193 32.1406 705.859 32.4479 705.562 32.7813C704.958 33.4479 704.375 34.099 703.891 34.8229C701.896 37.6302 700.937 40.7865 701.417 43.4115C701.583 44.3229 701.646 45.25 701.63 46.1823C696.328 39.6146 690.687 33.3177 684.432 27.4896C687.109 24.9271 689.969 22.7917 692.901 21.1302C694.193 20.4167 695.474 19.7448 696.786 19.1667C698.099 18.5886 699.422 18.0834 700.734 17.6094L702.724 16.9792C703.396 16.8021 704.057 16.6146 704.729 16.4531C706.068 16.1198 707.391 15.8594 708.703 15.6511C713.964 14.8073 719.073 14.7917 723.979 15.2031C726.437 15.4063 728.849 15.7292 731.219 16.1146C733.578 16.5156 735.943 16.9532 738.292 17.5261C742.984 18.6615 747.599 20.1979 751.984 22.4167C754.161 23.5521 756.292 24.8229 758.271 26.3594C760.24 27.9115 762.052 29.6979 763.604 31.7136L764.703 33.2813C765.057 33.8073 765.349 34.3802 765.672 34.9271C765.823 35.2084 765.995 35.4792 766.13 35.7656L766.531 36.6406C766.818 37.2136 767.036 37.8177 767.255 38.4167C768.125 40.8177 768.625 43.3229 768.786 45.8282C769.109 50.8438 768.156 55.8125 766.266 60.3542C764.349 64.9219 761.484 68.9271 758.141 72.3854C754.797 75.8386 750.984 78.7344 746.974 81.2136C745.969 81.8282 744.964 82.4375 743.922 82.9844L740.802 84.599L739.24 85.4011C738.714 85.6615 738.167 85.875 737.635 86.1146L734.411 87.5052L733.604 87.849L732.781 88.1459L732.078 88.3959C731.25 87.25 730.422 86.099 729.604 84.9479C734.849 82.9271 739.906 80.4479 744.635 77.5052ZM615.724 55.8907C609.891 56.0729 604.063 56.4375 598.24 56.8177C598.047 54.9375 597.87 53.0573 597.708 51.1719C602.984 51.8177 608.229 52.6615 613.391 53.9063C614.479 54.1667 615.823 54.7761 615.724 55.8907ZM527.635 69.0104C530.958 71.1042 534.302 73.1459 537.672 75.1407C541.052 77.125 544.474 79.0104 547.922 80.8386C554.849 84.4063 561.911 87.7917 569.224 89.9167C572.875 90.974 576.589 91.7031 580.302 91.974C582.156 92.0886 584.005 92.0729 585.844 91.9584C587.667 91.8021 589.484 91.5365 591.271 91.1302C595.328 90.2031 599.177 88.5156 602.734 86.3281C603.167 88.3854 603.656 90.4427 604.151 92.5052C602.339 93.4271 600.464 94.2396 598.552 94.9323C596.557 95.6302 594.521 96.1979 592.453 96.6302C590.375 97.0417 588.271 97.2865 586.167 97.4063C584.057 97.4844 581.958 97.4323 579.88 97.2448C575.724 96.8698 571.672 95.9844 567.771 94.7813C563.87 93.5625 560.094 92.0834 556.427 90.4375C552.755 88.8021 549.208 86.9844 545.656 85.1667C538.599 81.4479 531.729 77.4375 524.969 73.3073C521.849 71.4011 518.776 69.474 515.688 67.5417C516.385 65.9271 517.115 64.3334 517.875 62.75C521.125 64.8386 524.375 66.9584 527.635 69.0104ZM200.229 122.88C200.604 120.896 201.297 118.813 202.469 116.87C203.615 114.922 205.161 113.286 206.755 111.974C208.359 110.656 210.016 109.682 211.609 108.849C213.203 108.01 214.734 107.349 216.182 106.734L218.333 105.849C219.083 105.547 219.891 105.24 220.781 104.953C222.542 104.385 224.646 103.849 227.146 103.786C228.385 103.755 229.729 103.875 231.021 104.135C232.302 104.406 233.516 104.807 234.635 105.281C236.859 106.25 238.667 107.458 240.208 108.62C241.74 109.786 243.031 110.932 244.182 111.948L244.266 112.021C244.615 112.333 244.948 112.682 245.25 113.063C248.224 116.771 247.63 122.198 243.917 125.172C240.203 128.146 234.781 127.552 231.807 123.839C230.922 122.734 230.146 121.781 229.464 121.021C229.125 120.651 228.802 120.313 228.521 120.042C228.24 119.776 227.984 119.557 227.776 119.391L227.266 119.01C227.125 118.927 227.005 118.839 226.776 118.776C226.328 118.641 225.505 118.635 224.438 118.813C223.901 118.901 223.302 119.026 222.656 119.177L220.62 119.688C219.297 120.031 218.057 120.37 216.974 120.745C215.896 121.13 214.932 121.542 214.182 121.984C213.432 122.438 212.833 122.885 212.38 123.406C211.469 124.401 210.76 126.255 210.635 128.49C210.49 130.74 210.771 133.135 211.474 135.438C212.833 140.089 215.922 144.432 219.953 147.589C221.979 149.167 224.24 150.453 226.661 151.339C229.099 152.208 231.609 152.646 234.292 152.656C239.63 152.693 245.219 151.193 250.604 149.234C255.974 147.24 261.099 144.516 265.88 141.266C269.818 138.563 273.552 135.547 277.005 132.214C279.474 128.12 282.182 124.193 285.021 120.411C288.802 115.359 292.771 110.536 296.766 105.755C297.729 104.354 298.823 103.057 300.01 101.875C305.109 95.8177 310.297 89.8125 315.677 83.9532C321.068 78.1042 326.651 72.4063 332.516 66.9636C333.964 65.5886 335.479 64.2813 336.969 62.9427C338.349 61.7188 339.771 60.5365 341.177 59.3334C342.99 51.9063 346.964 44.9844 351.589 38.8542C354.708 34.7136 358.182 30.8802 361.927 27.3542C363.005 30.5625 363.927 34.0052 364.901 37.5313C357.964 41.7084 351.911 47.4271 347.495 54.2917C348.661 53.3959 349.828 52.4896 351.036 51.6407C355.88 48.1042 360.979 44.9115 366.203 41.9219C366.891 44.1094 367.698 46.2761 368.625 48.4063C357.271 54.9219 346.693 62.8646 336.943 71.7917C331.182 77.0261 325.651 82.5417 320.292 88.2448C319.016 89.6042 317.75 90.974 316.495 92.349C316.901 92.2084 317.307 92.0677 317.714 91.9375C319.797 91.2552 321.885 90.6667 324 90.1459C326.104 89.6146 328.24 89.1771 330.385 88.8021C334.682 88.0938 339.036 87.6198 343.422 87.6771C347.802 87.6875 352.198 88.1875 356.484 89.2396C360.776 90.2709 364.906 91.9271 368.766 94.0469C372.62 96.1771 376.229 98.7084 379.49 101.693C381.141 103.161 382.651 104.786 384.104 106.453C385.542 108.141 386.849 109.943 388.057 111.813C390.401 115.599 392.266 119.76 393.219 124.214C393.677 126.438 393.984 128.719 393.943 131.016L393.948 131.88L393.88 132.745L393.734 134.479C393.672 135.052 393.547 135.62 393.453 136.188C393.339 136.755 393.281 137.339 393.104 137.891C390.849 146.896 384.589 154.646 376.292 159.021L374.693 159.781C374.427 159.901 374.167 160.042 373.891 160.146L373.057 160.453L371.391 161.063C370.818 161.224 370.24 161.365 369.661 161.516C368.521 161.865 367.323 161.984 366.141 162.193L365.698 162.271L365.25 162.307L364.349 162.385C363.75 162.427 363.146 162.51 362.542 162.521L360.729 162.547L359.813 162.563L358.906 162.51C358.297 162.474 357.688 162.438 357.068 162.417C356.458 162.365 355.854 162.26 355.24 162.198C353.995 162.089 352.797 161.813 351.557 161.573C350.927 161.479 350.339 161.281 349.724 161.12C349.115 160.948 348.495 160.797 347.885 160.599C343.063 159.005 338.37 156.333 334.62 152.427C332.792 150.443 331.094 148.25 329.901 145.724C328.635 143.25 327.859 140.474 327.609 137.667C327.349 134.74 328.776 131.786 331.495 130.24C335.214 128.12 339.948 129.422 342.068 133.141L342.979 134.75C343.172 135.089 343.313 135.427 343.453 135.766C343.578 136.104 343.682 136.448 343.854 136.781C344 137.12 344.135 137.458 344.25 137.802C344.359 138.151 344.557 138.474 344.688 138.823C345.208 140.214 345.932 141.568 346.625 143.016C347.438 144.391 348.276 145.839 349.339 147.188C350.339 148.604 351.578 149.854 352.896 151.115C355.578 153.542 359.031 155.323 362.745 155.828C363.208 155.891 363.672 155.88 364.135 155.911C364.604 155.922 365.073 155.99 365.536 155.927C366.464 155.828 367.411 155.802 368.328 155.563L369.714 155.276L371.073 154.854L371.76 154.646C371.984 154.573 372.203 154.469 372.422 154.38L373.75 153.833C377.25 152.245 380.422 149.828 383.021 146.906C385.615 143.969 387.542 140.448 388.667 136.708C388.844 136.25 388.901 135.766 389.021 135.292C389.12 134.813 389.25 134.339 389.323 133.859L389.49 132.406L389.578 131.677L389.594 130.938C389.703 128.969 389.495 126.984 389.161 125.021L388.875 123.552L388.484 122.099C388.37 121.609 388.198 121.135 388.036 120.661C387.865 120.188 387.734 119.703 387.531 119.24C386.807 117.349 385.87 115.542 384.854 113.776C380.672 106.75 374.359 100.984 367.177 96.9011C363.568 94.8854 359.724 93.3125 355.719 92.3229C351.708 91.3542 347.568 90.8646 343.411 90.8854C335.094 90.8802 326.776 92.6875 318.891 95.4011C315.859 96.474 312.911 97.7761 310.203 99.3802C308.333 101.505 306.469 103.641 304.62 105.792C299.505 111.776 294.37 117.745 289.656 123.911C284.932 130.078 280.646 136.521 277.302 143.385C273.953 150.307 271.255 157.62 269.104 165.073C266.953 172.526 265.323 180.141 264.276 187.818C263.26 195.5 262.839 203.255 263.297 210.927C263.771 218.583 265.146 226.193 268 233.172L269.146 235.74L270.432 238.234C271.328 239.849 272.349 241.385 273.474 242.828C275.734 245.698 278.526 248.104 281.703 249.859C284.885 251.625 288.448 252.719 292.13 253.26C293.979 253.526 295.859 253.661 297.755 253.698C299.656 253.714 301.557 253.62 303.547 253.521C304.021 253.49 304.62 253.484 305.021 253.448C305.464 253.411 305.911 253.411 306.349 253.339C307.229 253.229 308.104 253.073 308.964 252.833C310.682 252.37 312.349 251.677 313.906 250.776C317.026 248.984 319.714 246.417 321.766 243.438C323.813 240.458 325.229 237.052 325.802 233.578C326.37 230.109 326.109 226.573 324.87 223.469C324.734 223.078 324.547 222.703 324.37 222.328C324.214 221.943 324 221.583 323.797 221.224C323.385 220.505 322.911 219.823 322.396 219.172C321.385 217.865 320.167 216.719 318.828 215.74C316.161 213.766 312.979 212.5 309.76 211.974C306.542 211.458 303.271 211.719 300.505 212.714C297.734 213.708 295.521 215.427 294.354 217.536C293.432 219.219 292.016 220.651 290.182 221.599C285.266 224.135 279.219 222.208 276.677 217.292C274.135 212.375 276.063 206.328 280.984 203.786L283.167 202.661C288.313 200 293.74 198.865 298.797 198.906C303.865 198.938 308.615 200.047 312.922 201.88C317.229 203.719 321.12 206.339 324.318 209.646C325.911 211.307 327.313 213.151 328.484 215.125C329.635 217.115 330.536 219.25 331.146 221.448C331.745 223.651 332.036 225.911 332.047 228.146C332.057 230.38 331.76 232.589 331.25 234.714C330.74 236.839 329.984 238.885 329.042 240.818C328.104 242.755 326.969 244.589 325.667 246.281C323.078 249.672 319.818 252.563 316.042 254.615C314.156 255.635 312.146 256.453 310.047 256.984C309 257.25 307.932 257.458 306.854 257.583C306.318 257.672 305.771 257.677 305.234 257.719C304.651 257.766 304.26 257.76 303.75 257.792C299.833 258.01 295.656 258.125 291.542 257.604C287.417 257.073 283.286 255.906 279.521 253.906C275.755 251.922 272.401 249.13 269.724 245.854C268.396 244.208 267.193 242.469 266.146 240.656C265.635 239.75 265.172 238.823 264.688 237.906L263.401 235.083C260.193 227.453 258.719 219.318 258.177 211.255C257.651 203.172 258.057 195.099 259.073 187.135C260.115 179.172 261.76 171.307 263.938 163.594C266.141 155.88 268.807 148.292 272.271 140.974C272.302 140.911 272.333 140.849 272.365 140.786C270.854 141.896 269.333 142.995 267.781 144.047C262.854 147.422 257.693 150.51 252.219 153.073C249.464 154.333 246.708 155.526 243.771 156.49C240.844 157.453 237.771 158.198 234.563 158.49C231.37 158.802 227.958 158.563 224.76 157.76C221.536 156.974 218.458 155.646 215.625 153.906C209.979 150.411 205.286 145.245 202.448 138.891C201.036 135.714 200.135 132.25 199.906 128.62C199.792 126.792 199.865 124.875 200.229 122.88ZM371.547 38.8646C378.729 35.1719 386.234 32.0313 394.005 29.6719C395.932 29.0313 397.922 28.5834 399.88 28.0469C400.859 27.7709 401.865 27.5886 402.854 27.3646L405.844 26.724L408.859 26.224C409.865 26.0625 410.865 25.8646 411.88 25.7709C413.911 25.5625 415.932 25.2552 417.979 25.1719C426.12 24.6146 434.391 25.0209 442.391 26.5677C448.698 27.7136 454.849 29.4584 460.828 31.5938C469.068 32.4323 477.323 33.2709 485.573 34.2917C494.677 35.3959 503.776 36.7396 512.807 38.5C515.766 39.0677 518.714 39.6927 521.646 40.3646C523.917 39.9011 526.214 39.6042 528.505 39.3021C527.828 41.3229 527.078 43.3073 526.25 45.2604C521.568 44.1354 516.854 43.1354 512.104 42.2917C500.083 40.1875 487.927 38.8646 475.719 37.8594C486.891 43.2136 497.448 49.6302 507.719 56.2344C511.115 58.4219 514.495 60.5729 517.875 62.75C517.115 64.3334 516.385 65.9271 515.688 67.5417C512.083 65.2813 508.469 63.0209 504.849 60.8125C498.141 56.7084 491.411 52.6979 484.516 49.0573C477.635 45.3907 470.578 42.1198 463.365 39.3646C461.547 38.7188 459.745 38.0261 457.911 37.4479C456.995 37.1563 456.089 36.8281 455.167 36.5573L452.401 35.7448C448.703 34.7292 444.979 33.8177 441.214 33.2136C439.339 32.849 437.443 32.6667 435.557 32.4011L432.719 32.1563L431.297 32.0365L429.875 31.9896L427.026 31.8906C426.078 31.8438 425.13 31.9063 424.177 31.9063C423.229 31.9271 422.281 31.9219 421.333 31.9636L418.484 32.1563C416.583 32.2396 414.698 32.5417 412.807 32.75C411.859 32.8386 410.922 33.0365 409.984 33.1823L407.161 33.6459L404.359 34.25C403.427 34.4584 402.49 34.6198 401.568 34.8854C399.724 35.3854 397.854 35.8021 396.036 36.4063C393.208 37.2604 390.411 38.2136 387.646 39.2656C387.781 39.2552 387.917 39.2448 388.052 39.2344C390.328 39.099 392.609 39 394.875 38.9219C399.417 38.7709 403.974 38.5782 408.547 38.6354C410.828 38.6511 413.12 38.7604 415.406 38.9115C416.547 39.0209 417.693 39.0834 418.833 39.2396L420.547 39.4375L422.255 39.6875C426.807 40.3646 431.307 41.5625 435.594 43.3438C435.828 43.4375 436.057 43.5417 436.286 43.6407C445.234 45.2136 453.891 48.9479 461.432 54.3854C462.693 55.2969 463.875 56.3282 465.073 57.3334C463.786 59.0365 462.266 60.6146 460.641 62.1198C459.667 61.0677 458.719 59.9948 457.661 59.0104C456.479 57.9115 455.245 56.8542 453.969 55.849C455.276 57.0834 456.557 58.3386 457.786 59.6354C458.661 60.5417 459.484 61.4792 460.328 62.4063C459.568 63.099 458.797 63.7813 458.016 64.4479C457.219 63.5052 456.448 62.5417 455.625 61.6302C452.656 58.2709 449.505 55.0886 446.031 52.3125C443.589 50.3334 440.984 48.5573 438.229 47.0677C437.255 46.7136 436.266 46.3854 435.266 46.0834H435.26C434.839 45.9584 434.526 45.625 434.401 45.224L433.203 44.7136L431.641 44.1407C430.604 43.7344 429.526 43.4532 428.469 43.1302C426.318 42.5521 424.141 42.0573 421.932 41.724C417.521 41.0052 413.026 40.7865 408.526 40.7709C404.026 40.7552 399.516 40.9479 394.995 41.2656C390.474 41.5573 385.979 41.8646 381.568 42.5729C380.552 42.7396 379.542 42.9219 378.536 43.125C377.245 43.7292 375.964 44.3438 374.693 44.9896C372.625 46.0469 370.641 47.25 368.625 48.4063C367.698 46.2761 366.891 44.1094 366.203 41.9219C367.984 40.9011 369.724 39.8125 371.547 38.8646ZM458.031 4.86461C437.969 4.37502 416.115 4.45315 400.208 17.0573C398.833 18.1459 397.479 19.3438 395.823 19.8802C393.677 20.5782 391.365 20.0729 389.12 20.0521C385 20.0157 380.88 21.7344 377.948 24.7136C382.031 25.3281 385.917 27.2292 388.938 30.0886C380.484 30.4584 372.203 33.1406 364.901 37.5313C363.927 34.0052 363.005 30.5625 361.927 27.3542C387.208 3.53127 425.302 -5.91143 458.031 4.86461ZM462.427 64.6979C463.688 66.1042 464.922 67.5209 466.151 68.9427C464.526 66.5313 462.641 64.2813 460.641 62.1198C462.266 60.6146 463.786 59.0365 465.073 57.3334C471.151 62.4271 476.422 68.6354 480.255 75.849C482.542 80.1459 484.292 84.599 485.849 88.9688C485.885 89.0729 485.922 89.1823 485.958 89.2917C487.583 90.5521 489.234 91.7396 490.927 92.8386C491.854 93.3906 492.771 93.9531 493.703 94.4896C494.635 95.0156 495.615 95.474 496.568 95.9636C504.302 99.7292 512.766 101.797 521.422 102.833C523.599 103.078 525.776 103.281 527.974 103.432C529.063 103.516 530.177 103.552 531.281 103.609C532.38 103.667 533.49 103.708 534.604 103.724C539.052 103.844 543.557 103.76 548.141 103.568C549.302 103.521 550.536 103.672 551.708 104.052C557.078 105.781 560.026 111.536 558.292 116.906C556.563 122.276 550.807 125.219 545.438 123.49L545.422 123.484C541.016 122.063 536.536 120.719 532.031 119.37C529.786 118.688 527.521 118 525.271 117.266C523.016 116.568 520.766 115.781 518.521 115.01C509.552 111.839 500.672 107.932 492.714 102.536C491.74 101.839 490.745 101.182 489.802 100.448C489.953 100.875 490.104 101.313 490.255 101.74C491.734 105.828 493.328 109.708 495.245 113.125C497.156 116.552 499.391 119.474 502 121.76C502.25 121.984 502.526 122.255 502.75 122.516C505.688 125.87 505.344 130.969 501.99 133.901C498.635 136.839 493.536 136.5 490.599 133.146L490.427 132.943C486.76 128.755 484.104 123.974 482.208 119.26C480.302 114.526 479.073 109.828 478.042 105.281C476.333 97.6719 475.161 90.3594 473.083 83.6146C472.901 83.3854 472.714 83.1563 472.526 82.9271C469.646 79.349 466.948 75.6719 464.161 72.1042C462.151 69.5052 460.109 66.9479 458.016 64.4479C458.797 63.7813 459.568 63.099 460.328 62.4063C461.026 63.1719 461.74 63.9271 462.427 64.6979ZM559.781 39.9948C557.609 41.5677 555.307 42.9532 553.005 44.3334C557.672 42.2969 562.714 41.1667 567.802 40.9375C567.411 40.5521 567.036 40.1511 566.688 39.7136C561.865 33.6615 562.865 24.849 568.911 20.0261L570.526 18.7396C574.703 15.4115 579.026 12.7709 583.573 10.6771C587.531 8.87502 591.682 7.57294 595.979 6.71877C596.031 14.1615 596.146 21.6042 596.406 29.0469C596.109 29.3125 595.776 29.5261 595.495 29.8021C593.349 31.8906 591.526 34.3073 590.38 36.8125C589.495 38.724 588.141 40.5313 586.375 41.9375C585.656 42.5104 584.891 42.9948 584.104 43.4063C584.917 43.7032 585.729 44.0209 586.521 44.3698C581.552 46.3698 576.578 48.3698 571.604 50.375C580.307 49.7813 589.052 50.1198 597.708 51.1719C597.87 53.0573 598.047 54.9375 598.24 56.8177C589.151 57.4115 580.073 58.1615 571.031 59.2344C571.078 59.2604 571.13 59.2865 571.177 59.3177C573.161 60.4896 575.12 61.6979 577.057 62.9271C580.938 65.375 584.75 67.8907 588.604 70.3073C592.453 72.724 596.344 75.0469 600.365 77.0782C600.583 77.1927 600.813 77.2709 601.031 77.3802C601.24 78.6042 601.479 79.8334 601.714 81.0573C600.807 80.625 599.875 80.25 598.984 79.7917C596.917 78.7396 594.896 77.6198 592.901 76.4636C590.896 75.3177 588.927 74.125 586.979 72.9167C579.167 68.0938 571.661 62.9115 563.609 58.8229C555.609 54.6407 547.182 51.2604 538.536 48.5938C534.484 47.3386 530.38 46.25 526.25 45.2604C527.078 43.3073 527.828 41.3229 528.505 39.3021C538.891 37.9219 549.479 38.0886 559.781 39.9948ZM602.734 86.3281C603.167 88.3854 603.656 90.4427 604.151 92.5052C604.214 92.4688 604.286 92.4479 604.349 92.4167C606.208 91.4375 608.021 90.3646 609.75 89.1719C611.141 88.2031 612.49 87.1771 613.786 86.0938C617.469 87.3646 621.208 88.4584 625 89.3542C629.51 90.4219 634.068 91.2031 638.625 91.8281C641.245 92.1875 643.87 92.5 646.484 92.7865C649.417 93.2552 652.385 93.5729 655.385 93.6979C658.917 94.0469 662.453 94.3906 665.995 94.6511C675.146 95.3542 684.354 95.7604 693.583 95.4323C696.552 95.3229 699.521 95.1302 702.484 94.8542C702.875 95.1563 703.37 95.3334 703.906 95.2969C704.01 95.2865 704.125 95.2709 704.229 95.25C705.88 94.875 707.646 94.8334 709.417 95.1094C711.187 95.3854 712.969 95.9271 714.698 96.6459C716.432 97.3594 718.12 98.2552 719.786 99.2136C721.443 100.193 723.12 101.193 724.635 102.302C726.167 103.396 727.557 104.63 728.661 106.057C729.203 106.771 729.698 107.531 730.109 108.339C730.51 109.151 730.854 109.995 731.141 110.865C731.708 112.609 732.016 114.453 732.151 116.313C732.286 118.172 732.25 120.073 732.068 121.943C731.74 125.661 730.714 129.292 728.786 132.188C726.839 135.052 723.964 137.286 720.87 137.625C720.089 137.724 719.281 137.75 718.458 137.667C717.635 137.599 716.802 137.464 715.964 137.245C715.12 137.047 714.271 136.781 713.458 136.464C712.641 136.161 711.849 135.781 711.089 135.375C710.328 134.964 709.604 134.495 708.911 133.995C708.568 133.74 708.24 133.469 707.911 133.203C707.589 132.922 707.271 132.635 707.042 132.365C706.562 131.828 706.328 131.292 706.474 130.969C706.552 130.807 706.703 130.724 706.943 130.719C706.995 130.714 707.068 130.719 707.125 130.729C707.187 130.74 707.297 130.833 707.375 130.88C707.542 131 707.708 131.115 707.865 131.245C706.458 127.063 701.927 124.813 697.745 126.219C693.562 127.625 691.312 132.151 692.714 136.339C693.026 136.927 693.385 137.495 693.776 138.047C693.969 138.313 694.203 138.62 694.401 138.828C694.594 139.042 694.792 139.26 694.995 139.448C695.812 140.234 696.641 140.865 697.458 141.339C699.083 142.307 700.552 142.76 701.828 143.078C702.474 143.24 703.057 143.339 703.635 143.443C704.214 143.547 704.786 143.641 705.365 143.719C706.516 143.885 707.656 144.005 708.786 144.094C709.911 144.188 711.036 144.219 712.146 144.24C713.266 144.245 714.354 144.224 715.464 144.161C716.573 144.083 717.698 143.984 718.828 143.797C719.958 143.599 721.094 143.344 722.214 142.974C724.464 142.193 726.516 140.974 728.193 139.474C729.885 137.969 731.24 136.193 732.271 134.276C734.359 130.422 735.068 126.188 735.214 122.135C735.302 118.089 734.995 113.969 733.615 110.026C733.266 109.047 732.849 108.083 732.359 107.156C731.854 106.24 731.286 105.349 730.641 104.51C729.328 102.849 727.75 101.479 726.13 100.266C724.495 99.0625 722.844 97.9948 721.167 96.9323C719.484 95.8698 717.755 94.849 715.927 93.9479C715.417 93.7031 714.901 93.4636 714.38 93.2344C716.63 92.8177 718.875 92.3438 721.104 91.7917C722.24 91.5521 723.354 91.2136 724.474 90.8802L727.828 89.8959C728.937 89.5365 730.031 89.1198 731.13 88.7344L732.078 88.3959C731.25 87.25 730.422 86.099 729.604 84.9479C726.51 86.1354 723.365 87.2031 720.135 88.0052C711.448 90.25 702.464 91.3906 693.437 91.8281C686.87 92.1302 680.281 92.0521 673.688 91.7604C678.172 90.5052 682.557 88.7813 686.703 86.0729C688.797 84.6979 690.818 83.0521 692.604 81.0469C694.385 79.0521 695.927 76.6511 696.958 74.0157C697.984 71.3907 698.5 68.7084 698.755 66.1459C698.88 64.8646 698.943 63.6042 698.964 62.375C698.979 61.7552 698.979 61.1511 698.974 60.5469C698.969 59.974 698.964 59.2136 698.818 58.2188C698.693 57.4219 698.464 56.4323 697.974 55.3854C698.406 54.9115 698.807 54.4115 699.182 53.8698C700.792 51.5261 701.578 48.8438 701.63 46.1823C696.328 39.6146 690.687 33.3177 684.432 27.4896C682.432 29.4063 680.516 31.5313 678.807 34.0209L676.078 37.9896C674.318 40.5521 673.526 43.4896 673.62 46.3698C673.089 46.4479 672.557 46.5417 672.026 46.6459C671.266 46.8282 670.516 47 669.714 47.2604C668.151 47.7709 666.661 48.4427 665.255 49.2604C662.443 50.8959 659.927 53.1094 657.938 55.9532C655.953 58.7813 654.516 62.3594 654.281 66.2552L654.167 68.1354C653.875 72.8386 657.458 76.8854 662.167 77.1771C666.87 77.4636 670.917 73.8802 671.208 69.1719C671.255 68.3334 671.172 67.474 670.995 66.6875C670.865 66.1459 670.911 65.3854 671.313 64.4896C671.708 63.6042 672.438 62.6563 673.349 61.9115C673.807 61.5313 674.302 61.2032 674.813 60.9375C675.052 60.8073 675.37 60.6927 675.667 60.5573C675.984 60.4584 676.297 60.3334 676.635 60.2552C677.958 59.8802 679.484 59.7448 681.104 59.8438C682.719 59.9375 684.422 60.2709 686.104 60.8073C686.312 60.8646 686.521 60.9479 686.734 61.0157L687.318 61.2188C687.427 61.2604 687.51 61.2917 687.589 61.3177C687.589 61.3229 687.589 61.3229 687.589 61.3229C687.656 61.8282 687.724 62.3229 687.776 62.8125C687.885 63.7917 687.964 64.75 687.99 65.6771C688.052 67.5313 687.932 69.2709 687.547 70.8542C686.828 73.9584 684.75 76.9532 681.807 79.4636C678.885 81.9844 675.219 84.0365 671.411 85.6302C667.583 87.2292 663.474 88.2917 659.26 88.9427C655.146 89.5677 650.922 89.7604 646.688 89.625C644.135 89.349 641.589 89.0573 639.052 88.7136C634.557 88.1042 630.099 87.349 625.708 86.3281C622.583 85.5938 619.484 84.7292 616.432 83.7344C621.964 78.5261 626.438 72.2657 629.813 65.4427C630.76 63.5677 631.589 61.6302 632.344 59.6615C633.125 57.6979 633.755 55.6771 634.333 53.6198C634.599 52.5834 634.896 51.5469 635.094 50.4896L635.422 48.9063L635.688 47.3073C635.885 46.2448 635.969 45.1563 636.104 44.0782C636.198 42.9896 636.271 41.8959 636.318 40.7969C636.432 36.3959 636.063 31.8386 634.688 27.2709C634.307 26.1354 633.958 24.9896 633.448 23.8698C633.198 23.3073 632.99 22.7344 632.693 22.1823L631.807 20.5313C631.526 19.974 631.151 19.4532 630.802 18.9219C630.438 18.4011 630.099 17.8542 629.698 17.3542C628.87 16.3698 628.083 15.3282 627.12 14.4427C623.495 10.6875 618.5 8.01565 613.328 6.74482C610.734 6.11461 608.104 5.80211 605.51 5.7344C602.917 5.67711 600.365 5.89586 597.865 6.27607C597.219 6.37502 596.615 6.59377 595.979 6.71877C596.031 14.1615 596.146 21.6042 596.406 29.0469C597.229 28.3073 598.057 27.5625 598.964 26.9271C600.182 26.0573 601.474 25.3177 602.786 24.6927C604.099 24.0521 605.443 23.5781 606.786 23.2396C608.125 22.8906 609.464 22.7031 610.766 22.6979C613.37 22.6667 615.891 23.3073 618.156 24.8229C620.448 26.25 622.318 28.5469 623.734 31.3594C623.938 31.6979 624.057 32.0886 624.219 32.4531C624.37 32.8229 624.552 33.1823 624.677 33.5729C624.917 34.3594 625.224 35.125 625.396 35.9531L625.708 37.1823L625.932 38.4427C626.109 39.2813 626.161 40.1563 626.276 41.0209C626.604 44.5052 626.401 48.125 625.807 51.6771C625.177 55.2604 624.146 58.8125 622.74 62.2292C621.333 65.6459 619.563 68.9271 617.474 71.9896C615.396 75.0625 613 77.9219 610.328 80.4896C610.068 80.7396 609.797 80.9896 609.526 81.2344C606.641 80.0782 603.813 78.7709 601.031 77.3802C601.24 78.6042 601.479 79.8334 601.714 81.0573C603.432 81.875 605.141 82.7188 606.896 83.4532C605.568 84.5 604.167 85.4427 602.734 86.3281ZM687.521 60.8646C687.51 60.8438 687.5 60.8334 687.495 60.8177C687.318 60.4479 687.339 60.25 687.391 60.3542C687.427 60.4167 687.474 60.599 687.521 60.8646ZM325.708 32.7813H50.8958C48.3646 32.7813 46.3125 30.7344 46.3125 28.2031C46.3125 25.6719 48.3646 23.625 50.8958 23.625H325.708C328.24 23.625 330.292 25.6719 330.292 28.2031C330.292 30.7344 328.24 32.7813 325.708 32.7813ZM801.578 23.625H1069.09C1071.62 23.625 1073.67 25.6719 1073.67 28.2031C1073.67 30.7344 1071.62 32.7813 1069.09 32.7813H801.578C799.052 32.7813 797 30.7344 797 28.2031C797 25.6719 799.052 23.625 801.578 23.625Z" fill="#C77C77"/>
</svg>
