<svg width="1049" height="1050" viewBox="0 0 1049 1050" fill="none" xmlns="http://www.w3.org/2000/svg">
<mask id="mask0_12_60" style="mask-type:luminance" maskUnits="userSpaceOnUse" x="0" y="0" width="1049" height="1050">
<path d="M0.666626 0.807129H1048.67V1049.33H0.666626V0.807129Z" fill="white"/>
</mask>
<g mask="url(#mask0_12_60)">
<path d="M55.3073 447.948C55.4583 452.953 55.7916 457.948 56.0989 462.943C54.3437 463.422 52.5937 463.891 50.8437 464.391C51.4635 459.63 52.2396 454.896 53.3646 450.229C53.6198 449.167 54.2187 447.859 55.3073 447.948ZM75.9739 462.938C73.9948 466.859 71.7239 470.656 69.3646 474.411C67.0104 478.167 64.5573 481.885 62.1666 485.672C60.9687 487.563 59.7916 489.474 58.6458 491.411C58.6198 491.458 58.5937 491.505 58.5625 491.552C57.4375 482.047 56.6823 472.5 56.0989 462.943C54.3437 463.422 52.5937 463.891 50.8437 464.391C49.6927 473.208 49.3177 482.125 49.9218 490.995C47.9687 486.141 46.0156 481.292 44.0625 476.438C43.7239 477.214 43.4166 478.005 43.125 478.802C42.7239 478.031 42.25 477.286 41.6875 476.583C40.3177 474.865 38.5573 473.536 36.6875 472.672C35.25 472.016 33.8646 471.078 32.5312 470.031C25.1823 472.5 17.9375 475.26 10.8437 478.396C10.9739 478.698 11.0573 479.021 11.1979 479.318C13.2343 483.75 15.8125 487.974 19.0573 492.047L20.3125 493.62C25.0208 499.521 33.6198 500.495 39.5208 495.792C39.9479 495.448 40.3385 495.083 40.7135 494.703C40.9375 499.667 42.0416 504.589 44.0312 509.141C42.6823 506.896 41.3281 504.646 39.7916 502.526C38.3125 510.542 37.9583 518.74 38.5156 526.87C41.3021 527.443 43.9948 528.172 46.625 529.005C47.151 527.089 47.5989 525.151 48.1875 523.255C50.7864 514.818 54.0833 506.599 58.1614 498.792C62.151 490.943 67.2083 483.62 71.9114 475.995C73.0937 474.094 74.2552 472.172 75.375 470.219C76.5 468.271 77.5937 466.297 78.6198 464.286C79.9114 461.76 81.0989 459.177 82.1927 456.563C85.7343 461.078 88.4114 466.25 89.6823 471.807C90.0781 473.552 90.3333 475.323 90.4896 477.104C90.6041 478.896 90.6146 480.698 90.5052 482.51C90.2396 486.13 89.5312 489.75 88.4948 493.318C86.4271 500.448 83.125 507.339 79.6406 514.099C77.8593 517.464 76.0156 520.802 74.0833 524.094C72.1354 527.385 70.1458 530.651 68.0989 533.891C67.2396 535.266 66.3385 536.63 65.4635 538C66.8437 538.911 68.2083 539.88 69.5573 540.891C70.4739 539.422 71.3906 537.969 72.2916 536.49C76.3229 529.896 80.2343 523.193 83.8646 516.307C85.6354 512.839 87.4062 509.385 89.0052 505.797C90.6093 502.224 92.0573 498.542 93.2396 494.734C94.4218 490.927 95.2812 486.974 95.651 482.917C95.8333 480.891 95.8802 478.844 95.8021 476.792C95.6875 474.734 95.4479 472.682 95.0468 470.656C94.625 468.641 94.0729 466.651 93.3906 464.703C92.6875 462.771 91.8802 460.875 90.9375 459.052C90.1146 457.484 89.1875 455.984 88.2083 454.51C85.0468 455.344 81.8646 456.172 78.6666 456.995C77.7968 458.99 76.9635 461 75.9739 462.938ZM24.625 329.583C25.0989 325.396 26.0833 321.255 27.7708 317.479C28.6198 315.604 29.625 313.813 30.8229 312.188C32.0416 310.578 33.4218 309.13 34.9635 307.891L36.1562 307.021C36.5573 306.734 36.9948 306.51 37.4166 306.25C37.625 306.13 37.8333 305.99 38.0521 305.88L38.7135 305.563C39.1458 305.333 39.6041 305.156 40.0625 304.979C41.901 304.271 43.8593 303.839 45.8593 303.667C49.8698 303.323 54.0208 304.021 57.8437 305.531C61.6562 307.031 65.1875 309.427 68.2708 312.302C71.3646 315.182 74.0521 318.563 76.3906 322.188C80.9583 329.526 84.526 337.594 86.6354 346.089C87.5208 349.516 88.1875 352.995 88.7448 356.5C90.3333 356.833 91.9166 357.167 93.5 357.505C93.5312 357.188 93.5156 356.87 93.5677 356.547C93.8333 354.818 94.3593 353.083 95.0625 351.396C95.7552 349.703 96.6354 348.057 97.5677 346.432C98.5208 344.818 99.5 343.177 100.578 341.698C101.651 340.203 102.854 338.849 104.245 337.776C104.943 337.245 105.682 336.76 106.469 336.359C107.26 335.969 108.089 335.635 108.932 335.354C110.635 334.797 112.432 334.5 114.25 334.37C116.062 334.234 117.917 334.271 119.74 334.448C123.37 334.771 126.911 335.771 129.74 337.651C132.531 339.552 134.714 342.354 135.042 345.375C135.141 346.135 135.161 346.922 135.083 347.729C135.016 348.526 134.885 349.344 134.672 350.161C134.479 350.984 134.219 351.813 133.906 352.604C133.609 353.406 133.24 354.172 132.844 354.917C132.448 355.661 131.984 356.365 131.5 357.036C131.25 357.375 130.99 357.698 130.729 358.016C130.453 358.328 130.172 358.641 129.911 358.865C129.385 359.333 128.859 359.563 128.552 359.417C128.391 359.344 128.307 359.193 128.302 358.958C128.302 358.906 128.307 358.839 128.318 358.781C128.323 358.724 128.417 358.615 128.464 358.536C128.578 358.375 128.693 358.214 128.818 358.063C124.74 359.432 122.542 363.854 123.911 367.932C125.286 372.016 129.703 374.214 133.786 372.839C134.365 372.536 134.917 372.188 135.453 371.802C135.714 371.615 136.01 371.391 136.219 371.198C136.422 371.005 136.635 370.818 136.823 370.615C137.583 369.818 138.198 369.01 138.667 368.214C139.609 366.63 140.052 365.198 140.359 363.948C140.521 363.318 140.615 362.75 140.714 362.188C140.818 361.625 140.911 361.063 140.984 360.5C141.151 359.38 141.266 358.266 141.354 357.167C141.443 356.063 141.474 354.964 141.495 353.88C141.5 352.792 141.479 351.729 141.417 350.646C141.344 349.563 141.245 348.469 141.068 347.365C140.87 346.266 140.625 345.151 140.26 344.063C139.5 341.87 138.307 339.865 136.844 338.229C135.375 336.578 133.641 335.255 131.776 334.25C128.016 332.214 123.885 331.521 119.927 331.38C115.979 331.292 111.958 331.594 108.115 332.938C107.161 333.281 106.224 333.688 105.318 334.167C104.422 334.661 103.552 335.214 102.734 335.844C101.115 337.125 99.776 338.661 98.5937 340.24C97.4218 341.839 96.3802 343.448 95.3437 345.083C94.3073 346.724 93.3125 348.411 92.4323 350.198C92.1927 350.693 91.9583 351.198 91.7343 351.703C91.3333 349.51 90.8646 347.323 90.3281 345.146C90.0937 344.036 89.7656 342.948 89.4427 341.859L88.4791 338.583C88.125 337.505 87.7239 336.438 87.3437 335.365L86.7708 333.755L86.4843 332.948L86.1458 332.161L84.7864 329.021C84.5573 328.5 84.3437 327.964 84.0937 327.453L83.3073 325.927L81.7343 322.88C81.2031 321.87 80.6041 320.885 80.0052 319.906C77.5885 315.995 74.7656 312.276 71.3958 309.01C68.026 305.755 64.1146 302.953 59.6562 301.089C55.2291 299.245 50.3802 298.313 45.4843 298.625C43.0416 298.786 40.5937 299.271 38.2552 300.12C37.6718 300.333 37.0833 300.547 36.5208 300.823L35.6718 301.219C35.3906 301.354 35.125 301.516 34.8541 301.667C34.3177 301.984 33.7604 302.266 33.2448 302.615L31.7187 303.682C29.75 305.198 28.0052 306.969 26.4948 308.885C24.9948 310.818 23.75 312.891 22.6458 315.016C20.4843 319.297 18.9843 323.802 17.875 328.375C17.3177 330.672 16.8906 332.974 16.5 335.276C16.1198 337.594 15.8073 339.943 15.6093 342.339C15.5104 343.521 15.4375 344.714 15.3958 345.922C18.7864 346.109 22.1614 346.339 25.5156 346.62C24.2656 341.24 24.026 335.323 24.625 329.583ZM15.3958 345.922C18.7864 346.109 22.1614 346.339 25.5156 346.62C26.0989 349.13 26.8333 351.552 27.9271 353.734C28.3437 354.594 28.8281 355.411 29.3073 356.177C29.5625 356.563 29.8385 356.932 30.0937 357.302L30.9323 358.375C31.2291 358.714 31.5052 359.057 31.8125 359.38C32.1354 359.693 32.4323 360.016 32.7604 360.307C33.4062 360.896 34.0416 361.469 34.75 361.938C37.4843 363.885 40.5677 364.818 43.1302 364.349C46.5521 363.734 50.2448 364.411 53.3333 366.536C53.8593 366.896 54.3489 367.292 54.8073 367.708C55.8333 367.234 56.7968 367.005 57.5781 366.891C58.5468 366.745 59.2864 366.74 59.8489 366.734C60.4323 366.729 61.026 366.729 61.6302 366.745C62.8281 366.766 64.0573 366.823 65.3073 366.948C67.8073 367.193 70.4271 367.698 72.9843 368.703C75.5573 369.708 77.8958 371.208 79.8437 372.948C81.8021 374.693 83.4062 376.661 84.75 378.703C87.3906 382.75 89.0729 387.031 90.2968 391.406C90.5833 384.969 90.6562 378.542 90.3646 372.135C90.1093 366.891 89.5677 361.667 88.7448 356.5C90.3333 356.833 91.9166 357.167 93.5 357.505C93.375 358.906 93.4062 360.302 93.6979 361.609C93.7239 361.708 93.7396 361.818 93.7448 361.922C93.7812 362.443 93.6093 362.927 93.3125 363.313C93.5833 366.203 93.7708 369.099 93.8802 371.995C94.1979 381 93.8021 389.979 93.1146 398.906C92.8593 402.365 92.5312 405.813 92.1875 409.26C92.0677 412.182 91.7552 415.083 91.2968 417.943C91.0156 420.495 90.7135 423.052 90.3646 425.609C89.75 430.057 88.9896 434.505 87.9479 438.901C87.0781 442.599 86.0104 446.25 84.7656 449.839C85.8229 451.109 86.8229 452.427 87.7708 453.781C87.9323 454.016 88.0521 454.276 88.2083 454.51C85.0468 455.344 81.8646 456.172 78.6666 456.995C79.1041 455.99 79.6198 455.016 80.026 453.995C79.7864 453.734 79.5468 453.474 79.3021 453.214C76.7968 450.609 74.0104 448.271 71.0104 446.245C68.0208 444.203 64.8177 442.479 61.4843 441.109C58.1562 439.74 54.6875 438.729 51.1927 438.115C47.7291 437.536 44.1927 437.333 40.7968 437.656C39.9531 437.771 39.0989 437.823 38.2812 437.995L37.0521 438.214L35.8541 438.516C35.0416 438.688 34.2968 438.984 33.5312 439.219C33.151 439.339 32.8021 439.516 32.4375 439.661C32.0833 439.823 31.6979 439.943 31.3698 440.135C28.625 441.516 26.3854 443.344 24.9948 445.578C23.5156 447.792 22.8906 450.25 22.9218 452.786C22.9271 454.063 23.1093 455.365 23.4479 456.672C23.7812 457.979 24.2448 459.297 24.8646 460.573C25.4791 461.854 26.1979 463.115 27.0468 464.307C27.8854 465.5 28.8229 466.641 29.8489 467.688C30.6875 468.542 31.6041 469.302 32.5312 470.031C25.1823 472.5 17.9375 475.26 10.8437 478.396C9.02601 474.234 7.61976 469.922 6.90101 465.375C6.53122 462.938 6.31768 460.448 6.37497 457.917C6.43747 455.385 6.74476 452.818 7.35934 450.292C8.59893 445.245 11.2031 440.37 14.8698 436.833C15.7343 435.896 16.75 435.13 17.7083 434.318C18.1979 433.927 18.7291 433.599 19.2396 433.245C19.7552 432.901 20.2604 432.536 20.8073 432.26L22.4218 431.396C22.9531 431.104 23.5156 430.906 24.0625 430.661C25.1562 430.167 26.276 429.823 27.3854 429.453C31.8385 428.109 36.2812 427.75 40.5781 427.865C41.651 427.906 42.7187 427.979 43.776 428.068C44.8333 428.203 45.8906 428.281 46.9271 428.479L48.4896 428.734L50.0312 429.052C51.0625 429.25 52.0729 429.536 53.0885 429.797C55.0937 430.359 57.0625 430.979 58.9791 431.734C60.9062 432.474 62.7968 433.281 64.625 434.208C71.276 437.5 77.3854 441.865 82.4635 447.26C83.4375 444.281 84.2812 441.26 84.9948 438.208C85.9948 433.927 86.7291 429.578 87.3229 425.193C87.6562 422.719 87.9479 420.234 88.2135 417.745C88.3489 413.609 88.1614 409.495 87.5521 405.479C86.9114 401.37 85.875 397.359 84.3177 393.625C82.7656 389.911 80.7604 386.333 78.3021 383.484C75.8541 380.615 72.9323 378.583 69.901 377.88C68.3593 377.51 66.6614 377.391 64.8489 377.448C63.9479 377.479 63.0156 377.552 62.0573 377.661C61.5781 377.714 61.0937 377.776 60.6041 377.844H60.5989C60.5729 377.917 60.5416 378 60.5052 378.109L60.3021 378.677C60.2343 378.885 60.1562 379.083 60.0989 379.292C59.5781 380.932 59.25 382.594 59.1562 384.172C59.0625 385.745 59.1927 387.234 59.5573 388.531C59.6354 388.859 59.7604 389.161 59.8593 389.469C59.9896 389.766 60.0989 390.073 60.2291 390.307C60.4896 390.802 60.8073 391.286 61.1771 391.729C61.9062 392.625 62.8281 393.339 63.6927 393.719C64.5677 394.109 65.3073 394.156 65.8385 394.031C66.5989 393.854 67.4427 393.776 68.2604 393.823C72.8541 394.104 76.3489 398.052 76.0677 402.646C75.7864 407.234 71.8385 410.729 67.25 410.448L65.4114 410.339C61.6146 410.104 58.125 408.703 55.3646 406.771C52.5885 404.828 50.4323 402.375 48.8333 399.63C48.0364 398.26 47.3802 396.802 46.8854 395.281C46.6302 394.5 46.4635 393.766 46.2812 393.026C46.1823 392.505 46.0937 391.99 46.0156 391.469C43.2031 391.563 40.3385 390.786 37.8385 389.073L33.9687 386.411C28.2864 382.505 24.2239 377.656 21.3958 372.661C20.6927 371.401 20.0416 370.146 19.4739 368.87C18.9114 367.589 18.4218 366.297 17.9583 365.016L17.3437 363.078C17.1666 362.422 16.9843 361.776 16.8281 361.12C16.5052 359.813 16.25 358.526 16.0468 357.245C15.4271 353.38 15.2656 349.599 15.3958 345.922ZM59.6562 378.036C59.5573 378.089 59.75 378.109 60.1093 377.932C60.125 377.927 60.1354 377.917 60.1562 377.911C59.8958 377.953 59.7187 378 59.6562 378.036ZM55.6406 553.318C49.1927 563.339 42.9375 573.641 37.7135 584.542C38.6927 572.625 39.9843 560.771 42.0364 549.042C43.2396 542.286 44.8073 535.609 46.625 529.005C43.9948 528.172 41.3021 527.443 38.5156 526.87C38.8125 531.188 39.2864 535.49 40.1562 539.729C39.5 542.594 38.8906 545.469 38.3385 548.354C36.6198 557.167 35.3073 566.042 34.2291 574.927C33.2396 582.974 32.4166 591.026 31.5989 599.068C29.5156 604.901 27.8177 610.901 26.6979 617.052C25.1875 624.854 24.7916 632.927 25.3385 640.87C25.4166 642.865 25.7135 644.833 25.9218 646.813C26.0104 647.807 26.2031 648.781 26.3593 649.766L26.8489 652.708L27.4739 655.62C27.6927 656.589 27.8698 657.568 28.1406 658.521C28.6614 660.438 29.1041 662.375 29.7239 664.255C31.4218 669.844 33.6458 675.234 36.0781 680.521C38.125 679.016 40.2031 677.594 42.2812 676.156C41.6198 671.927 41.3177 667.62 41.0312 663.292C40.7239 658.88 40.5416 654.479 40.5521 650.089C40.5677 645.698 40.7812 641.313 41.4791 637.01C41.8073 634.854 42.2916 632.729 42.8541 630.635C43.1718 629.599 43.4479 628.547 43.8437 627.542L44.3958 626.016L44.8958 624.849C45.2916 624.724 45.6093 624.417 45.7343 624.005C46.026 623.026 46.3489 622.063 46.6979 621.109C48.151 618.422 49.8802 615.88 51.8125 613.5C54.5208 610.109 57.6302 607.036 60.901 604.141C61.3177 603.766 61.7604 603.422 62.1823 603.057C61.4114 602.422 60.6458 601.786 59.9062 601.161C59.5937 601.453 59.2656 601.734 58.9583 602.031C57.6927 603.234 56.4635 604.479 55.2656 605.755C56.2448 604.51 57.2708 603.307 58.3489 602.151C58.75 601.719 59.2135 601.349 59.6302 600.927C58.0521 599.578 56.5781 598.208 55.1823 596.813C54.7448 597.375 54.25 597.901 53.8385 598.479C48.5312 605.833 44.8906 614.276 43.3541 623.01C43.2552 623.234 43.151 623.453 43.0625 623.682C41.3229 627.865 40.1562 632.255 39.4948 636.698L39.25 638.365L39.0573 640.031C38.9062 641.146 38.8489 642.26 38.7396 643.375C38.5885 645.609 38.4843 647.844 38.4687 650.073C38.4166 654.531 38.6041 658.974 38.75 663.406C38.8281 665.615 38.9218 667.839 39.0521 670.068C39.0625 670.198 39.0729 670.328 39.0833 670.458C38.0573 667.76 37.125 665.031 36.2968 662.276C35.7083 660.5 35.3021 658.677 34.8073 656.88C34.5521 655.979 34.3958 655.063 34.1875 654.156L33.6041 651.422L33.151 648.672C33.0052 647.75 32.8125 646.839 32.7239 645.911C32.526 644.068 32.2291 642.229 32.151 640.375L31.9583 637.599C31.9166 636.672 31.9218 635.745 31.901 634.818C31.901 633.891 31.8437 632.964 31.8906 632.042L31.9843 629.266L32.0312 627.875L32.3906 623.719C32.6458 621.88 32.8229 620.031 33.1771 618.203C33.7656 614.526 34.6614 610.891 35.651 607.286L36.4427 604.589C36.7031 603.688 37.026 602.807 37.3125 601.911C37.875 600.12 38.5521 598.365 39.1823 596.594C41.8646 589.552 45.0573 582.667 48.6354 575.958C52.1875 569.229 56.0989 562.661 60.1041 556.12C63.2031 551.036 66.401 545.979 69.5573 540.891C68.2083 539.88 66.8437 538.911 65.4635 538C62.2135 543.104 58.9375 548.198 55.6406 553.318ZM102.286 510.401C101.917 511.547 101.771 512.75 101.812 513.885C102.005 518.354 102.089 522.75 101.969 527.089C101.953 528.177 101.911 529.26 101.854 530.333C101.802 531.406 101.766 532.495 101.682 533.557C101.536 535.703 101.339 537.828 101.099 539.948C100.089 548.396 98.0729 556.651 94.401 564.198C93.9166 565.125 93.4739 566.083 92.9583 566.995C92.4375 567.901 91.8906 568.797 91.3489 569.698C90.276 571.349 89.1146 572.964 87.8906 574.547C87.7812 574.583 87.6771 574.62 87.5729 574.656C83.3125 576.177 78.9687 577.88 74.776 580.115C67 584.245 60.401 590.068 55.1823 596.813C56.5781 598.208 58.0521 599.578 59.6302 600.927C62.2239 598.307 65.0208 595.901 68.0364 593.875C66.651 595.073 65.2656 596.276 63.8958 597.505C62.5521 598.703 61.2239 599.922 59.9062 601.161C60.6458 601.786 61.4114 602.422 62.1823 603.057C65.0677 600.552 68.0677 598.167 71.1198 595.813C74.6041 593.094 78.1875 590.464 81.6823 587.651C81.9062 587.474 82.125 587.286 82.3489 587.109C88.9323 585.083 96.0625 583.938 103.49 582.271C107.922 581.266 112.505 580.068 117.125 578.203C121.724 576.354 126.391 573.766 130.474 570.188L130.672 570.021C133.943 567.156 134.276 562.182 131.411 558.906C128.547 555.635 123.573 555.302 120.302 558.167C120.047 558.385 119.786 558.656 119.568 558.901C117.333 561.443 114.484 563.62 111.141 565.49C107.807 567.359 104.021 568.917 100.031 570.354C99.6146 570.505 99.1927 570.651 98.7708 570.797C99.4843 569.875 100.13 568.906 100.812 567.958C106.078 560.198 109.885 551.531 112.979 542.781C113.729 540.594 114.495 538.396 115.177 536.198C115.896 534 116.568 531.792 117.229 529.599C118.547 525.203 119.859 520.833 121.245 516.536L121.25 516.521C122.943 511.286 120.068 505.672 114.828 503.979C109.589 502.292 103.974 505.167 102.286 510.401ZM32.901 682.979C31.3437 678.526 30.3385 673.901 30.1302 669.198C27.3385 672.146 25.4896 675.938 24.8854 679.922C21.9843 677.063 20.3073 673.042 20.3385 669.021C20.3593 666.828 20.8541 664.578 20.1718 662.484C19.6458 660.87 18.4791 659.542 17.4166 658.203C5.11976 642.688 5.04684 621.37 5.52601 601.792C-4.32816 631.729 3.15101 666.26 23.2708 690.781C26.4271 688.073 29.6302 685.464 32.901 682.979ZM38.6823 705.635C44.6666 710.146 51.4166 714.021 58.6614 715.792C59.8333 717.167 60.9896 718.552 62.1823 719.901C63.4896 721.349 64.7604 722.833 66.1041 724.245C71.4114 729.964 76.9739 735.411 82.6823 740.672C88.3958 745.917 94.2552 750.984 100.167 755.958C101.318 757.115 102.583 758.182 103.953 759.12C108.615 763.016 113.323 766.885 118.245 770.578C121.937 773.349 125.771 775.99 129.766 778.396C133.01 781.766 135.958 785.406 138.594 789.25C141.766 793.917 144.422 798.917 146.37 804.156C148.276 809.411 149.74 814.859 149.708 820.068C149.698 822.688 149.271 825.135 148.422 827.516C147.557 829.875 146.297 832.083 144.766 834.057C141.682 837.99 137.443 841 132.911 842.328C130.661 843.016 128.328 843.286 126.13 843.146C123.948 843.026 122.141 842.333 121.172 841.443C120.661 841.005 120.224 840.422 119.786 839.688C119.349 838.953 118.948 838.016 118.578 836.964C118.208 835.906 117.88 834.698 117.542 833.406L117.047 831.422C116.896 830.786 116.771 830.208 116.687 829.682C116.516 828.641 116.521 827.839 116.656 827.401C116.714 827.177 116.802 827.063 116.88 826.927L117.25 826.427C117.417 826.224 117.63 825.974 117.885 825.698C118.151 825.422 118.479 825.109 118.844 824.781C119.583 824.115 120.516 823.359 121.594 822.495C125.214 819.589 125.797 814.302 122.891 810.677C119.99 807.057 114.698 806.474 111.078 809.38C110.708 809.677 110.37 810 110.062 810.339L109.99 810.422C109.005 811.542 107.885 812.802 106.745 814.297C105.609 815.802 104.432 817.563 103.49 819.734C103.026 820.828 102.635 822.01 102.37 823.26C102.12 824.521 102 825.833 102.031 827.042C102.094 829.479 102.609 831.531 103.167 833.25C103.448 834.115 103.75 834.906 104.042 835.635L104.906 837.734C105.505 839.151 106.146 840.646 106.969 842.198C107.781 843.755 108.734 845.365 110.021 846.932C111.297 848.484 112.891 849.995 114.797 851.115C116.693 852.26 118.719 852.938 120.656 853.297C122.604 853.656 124.469 853.724 126.255 853.615C129.797 853.391 133.177 852.51 136.276 851.135C142.474 848.37 147.516 843.786 150.927 838.281C152.625 835.516 153.917 832.51 154.687 829.37C155.469 826.245 155.698 822.922 155.396 819.807C155.109 816.672 154.385 813.677 153.448 810.823C152.505 807.958 151.344 805.266 150.115 802.583C147.609 797.24 144.599 792.203 141.307 787.396C140.281 785.88 139.208 784.396 138.125 782.927C138.187 782.958 138.245 782.99 138.307 783.016C145.448 786.396 152.849 789 160.375 791.146C167.901 793.271 175.573 794.88 183.344 795.896C191.115 796.885 198.99 797.281 206.875 796.766C214.74 796.24 222.677 794.797 230.12 791.672L232.875 790.417C233.766 789.943 234.672 789.49 235.557 788.99C237.328 787.969 239.021 786.802 240.625 785.5C243.823 782.891 246.547 779.62 248.484 775.943C250.432 772.271 251.573 768.24 252.089 764.219C252.599 760.203 252.49 756.13 252.276 752.307C252.245 751.807 252.245 751.427 252.203 750.859C252.161 750.333 252.156 749.802 252.073 749.281C251.948 748.229 251.745 747.188 251.484 746.167C250.969 744.12 250.172 742.156 249.172 740.313C247.172 736.63 244.354 733.453 241.042 730.927C239.391 729.656 237.604 728.547 235.714 727.635C233.828 726.714 231.833 725.979 229.76 725.479C227.687 724.979 225.536 724.688 223.354 724.703C221.172 724.714 218.964 724.995 216.818 725.578C214.672 726.172 212.589 727.052 210.651 728.177C208.719 729.318 206.922 730.688 205.307 732.24C202.078 735.365 199.521 739.156 197.729 743.359C195.937 747.563 194.859 752.193 194.828 757.141C194.786 762.073 195.896 767.365 198.49 772.385L199.589 774.521C202.068 779.318 207.964 781.198 212.76 778.719C217.562 776.24 219.443 770.344 216.964 765.547C216.036 763.755 214.641 762.375 213 761.469C210.943 760.333 209.266 758.172 208.297 755.474C207.328 752.776 207.073 749.583 207.578 746.443C208.089 743.307 209.323 740.198 211.25 737.594C212.203 736.292 213.323 735.104 214.599 734.115C215.234 733.615 215.901 733.151 216.599 732.75C216.953 732.552 217.302 732.344 217.677 732.188C218.042 732.021 218.406 731.833 218.792 731.703C221.818 730.495 225.266 730.24 228.651 730.792C232.042 731.349 235.359 732.734 238.271 734.729C241.177 736.734 243.682 739.359 245.432 742.401C246.307 743.922 246.984 745.547 247.437 747.219C247.672 748.057 247.823 748.917 247.927 749.771C248 750.203 248 750.635 248.036 751.068C248.073 751.458 248.078 752.042 248.104 752.505C248.203 754.448 248.297 756.297 248.281 758.156C248.245 760.005 248.115 761.839 247.854 763.641C247.323 767.24 246.255 770.708 244.536 773.813C242.823 776.917 240.479 779.635 237.677 781.844C236.266 782.943 234.771 783.938 233.193 784.813L230.76 786.068L228.25 787.182C221.448 789.969 214.021 791.307 206.552 791.771C199.068 792.219 191.5 791.807 184.01 790.818C176.521 789.797 169.094 788.203 161.818 786.109C154.552 784.005 147.411 781.375 140.661 778.109C133.964 774.844 127.682 770.661 121.661 766.057C115.646 761.458 109.823 756.448 103.99 751.458C101.891 749.656 99.8021 747.839 97.7291 746.01C96.1666 743.365 94.8958 740.495 93.8489 737.531C91.2031 729.844 89.4375 721.729 89.4427 713.615C89.4271 709.557 89.901 705.521 90.8489 701.609C91.8073 697.698 93.3489 693.948 95.3125 690.427C99.2968 683.422 104.922 677.266 111.776 673.182C113.5 672.193 115.26 671.276 117.104 670.573C117.557 670.375 118.031 670.245 118.495 670.078C118.958 669.922 119.422 669.755 119.896 669.641L121.312 669.26L122.745 668.979C124.661 668.656 126.594 668.453 128.521 668.563L129.24 668.578L129.948 668.661L131.365 668.823C131.839 668.891 132.297 669.026 132.766 669.12C133.224 669.234 133.698 669.292 134.151 669.464C137.797 670.563 141.229 672.443 144.099 674.974C146.948 677.51 149.302 680.604 150.854 684.016L151.391 685.313C151.474 685.526 151.578 685.74 151.651 685.958L151.849 686.625L152.26 687.953L152.542 689.307C152.771 690.203 152.802 691.125 152.896 692.026C152.958 692.479 152.896 692.943 152.88 693.396C152.849 693.849 152.859 694.302 152.797 694.75C152.307 698.375 150.568 701.745 148.203 704.359C146.974 705.646 145.755 706.854 144.37 707.828C143.057 708.865 141.641 709.688 140.302 710.479C138.885 711.151 137.568 711.859 136.208 712.37C135.87 712.5 135.552 712.693 135.214 712.797C134.88 712.911 134.547 713.036 134.219 713.182C133.896 713.349 133.557 713.448 133.229 713.573C132.896 713.708 132.568 713.849 132.24 714.036L130.667 714.927C127.036 716.995 125.771 721.609 127.839 725.24C129.349 727.896 132.229 729.281 135.083 729.031C137.823 728.786 140.531 728.026 142.943 726.792C145.406 725.63 147.547 723.974 149.479 722.188C153.292 718.531 155.901 713.953 157.458 709.25C157.651 708.656 157.797 708.047 157.964 707.458C158.12 706.859 158.312 706.286 158.406 705.672C158.635 704.458 158.906 703.286 159.016 702.078C159.073 701.474 159.177 700.885 159.224 700.292C159.25 699.688 159.281 699.089 159.318 698.5L159.37 697.609L159.354 696.719L159.328 694.948C159.323 694.359 159.24 693.771 159.198 693.188L159.12 692.307L159.083 691.87L159.01 691.438C158.802 690.286 158.687 689.12 158.349 688.005C158.203 687.443 158.062 686.875 157.906 686.318L157.016 683.88C156.906 683.609 156.776 683.354 156.656 683.094L155.917 681.536C151.646 673.443 144.089 667.333 135.302 665.135C134.766 664.964 134.193 664.906 133.641 664.797C133.083 664.703 132.531 664.578 131.969 664.521L130.281 664.38L129.437 664.313L128.594 664.318C126.354 664.276 124.13 664.578 121.958 665.026C117.609 665.953 113.552 667.771 109.859 670.057C108.031 671.234 106.276 672.51 104.63 673.911C103.005 675.333 101.422 676.807 99.9896 678.417C97.0781 681.599 94.6041 685.12 92.526 688.88C90.4583 692.641 88.8437 696.677 87.8333 700.865C86.8125 705.042 86.3229 709.333 86.3125 713.604C86.2552 717.88 86.7187 722.13 87.4114 726.323C87.776 728.417 88.2031 730.495 88.7239 732.552C89.2291 734.615 89.8021 736.651 90.4687 738.682C90.5989 739.078 90.7343 739.479 90.8698 739.875C89.526 738.646 88.1927 737.411 86.8646 736.172C81.3073 730.938 75.9218 725.547 70.8125 719.927C60.5625 708.724 51.5156 696.484 44.6666 683.099C44.0416 681.859 43.4375 680.604 42.8489 679.349C42.651 678.365 42.4739 677.38 42.3073 676.391C42.2968 676.313 42.2916 676.234 42.2812 676.156C40.2031 677.594 38.125 679.016 36.0781 680.521C36.9479 682.406 37.7448 684.323 38.6927 686.167C42.3281 693.156 46.5312 699.839 51.1562 706.177C51.9896 707.354 52.8698 708.49 53.7448 709.63C44.0156 703.375 36.6614 693.75 32.901 682.979C29.6302 685.464 26.4271 688.073 23.2708 690.781C27.7916 696.292 32.9375 701.307 38.6823 705.635ZM28.2916 726.417C25.8229 726.417 23.8229 728.417 23.8229 730.88V998.984C23.8229 1001.45 25.8229 1003.45 28.2916 1003.45C30.7604 1003.45 32.7604 1001.45 32.7604 998.984V730.88C32.7604 728.417 30.7604 726.417 28.2916 726.417ZM28.2916 271.104C30.7604 271.104 32.7604 269.104 32.7604 266.635V5.65625C32.7604 3.1875 30.7604 1.1875 28.2916 1.1875C25.8229 1.1875 23.8229 3.1875 23.8229 5.65625V266.635C23.8229 269.104 25.8229 271.104 28.2916 271.104ZM727.547 973.344C731.172 975.682 734.547 978.365 737.432 981.464C740.307 984.547 742.703 988.078 744.203 991.885C745.714 995.708 746.406 999.865 746.062 1003.87C745.896 1005.88 745.458 1007.83 744.755 1009.67C744.573 1010.13 744.401 1010.58 744.172 1011.02L743.854 1011.68C743.745 1011.9 743.604 1012.1 743.484 1012.32C743.219 1012.73 743 1013.18 742.714 1013.58L741.839 1014.77C740.599 1016.31 739.151 1017.69 737.547 1018.91C735.922 1020.1 734.13 1021.11 732.255 1021.96C728.479 1023.65 724.339 1024.63 720.146 1025.1C711.734 1025.99 702.865 1025.24 696 1021.81C695.141 1021.39 694.323 1020.91 693.552 1020.42C693.172 1020.17 692.802 1019.9 692.427 1019.64L691.359 1018.8C691.021 1018.5 690.672 1018.22 690.349 1017.92C690.042 1017.6 689.714 1017.3 689.422 1016.97C688.833 1016.32 688.266 1015.69 687.797 1014.98C685.849 1012.24 684.911 1009.17 685.38 1006.6C685.542 1005.71 685.604 1004.81 685.589 1003.9C680.417 1010.31 674.911 1016.45 668.807 1022.14C671.422 1024.64 674.214 1026.72 677.073 1028.34C678.333 1029.04 679.583 1029.69 680.865 1030.26C682.141 1030.82 683.432 1031.31 684.714 1031.77L686.656 1032.39C687.312 1032.56 687.958 1032.75 688.609 1032.91C689.917 1033.23 691.208 1033.48 692.49 1033.69C697.62 1034.51 702.609 1034.52 707.396 1034.13C709.792 1033.93 712.141 1033.61 714.453 1033.23C716.755 1032.84 719.062 1032.42 721.354 1031.85C725.932 1030.75 730.437 1029.25 734.714 1027.09C736.839 1025.98 738.917 1024.73 740.844 1023.24C742.766 1021.73 744.531 1019.98 746.047 1018.02L747.12 1016.49C747.469 1015.97 747.75 1015.42 748.062 1014.88C748.214 1014.6 748.38 1014.34 748.516 1014.06L748.906 1013.21C749.182 1012.65 749.401 1012.06 749.609 1011.48C750.464 1009.14 750.948 1006.69 751.104 1004.24C751.422 999.354 750.49 994.505 748.646 990.078C746.776 985.62 743.979 981.708 740.719 978.339C737.453 974.969 733.74 972.141 729.828 969.724C728.849 969.125 727.865 968.531 726.849 968L723.802 966.422L722.281 965.635C721.766 965.385 721.234 965.177 720.714 964.948L717.568 963.589L716.781 963.25L715.979 962.964L715.292 962.719C714.484 963.839 713.677 964.958 712.88 966.083C718 968.052 722.927 970.469 727.547 973.344ZM601.781 994.427C596.089 994.25 590.406 993.896 584.724 993.526C584.536 995.359 584.365 997.198 584.208 999.031C589.349 998.406 594.469 997.578 599.505 996.365C600.568 996.109 601.875 995.516 601.781 994.427ZM515.839 981.63C519.083 979.589 522.349 977.594 525.635 975.646C528.932 973.714 532.271 971.875 535.635 970.094C542.396 966.609 549.286 963.307 556.417 961.234C559.979 960.203 563.599 959.49 567.219 959.229C569.031 959.115 570.839 959.13 572.63 959.245C574.411 959.396 576.182 959.651 577.922 960.052C581.885 960.953 585.635 962.599 589.109 964.734C589.531 962.729 590.01 960.719 590.49 958.708C588.719 957.807 586.896 957.021 585.026 956.339C583.083 955.656 581.094 955.104 579.078 954.682C577.052 954.281 575 954.042 572.943 953.927C570.891 953.854 568.839 953.901 566.812 954.083C562.76 954.453 558.802 955.313 554.995 956.49C551.193 957.677 547.51 959.12 543.932 960.729C540.349 962.323 536.891 964.094 533.422 965.87C526.542 969.495 519.839 973.411 513.245 977.438C510.198 979.297 507.198 981.177 504.187 983.063C504.87 984.635 505.578 986.193 506.318 987.74C509.49 985.698 512.661 983.63 515.839 981.63ZM196.432 929.078C196.797 931.01 197.474 933.042 198.615 934.938C199.74 936.844 201.245 938.432 202.802 939.714C204.365 941 205.979 941.948 207.531 942.766C209.089 943.583 210.583 944.229 212 944.828L214.094 945.693C214.828 945.984 215.615 946.281 216.479 946.563C218.203 947.12 220.255 947.641 222.693 947.703C223.901 947.734 225.214 947.615 226.469 947.359C227.719 947.099 228.906 946.708 230 946.245C232.167 945.302 233.932 944.12 235.437 942.99C236.932 941.849 238.187 940.729 239.312 939.74L239.391 939.672C239.734 939.365 240.057 939.026 240.354 938.656C243.255 935.031 242.677 929.745 239.052 926.839C235.432 923.938 230.141 924.521 227.24 928.141C226.375 929.219 225.62 930.151 224.953 930.891C224.62 931.25 224.307 931.578 224.031 931.849C223.76 932.104 223.51 932.318 223.307 932.479L222.807 932.849C222.672 932.932 222.557 933.016 222.328 933.078C221.896 933.208 221.094 933.219 220.047 933.042C219.526 932.958 218.943 932.839 218.312 932.688L216.328 932.188C215.031 931.854 213.823 931.526 212.766 931.156C211.714 930.781 210.776 930.38 210.047 929.948C209.312 929.51 208.729 929.073 208.292 928.563C207.396 927.589 206.708 925.781 206.583 923.599C206.443 921.406 206.719 919.073 207.401 916.823C208.729 912.286 211.74 908.047 215.677 904.969C217.651 903.432 219.859 902.172 222.219 901.307C224.599 900.464 227.047 900.036 229.661 900.026C234.87 899.99 240.323 901.453 245.578 903.365C250.812 905.313 255.818 907.969 260.484 911.141C264.323 913.776 267.969 916.719 271.333 919.969C273.745 923.964 276.385 927.797 279.151 931.484C282.844 936.411 286.719 941.115 290.609 945.781C291.552 947.146 292.62 948.411 293.776 949.568C298.75 955.479 303.812 961.333 309.062 967.052C314.318 972.76 319.771 978.318 325.49 983.625C326.901 984.969 328.38 986.245 329.833 987.547C331.182 988.745 332.568 989.896 333.937 991.068C335.708 998.313 339.583 1005.07 344.094 1011.05C347.141 1015.09 350.531 1018.83 354.182 1022.27C355.234 1019.14 356.13 1015.78 357.083 1012.34C350.318 1008.27 344.411 1002.68 340.104 995.984C341.24 996.865 342.38 997.745 343.557 998.573C348.281 1002.02 353.26 1005.14 358.354 1008.06C359.021 1005.92 359.812 1003.81 360.719 1001.73C349.635 995.375 339.318 987.625 329.807 978.917C324.187 973.813 318.792 968.427 313.562 962.865C312.318 961.542 311.083 960.203 309.859 958.859C310.255 958.995 310.651 959.135 311.052 959.266C313.083 959.927 315.12 960.505 317.177 961.01C319.234 961.531 321.318 961.953 323.411 962.323C327.604 963.01 331.854 963.474 336.13 963.417C340.401 963.411 344.693 962.917 348.87 961.896C353.057 960.891 357.089 959.271 360.849 957.203C364.615 955.13 368.135 952.656 371.318 949.745C372.927 948.313 374.396 946.729 375.818 945.099C377.219 943.453 378.495 941.698 379.672 939.87C381.964 936.177 383.776 932.12 384.708 927.776C385.156 925.604 385.453 923.38 385.411 921.135L385.417 920.297L385.354 919.453L385.214 917.76C385.151 917.198 385.031 916.646 384.937 916.089C384.828 915.536 384.771 914.969 384.599 914.432C382.401 905.646 376.292 898.089 368.193 893.818L366.635 893.078C366.375 892.958 366.12 892.823 365.854 892.719L365.042 892.422L363.411 891.828C362.854 891.667 362.292 891.531 361.729 891.38C360.615 891.047 359.448 890.927 358.297 890.724L357.859 890.646L357.422 890.615L356.547 890.536C355.964 890.495 355.37 890.411 354.781 890.401L353.01 890.375L352.12 890.365L351.234 890.411C350.641 890.448 350.047 890.484 349.443 890.505C348.844 890.557 348.26 890.656 347.656 890.719C346.443 890.828 345.271 891.094 344.062 891.328C343.448 891.422 342.875 891.615 342.276 891.771C341.682 891.938 341.073 892.083 340.484 892.276C335.776 893.833 331.203 896.443 327.542 900.25C325.76 902.188 324.104 904.328 322.937 906.792C321.703 909.203 320.948 911.911 320.698 914.646C320.448 917.505 321.839 920.385 324.49 921.896C328.12 923.964 332.74 922.693 334.807 919.063L335.698 917.495C335.885 917.167 336.021 916.833 336.161 916.505C336.281 916.172 336.385 915.839 336.547 915.51C336.693 915.188 336.823 914.854 336.937 914.516C337.042 914.177 337.234 913.859 337.365 913.526C337.87 912.167 338.578 910.844 339.255 909.432C340.047 908.089 340.865 906.677 341.901 905.365C342.875 903.979 344.089 902.76 345.37 901.531C347.984 899.161 351.359 897.427 354.979 896.932C355.432 896.875 355.88 896.88 356.339 896.849C356.792 896.839 357.25 896.771 357.703 896.833C358.609 896.932 359.531 896.958 360.422 897.193L361.776 897.469L363.104 897.88L363.771 898.083C363.995 898.156 364.203 898.26 364.422 898.344L365.719 898.875C369.13 900.427 372.224 902.781 374.76 905.635C377.292 908.5 379.167 911.938 380.266 915.583C380.437 916.031 380.495 916.505 380.615 916.969C380.708 917.432 380.839 917.896 380.906 918.365L381.073 919.781L381.156 920.495L381.172 921.214C381.276 923.135 381.078 925.073 380.755 926.99L380.469 928.422L380.089 929.839C379.974 930.313 379.812 930.776 379.651 931.24C379.484 931.703 379.359 932.177 379.161 932.63C378.458 934.474 377.542 936.234 376.552 937.958C372.469 944.813 366.312 950.438 359.302 954.417C355.781 956.385 352.031 957.922 348.125 958.885C344.214 959.833 340.172 960.307 336.12 960.286C328.005 960.297 319.891 958.531 312.198 955.885C309.234 954.839 306.365 953.563 303.719 952C301.896 949.927 300.078 947.844 298.271 945.745C293.281 939.911 288.276 934.083 283.677 928.068C279.068 922.052 274.885 915.771 271.62 909.068C268.354 902.318 265.729 895.182 263.625 887.917C261.526 880.641 259.937 873.214 258.917 865.724C257.922 858.229 257.51 850.667 257.964 843.182C258.422 835.714 259.766 828.281 262.547 821.479L263.667 818.969L264.922 816.542C265.797 814.958 266.792 813.464 267.891 812.057C270.094 809.255 272.812 806.911 275.917 805.198C279.021 803.479 282.495 802.411 286.094 801.88C287.891 801.62 289.724 801.49 291.573 801.453C293.432 801.438 295.286 801.526 297.229 801.625C297.693 801.656 298.276 801.661 298.667 801.698C299.099 801.734 299.531 801.729 299.958 801.807C300.818 801.911 301.672 802.063 302.51 802.297C304.187 802.75 305.812 803.427 307.333 804.302C310.375 806.052 313 808.557 315 811.458C316.995 814.37 318.38 817.688 318.937 821.078C319.495 824.464 319.24 827.917 318.026 830.943C317.896 831.328 317.714 831.688 317.542 832.057C317.385 832.432 317.177 832.781 316.984 833.135C316.578 833.833 316.12 834.5 315.62 835.135C314.63 836.406 313.443 837.526 312.135 838.484C309.536 840.411 306.427 841.646 303.292 842.156C300.151 842.661 296.958 842.406 294.26 841.438C291.557 840.469 289.396 838.792 288.26 836.734C287.359 835.089 285.979 833.693 284.187 832.771C279.391 830.292 273.49 832.172 271.016 836.969C268.536 841.766 270.417 847.667 275.214 850.146L277.344 851.245C282.365 853.839 287.661 854.943 292.594 854.906C297.536 854.875 302.172 853.797 306.375 852.005C310.578 850.214 314.37 847.656 317.49 844.427C319.047 842.813 320.411 841.01 321.552 839.083C322.682 837.141 323.557 835.063 324.156 832.917C324.74 830.766 325.021 828.557 325.031 826.38C325.042 824.198 324.75 822.047 324.255 819.974C323.755 817.901 323.016 815.906 322.099 814.016C321.182 812.125 320.078 810.339 318.807 808.688C316.281 805.38 313.099 802.563 309.417 800.557C307.578 799.557 305.615 798.766 303.568 798.245C302.547 797.99 301.505 797.781 300.453 797.661C299.932 797.573 299.401 797.568 298.87 797.526C298.307 797.484 297.922 797.49 297.427 797.458C293.604 797.245 289.531 797.135 285.516 797.641C281.495 798.156 277.464 799.297 273.792 801.245C270.115 803.182 266.844 805.906 264.234 809.104C262.932 810.708 261.76 812.406 260.74 814.177C260.24 815.063 259.792 815.964 259.318 816.859L258.062 819.615C254.932 827.057 253.495 834.99 252.964 842.859C252.453 850.74 252.849 858.62 253.839 866.391C254.854 874.156 256.458 881.828 258.589 889.359C260.734 896.88 263.339 904.281 266.714 911.422C266.745 911.484 266.776 911.547 266.807 911.609C265.333 910.526 263.849 909.453 262.333 908.422C257.526 905.13 252.49 902.12 247.151 899.62C244.464 898.391 241.776 897.229 238.911 896.286C236.057 895.344 233.057 894.62 229.927 894.339C226.812 894.031 223.484 894.266 220.365 895.047C217.219 895.818 214.214 897.109 211.453 898.807C205.943 902.214 201.365 907.26 198.599 913.458C197.219 916.557 196.344 919.932 196.115 923.474C196.005 925.26 196.078 927.13 196.432 929.078ZM363.568 1011.04C370.573 1014.64 377.896 1017.7 385.479 1020.01C387.359 1020.63 389.297 1021.07 391.208 1021.59C392.161 1021.86 393.141 1022.04 394.109 1022.26L397.026 1022.88L399.969 1023.38C400.948 1023.53 401.927 1023.72 402.917 1023.81C404.896 1024.02 406.87 1024.32 408.865 1024.4C416.807 1024.94 424.875 1024.55 432.682 1023.04C438.833 1021.92 444.833 1020.22 450.667 1018.14C458.708 1017.31 466.76 1016.49 474.807 1015.51C483.693 1014.43 492.568 1013.11 501.38 1011.4C504.26 1010.84 507.135 1010.23 510 1009.58C512.214 1010.03 514.453 1010.32 516.693 1010.61C516.031 1008.64 515.297 1006.7 514.49 1004.8C509.922 1005.9 505.323 1006.87 500.693 1007.7C488.964 1009.75 477.104 1011.04 465.193 1012.02C476.094 1006.8 486.396 1000.54 496.417 994.094C499.724 991.958 503.021 989.859 506.318 987.74C505.578 986.193 504.87 984.635 504.187 983.063C500.672 985.266 497.141 987.474 493.615 989.625C487.068 993.63 480.5 997.547 473.776 1001.09C467.062 1004.67 460.182 1007.86 453.141 1010.55C451.37 1011.18 449.609 1011.86 447.823 1012.42C446.927 1012.71 446.042 1013.03 445.141 1013.29L442.448 1014.08C438.839 1015.07 435.208 1015.96 431.531 1016.55C429.703 1016.91 427.854 1017.08 426.016 1017.34L423.24 1017.58L421.854 1017.7L420.469 1017.74L417.693 1017.84C416.766 1017.89 415.839 1017.83 414.911 1017.83C413.99 1017.81 413.062 1017.81 412.135 1017.77L409.359 1017.58C407.505 1017.5 405.667 1017.21 403.818 1017.01C402.896 1016.92 401.979 1016.72 401.062 1016.58L398.312 1016.13L395.578 1015.54C394.672 1015.34 393.75 1015.18 392.854 1014.92C391.052 1014.43 389.234 1014.03 387.458 1013.44C384.703 1012.6 381.969 1011.67 379.271 1010.65C379.406 1010.66 379.536 1010.67 379.667 1010.68C381.891 1010.81 384.115 1010.91 386.328 1010.98C390.755 1011.13 395.198 1011.32 399.661 1011.26C401.891 1011.24 404.125 1011.15 406.354 1010.99C407.469 1010.89 408.589 1010.83 409.698 1010.68L411.37 1010.48L413.036 1010.23C417.474 1009.57 421.87 1008.41 426.052 1006.67C426.276 1006.58 426.5 1006.47 426.724 1006.38C435.458 1004.84 443.896 1001.2 451.255 995.896C452.484 995.01 453.635 994.005 454.807 993.026C453.552 991.359 452.073 989.818 450.484 988.354C449.536 989.38 448.609 990.427 447.578 991.385C446.427 992.458 445.224 993.49 443.979 994.469C445.25 993.266 446.5 992.042 447.703 990.776C448.552 989.891 449.359 988.974 450.177 988.073C449.437 987.396 448.687 986.729 447.922 986.078C447.146 987 446.396 987.938 445.594 988.833C442.693 992.104 439.62 995.214 436.229 997.922C433.849 999.849 431.307 1001.58 428.625 1003.04C427.672 1003.38 426.703 1003.7 425.729 1003.99L425.724 1004C425.312 1004.12 425.01 1004.44 424.885 1004.83L423.719 1005.33L422.193 1005.89C421.182 1006.29 420.13 1006.56 419.094 1006.88C417 1007.44 414.875 1007.92 412.724 1008.25C408.417 1008.95 404.031 1009.17 399.646 1009.18C395.255 1009.19 390.854 1009.01 386.443 1008.7C382.031 1008.41 377.646 1008.11 373.344 1007.42C372.354 1007.26 371.365 1007.08 370.385 1006.88C369.125 1006.29 367.875 1005.69 366.635 1005.06C364.62 1004.03 362.682 1002.86 360.719 1001.73C359.812 1003.81 359.021 1005.92 358.354 1008.06C360.089 1009.05 361.786 1010.11 363.568 1011.04ZM447.937 1044.21C428.365 1044.69 407.047 1044.61 391.531 1032.32C390.187 1031.26 388.865 1030.08 387.25 1029.56C385.156 1028.88 382.901 1029.37 380.708 1029.39C376.687 1029.43 372.672 1027.75 369.812 1024.85C373.797 1024.24 377.583 1022.39 380.531 1019.6C372.286 1019.24 364.208 1016.63 357.083 1012.34C356.13 1015.78 355.234 1019.14 354.182 1022.27C378.844 1045.51 416.01 1054.72 447.937 1044.21ZM452.229 985.833C453.458 984.464 454.661 983.083 455.859 981.698C454.276 984.052 452.432 986.245 450.484 988.354C452.073 989.818 453.552 991.359 454.807 993.026C460.74 988.052 465.88 981.995 469.62 974.958C471.854 970.766 473.557 966.422 475.073 962.161C475.115 962.052 475.146 961.948 475.187 961.844C476.766 960.615 478.38 959.458 480.031 958.38C480.937 957.844 481.833 957.297 482.74 956.776C483.651 956.26 484.604 955.813 485.531 955.333C493.078 951.661 501.339 949.646 509.781 948.635C511.906 948.396 514.031 948.198 516.172 948.047C517.24 947.969 518.323 947.927 519.401 947.875C520.474 947.823 521.557 947.781 522.646 947.766C526.984 947.646 531.375 947.729 535.849 947.917C536.984 947.964 538.182 947.813 539.328 947.448C544.568 945.755 547.443 940.141 545.75 934.906C544.062 929.667 538.448 926.792 533.208 928.479L533.198 928.484C528.901 929.87 524.526 931.182 520.13 932.5C517.943 933.167 515.734 933.833 513.536 934.552C511.333 935.234 509.141 936 506.948 936.755C498.203 939.849 489.536 943.656 481.776 948.922C480.823 949.604 479.854 950.245 478.932 950.958C479.083 950.542 479.224 950.115 479.375 949.703C480.818 945.714 482.37 941.927 484.245 938.589C486.109 935.25 488.292 932.396 490.833 930.167C491.078 929.948 491.344 929.682 491.568 929.432C494.427 926.161 494.099 921.182 490.823 918.323C487.552 915.458 482.578 915.792 479.714 919.063L479.542 919.255C475.969 923.344 473.375 928.005 471.526 932.609C469.667 937.229 468.469 941.807 467.464 946.245C465.797 953.667 464.651 960.802 462.625 967.385C462.443 967.604 462.26 967.828 462.078 968.052C459.266 971.542 456.635 975.13 453.917 978.609C451.958 981.151 449.969 983.641 447.922 986.078C448.687 986.729 449.437 987.396 450.177 988.073C450.859 987.323 451.557 986.589 452.229 985.833ZM547.203 1009.94C545.083 1008.4 542.839 1007.05 540.594 1005.7C545.146 1007.69 550.068 1008.79 555.026 1009.02C554.651 1009.39 554.281 1009.79 553.943 1010.21C549.24 1016.11 550.208 1024.71 556.115 1029.42L557.687 1030.67C561.76 1033.92 565.979 1036.49 570.411 1038.54C574.276 1040.3 578.323 1041.57 582.521 1042.4C582.568 1035.14 582.677 1027.88 582.932 1020.61C582.646 1020.36 582.323 1020.15 582.047 1019.88C579.953 1017.84 578.177 1015.48 577.057 1013.04C576.193 1011.18 574.87 1009.41 573.151 1008.04C572.443 1007.48 571.703 1007.01 570.932 1006.6C571.729 1006.32 572.516 1006.01 573.292 1005.67C568.443 1003.72 563.589 1001.77 558.74 999.813C567.229 1000.39 575.76 1000.06 584.208 999.031C584.365 997.198 584.536 995.359 584.724 993.526C575.859 992.948 567 992.214 558.177 991.167C558.224 991.141 558.276 991.115 558.323 991.089C560.255 989.943 562.167 988.766 564.057 987.568C567.844 985.177 571.562 982.719 575.323 980.365C579.078 978.005 582.87 975.74 586.797 973.755C587.01 973.651 587.234 973.568 587.443 973.464C587.651 972.266 587.885 971.073 588.109 969.88C587.229 970.302 586.318 970.667 585.448 971.115C583.432 972.141 581.458 973.234 579.516 974.359C577.562 975.479 575.641 976.641 573.734 977.823C566.115 982.526 558.792 987.578 550.937 991.568C543.13 995.651 534.911 998.948 526.474 1001.55C522.521 1002.77 518.521 1003.83 514.49 1004.8C515.297 1006.7 516.031 1008.64 516.693 1010.61C526.823 1011.96 537.156 1011.8 547.203 1009.94ZM589.109 964.734C589.531 962.729 590.01 960.719 590.49 958.708C590.552 958.74 590.62 958.76 590.682 958.797C592.5 959.75 594.266 960.797 595.953 961.964C597.307 962.906 598.625 963.906 599.891 964.964C603.479 963.724 607.13 962.656 610.828 961.781C615.229 960.745 619.677 959.979 624.125 959.37C626.682 959.016 629.234 958.714 631.792 958.432C634.651 957.974 637.547 957.667 640.474 957.542C643.917 957.203 647.365 956.87 650.828 956.615C659.75 955.932 668.734 955.536 677.74 955.849C680.63 955.958 683.531 956.151 686.422 956.417C686.802 956.12 687.286 955.953 687.807 955.984C687.911 955.995 688.026 956.01 688.12 956.031C689.734 956.396 691.458 956.438 693.187 956.167C694.917 955.896 696.651 955.37 698.339 954.667C700.031 953.974 701.677 953.099 703.302 952.161C704.917 951.208 706.552 950.229 708.031 949.151C709.526 948.083 710.885 946.88 711.958 945.49C712.484 944.786 712.969 944.052 713.37 943.266C713.766 942.469 714.099 941.646 714.38 940.797C714.932 939.094 715.229 937.297 715.365 935.484C715.5 933.667 715.458 931.813 715.286 929.995C714.964 926.365 713.964 922.818 712.078 919.995C710.182 917.203 707.375 915.021 704.354 914.688C703.594 914.594 702.807 914.573 702.005 914.651C701.203 914.719 700.391 914.849 699.568 915.063C698.75 915.255 697.917 915.51 697.125 915.828C696.328 916.12 695.557 916.49 694.818 916.885C694.073 917.286 693.365 917.745 692.693 918.234C692.359 918.484 692.036 918.745 691.719 919.005C691.401 919.276 691.094 919.563 690.87 919.818C690.401 920.344 690.172 920.87 690.312 921.182C690.391 921.344 690.542 921.422 690.771 921.432C690.823 921.432 690.896 921.427 690.953 921.417C691.01 921.406 691.12 921.318 691.193 921.271C691.354 921.151 691.521 921.042 691.672 920.911C690.297 924.995 685.88 927.193 681.797 925.818C677.719 924.448 675.521 920.031 676.891 915.948C677.193 915.37 677.547 914.818 677.927 914.276C678.115 914.021 678.344 913.719 678.536 913.516C678.724 913.307 678.917 913.094 679.115 912.911C679.911 912.146 680.724 911.531 681.516 911.068C683.104 910.125 684.536 909.682 685.781 909.37C686.411 909.208 686.979 909.115 687.542 909.016C688.109 908.917 688.672 908.823 689.234 908.75C690.354 908.583 691.469 908.469 692.568 908.38C693.672 908.292 694.766 908.26 695.849 908.234C696.937 908.234 698.005 908.255 699.083 908.313C700.167 908.391 701.266 908.484 702.37 908.667C703.469 908.859 704.578 909.109 705.667 909.474C707.865 910.234 709.865 911.427 711.505 912.891C713.151 914.354 714.474 916.089 715.479 917.958C717.516 921.719 718.208 925.849 718.354 929.802C718.443 933.75 718.135 937.771 716.797 941.615C716.453 942.573 716.047 943.51 715.568 944.411C715.073 945.313 714.521 946.182 713.891 946.995C712.609 948.615 711.073 949.953 709.49 951.135C707.891 952.313 706.286 953.349 704.646 954.391C703.005 955.422 701.323 956.422 699.536 957.302C699.042 957.542 698.536 957.771 698.026 957.995C700.224 958.401 702.411 958.87 704.583 959.406C705.698 959.635 706.786 959.969 707.875 960.292L711.146 961.255C712.229 961.609 713.297 962.01 714.37 962.385L715.292 962.719C714.484 963.839 713.677 964.958 712.88 966.083C709.859 964.922 706.797 963.88 703.641 963.099C695.167 960.911 686.401 959.797 677.594 959.37C671.193 959.073 664.76 959.151 658.328 959.438C662.703 960.661 666.979 962.344 671.026 964.979C673.068 966.323 675.042 967.927 676.781 969.885C678.521 971.833 680.026 974.172 681.026 976.75C682.031 979.307 682.536 981.927 682.786 984.422C682.906 985.677 682.969 986.906 682.99 988.104C683 988.703 683 989.297 682.995 989.885C682.99 990.443 682.984 991.188 682.844 992.156C682.724 992.932 682.5 993.901 682.021 994.922C682.443 995.38 682.839 995.87 683.198 996.401C684.771 998.688 685.536 1001.3 685.589 1003.9C680.417 1010.31 674.911 1016.45 668.807 1022.14C666.859 1020.27 664.99 1018.19 663.323 1015.76L660.661 1011.89C658.943 1009.4 658.172 1006.53 658.26 1003.72C657.745 1003.64 657.224 1003.55 656.708 1003.45C655.964 1003.27 655.234 1003.1 654.453 1002.85C652.927 1002.35 651.474 1001.7 650.099 1000.9C647.359 999.302 644.906 997.141 642.964 994.365C641.026 991.609 639.625 988.115 639.396 984.318L639.281 982.484C639 977.896 642.495 973.943 647.089 973.667C651.677 973.385 655.625 976.88 655.906 981.469C655.958 982.292 655.875 983.13 655.698 983.896C655.573 984.422 655.62 985.167 656.016 986.036C656.396 986.901 657.109 987.828 658 988.557C658.443 988.927 658.932 989.245 659.427 989.505C659.656 989.63 659.969 989.745 660.26 989.875C660.568 989.974 660.875 990.094 661.203 990.172C662.495 990.536 663.984 990.667 665.562 990.573C667.141 990.484 668.797 990.151 670.443 989.635C670.646 989.573 670.849 989.495 671.057 989.427L671.625 989.229C671.729 989.193 671.818 989.161 671.891 989.135C671.891 989.13 671.891 989.13 671.891 989.13C671.958 988.641 672.021 988.151 672.073 987.677C672.182 986.719 672.255 985.786 672.281 984.88C672.344 983.073 672.224 981.375 671.849 979.833C671.151 976.802 669.12 973.88 666.25 971.427C663.401 968.969 659.823 966.969 656.109 965.417C652.37 963.859 648.365 962.823 644.255 962.182C640.24 961.573 636.12 961.385 631.984 961.521C629.495 961.786 627.01 962.073 624.542 962.406C620.156 963 615.802 963.74 611.521 964.74C608.469 965.448 605.453 966.297 602.474 967.266C607.87 972.349 612.229 978.453 615.526 985.109C616.448 986.938 617.26 988.828 617.995 990.75C618.755 992.667 619.375 994.641 619.932 996.646C620.198 997.656 620.484 998.667 620.677 999.698L621 1001.24L621.255 1002.8C621.448 1003.84 621.531 1004.9 621.661 1005.95C621.75 1007.02 621.823 1008.08 621.87 1009.16C621.979 1013.45 621.625 1017.89 620.276 1022.35C619.911 1023.46 619.568 1024.57 619.073 1025.67C618.828 1026.21 618.625 1026.78 618.339 1027.31L617.469 1028.92C617.198 1029.47 616.833 1029.97 616.49 1030.49C616.135 1031.01 615.807 1031.54 615.417 1032.03C614.604 1032.98 613.833 1034 612.896 1034.86C609.365 1038.53 604.49 1041.14 599.443 1042.38C596.917 1042.99 594.349 1043.3 591.818 1043.36C589.286 1043.42 586.797 1043.2 584.359 1042.83C583.729 1042.73 583.141 1042.53 582.521 1042.4C582.568 1035.14 582.677 1027.88 582.932 1020.61C583.74 1021.34 584.547 1022.07 585.427 1022.68C586.615 1023.54 587.875 1024.26 589.156 1024.87C590.437 1025.49 591.75 1025.95 593.057 1026.29C594.37 1026.63 595.672 1026.81 596.943 1026.81C599.484 1026.84 601.943 1026.22 604.151 1024.74C606.385 1023.35 608.214 1021.1 609.599 1018.36C609.792 1018.03 609.906 1017.65 610.068 1017.3C610.214 1016.93 610.396 1016.58 610.516 1016.2C610.75 1015.44 611.047 1014.69 611.219 1013.88L611.521 1012.68L611.74 1011.45C611.911 1010.63 611.964 1009.78 612.078 1008.94C612.396 1005.54 612.193 1002.01 611.62 998.536C611.005 995.047 609.995 991.578 608.625 988.245C607.255 984.911 605.526 981.708 603.49 978.724C601.458 975.724 599.12 972.938 596.516 970.432C596.26 970.188 596 969.943 595.734 969.708C592.917 970.833 590.156 972.104 587.443 973.464C587.651 972.266 587.885 971.073 588.109 969.88C589.786 969.078 591.453 968.255 593.172 967.536C591.87 966.521 590.505 965.599 589.109 964.734ZM671.823 989.578C671.812 989.594 671.807 989.609 671.797 989.625C671.625 989.984 671.646 990.177 671.698 990.073C671.734 990.016 671.776 989.839 671.823 989.578ZM318.849 1016.97H50.7448C48.276 1016.97 46.276 1018.97 46.276 1021.44C46.276 1023.91 48.276 1025.91 50.7448 1025.91H318.849C321.318 1025.91 323.318 1023.91 323.318 1021.44C323.318 1018.97 321.318 1016.97 318.849 1016.97ZM783.099 1025.91H1044.08C1046.55 1025.91 1048.55 1023.91 1048.55 1021.44C1048.55 1018.97 1046.55 1016.97 1044.08 1016.97H783.099C780.63 1016.97 778.63 1018.97 778.63 1021.44C778.63 1023.91 780.63 1025.91 783.099 1025.91Z" fill="#C77C77"/>
</g>
</svg>
